<?xml version="1.0" encoding="utf-8"?>
<!-- Generator: Adobe Illustrator 22.1.0, SVG Export Plug-In . SVG Version: 6.00 Build 0)  -->
<svg version="1.1" id="图层_1" xmlns="http://www.w3.org/2000/svg" xmlns:xlink="http://www.w3.org/1999/xlink" x="0px" y="0px"
	 viewBox="0 0 1414 900" style="enable-background:new 0 0 1414 900;" xml:space="preserve">
<style type="text/css">
	.st0{clip-path:url(#SVGID_2_);fill:#FDFDFD;}
	.st1{clip-path:url(#SVGID_2_);fill:#DEF6F3;}
	.st2{clip-path:url(#SVGID_2_);}
	.st3{fill:#3BB54A;}
	.st4{fill:#F4C843;}
	.st5{fill:#FC453A;}
	.st6{fill:#166DCA;}
	.st7{fill:#FE473B;}
	.st8{fill:#263463;}
	.st9{fill:#024C3B;}
	.st10{clip-path:url(#SVGID_2_);fill:#FCFCFC;}
	.st11{clip-path:url(#SVGID_4_);fill:#DD4E46;}
	.st12{clip-path:url(#SVGID_4_);fill:#AB9C5A;}
	.st13{clip-path:url(#SVGID_4_);}
	.st14{fill:#139271;}
	.st15{fill:#177F64;}
	.st16{clip-path:url(#SVGID_4_);fill:#139271;}
	.st17{fill:#F0F5F4;}
	.st18{clip-path:url(#SVGID_6_);}
	.st19{fill:#DD4E46;}
	.st20{clip-path:url(#SVGID_4_);fill:#FCFCFC;}
	.st21{clip-path:url(#SVGID_4_);fill:#E8F8F6;}
	.st22{clip-path:url(#SVGID_8_);}
	.st23{fill:#139272;}
	.st24{clip-path:url(#SVGID_4_);fill:#139272;}
	.st25{clip-path:url(#SVGID_10_);}
	.st26{fill:#2F2C2B;}
	.st27{fill:#5E6EBC;}
	.st28{fill:#F7C96F;}
	.st29{fill:#8098FF;}
	.st30{fill:#667DD3;}
	.st31{fill:#2F2C2C;}
	.st32{fill:#333032;}
	.st33{fill:none;}
	.st34{fill:#3C3843;}
	.st35{fill:#38343B;}
	.st36{fill:#343033;}
	.st37{fill:#C33D32;}
	.st38{fill:#F2F3F2;}
	.st39{fill:#DDDEDD;}
	.st40{fill:#A82D1F;}
	.st41{fill:#B9BAB9;}
	.st42{fill:#8696EA;}
	.st43{clip-path:url(#SVGID_12_);}
	.st44{fill:#FEFEFD;}
	.st45{fill:#6BBAAD;}
	.st46{fill:#6ABAAC;}
	.st47{fill:#FDFCFC;}
	.st48{fill:#FDFDFD;}
	.st49{fill:#FCFCFC;}
	.st50{fill:#FEFEFE;}
	.st51{fill:#FCFDFD;}
	.st52{fill:#F5FCFB;}
	.st53{fill:#E8F8F6;}
	.st54{fill:#DEF6F3;}
	.st55{fill:#F9E9E7;}
	.st56{fill:#F8E1DE;}
	.st57{fill:#FDF6F3;}
	.st58{fill:#EAF9F6;}
	.st59{fill:#FCF8F6;}
	.st60{fill:#FBE8E6;}
	.st61{fill:#F9F5F3;}
	.st62{clip-path:url(#SVGID_4_);fill:#FCF8F6;}
	.st63{clip-path:url(#SVGID_4_);fill:none;}
	.st64{fill:#FAD8B4;}
</style>
<g>
	<defs>
		<rect id="SVGID_3_" x="-1.7" y="-4.5" width="1420.4" height="908"/>
	</defs>
	<clipPath id="SVGID_2_">
		<use xlink:href="#SVGID_3_"  style="overflow:visible;"/>
	</clipPath>
	<path style="clip-path:url(#SVGID_2_);fill:#DD4E46;" d="M463.4,643.2c-161-38.5-302.8,98-273.6,257.9h437.2
		c5.8-30.6,5.4-63.3-2.6-96.9C605.3,724.6,542.9,662.2,463.4,643.2z"/>
	<path style="clip-path:url(#SVGID_2_);fill:#AB9C5A;" d="M1020.3-10.9c-0.1,37-0.1,74-0.3,111c0,4.3,1.8,5.5,5.7,5.5
		c10.1-0.1,20.3,0.1,30.4-0.1c4.5-0.1,6.4,1.1,6.3,6c-0.3,15.9-0.1,31.7-0.1,47.6c0,1.6,0.7,3.7-1.2,4.6c-1.8,0.8-3.2-0.8-4.3-1.9
		c-4.2-4.1-8-3.8-12.1,0.3c-3.7,3.7-7.4,3.4-11-0.3c-3.8-4-7.6-3.9-11.5,0c-3.9,3.9-7.8,3.7-11.5-0.3c-3.6-3.8-7.2-4.1-10.9-0.2
		c-3.9,4.2-7.9,4.5-11.9,0.2c-3.9-4.2-7.6-3.8-11.4,0.2c-1.2,1.3-2.6,3.3-4.8,2.1c-1.7-1-1.1-3-1.1-4.6c-0.1-16.1,0.1-32.1-0.1-48.2
		c0-4.3,1.7-5.4,5.7-5.3c10.4,0.2,20.7,0,31.1,0.1c3.4,0,5.7-0.7,5.7-4.8c-0.2-37.2-0.2-74.4-0.3-111.6
		C1015.3-10.9,1017.8-10.9,1020.3-10.9z"/>
	<g class="st2">
		<path class="st14" d="M533-16.9c0.1,6.8,0.4,23.5,0.2,30.3c-0.1,4.2,1.4,5.4,5.5,5.3c10.4-0.3,20.7,0.1,31.1-0.1
			c4.5-0.1,6.4,1,6.4,5.9c-0.3,16.1-0.1,32.1-0.1,48.2c0,1.6,0.8,3.7-1.1,4.6c-2.2,1-3.5-1.1-4.7-2.4c-3.9-4.1-7.5-4.1-11.3,0.1
			c-3.7,4-7.7,4.2-11.5,0.1c-3.8-4.1-7.4-4.5-11.3-0.3c-4,4.3-8,4.3-11.9-0.1c-3.6-4-7.1-3.9-10.8-0.1c-3.6,3.8-7.6,4.9-11.4,0.6
			c-4-4.5-7.8-4.2-12.1-0.7c-4.3-1.5-4.9-3.8-0.4-5.4c4-1.4,4.2-4.1,4.2-7.4c-0.1-10.5-0.2-21.1,0-31.6c0.2-8.5,1.6-9.8,10.2-9.8
			c5,0,10-0.1,15,0.1c0.8-0.1-0.2-1.4,0.1-0.6c0.1,0.2,0,0.3-0.3,0.3c-8.3,0.8-16.8-0.7-25.1,1.4c-1.7,0.4-8.5,1.8-7.7-2.5
			c11.3,0,25.5-1.8,36.8-0.6c0.9-0.1,1.8-0.1,2.7-0.2c1.3-6,0.2-12.2,0.6-18.3c0.2-2.3-0.6-14.6,0.6-16.8
			C528.7-16.9,530.9-16.9,533-16.9z"/>
		<path class="st15" d="M483.6,67.9c0.1-14.4,0.2-28.9,0.4-43.3c0-3-0.5-6.9,4.8-5.6c8.5,1.7,17.2,0.4,25.7,0.8
			c2.6,0.1,5.4-0.6,9.6,1.2c-7.5,0-13.4,0-19.2,0c-8.3,0-8.8,0.6-8.8,9.1c0,10.7,0,21.5,0,32.2c0,8.6,0,8.6-8.4,9.3
			c0.8,1.1,1.6,2,2.3,3c-0.9,1.7-2.2,3.4-4.3,2.8c-2.4-0.7-1.2-3.1-1.5-4.8C484,71.1,483.8,69.5,483.6,67.9z"/>
	</g>
	<path style="clip-path:url(#SVGID_2_);fill:#AB9C5A;" d="M718.6-27c-0.1,37-0.1,254-0.3,291c0,4.3,1.8,5.5,5.7,5.5
		c10.1-0.1,20.3,0.1,30.4-0.1c4.5-0.1,6.4,1.1,6.3,6c-0.3,15.9-0.1,31.7-0.1,47.6c0,1.6,0.7,3.7-1.2,4.6c-1.8,0.8-3.2-0.8-4.3-1.9
		c-4.2-4.1-8-3.8-12.1,0.3c-3.7,3.7-7.4,3.4-11-0.3c-3.8-4-7.6-3.9-11.5,0c-3.9,3.9-7.8,3.7-11.5-0.3c-3.6-3.8-7.2-4.1-10.9-0.2
		c-3.9,4.2-7.9,4.5-11.9,0.2c-3.9-4.2-7.6-3.8-11.4,0.2c-1.2,1.3-2.6,3.3-4.8,2.1c-1.7-1-1.1-3-1.1-4.6c-0.1-16.1,0.1-32.1-0.1-48.2
		c0-4.3,1.7-5.4,5.7-5.3c10.4,0.2,20.7,0,31.1,0.1c3.4,0,5.7-0.7,5.7-4.8c-0.2-37.2-0.2-254.4-0.3-291.6C713.5-27,716.1-27,718.6-27
		z"/>
	<path style="clip-path:url(#SVGID_2_);fill:#139271;" d="M1324.3-11.1c-0.1,37-0.1,294-0.3,331c0,4.3,1.8,5.5,5.7,5.5
		c10.1-0.1,20.3,0.1,30.4-0.1c4.5-0.1,6.4,1.1,6.3,6c-0.3,15.9-0.1,31.7-0.1,47.6c0,1.6,0.7,3.7-1.2,4.6c-1.8,0.8-3.2-0.8-4.3-1.9
		c-4.2-4.1-8-3.8-12.1,0.3c-3.7,3.7-7.4,3.4-11-0.3c-3.8-4-7.6-3.9-11.5,0c-3.9,3.9-7.8,3.7-11.5-0.3c-3.6-3.8-7.2-4.1-10.9-0.2
		c-3.9,4.2-7.9,4.5-11.9,0.2c-3.9-4.2-7.6-3.8-11.4,0.2c-1.2,1.3-2.6,3.3-4.8,2.1c-1.7-1-1.1-3-1.1-4.6c-0.1-16.1,0.1-32.1-0.1-48.2
		c0-4.3,1.7-5.4,5.7-5.3c10.4,0.2,20.7,0,31.1,0.1c3.4,0,5.7-0.7,5.7-4.8c-0.2-37.2-0.2-294.4-0.3-331.6
		C1319.2-11.1,1321.7-11.1,1324.3-11.1z"/>
	<path style="clip-path:url(#SVGID_2_);fill:#DD4E46;" d="M412-14.1c-0.1,37-0.1,534-0.3,571c0,4.3,1.8,5.5,5.7,5.5
		c10.1-0.1,20.3,0.1,30.4-0.1c4.5-0.1,6.4,1.1,6.3,6c-0.3,15.9-0.1,31.7-0.1,47.6c0,1.6,0.7,3.7-1.2,4.6c-1.8,0.8-3.2-0.8-4.3-1.9
		c-4.2-4.1-8-3.8-12.1,0.3c-3.7,3.7-7.4,3.4-11-0.3c-3.8-4-7.6-3.9-11.5,0c-3.9,3.9-7.8,3.7-11.5-0.3c-3.6-3.8-7.2-4.1-10.9-0.2
		c-3.9,4.2-7.9,4.5-11.9,0.2c-3.9-4.2-7.6-3.8-11.4,0.2c-1.2,1.3-2.6,3.3-4.8,2.1c-1.7-1-1.1-3-1.1-4.6c-0.1-16.1,0.1-32.1-0.1-48.2
		c0-4.3,1.7-5.4,5.7-5.3c10.4,0.2,20.7,0,31.1,0.1c3.4,0,5.7-0.7,5.7-4.8c-0.2-37.2-0.2-534.4-0.3-571.6
		C406.9-14.1,409.5-14.1,412-14.1z"/>
	<g class="st2">
		<circle class="st17" cx="710.6" cy="570.9" r="222.5"/>
		<g>
			<defs>
				<circle id="SVGID_5_" cx="710.5" cy="570.9" r="222.5"/>
			</defs>
			<clipPath id="SVGID_4_">
				<use xlink:href="#SVGID_5_"  style="overflow:visible;"/>
			</clipPath>
			<g class="st13">
				
					<rect x="561.2" y="404.9" transform="matrix(0.8565 0.5162 -0.5162 0.8565 335.8683 -349.225)" class="st19" width="469.5" height="49"/>
				
					<rect x="497.9" y="499.5" transform="matrix(0.8565 0.5162 -0.5162 0.8565 375.5788 -302.9505)" class="st19" width="469.5" height="49"/>
				
					<rect x="444.5" y="594" transform="matrix(0.8565 0.5162 -0.5162 0.8565 416.7243 -261.8377)" class="st19" width="469.5" height="49"/>
				
					<rect x="403.1" y="688.6" transform="matrix(0.8565 0.5162 -0.5162 0.8565 459.5799 -226.8752)" class="st19" width="469.5" height="49"/>
			</g>
		</g>
	</g>
	<path class="st10" d="M90,721.4c0.1,7.5-3.2,8.8-7.3,8.9c-5.1,0.2-8.9-3.1-8.7-7.8c0.2-4.8,3.4-7,7.9-7.2
		C86.6,715.2,90,718.9,90,721.4z"/>
	<path style="clip-path:url(#SVGID_2_);fill:#E8F8F6;" d="M37.7,347.7c-0.5,3.8-3.1,6.5-7.7,6.7c-5.2,0.2-10.5-4.5-9.9-8.8
		c0.7-5.1,3.9-8,9-8.1C33.6,337.3,37.8,342.2,37.7,347.7z"/>
	<g class="st2">
		<circle class="st17" cx="1324.5" cy="624.5" r="222.5"/>
		<g>
			<defs>
				<circle id="SVGID_7_" cx="1324.5" cy="624.5" r="222.5"/>
			</defs>
			<clipPath id="SVGID_6_">
				<use xlink:href="#SVGID_7_"  style="overflow:visible;"/>
			</clipPath>
			<g class="st18">
				<rect x="1093.8" y="398" class="st23" width="469.5" height="49"/>
				<rect x="1093.8" y="503.5" class="st23" width="469.5" height="49"/>
				<rect x="1093.8" y="603" class="st23" width="469.5" height="49"/>
				<rect x="1093.8" y="702.5" class="st23" width="469.5" height="49"/>
				<rect x="1093.8" y="802" class="st23" width="469.5" height="49"/>
			</g>
		</g>
	</g>
	
		<ellipse transform="matrix(0.7071 -0.7071 0.7071 0.7071 -67.3676 466.3712)" style="clip-path:url(#SVGID_2_);fill:#139272;" cx="529.3" cy="314.5" rx="224.7" ry="217.1"/>
	<g class="st2">
		<defs>
			
				<ellipse id="SVGID_9_" transform="matrix(0.7071 -0.7071 0.7071 0.7071 -67.2002 466.7753)" cx="529.8" cy="314.5" rx="224.7" ry="217.1"/>
		</defs>
		<clipPath id="SVGID_8_">
			<use xlink:href="#SVGID_9_"  style="overflow:visible;"/>
		</clipPath>
		<g class="st22">
			<g>
				<path class="st26" d="M482.2,357.2c0-0.4,0.1-0.9,0.1-1.3c-7.6,3.3-14.9,7.2-23.5,8.5c-10.2,1.6-19.7,0.9-27.9-4.1
					c-5.6-3.4-9.3-2-12.5,2.8c-6.4,9.6-11.8,19.6-14.1,30.4c-2.5,11.7,2.5,19.3,15.2,23.3c8.1,2.5,16.6,3.2,25.3,2.8
					c3.6-4.5,4.1-9.8,6.2-14.7C458.6,387.8,467.6,371.3,482.2,357.2z"/>
				
					<ellipse transform="matrix(0.9868 -0.1619 0.1619 0.9868 -54.9505 73.7587)" class="st27" cx="425.2" cy="374.1" rx="1.9" ry="1.6"/>
				
					<ellipse transform="matrix(0.9868 -0.1619 0.1619 0.9868 -56.1661 73.3301)" class="st27" cx="422" cy="381.4" rx="1.8" ry="1.5"/>
				
					<ellipse transform="matrix(0.9868 -0.1619 0.1619 0.9868 -57.416 72.9055)" class="st27" cx="418.7" cy="388.8" rx="1.9" ry="1.6"/>
			</g>
			<path class="st26" d="M459.3,268.2c0.6,5,1.1,10,1.7,15.5c3.6-0.8,5.2-3.3,7.1-5.4c7-8,13.5-16.3,19.5-25
				c11.2-16.5,23.7-31.5,41.3-41.7c-11.1-14.9-29.8-17.3-45.8-5.6c-9.5,6.9-15.1,16.6-18.7,27.5
				C460.6,244.8,458.9,256.4,459.3,268.2z"/>
			<path class="st28" d="M391.2,280.7c16.4,8.7,34.3,13,53.6,15.5c0.9,0.1,1.6,0.7,1.8,1.5c1.1,4.1,2.7,11,3.1,15.6
				c0.2,1.5-1.3,2.6-2.8,2.1c-23.3-7.1-48-18.7-58.5-31.7C387,281.9,389.1,279.6,391.2,280.7z"/>
			<path class="st29" d="M394.8,258.3c0,0-2.8-24.1,9.4-18.9c0,0,7.5-5.3,7.7,3.1c0,0-1.7,64.3,39,46.9c0,0,11.2-3.7,44.4-51.3
				c0,0,20.7-30.6,51.8-36.4c0,0,23.6-4.6,39.1,5.4c0,0,3.5,1.9,6.6,5.9c0,0,4.5,8.8,12.7-5.1c0,0,5.6-11.2,28.7-11.4
				c0,0,35.3-3.3,53.4,31.5c18.2,34.8,15.7,58.4,2.9,88.8c0,0-16,44.7-50.9,44.5c0,0,71.3,38.9,91.7,179H410.5
				c0,0-6.9-103.3,69.7-183.2c0,0,12.3-13.1-4.7-21.4C453.5,325,400.5,313.5,394.8,258.3z"/>
			<g>
				<path class="st30" d="M492.3,350.2c2.9,13.2,16,29.5,30.6,32.1c25.4,4.6,47-4.9,67-20.4c6.2-4.8,12-10.4,17.5-16.2
					c3-3.2,2.4-4.6-1.5-5.8c-5.6-1.6-10.9-0.1-16.2,1.2c-2,0.5-4,1.1-6,1.6c-0.7,3.1-2.6,5.1-5.4,6.2c-14.3,5.3-28,12.3-42.8,15.7
					c-7.9,1.9-16.1,1.7-24.1,0.1c-6.8-1.3-12.4-5.2-16.9-10.8L492.3,350.2z"/>
				<path class="st26" d="M492.6,350.4c5,10.5,13.5,15.4,23.8,16.7c14.7,1.8,28.5-1.1,41.9-8.3c7.9-4.2,17.2-5.2,25-10
					c2.5-1.5,4.6-2.9,2.2-6.3c-1.3-0.3-2.3,0.3-3.4,0.9c-20,11.5-40.9,12.4-62.6,7.2c-7.2-1.7-14.2-4.5-21.8-3.9
					c-2,0.2-4.2-0.2-5.4,2.3C492.4,349.5,492.5,349.9,492.6,350.4z"/>
			</g>
			<g>
				<path class="st31" d="M645,248.8c0.6,0,1.2,0,1.7-0.1c2.3-0.3,5.7,1.8,6.3-2c0.6-4-3.4-3.7-5.8-4.2c-6-1.2-14.1,2.8-17.1,9.8
					c-8.4,19.4-6.7,38.7,2.8,57.4c0.8,1.6,2,3.1,4.2,1.8c2.2-1.3,2.1-2.9,1-4.9c-2-3.7-4-7.6-4.6-11.9c1.3-3.5-0.1-6.8-0.5-10.2
					c-0.6-5.4,0.5-6.5,5.6-4.7c1.8,0.6,3.8,0.8,5.4,2c2.6,0.4,4.2-0.6,4.5-3.3c-0.9-5.9-6-6.9-10.3-7.9c-4.5-1-5-3-4.3-6.9
					C635.1,256.7,639.1,252.1,645,248.8z"/>
				<path class="st30" d="M645,248.8c-7.1,1.1-11.4,6.3-12.9,15c-0.7,4.3-1.7,8,5.2,8c4.4,0,8.4,2.6,11.1,6.6
					C655.4,268.2,654.6,261.4,645,248.8z"/>
				<path class="st30" d="M643.9,281.7c-1.2-1-2.2-2.1-3.5-2.9c-2.5-1.6-5.7-2.8-8.2-1.2c-2.6,1.7-1.3,5-0.7,7.5
					c0.7,3.2,0.4,6.6,2,9.6c2.3-1.5,3.1-3.7,3.4-6.3C637.2,284.1,639.7,281.9,643.9,281.7z"/>
			</g>
			<path class="st32" d="M511.6,280.6c1.5,5.9,4.4,10.1,10.3,9.8c5-0.3,8.7-3.3,8.7-9.1c0-6.1-3.2-10-9-10
				C515.9,271.2,513,275.6,511.6,280.6z"/>
			<path class="st28" d="M454.4,308.3c0.1,0,0.1,0,0.2-0.1c1-0.4,11.2-4,12.8,4.3c0,0,1.7,7.1-2.5,10.5c-1.8,1.4-4,2.5-7.7,3.4
				c0,0-41.1,11.2-70.1-24.8c-1.3-1.6,0-4.2,1.7-3.5C401.3,303.8,429.7,314.4,454.4,308.3z"/>
			<path class="st33" d="M529,219c0,0-21.5-38.6-57.4,0c0,0-22.6,20.3-16.1,70.5L529,219z"/>
			<path class="st30" d="M414.6,489.4c0,0,87.2,18.6,140.6,11.6c0,0,111.1-15.2,166-12c0,0,6.2,19.4,10,47.9H410.5
				C410.5,536.8,409.6,510.1,414.6,489.4z"/>
			<g>
				<path class="st26" d="M531.1,503c3.7,2.7,3,6.6,2.7,10.2c-0.5,5.2,1.7,7.8,7,8.1c16,0.9,31.9,1.8,47.9,2.9
					c4.5,0.3,5.9-1.1,6.3-5.7c0.6-7.6,2.5-15,5-22.2c3.1-13.4,9.1-18.4,22.2-18.4c2,0,4.2,0.4,4.4-2.6c0.2-2.6-1.8-3.3-3.8-3.8
					c-8-2.3-18.3,2.6-24.1,11.4c-3.2,4.9-4.9,10.4-6.1,15.9c-0.7,3.2-2,4.4-5.2,4.2c-15.4-0.9-30.7-1.7-46.1-2.4
					c-3.4-0.2-4.4-1.5-3.9-5.1c3-20.2,13.2-35.5,30.4-46.4c2.1-1.3,5.9-2.2,4-5.6c-2-3.6-5.1-1.3-7.4,0.2
					C543,457.8,530.6,476.8,531.1,503z"/>
				<path class="st34" d="M563.3,491c0.6,1.6,1.6,2.8,3.4,2.5c1.9-0.3,3.1-1.7,2.7-3.7c-0.4-1.6-1.5-2.8-3.3-2.4
					C564.1,487.7,563.1,489,563.3,491z"/>
				<path class="st35" d="M575.5,491.5c0.2,1.7,1.2,2.9,2.8,3.1c2.1,0.2,3.1-1.2,3-3.3c-0.1-1.8-1.3-2.7-3-2.7
					C576.5,488.5,575.8,489.9,575.5,491.5z"/>
				<path class="st36" d="M552.4,489.7c0.2,1.8,1.2,2.8,2.9,2.8c1.8,0.1,2.9-1,2.9-2.7c0-1.8-1.2-2.7-2.9-2.8
					C553.7,487,552.5,487.8,552.4,489.7z"/>
			</g>
		</g>
	</g>
	<g class="st2">
		<path d="M664.3,219.5c-3.7,9.8-14.8,13.9-22.9,8.6c-0.4-0.3-0.6-0.5-1,0.2c-3,6.5-7.9,10-14.6,10.8c-5.7,0.7-11-0.5-16.1-2.9
			c-3.8-1.8-7.1-4.3-10.5-6.6c-5.6-3.8-11.7-6.4-18.3-7.7c-3.6-0.7-7.2-0.8-10.8-1.3c-6.7-1.1-12.9-3.3-18-8.2
			c-4.2-4-6.7-8.8-6.1-15c0.7-7.2,4.5-12.5,10.1-16.5c2.2-1.5,4.5-2.5,7.1-2.9c0.7-0.1,1-0.5,1.4-1c6.4-8.3,12.8-16.7,19.4-24.9
			c9.9-12.4,22.4-17.8,37.2-15.9c17.3,2.2,30.8,17.2,32.2,35.6c0.7,8.6,1.2,17.1,1.7,25.7c0,0.7,0.2,1.1,0.9,1.4
			C663.8,201.9,667.5,211.2,664.3,219.5z"/>
		<path class="st37" d="M621.8,140.5c2.6,0.3,5.1,1.2,7.5,2.3c4.2,1.9,7.8,4.5,10.9,7.9c5.5,6.1,8.7,13.4,9.3,21.9
			c0.6,8,1.1,16,1.6,24c0.1,0.9-0.1,1.2-1,1.2c-2,0-4,0.5-5.9,1.4c-0.7,0.3-0.9,0.2-1.2-0.5c-2.3-6.1-4.6-12.1-7-18.1
			c-3.8-9.2-9.5-16.6-17.2-22.4c-2.2-1.7-4.6-3.1-7-4.4c-0.4-0.2-0.7-0.2-0.9,0.3c-0.4,0.9-0.8,1.7-1.3,2.6
			c-0.3,0.6,0.1,0.7,0.4,0.9c2.4,1.3,4.8,2.8,7,4.5c3.6,2.7,6.8,5.9,9.4,9.6c1.1,1.5,1.5,3.4,2.1,5.2c2.4,7.3,3.6,14.8,3.3,22.7
			c0,1.2,0,1.2-1.1,0.8c-18.2-6.8-36.5-13.7-54.7-20.5c-0.4-0.2-0.8-0.3-1.2-0.5c-0.4-0.5,0.1-0.9,0.4-1.2c2.6-3.3,5.2-6.7,7.8-10
			c3.3-4.3,6.6-8.6,10-12.8c3.5-4.3,7.6-7.9,12.4-10.5c4-2.1,8.2-3.6,12.6-4.2C619.2,140.5,620.5,140.4,621.8,140.5z"/>
		<path class="st38" d="M634.8,208.5c2,2.2,3,4.9,3.4,7.9c0.6,4.4,0,8.7-2.4,12.6c-3,4.6-7.3,6.2-12.3,6.3
			c-5.7,0.2-10.8-1.8-15.6-4.6c-2.7-1.6-5.2-3.7-7.9-5.4c-6.3-4-13.2-6.6-20.6-7.7c-3.8-0.6-7.7-0.6-11.5-1.5
			c-5.9-1.4-11.2-3.9-15.1-8.8c-0.3-0.4-0.7-0.7-0.8-1.2c-0.8-1.4-0.6-2.9-0.3-4.4c0.9-4.4,3.1-8.1,6.3-11.2c3.3-3.2,7.2-5,11.6-5.3
			c2.2-0.2,4.4,0.1,6.5,0.9c19.1,7.1,38.1,14.3,57.2,21.4C633.8,207.8,634.3,208.1,634.8,208.5z"/>
		<path class="st39" d="M641.2,206.4c5.3-7,16-5.7,19.3,2.3c3.3,7.9-2.4,17.3-10.7,17.6c-0.1,0-0.3,0-0.4,0
			c-1.9-0.1-3.8-0.4-5.5-1.5c-0.5-0.3-0.6-0.7-0.5-1.2c0.2-1.4,0.4-2.8,0.4-4.2c0-4.2-0.7-8.1-2.7-11.7
			C641,207.3,640.8,206.9,641.2,206.4z"/>
		<path class="st40" d="M621.8,140.5c-3.2,0.3-6.4,0.7-9.5,1.7c-4.8,1.5-9.2,3.9-13.2,7.2c-2.7,2.3-5.1,4.9-7.2,7.7
			c-2.6,3.4-5.2,6.8-7.9,10.2c-2.7,3.4-5.4,6.8-8,10.3c-0.4,0.6-1.1,1-1.2,1.8c-1.7-0.6-3.3-1.3-5.1-1.5c-0.7-0.1-0.4-0.4-0.1-0.8
			c2-2.6,4-5.2,6.1-7.8c3.9-5,7.7-10.2,11.8-15.1c9.1-11.1,20.5-15.6,33.9-13.8C621.4,140.4,621.6,140.5,621.8,140.5z"/>
		<path class="st39" d="M634.8,208.5c-19.5-7.3-39.1-14.7-58.6-21.9c-4.6-1.7-9.3-1.3-13.8,1.2c-3.3,1.8-6,4.4-7.9,7.8
			c-1.6,2.8-2.7,5.9-2.7,9.2c0,0.5,0.2,0.9,0.2,1.4c-2.3-3.2-2.8-6.9-1.8-10.9c1.9-7,8.5-13.6,16.5-13.5c1.7,0,3.3,0.3,4.9,0.9
			c19,7.1,38.1,14.3,57.1,21.4C631.1,204.9,633.2,206.3,634.8,208.5z"/>
		<path class="st41" d="M641.2,206.4c-0.2,0.5,0.1,0.8,0.3,1.2c1.9,3.6,2.7,7.5,2.7,11.6c0,1.5-0.1,2.9-0.4,4.3
			c-0.1,0.6,0,0.9,0.5,1.3c1.2,0.8,2.6,1,4,1.3c0.4,0.1,0.8,0,1.2,0.2c-2.8,0.2-5.2-0.8-7.3-2.7c-0.3-0.3-0.3-0.6-0.2-0.9
			c0.7-4.8,0.1-9.4-2-13.6c-0.2-0.4-0.2-0.7,0-1C640.4,207.5,640.7,206.9,641.2,206.4z"/>
		<path class="st42" d="M635.6,190.6c0.3,0.3,0.4,0.7,0.5,1.1c1.2,3.2,2.5,6.4,3.7,9.6c0.2,0.5,0.2,0.8-0.3,1.2
			c-0.7,0.6-1.3,1.3-1.8,2.1c-0.3,0.4-0.5,0.5-0.9,0.1c-1-0.9-1.5-1.8-1.3-3.3c0.3-3.3,0.2-6.6-0.1-9.9
			C635.5,191.1,635.3,190.9,635.6,190.6z"/>
	</g>
	<g class="st2">
		<defs>
			
				<ellipse id="SVGID_11_" transform="matrix(0.7071 -0.7071 0.7071 0.7071 13.1799 835.5565)" cx="1015.2" cy="401.9" rx="223.8" ry="220.2"/>
		</defs>
		<clipPath id="SVGID_10_">
			<use xlink:href="#SVGID_11_"  style="overflow:visible;"/>
		</clipPath>
		<g class="st25">
			<rect x="762.8" y="176.9" class="st44" width="514.7" height="449.9"/>
			<polygon class="st19" points="1052.9,178 988.2,328.3 1116.9,328.3 			"/>
			<polygon class="st19" points="957.2,253.5 925,328.2 989,328.2 			"/>
			<polygon class="st19" points="924.8,328.2 892.6,403 956.6,403 			"/>
			<polygon class="st19" points="1053.8,328.2 1021.7,403 1085.6,403 			"/>
			<polygon class="st19" points="1116.5,328.2 1084.3,403 1148.3,403 			"/>
			<polygon class="st19" points="1181.4,328.2 1149.2,403 1213.2,403 			"/>
			<polygon class="st19" points="1244.6,328.2 1212.4,403 1276.4,403 			"/>
			<polygon class="st19" points="891.7,403.2 859.6,477.9 923.5,477.9 			"/>
			<polygon class="st19" points="827.9,403.2 795.8,477.9 859.7,477.9 			"/>
			<polygon class="st19" points="985.8,477.4 953.7,552.1 1017.6,552.1 			"/>
			<polygon class="st19" points="891.6,552.1 859.5,626.9 923.4,626.9 			"/>
			<polygon class="st19" points="1148.2,552.1 1116.1,626.9 1180,626.9 			"/>
			<polygon class="st19" points="1212.8,402.2 1148.1,552.6 1276.7,552.6 			"/>
			<polygon class="st45" points="989.3,179 957.2,253.7 1021.1,253.7 			"/>
			<polygon class="st45" points="925.2,179 893,253.7 957,253.7 			"/>
			<polygon class="st45" points="861.1,179 828.9,253.7 892.9,253.7 			"/>
			<polygon class="st45" points="1116.8,179 1084.6,253.7 1148.6,253.7 			"/>
			<polygon class="st45" points="1084.4,403.2 1052.2,477.9 1116.2,477.9 			"/>
			<polygon class="st45" points="1148.4,403.2 1116.3,477.9 1180.2,477.9 			"/>
			<polygon class="st45" points="1116.3,477.4 1084.1,552.1 1148.1,552.1 			"/>
			<polygon class="st45" points="923.6,477.4 891.5,552.1 955.4,552.1 			"/>
			<polygon class="st45" points="860.5,477.4 828.4,552.1 892.3,552.1 			"/>
			<polygon class="st23" points="989.5,327.5 924.8,477.9 1053.5,477.9 			"/>
			<polygon class="st23" points="829.3,252.6 764.6,403 893.2,403 			"/>
			<polygon class="st23" points="1052.5,476.5 987.8,626.9 1116.5,626.9 			"/>
			<polygon class="st23" points="955.6,552.1 923.4,626.9 987.4,626.9 			"/>
			<polygon class="st23" points="1149.2,253.5 1117.1,328.2 1181,328.2 			"/>
			<polygon class="st23" points="1212.8,253.5 1180.7,328.2 1244.6,328.2 			"/>
			<polygon class="st23" points="892.4,253.5 860.3,328.2 924.2,328.2 			"/>
			<polygon class="st23" points="989,328.2 1021.1,253.5 957.2,253.5 			"/>
			<polygon class="st23" points="891.5,552.1 923.7,477.4 859.7,477.4 			"/>
			<polygon class="st23" points="828.1,552.1 860.2,477.4 796.3,477.4 			"/>
			<polygon class="st23" points="957.4,253.7 989.6,179 925.6,179 			"/>
			<polygon class="st23" points="892.9,253.7 925,179 861.1,179 			"/>
			<polygon class="st23" points="1020.7,253.7 1052.8,179 988.9,179 			"/>
			<polygon class="st23" points="1084.8,253.7 1116.9,179 1053,179 			"/>
			<polygon class="st23" points="1148.9,253.7 1181,179 1117.1,179 			"/>
			<polygon class="st46" points="859.9,477.4 892.1,402.7 828.1,402.7 			"/>
			<polygon class="st19" points="1180.9,179 1148.7,253.7 1212.7,253.7 			"/>
			<polygon class="st46" points="796.6,477.4 828.8,402.7 764.8,402.7 			"/>
			<polygon class="st46" points="892.4,403 924.5,328.2 860.6,328.2 			"/>
			<polygon class="st46" points="1180,626.9 1212.2,552.1 1148.2,552.1 			"/>
		</g>
	</g>
	<g class="st2">
		<path class="st47" d="M269.3,701.2c-1.6,1.9-2.4,4.6-5.3,5.1c-6.2,1.1-12-1.1-17.7-2.9c-4.7-1.5-6.6-9.8-3.9-15.5
			c4.2-8.8,15.8-11.7,23.3-5.8c2.5,1.9,3.6,4.6,3.6,7.7C269.3,693.6,269.3,697.4,269.3,701.2z"/>
		<path class="st48" d="M187.8,115c-6,0.1-11.8-4.7-11.9-9.9c-0.2-5.2,5.1-10.3,10.7-10.4c5.8-0.1,11.5,5.5,11.5,11.3
			C198.1,110.6,193.1,114.9,187.8,115z"/>
		<path class="st49" d="M370.6,78.2c5.7-0.1,9.6,3.3,8.9,8.8c-0.5,4.6-3.6,7.4-8.5,7.7c-4.5,0.2-9.1-4.6-9.1-9.4
			C362,81,365.3,78.2,370.6,78.2z"/>
		<path class="st50" d="M1249.8,231.7c-7.5,0-14.8-7.6-14.7-15.3c0.1-6.8,6.7-12.7,14-12.6c6.9,0.1,15,7.4,15.1,13.7
			C1264.4,224.4,1256.9,231.7,1249.8,231.7z"/>
		<path class="st51" d="M1193,153.1c-5.7-0.1-8.6-2.9-8.6-8.4c0-5.3,3.2-7.6,7.8-7.9c4.3-0.3,9.3,5.1,9.5,9.5
			C1201.8,150.3,1198.2,153.2,1193,153.1z"/>
		<path class="st49" d="M1337.9,84.4c0.1,7.6-3.2,8.9-7.4,9c-5.2,0.2-9-3.1-8.8-7.9c0.2-4.8,3.4-7.1,8-7.2
			C1334.5,78.1,1337.9,81.8,1337.9,84.4z"/>
		<path class="st52" d="M1274,642.7c6,0,12.2,5.4,12.1,10.5c-0.1,5.4-5.1,10.1-10.7,10.2c-6,0.1-11.3-5.3-11.1-11.3
			C1264.3,646.9,1268.6,642.7,1274,642.7z"/>
		<path class="st53" d="M413.1,454.5c-0.4,3.6-2.9,6.2-7.3,6.4c-4.9,0.2-9.9-4.2-9.3-8.3c0.6-4.8,3.7-7.5,8.5-7.7
			C409.3,444.8,413.3,449.4,413.1,454.5z"/>
		<path class="st54" d="M1235.4,820.5c-3.2-0.8-6.6-1.8-6.6-6.1c0-4,2.6-6.2,6.4-6.2c3.9,0,6.2,2.7,6.3,6.4
			C1241.7,818.4,1239.3,820.3,1235.4,820.5z"/>
		<path class="st55" d="M336,733.9c0.1,4.4-3.8,8.4-8.4,8.4c-4.8,0-9.4-4.2-9.4-9.1c0-5.1,3.3-7.4,8.1-7.7
			C331.6,725.1,335.8,728.9,336,733.9z"/>
		<path class="st56" d="M487.2,782.7c4.1,0.3,6.4,2.6,6.8,6.3c0.4,3.7-1.7,6.2-5.6,6.1c-3.6,0-6.8-1.5-7.2-5.6
			C480.9,785.5,483.6,783.5,487.2,782.7z"/>
		<path class="st57" d="M778.3,679.1c-0.3,3.6-2.2,5.8-5.6,5.7c-3.6-0.1-6.9-1.8-7-5.9c-0.1-3.6,2.4-5.9,6.1-5.9
			C775.9,672.9,777.8,675.4,778.3,679.1z"/>
		<path class="st58" d="M802.5,407.1c0,4.5-4.1,8.5-8.6,8.3c-4.6-0.2-9.3-5-9-9.8c0.4-5.1,3.8-7.2,8.6-7.3
			C798.6,398.3,802.5,402.2,802.5,407.1z"/>
		<path class="st59" d="M732.2,356c-7.3,2.4-12.5-0.4-16.4-6.6c-2.2-5.8-0.9-10.3,4.8-13.1c5.3-2.7,12.3-0.7,15.5,4.3
			C739.1,344.9,737.6,350.7,732.2,356z"/>
		<path class="st60" d="M1057.3,302.5c3.4,0.9,6.8,2,6.6,6.4c-0.2,3.7-2.7,6-6.2,5.9c-4.2-0.1-6.6-2.9-6.4-7.1
			C1051.3,304.2,1053.9,302.7,1057.3,302.5z"/>
		<path class="st61" d="M884.6,492c-1.1,1.2-2.3,2.4-3.4,3.5c-3.5-1.1-6.9,3.7-10.4,0.1c-0.4-1.8-2.1-2.5-3.4-3.5
			c-0.1-0.5-0.3-1-0.4-1.5c0.4-7.6,3.1-11.1,8.3-11.1C881.1,479.5,884.5,484.1,884.6,492z"/>
		<path class="st47" d="M933,903.6c-1.6,1.9-2.4,4.6-5.3,5.1c-6.2,1.1-12-1.1-17.7-2.9c-4.7-1.5-6.6-9.8-3.9-15.5
			c4.2-8.8,15.8-11.7,23.3-5.8c2.5,1.9,3.6,4.6,3.6,7.7C933,896,933,899.8,933,903.6z"/>
	</g>
	<path style="clip-path:url(#SVGID_2_);fill:#FCF8F6;" d="M180.6,825c-7.8,2.5-13.3-0.4-17.4-7c-2.3-6.1-0.9-10.9,5.1-13.9
		c5.7-2.8,13-0.7,16.5,4.5C187.9,813.3,186.3,819.4,180.6,825z"/>
	<rect x="-5.4" y="0" style="clip-path:url(#SVGID_2_);fill:none;" width="1419.4" height="900"/>
	<g class="st2">
		<path class="st64" d="M358.1,749.1c-3.1,4.1-0.5,11.1-6,11.1c-4.8,0-2.6-6.7-5.1-10.1c-2.1,2.4-0.7,5.3-1.2,7.7
			c-0.2,1.1-0.2,2.5-1.7,2.7c-1.9,0.2-2.5-1.1-2.5-2.6c-0.1-6.6-0.1-13.2,0-19.8c0-1.9,1.2-2.9,3.1-3.1c2.5-0.2,4.1,0.8,4.6,3.3
			c0.8,3.6,1,7.4,3.6,11.9c1.2-4.6,2.1-8,2.9-11.5c0.5-2.4,1.7-3.7,4.3-3.6c3,0.2,3.3,2.1,3.3,4.4c0,5.7,0.1,11.3,0,17
			c0,1.8,0.2,4.2-2.6,4.1c-2.7-0.2-2.2-2.6-2.4-4.4C358.3,753.9,358.3,751.8,358.1,749.1z"/>
		<path class="st64" d="M319.9,790.4c0.9,6.7-1.4,13.6,2,20.4c-4,0-7.4,0-10.9,0c1.6-12.3,1.9-24.6-0.1-37.1
			c9.1-2.6,9.1-2.6,9.1,7.4c0,1.9,0,3.8,0,5.7C320.8,788,320.6,789.2,319.9,790.4z"/>
		<path class="st64" d="M477.4,789.1c-4.9-2.9-7.9-1.3-8.1,4.1c-0.2,5.7-1.1,11.6,1.5,17.5c-1.8,0.2-3.4,0.3-5,0.5
			c-4.8,0.7-6.7-0.4-5.2-5.9c1-3.5,0.3-7.5,0.1-11.2c-0.3-7-2.3-7.9-8.7-3.9c-0.8-1.1-0.9-2.2,0.2-3.3c4.9-2.8,9.8-4.6,15-0.9
			c1.8,1.3,2.9,0.1,4.3-0.6c3.9-1.8,7.9-2.6,11.7,0.4C482.2,788.6,479.9,789.1,477.4,789.1z"/>
		<path class="st64" d="M428.6,775.2c2.5,3.2-1.3,8.5,4.6,9.8c1.4,0.3,0.3,1.1-0.4,1.8c-3.4,3.6-4.4,17.7-1.5,21.3
			c0.6,0.7,1.9,0.9,3.1,1.4c-7.8,4.2-12.2,1.7-12.8-6.7c-0.4-5.5,1.7-11.2-1.6-16.5c-0.8-1.4,0.3-2.2,1.3-2.8
			C424.6,781.6,425.9,778.1,428.6,775.2z"/>
		<path class="st64" d="M386.4,810.5c-4.7,1-8.4,0.8-12.3,0.4c1.5-7.8,2.9-15.5-0.3-23c-1.2-2.9,0.9-2.9,2.2-2.8
			c2.8,0,7.1-2.9,7.8,2.8c0.4,3.7,0,7.6,0.1,11.3C383.9,803,382.9,807,386.4,810.5z"/>
		<path class="st64" d="M373.5,747.5c0-0.9,0-1.9,0-2.8c0-9.6,4-12.5,13.6-9.8c1.2,0.3,2.3,0.7,2.4,2.1c0.1,1.4-1,2-2.2,2.2
			c-0.9,0.1-1.9,0.1-2.8,0.2c-2.1,0.3-5.3-1-5.7,2.5c-0.4,4.2,3.1,3.2,5.4,3.5c1.6,0.2,3.7-0.2,3.7,2.2s-2,2.1-3.6,2.4
			c-2.3,0.3-5.8-1-5.6,3.3c0.2,4.3,3.7,2.4,6,2.9c1.9,0.4,5-0.8,4.9,2.4c-0.2,3-3.2,2-5.1,2.1C373.5,761.2,373.5,761.2,373.5,747.5z
			"/>
		<path class="st64" d="M452.2,786.9c-0.1,1.1-0.1,2.2-0.2,3.3c0,3.5,0.1,7.1,0.1,10.6c0.1,3.2-0.5,6.5,2,9.9c-4.5,0-8.2,0-12.3,0
			c3.3-6.6,1.3-13.6,2-20.3c0.2-2-4.5-3.4-0.9-4.9C445.8,784.4,449.8,782.2,452.2,786.9z"/>
		<path class="st64" d="M357,790.5c-0.3,6.6-2.4,13.3,1.8,20.1c-4.2,0-8.1,0-12.5,0c2.8-6.5,1.9-13.3,1.4-19.9
			c-0.4-6.8-0.2-7.3,7.7-5.1C356,787.2,357.8,788.4,357,790.5z"/>
		<path class="st64" d="M319.9,790.4c0-1.2,0.1-2.4,0.1-3.6c2-0.8,3.9-1.8,5.9-2.3c7-1.7,10.9,1.3,11.4,8.5c0.2,3.1,0.2,6.1,0,9.2
			c-0.1,2.8,0.4,5.5,2,8.4c-4.2,0.9-7.8,0.9-11.9,0.1c2.5-5.1,1.8-10.3,1.7-15.4C329,787.2,326.8,786,319.9,790.4z"/>
		<path class="st64" d="M477.4,789.1c0.7-3.2,3.3-3.3,5.8-3.2c3.5,2.4,2.8,6.2,3,9.6c0.2,5-1,10.2,2.1,15.2
			c-1.9,0.2-3.3,0.3-4.7,0.4c-4.8,0.4-7.9,0.2-6-6.5C478.8,799.8,477.5,794.3,477.4,789.1z"/>
		<path class="st64" d="M463.4,745.2c1.9-3.6,3.1-6.1,4.5-8.5c0.7-1.3,2-2.2,3.5-1.6c2,0.8,1.1,2.3,0.5,3.5
			c-2.9,6.1-6.9,11.9-6,19.3c0.2,1.5-0.9,2.6-2.6,2.6c-1.8,0-2.8-1-2.6-2.6c0.8-7.1-2.9-12.7-5.9-18.6c-0.6-1.3-2.1-3.1,0.3-4.2
			c1.9-0.8,3.1,0.4,4,2C460.4,739.4,461.6,741.7,463.4,745.2z"/>
		<path class="st64" d="M357,790.5c-0.5-1.6-1-3.3-1.5-4.9c2.4,1.8,3.7-0.9,5.7-1.2c2.7-0.4,5.2-0.2,6.5,2.6
			c0.9,1.9,0.5,3.9-1.1,5.1c-2.4,1.8-4.9,1.5-6.3-1.4C359.1,788.4,358.1,789.9,357,790.5z"/>
		<path class="st64" d="M384,776.3c-0.1,2.9-1.4,4.8-4.2,4.8c-2.6,0.1-4.6-1.2-4.8-4.1c-0.2-2.9,1.5-4.4,4.2-4.6
			C381.9,772.2,383.5,773.8,384,776.3z"/>
		<path class="st64" d="M539.7,794.2c-3-1.3-8.4-0.7-6.7-6.8c0,0,0-0.1,0-0.1c0,0,0,0,0,0c5.4-3.6,8,2.4,12,4.1
			c0.7-3,1.8-6.3-1.7-6.8c-4.4-0.6-9.3-2.5-13.5,1c0,0,0.1,0,0.1,0.1c0,0-0.1,0-0.1,0c-6,6.5-4.9,11.5,3.5,14.6c3.8,1.4,8,2.3,6.5,8
			c-6.5,3.1-9.7-1.8-13.8-7.4c0,4.7-2.4,8.7,2,9.8s9.2,2.6,13.7-0.4C549.6,804.2,548.7,798.2,539.7,794.2z"/>
		<path class="st64" d="M410.9,795.8c-2.4-4.3-7.8-5.2-10.4-9.3c5.2-2.1,7.9,3,11.7,5c-0.4-2.6,1.8-6.6-3-7
			c-4.3-0.4-8.8-1.7-12.8,1.2l0,0l0,0c-5.5,6.6-4.5,11.5,3.2,14.3c4.1,1.5,8.2,2.6,6.7,8.4c-6.1,2.2-9.4-2-12.8-7
			c-1.3,4.1-2.3,8.2,0.8,9.1c4.5,1.3,9.8,3.3,14.4-0.4c0.1-0.1,0.3-0.1,0.4-0.2C415.1,805.5,415.5,802.6,410.9,795.8z"/>
		<path class="st64" d="M287.1,809c-0.9-0.2-1.7-0.3-2.7-0.4c0,0,0,0,0,0c-7.6-8.4-7-24.5,1.2-32.8c0,0,0-0.1,0-0.1c0,0,0,0,0,0
			c7.1-0.8,12.8,1.3,16.1,8.6c1.1-4,2.8-8.5-1.2-9.5c-6.1-1.5-12.7-4.1-19.1-0.4c0.1,0,0.1,0,0.2,0.1c-0.1,0-0.1,0-0.2,0
			c-9.1,3.5-12,10.7-11.4,19.8c0.5,7.6,2.9,13.8,11,16c0,0,0,0,0,0c4.2,2.2,8.6,1.3,13,0.9c-0.5-0.2-1.1-0.3-1.6-0.5
			c0.6,0,1.2,0.1,1.6,0.5c5-1,8.2-3.6,8.7-10.5C298,806.4,293.6,810,287.1,809z"/>
		<path class="st64" d="M519.4,808.8c-3.8-4.5-1.2-9.4-1.9-14.1c-0.5-3.2,0.3-6.7-3.1-8.8c-0.6-0.3-1.1-0.6-1.7-0.7
			c-6.2-2.3-11.9-1.5-16.9,3.4c0,2.7,0.1,5.6,3.7,5.5c3,0,3.2-2.2,3.3-4.9c0.2-4.5,2.6-3.3,4.8-2.3c-2,3.8-2.9,8.3-7.2,10.5
			c-1.6,1.3-3.4,2.5-4.7,4.1c-3.3,4.2-1.2,9.6,4,9.8c5.7,0.1,11.4-0.7,17.2,0C518.2,811.4,521,810.7,519.4,808.8z M505.5,807.8
			c-2.2,0-3.6-1.1-3.5-3.4c0.1-3.3,2.2-5.4,5.2-5.6c2.8-0.2,1.7,2.7,2.1,3.6C509.5,805.8,508.6,807.7,505.5,807.8z"/>
		<path class="st64" d="M417.9,744.7c2.2-3.5,0.4-7.3-3.8-9.1c-8.8-3.9-14.3-0.5-14.3,8.9c0,1.1,0,2.3,0,3.5c0,3.1,0,6.1,0,9.2
			c0,1.8,0.6,3.3,2.8,3.2c1.9-0.1,2-1.5,2.4-2.9c0.8-2.3-2-6.3,2.4-6.9c4-0.5,3.4,3.7,4.8,5.9c0.3,0.6,0.6,1.2,0.9,1.9
			c0.7,1.8,2.1,2.5,3.9,1.9c2.7-0.9,1.2-2.9,0.6-4C415.3,752.3,415.3,748.9,417.9,744.7z M408.8,745.9c-2.1,0-3.7-0.4-3.8-2.9
			c-0.2-2.9,1.2-3.8,3.8-3.7c2.2,0.1,4.5,0.6,4.5,3.3C413.2,745.2,411.1,745.8,408.8,745.9z"/>
		<path class="st64" d="M445.7,745.6c3.2-4.8-0.1-9.7-6-10.7c-10.5-1.7-11.8-0.5-11.8,10c0,0.9,0,1.9,0,2.8c0,2.9-0.1,5.7-0.1,8.5
			c0,1.8-0.5,4.1,2.4,4.2c2.8,0.1,2.6-2,2.9-3.9c0.4-2.1-1.2-5.3,2.1-5.9c3.6-0.7,3.6,3,4.7,5.1c0.5,0.8,0.8,1.7,1.1,2.6
			c0.8,2.1,2.6,3,4.5,2c2.1-1.1,0.6-2.9,0-4.3C444,752.5,443,749.6,445.7,745.6z M437.2,745.8c-2.1,0.2-3.7-0.3-3.9-2.8
			c-0.1-2.2,0.7-3.6,3.1-3.6c2.1-0.1,4.2-0.1,4.9,2.6C441.2,744.7,439.5,745.6,437.2,745.8z"/>
	</g>
</g>
</svg>
