<?xml version="1.0" encoding="utf-8"?>
<!-- Generator: Adobe Illustrator 22.1.0, SVG Export Plug-In . SVG Version: 6.00 Build 0)  -->
<svg version="1.1" id="图层_1" xmlns="http://www.w3.org/2000/svg" xmlns:xlink="http://www.w3.org/1999/xlink" x="0px" y="0px"
	 viewBox="0 0 1588 1116" style="enable-background:new 0 0 1588 1116;" xml:space="preserve">
<style type="text/css">
	.st0{fill:#AB9C5A;}
	.st1{fill:#139271;}
	.st2{fill:#177F64;}
	.st3{fill:#DD4E46;}
	.st4{fill:#F0F5F4;}
	.st5{clip-path:url(#SVGID_2_);}
	.st6{fill:#FCFCFC;}
	.st7{fill:#E8F8F6;}
	.st8{clip-path:url(#SVGID_4_);}
	.st9{fill:#139272;}
	.st10{clip-path:url(#SVGID_6_);}
	.st11{fill:#2F2C2B;}
	.st12{fill:#5E6EBC;}
	.st13{fill:#F7C96F;}
	.st14{fill:#8098FF;}
	.st15{fill:#667DD3;}
	.st16{fill:#2F2C2C;}
	.st17{fill:#333032;}
	.st18{fill:none;}
	.st19{fill:#3C3843;}
	.st20{fill:#38343B;}
	.st21{fill:#343033;}
	.st22{clip-path:url(#SVGID_8_);}
	.st23{fill:#FEFEFD;}
	.st24{fill:#6BBAAD;}
	.st25{fill:#6ABAAC;}
	.st26{fill:#FDFCFC;}
	.st27{fill:#FDFDFD;}
	.st28{fill:#FEFEFE;}
	.st29{fill:#FCFDFD;}
	.st30{fill:#F5FCFB;}
	.st31{fill:#DEF6F3;}
	.st32{fill:#F9E9E7;}
	.st33{fill:#F8E1DE;}
	.st34{fill:#FDF6F3;}
	.st35{fill:#EAF9F6;}
	.st36{fill:#FCF8F6;}
	.st37{fill:#FBE8E6;}
	.st38{fill:#F9F5F3;}
	.st39{fill:#E13F3A;}
	.st40{fill:#FD0031;}
	.st41{fill:#FCEDF0;}
	.st42{fill:#FCE8EC;}
	.st43{fill:#FCEEF0;}
	.st44{fill:#FCDFE2;}
	.st45{fill:#FCDCE3;}
	.st46{fill:#FDEAEE;}
	.st47{fill:#FDE0E2;}
	.st48{fill:#FECCD8;}
	.st49{fill:#FED5E2;}
	.st50{fill:#FCF6E7;}
	.st51{fill:#F5E9D6;}
	.st52{fill:#FEF9EC;}
	.st53{fill:#FDF7EA;}
	.st54{fill:#F6EBD8;}
	.st55{fill:#F9F1E0;}
	.st56{fill:#F8EFDE;}
	.st57{fill:#FCF5E7;}
	.st58{fill:#F9F0DF;}
	.st59{fill:#F7EEDC;}
	.st60{fill:#FAF3E3;}
	.st61{fill:#F2E5CF;}
	.st62{fill:#FBF3E4;}
</style>
<g>
	<path class="st0" d="M1020-8c-0.1,37-0.1,74-0.3,111c0,4.3,1.8,5.5,5.7,5.5c10.1-0.1,20.3,0.1,30.4-0.1c4.5-0.1,6.4,1.1,6.3,6
		c-0.3,15.9-0.1,31.7-0.1,47.6c0,1.6,0.7,3.7-1.2,4.6c-1.8,0.8-3.2-0.8-4.3-1.9c-4.2-4.1-8-3.8-12.1,0.3c-3.7,3.7-7.4,3.4-11-0.3
		c-3.8-4-7.6-3.9-11.5,0s-7.8,3.7-11.5-0.3c-3.6-3.8-7.2-4.1-10.9-0.2c-3.9,4.2-7.9,4.5-11.9,0.2c-3.9-4.2-7.6-3.8-11.4,0.2
		c-1.2,1.3-2.6,3.3-4.8,2.1c-1.7-1-1.1-3-1.1-4.6c-0.1-16.1,0.1-32.1-0.1-48.2c0-4.3,1.7-5.4,5.7-5.3c10.4,0.2,20.7,0,31.1,0.1
		c3.4,0,5.7-0.7,5.7-4.8c-0.2-37.2-0.2-74.4-0.3-111.6C1014.9-8,1017.4-8,1020-8z"/>
	<g>
		<path class="st1" d="M532.6-14c0.1,6.8,0.4,23.5,0.2,30.3c-0.1,4.2,1.4,5.4,5.5,5.3c10.4-0.3,20.7,0.1,31.1-0.1
			c4.5-0.1,6.4,1,6.4,5.9c-0.3,16.1-0.1,32.1-0.1,48.2c0,1.6,0.8,3.7-1.1,4.6c-2.2,1-3.5-1.1-4.7-2.4c-3.9-4.1-7.5-4.1-11.3,0.1
			c-3.7,4-7.7,4.2-11.5,0.1s-7.4-4.5-11.3-0.3c-4,4.3-8,4.3-11.9-0.1c-3.6-4-7.1-3.9-10.8-0.1c-3.6,3.8-7.6,4.9-11.4,0.6
			c-4-4.5-7.8-4.2-12.1-0.7c-4.3-1.5-4.9-3.8-0.4-5.4c4-1.4,4.2-4.1,4.2-7.4c-0.1-10.5-0.2-21.1,0-31.6c0.2-8.5,1.6-9.8,10.2-9.8
			c5,0,10-0.1,15,0.1c0.8-0.1-0.2-1.4,0.1-0.6c0.1,0.2,0,0.3-0.3,0.3c-8.3,0.8-16.8-0.7-25.1,1.4c-1.7,0.4-8.5,1.8-7.7-2.5
			c11.3,0,25.5-1.8,36.8-0.6c0.9-0.1,1.8-0.1,2.7-0.2c1.3-6,0.2-12.2,0.6-18.3c0.2-2.3-0.6-14.6,0.6-16.8
			C528.4-14,530.5-14,532.6-14z"/>
		<path class="st2" d="M483.3,70.8c0.1-14.4,0.2-28.9,0.4-43.3c0-3-0.5-6.9,4.8-5.6c8.5,1.7,17.2,0.4,25.7,0.8
			c2.6,0.1,5.4-0.6,9.6,1.2c-7.5,0-13.4,0-19.2,0c-8.3,0-8.8,0.6-8.8,9.1c0,10.7,0,21.5,0,32.2c0,8.6,0,8.6-8.4,9.3
			c0.8,1.1,1.6,2,2.3,3c-0.9,1.7-2.2,3.4-4.3,2.8c-2.4-0.7-1.2-3.1-1.5-4.8C483.6,74,483.5,72.4,483.3,70.8z"/>
	</g>
	<path class="st0" d="M718.2-24c-0.1,37-0.1,254-0.3,291c0,4.3,1.8,5.5,5.7,5.5c10.1-0.1,20.3,0.1,30.4-0.1c4.5-0.1,6.4,1.1,6.3,6
		c-0.3,15.9-0.1,31.7-0.1,47.6c0,1.6,0.7,3.7-1.2,4.6c-1.8,0.8-3.2-0.8-4.3-1.9c-4.2-4.1-8-3.8-12.1,0.3c-3.7,3.7-7.4,3.4-11-0.3
		c-3.8-4-7.6-3.9-11.5,0s-7.8,3.7-11.5-0.3c-3.6-3.8-7.2-4.1-10.9-0.2c-3.9,4.2-7.9,4.5-11.9,0.2c-3.9-4.2-7.6-3.8-11.4,0.2
		c-1.2,1.3-2.6,3.3-4.8,2.1c-1.7-1-1.1-3-1.1-4.6c-0.1-16.1,0.1-32.1-0.1-48.2c0-4.3,1.7-5.4,5.7-5.3c10.4,0.2,20.7,0,31.1,0.1
		c3.4,0,5.7-0.7,5.7-4.8c-0.2-37.2-0.2-254.4-0.3-291.6C713.2-24,715.7-24,718.2-24z"/>
	<path class="st1" d="M1323.9-8.1c-0.1,37-0.1,294-0.3,331c0,4.3,1.8,5.5,5.7,5.5c10.1-0.1,20.3,0.1,30.4-0.1c4.5-0.1,6.4,1.1,6.3,6
		c-0.3,15.9-0.1,31.7-0.1,47.6c0,1.6,0.7,3.7-1.2,4.6c-1.8,0.8-3.2-0.8-4.3-1.9c-4.2-4.1-8-3.8-12.1,0.3c-3.7,3.7-7.4,3.4-11-0.3
		c-3.8-4-7.6-3.9-11.5,0s-7.8,3.7-11.5-0.3c-3.6-3.8-7.2-4.1-10.9-0.2c-3.9,4.2-7.9,4.5-11.9,0.2c-3.9-4.2-7.6-3.8-11.4,0.2
		c-1.2,1.3-2.6,3.3-4.8,2.1c-1.7-1-1.1-3-1.1-4.6c-0.1-16.1,0.1-32.1-0.1-48.2c0-4.3,1.7-5.4,5.7-5.3c10.4,0.2,20.7,0,31.1,0.1
		c3.4,0,5.7-0.7,5.7-4.8c-0.2-37.2-0.2-294.4-0.3-331.6C1318.9-8.1,1321.4-8.1,1323.9-8.1z"/>
	<path class="st3" d="M411.6-11.2c-0.1,37-0.1,534-0.3,571c0,4.3,1.8,5.5,5.7,5.5c10.1-0.1,20.3,0.1,30.4-0.1c4.5-0.1,6.4,1.1,6.3,6
		c-0.3,15.9-0.1,31.7-0.1,47.6c0,1.6,0.7,3.7-1.2,4.6c-1.8,0.8-3.2-0.8-4.3-1.9c-4.2-4.1-8-3.8-12.1,0.3c-3.7,3.7-7.4,3.4-11-0.3
		c-3.8-4-7.6-3.9-11.5,0s-7.8,3.7-11.5-0.3c-3.6-3.8-7.2-4.1-10.9-0.2c-3.9,4.2-7.9,4.5-11.9,0.2c-3.9-4.2-7.6-3.8-11.4,0.2
		c-1.2,1.3-2.6,3.3-4.8,2.1c-1.7-1-1.1-3-1.1-4.6c-0.1-16.1,0.1-32.1-0.1-48.2c0-4.3,1.7-5.4,5.7-5.3c10.4,0.2,20.7,0,31.1,0.1
		c3.4,0,5.7-0.7,5.7-4.8c-0.2-37.2-0.2-534.4-0.3-571.6C406.6-11.2,409.1-11.2,411.6-11.2z"/>
	
		<ellipse transform="matrix(0.7071 -0.7071 0.7071 0.7071 -489.9873 541.0134)" class="st3" cx="408.1" cy="862" rx="223.8" ry="220.2"/>
	<g>
		<circle class="st4" cx="710.2" cy="573.9" r="222.5"/>
		<g>
			<g>
				<g>
					<g>
						<defs>
							<circle id="SVGID_1_" cx="710.1" cy="573.9" r="222.5"/>
						</defs>
						<clipPath id="SVGID_2_">
							<use xlink:href="#SVGID_1_"  style="overflow:visible;"/>
						</clipPath>
						<g class="st5">
							
								<rect x="771.1" y="197.7" transform="matrix(0.5162 -0.8565 0.8565 0.5162 14.5581 890.6797)" class="st3" width="49" height="469.5"/>
							
								<rect x="707.8" y="292.1" transform="matrix(0.5162 -0.8565 0.8565 0.5162 -96.9857 882.1165)" class="st3" width="49" height="469.5"/>
							
								<rect x="654.4" y="386.8" transform="matrix(0.5162 -0.8565 0.8565 0.5162 -203.861 882.2126)" class="st3" width="49" height="469.5"/>
							
								<rect x="612.9" y="481.3" transform="matrix(0.5162 -0.8565 0.8565 0.5162 -304.9092 892.4109)" class="st3" width="49" height="469.5"/>
						</g>
					</g>
				</g>
			</g>
		</g>
	</g>
	<path class="st6" d="M89.6,724.3c0.1,7.5-3.2,8.8-7.3,8.9c-5.1,0.2-8.9-3.1-8.7-7.8c0.2-4.8,3.4-7,7.9-7.2
		C86.2,718.1,89.6,721.8,89.6,724.3z"/>
	<path class="st7" d="M37.3,350.6c-0.5,3.8-3.1,6.5-7.7,6.7c-5.2,0.2-10.5-4.5-9.9-8.8c0.7-5.1,3.9-8,9-8.1
		C33.2,340.3,37.5,345.1,37.3,350.6z"/>
	<g>
		<circle class="st4" cx="1324.2" cy="627.4" r="222.5"/>
		<g>
			<g>
				<g>
					<g>
						<defs>
							<circle id="SVGID_3_" cx="1324.2" cy="627.4" r="222.5"/>
						</defs>
						<clipPath id="SVGID_4_">
							<use xlink:href="#SVGID_3_"  style="overflow:visible;"/>
						</clipPath>
						<g class="st8">
							<rect x="1093.5" y="400.9" class="st9" width="469.5" height="49"/>
							<rect x="1093.5" y="506.4" class="st9" width="469.5" height="49"/>
							<rect x="1093.5" y="605.9" class="st9" width="469.5" height="49"/>
							<rect x="1093.5" y="705.4" class="st9" width="469.5" height="49"/>
							<rect x="1093.5" y="804.9" class="st9" width="469.5" height="49"/>
						</g>
					</g>
				</g>
			</g>
		</g>
	</g>
	
		<ellipse transform="matrix(0.7071 -0.7071 0.7071 0.7071 -69.5088 466.9395)" class="st9" cx="528.9" cy="317.4" rx="224.7" ry="217.1"/>
	<g>
		<g>
			<g>
				<g>
					<defs>
						
							<ellipse id="SVGID_5_" transform="matrix(0.7071 -0.7071 0.7071 0.7071 -69.3331 467.3735)" cx="529.5" cy="317.4" rx="224.7" ry="217.1"/>
					</defs>
					<clipPath id="SVGID_6_">
						<use xlink:href="#SVGID_5_"  style="overflow:visible;"/>
					</clipPath>
					<g class="st10">
						<g>
							<path class="st11" d="M462.4,358.7c0-0.4,0.1-0.9,0.1-1.3c-7.6,3.3-14.9,7.2-23.5,8.5c-10.2,1.6-19.7,0.9-27.9-4.1
								c-5.6-3.4-9.3-2-12.5,2.8c-6.4,9.6-11.8,19.6-14.1,30.4c-2.5,11.7,2.5,19.3,15.2,23.3c8.1,2.5,16.6,3.2,25.3,2.8
								c3.6-4.5,4.1-9.8,6.2-14.7C438.7,389.2,447.8,372.7,462.4,358.7z"/>
							
								<ellipse transform="matrix(0.9868 -0.1619 0.1619 0.9868 -55.4614 70.5895)" class="st12" cx="405.4" cy="375.6" rx="1.9" ry="1.6"/>
							
								<ellipse transform="matrix(0.9868 -0.1619 0.1619 0.9868 -56.6705 70.1502)" class="st12" cx="402.1" cy="382.8" rx="1.8" ry="1.5"/>
							
								<ellipse transform="matrix(0.9868 -0.1619 0.1619 0.9868 -57.927 69.7311)" class="st12" cx="398.9" cy="390.3" rx="1.9" ry="1.6"/>
						</g>
						<path class="st11" d="M439.5,269.6c0.6,5,1.1,10,1.7,15.5c3.6-0.8,5.2-3.3,7.1-5.4c7-8,13.5-16.3,19.5-25
							c11.2-16.5,23.7-31.5,41.3-41.7c-11.1-14.9-29.8-17.3-45.8-5.6c-9.5,6.9-15.1,16.6-18.7,27.5
							C440.8,246.2,439.1,257.8,439.5,269.6z"/>
						<path class="st13" d="M371.4,282.1c16.4,8.7,34.3,13,53.6,15.5c0.9,0.1,1.6,0.7,1.8,1.5c1.1,4.1,2.7,11,3.1,15.6
							c0.2,1.5-1.3,2.6-2.8,2.1c-23.3-7.1-48-18.7-58.5-31.7C367.1,283.4,369.3,281,371.4,282.1z"/>
						<path class="st14" d="M375,259.7c0,0-2.8-24.1,9.4-18.9c0,0,7.5-5.3,7.7,3.1c0,0-1.7,64.3,39,46.9c0,0,11.2-3.7,44.4-51.3
							c0,0,20.7-30.6,51.8-36.4c0,0,23.6-4.6,39.1,5.4c0,0,3.5,1.9,6.6,5.9c0,0,4.5,8.8,12.7-5.1c0,0,5.6-11.2,28.7-11.4
							c0,0,35.3-3.3,53.4,31.5c18.2,34.8,15.7,58.4,2.9,88.8c0,0-16,44.7-50.9,44.5c0,0,71.3,38.9,91.7,179H390.7
							c0,0-6.9-103.3,69.7-183.2c0,0,12.3-13.1-4.7-21.4C433.7,326.5,380.6,314.9,375,259.7z"/>
						<g>
							<path class="st15" d="M472.5,351.6c2.9,13.2,16,29.5,30.6,32.1c25.4,4.6,47-4.9,67-20.4c6.2-4.8,12-10.4,17.5-16.2
								c3-3.2,2.4-4.6-1.5-5.8c-5.6-1.6-10.9-0.1-16.2,1.2c-2,0.5-4,1.1-6,1.6c-0.7,3.1-2.6,5.1-5.4,6.2
								c-14.3,5.3-28,12.3-42.8,15.7c-7.9,1.9-16.1,1.7-24.1,0.1c-6.8-1.3-12.4-5.2-16.9-10.8L472.5,351.6z"/>
							<path class="st11" d="M472.7,351.8c5,10.5,13.5,15.4,23.8,16.7c14.7,1.8,28.5-1.1,41.9-8.3c7.9-4.2,17.2-5.2,25-10
								c2.5-1.5,4.6-2.9,2.2-6.3c-1.3-0.3-2.3,0.3-3.4,0.9c-20,11.5-40.9,12.4-62.6,7.2c-7.2-1.7-14.2-4.5-21.8-3.9
								c-2,0.2-4.2-0.2-5.4,2.3C472.6,350.9,472.6,351.4,472.7,351.8z"/>
						</g>
						<g>
							<path class="st16" d="M625.1,250.3c0.6,0,1.2,0,1.7-0.1c2.3-0.3,5.7,1.8,6.3-2c0.6-4-3.4-3.7-5.8-4.2
								c-6-1.2-14.1,2.8-17.1,9.8c-8.4,19.4-6.7,38.7,2.8,57.4c0.8,1.6,2,3.1,4.2,1.8c2.2-1.3,2.1-2.9,1-4.9c-2-3.7-4-7.6-4.6-11.9
								c1.3-3.5-0.1-6.8-0.5-10.2c-0.6-5.4,0.5-6.5,5.6-4.7c1.8,0.6,3.8,0.8,5.4,2c2.6,0.4,4.2-0.6,4.5-3.3c-0.9-5.9-6-6.9-10.3-7.9
								c-4.5-1-5-3-4.3-6.9C615.2,258.1,619.3,253.6,625.1,250.3z"/>
							<path class="st15" d="M625.1,250.3c-7.1,1.1-11.4,6.3-12.9,15c-0.7,4.3-1.7,8,5.2,8c4.4,0,8.4,2.6,11.1,6.6
								C635.6,269.7,634.8,262.8,625.1,250.3z"/>
							<path class="st15" d="M624.1,283.2c-1.2-1-2.2-2.1-3.5-2.9c-2.5-1.6-5.7-2.8-8.2-1.2c-2.6,1.7-1.3,5-0.7,7.5
								c0.7,3.2,0.4,6.6,2,9.6c2.3-1.5,3.1-3.7,3.4-6.3C617.4,285.5,619.8,283.4,624.1,283.2z"/>
						</g>
						<path class="st17" d="M491.7,282c1.5,5.9,4.4,10.1,10.3,9.8c5-0.3,8.7-3.3,8.7-9.1c0-6.1-3.2-10-9-10
							C496,272.6,493.1,277,491.7,282z"/>
						<path class="st13" d="M434.5,309.8c0.1,0,0.1,0,0.2-0.1c1-0.4,11.2-4,12.8,4.3c0,0,1.7,7.1-2.5,10.5c-1.8,1.4-4,2.5-7.7,3.4
							c0,0-41.1,11.2-70.1-24.8c-1.3-1.6,0-4.2,1.7-3.5C381.5,305.2,409.8,315.8,434.5,309.8z"/>
						<path class="st18" d="M509.1,220.4c0,0-21.5-38.6-57.4,0c0,0-22.6,20.3-16.1,70.5L509.1,220.4z"/>
						<path class="st15" d="M394.7,490.8c0,0,87.2,18.6,140.6,11.6c0,0,111.1-15.2,166-12c0,0,6.2,19.4,10,47.9H390.6
							C390.6,538.3,389.7,511.6,394.7,490.8z"/>
						<g>
							<path class="st11" d="M511.3,504.5c3.7,2.7,3,6.6,2.7,10.2c-0.5,5.2,1.7,7.8,7,8.1c16,0.9,31.9,1.8,47.9,2.9
								c4.5,0.3,5.9-1.1,6.3-5.7c0.6-7.6,2.5-15,5-22.2c3.1-13.4,9.1-18.4,22.2-18.4c2,0,4.2,0.4,4.4-2.6c0.2-2.6-1.8-3.3-3.8-3.8
								c-8-2.3-18.3,2.6-24.1,11.4c-3.2,4.9-4.9,10.4-6.1,15.9c-0.7,3.2-2,4.4-5.2,4.2c-15.4-0.9-30.7-1.7-46.1-2.4
								c-3.4-0.2-4.4-1.5-3.9-5.1c3-20.2,13.2-35.5,30.4-46.4c2.1-1.3,5.9-2.2,4-5.6c-2-3.6-5.1-1.3-7.4,0.2
								C523.2,459.3,510.7,478.2,511.3,504.5z"/>
							<path class="st19" d="M543.4,492.5c0.6,1.6,1.6,2.8,3.4,2.5c1.9-0.3,3.1-1.7,2.7-3.7c-0.4-1.6-1.5-2.8-3.3-2.4
								C544.2,489.2,543.2,490.5,543.4,492.5z"/>
							<path class="st20" d="M555.7,492.9c0.2,1.7,1.2,2.9,2.8,3.1c2.1,0.2,3.1-1.2,3-3.3c-0.1-1.8-1.3-2.7-3-2.7
								C556.6,490,556,491.3,555.7,492.9z"/>
							<path class="st21" d="M532.6,491.1c0.2,1.8,1.2,2.8,2.9,2.8c1.8,0.1,2.9-1,2.9-2.7c0-1.8-1.2-2.7-2.9-2.8
								C533.8,488.4,532.7,489.2,532.6,491.1z"/>
						</g>
					</g>
				</g>
			</g>
		</g>
	</g>
	<g>
		<g>
			<g>
				<g>
					<defs>
						
							<ellipse id="SVGID_7_" transform="matrix(0.7071 -0.7071 0.7071 0.7071 10.9938 836.1096)" cx="1014.8" cy="404.8" rx="223.8" ry="220.2"/>
					</defs>
					<clipPath id="SVGID_8_">
						<use xlink:href="#SVGID_7_"  style="overflow:visible;"/>
					</clipPath>
					<g class="st22">
						<rect x="762.4" y="179.8" class="st23" width="514.7" height="449.9"/>
						<polygon class="st3" points="1052.6,180.9 987.9,331.3 1116.6,331.3 						"/>
						<polygon class="st3" points="956.8,256.4 924.7,331.1 988.6,331.1 						"/>
						<polygon class="st3" points="924.4,331.2 892.3,405.9 956.2,405.9 						"/>
						<polygon class="st3" points="1053.5,331.2 1021.3,405.9 1085.3,405.9 						"/>
						<polygon class="st3" points="1116.1,331.2 1084,405.9 1147.9,405.9 						"/>
						<polygon class="st3" points="1181,331.2 1148.9,405.9 1212.8,405.9 						"/>
						<polygon class="st3" points="1244.2,331.2 1212,405.9 1276,405.9 						"/>
						<polygon class="st3" points="891.4,406.1 859.2,480.8 923.2,480.8 						"/>
						<polygon class="st3" points="827.6,406.1 795.4,480.8 859.4,480.8 						"/>
						<polygon class="st3" points="985.5,480.4 953.3,555.1 1017.3,555.1 						"/>
						<polygon class="st3" points="891.3,555.1 859.1,629.8 923.1,629.8 						"/>
						<polygon class="st3" points="1147.9,555.1 1115.7,629.8 1179.7,629.8 						"/>
						<polygon class="st3" points="1212.4,405.2 1147.7,555.5 1276.4,555.5 						"/>
						<polygon class="st24" points="989,181.9 956.8,256.6 1020.8,256.6 						"/>
						<polygon class="st24" points="924.8,181.9 892.7,256.6 956.6,256.6 						"/>
						<polygon class="st24" points="860.7,181.9 828.5,256.6 892.5,256.6 						"/>
						<polygon class="st24" points="1116.4,181.9 1084.3,256.6 1148.2,256.6 						"/>
						<polygon class="st24" points="1084,406.1 1051.9,480.8 1115.8,480.8 						"/>
						<polygon class="st24" points="1148.1,406.1 1115.9,480.8 1179.8,480.8 						"/>
						<polygon class="st24" points="1115.9,480.4 1083.8,555.1 1147.7,555.1 						"/>
						<polygon class="st24" points="923.3,480.4 891.1,555.1 955.1,555.1 						"/>
						<polygon class="st24" points="860.2,480.4 828,555.1 892,555.1 						"/>
						<polygon class="st9" points="989.2,330.5 924.5,480.8 1053.2,480.8 						"/>
						<polygon class="st9" points="828.9,255.5 764.2,405.9 892.9,405.9 						"/>
						<polygon class="st9" points="1052.2,479.4 987.5,629.8 1116.2,629.8 						"/>
						<polygon class="st9" points="955.2,555.1 923.1,629.8 987,629.8 						"/>
						<polygon class="st9" points="1148.9,256.4 1116.7,331.1 1180.7,331.1 						"/>
						<polygon class="st9" points="1212.5,256.4 1180.3,331.1 1244.3,331.1 						"/>
						<polygon class="st9" points="892.1,256.4 859.9,331.1 923.9,331.1 						"/>
						<polygon class="st9" points="988.6,331.2 1020.8,256.4 956.8,256.4 						"/>
						<polygon class="st9" points="891.2,555.1 923.3,480.4 859.4,480.4 						"/>
						<polygon class="st9" points="827.7,555.1 859.9,480.4 795.9,480.4 						"/>
						<polygon class="st9" points="957.1,256.6 989.2,181.9 925.3,181.9 						"/>
						<polygon class="st9" points="892.5,256.6 924.7,181.9 860.7,181.9 						"/>
						<polygon class="st9" points="1020.3,256.6 1052.5,181.9 988.5,181.9 						"/>
						<polygon class="st9" points="1084.4,256.6 1116.6,181.9 1052.6,181.9 						"/>
						<polygon class="st9" points="1148.5,256.6 1180.7,181.9 1116.7,181.9 						"/>
						<polygon class="st25" points="859.6,480.4 891.7,405.6 827.8,405.6 						"/>
						<polygon class="st3" points="1180.5,181.9 1148.4,256.6 1212.3,256.6 						"/>
						<polygon class="st25" points="796.3,480.4 828.4,405.6 764.5,405.6 						"/>
						<polygon class="st25" points="892,405.9 924.2,331.2 860.2,331.2 						"/>
						<polygon class="st25" points="1179.7,629.8 1211.8,555.1 1147.9,555.1 						"/>
					</g>
				</g>
			</g>
		</g>
	</g>
	<g>
		<path class="st26" d="M268.9,704.1c-1.6,1.9-2.4,4.6-5.3,5.1c-6.2,1.1-12-1.1-17.7-2.9c-4.7-1.5-6.6-9.8-3.9-15.5
			c4.2-8.8,15.8-11.7,23.3-5.8c2.5,1.9,3.6,4.6,3.6,7.7C268.9,696.6,268.9,700.4,268.9,704.1z"/>
		<path class="st27" d="M187.4,117.9c-6,0.1-11.8-4.7-11.9-9.9c-0.2-5.2,5.1-10.3,10.7-10.4c5.8-0.1,11.5,5.5,11.5,11.3
			C197.7,113.5,192.8,117.9,187.4,117.9z"/>
		<path class="st6" d="M370.2,81.1c5.7-0.1,9.6,3.3,8.9,8.8c-0.5,4.6-3.6,7.4-8.5,7.7c-4.5,0.2-9.1-4.6-9.1-9.4
			C361.7,83.9,365,81.2,370.2,81.1z"/>
		<path class="st28" d="M1249.5,234.7c-7.5,0-14.8-7.6-14.7-15.3c0.1-6.8,6.7-12.7,14-12.6c6.9,0.1,15,7.4,15.1,13.7
			C1264.1,227.3,1256.5,234.6,1249.5,234.7z"/>
		<path class="st29" d="M1192.6,156c-5.7-0.1-8.6-2.9-8.6-8.4c0-5.3,3.2-7.6,7.8-7.9c4.3-0.3,9.3,5.1,9.5,9.5
			C1201.5,153.2,1197.9,156.1,1192.6,156z"/>
		<path class="st6" d="M1337.6,87.3c0.1,7.6-3.2,8.9-7.4,9c-5.2,0.2-9-3.1-8.8-7.9s3.4-7.1,8-7.2C1334.1,81,1337.5,84.8,1337.6,87.3
			z"/>
		<path class="st30" d="M1273.6,645.6c6,0,12.2,5.4,12.1,10.5c-0.1,5.4-5.1,10.1-10.7,10.2c-6,0.1-11.3-5.3-11.1-11.3
			C1264,649.8,1268.3,645.6,1273.6,645.6z"/>
		<path class="st7" d="M412.8,457.5c-0.4,3.6-2.9,6.2-7.3,6.4c-4.9,0.2-9.9-4.2-9.3-8.3c0.6-4.8,3.7-7.5,8.5-7.7
			C408.9,447.7,412.9,452.3,412.8,457.5z"/>
		<path class="st31" d="M1235,823.4c-3.2-0.8-6.6-1.8-6.6-6.1c0-4,2.6-6.2,6.4-6.2c3.9,0,6.2,2.7,6.3,6.4
			C1241.3,821.3,1238.9,823.2,1235,823.4z"/>
		<path class="st32" d="M335.6,736.8c0.1,4.4-3.8,8.4-8.4,8.4c-4.8,0-9.4-4.2-9.4-9.1c0-5.1,3.3-7.4,8.1-7.7
			C331.2,728,335.5,731.8,335.6,736.8z"/>
		<path class="st33" d="M582.9,853.1c4.1,0.3,6.4,2.6,6.8,6.3c0.4,3.7-1.7,6.2-5.6,6.1c-3.6,0-6.8-1.5-7.2-5.6
			C576.5,855.9,579.2,853.9,582.9,853.1z"/>
		<path class="st34" d="M778,682c-0.3,3.6-2.2,5.8-5.6,5.7c-3.6-0.1-6.9-1.8-7-5.9c-0.1-3.6,2.4-5.9,6.1-5.9
			C775.5,675.9,777.5,678.3,778,682z"/>
		<path class="st35" d="M802.2,410c0,4.5-4.1,8.5-8.6,8.3c-4.6-0.2-9.3-5-9-9.8c0.4-5.1,3.8-7.2,8.6-7.3
			C798.2,401.3,802.1,405.2,802.2,410z"/>
		<path class="st36" d="M731.9,358.9c-7.3,2.4-12.5-0.4-16.4-6.6c-2.2-5.8-0.9-10.3,4.8-13.1c5.3-2.7,12.3-0.7,15.5,4.3
			C738.7,347.9,737.2,353.7,731.9,358.9z"/>
		<path class="st37" d="M1056.9,305.5c3.4,0.9,6.8,2,6.6,6.4c-0.2,3.7-2.7,6-6.2,5.9c-4.2-0.1-6.6-2.9-6.4-7.1
			C1051,307.1,1053.6,305.7,1056.9,305.5z"/>
		<path class="st38" d="M884.2,495c-1.1,1.2-2.3,2.4-3.4,3.5c-3.5-1.1-6.9,3.7-10.4,0.1c-0.4-1.8-2.1-2.5-3.4-3.5
			c-0.1-0.5-0.3-1-0.4-1.5c0.4-7.6,3.1-11.1,8.3-11.1C880.7,482.5,884.1,487,884.2,495z"/>
		<path class="st26" d="M932.6,906.5c-1.6,1.9-2.4,4.6-5.3,5.1c-6.2,1.1-12-1.1-17.7-2.9c-4.7-1.5-6.6-9.8-3.9-15.5
			c4.2-8.8,15.8-11.7,23.3-5.8c2.5,1.9,3.6,4.6,3.6,7.7C932.6,898.9,932.6,902.7,932.6,906.5z"/>
		<path class="st32" d="M300,999.9c0.1,4.4-3.8,8.4-8.4,8.4c-4.8,0-9.4-4.2-9.4-9.1c0-5.1,3.3-7.4,8.1-7.7
			C295.6,991.1,299.8,994.9,300,999.9z"/>
		<path class="st35" d="M487.5,962.1c0,4.5-4.1,8.5-8.6,8.3c-4.6-0.2-9.3-5-9-9.8c0.4-5.1,3.8-7.2,8.6-7.3
			C483.6,953.3,487.5,957.2,487.5,962.1z"/>
		<path class="st36" d="M562.8,1022.4c-4.8,1.6-8.2-0.3-10.7-4.3c-1.4-3.8-0.6-6.7,3.1-8.6c3.5-1.7,8-0.4,10.1,2.8
			C567.2,1015.2,566.3,1019,562.8,1022.4z"/>
	</g>
	<path class="st36" d="M180.3,827.9c-7.8,2.5-13.3-0.4-17.4-7c-2.3-6.1-0.9-10.9,5.1-13.9c5.7-2.8,13-0.7,16.5,4.5
		C187.5,816.2,186,822.4,180.3,827.9z"/>
	<g>
		<path class="st28" d="M526.9,211.5c-0.2-0.8-0.8-1.2-1.4-1.6c-2.1-2.8-1.7-5.7,1.1-7.9c1.9-1.6,4.3-2.6,6.6-3.5
			c1.2-0.7,2.2-1.8,3.7-2.1c1.1-0.5,2.3-0.8,3.6-0.9c2.9-0.3,5.8-0.6,8.7-0.9c1.6-0.3,3.3-0.3,4.9-0.8c1,0,2-0.2,3,0
			c1.7,0.2,3.5,0.3,5.2,0c0.3,0,0.6,0,0.9,0c2.2,0.4,4.3-0.1,6.4-0.3c12.8-0.4,25.3,1.9,37.7,4.5c4.7,1,9.2,2.5,13.6,4.1
			c1.9,0.7,3.4,1.8,4.8,3.2c1.8,1.5,4,2.5,5.7,4.1c3.8,3.7,3.5,7.4-1,10.3c-4.2,2.7-9,3.9-13.9,4.7c-14.7,2.5-29.6,2.3-44.5,0.7
			c-12-1.3-23.7-3.4-34.9-7.8C533.5,215.8,529.9,214.1,526.9,211.5z"/>
		<path class="st39" d="M625.8,206.1c-17.8-8.3-36.7-11.2-56.1-11.5c-2.2,0.5-4.4-0.5-6.6,0c-0.2,0-0.4,0-0.5,0
			c-1.3-1.1-1.8-2.8-1.6-4.2c0.3-2.2,2.2-1.4,3.7-1.1c-3.7-1.6-3.9-2.4-1.4-4.7c0.3-0.2,0.5-0.5,0.7-0.8c0.3-0.4,0.6-0.9,0.7-1.4
			c0.2-0.4,0.3-0.9-0.2-1.1c-0.4-0.2-0.8,0.3-1.1,0.5c-0.6,0.5-1.4,0.8-1.7,1.6c-0.5,0.6-0.8,1.4-0.8,2.2c0,0.9-0.4,1.6-1.2,1.9
			c-0.9,0.3-1.5-0.3-2.1-0.9c-0.8-0.7-1-1.9-1.9-2.5c0,0-0.1,0.1-0.2,0.2c-0.1,0.1-0.1,0.2-0.1,0.3c0.4,2.6-1.6,3.5-3.2,4.6
			c-1.6,1-2.4,2.3-1.5,4.3c0.9,1.9-0.7,1.9-1.8,2.4c-1.7-0.2-3.3,0.6-5.1-0.3c-1-0.5-2.1,1-3.1,1.6c-1.1,0.2-2.2,0.2-3.2,0.9
			c-1.3,0-2.1-0.5-1.9-2c11-15,25.4-25.7,42.4-32.9c14.1-6,28.8-8.8,44.1-8.2c0.7,0,1.2,0.4,1.5,1c1.4,2.7,3.4,5,5.7,7
			c0.5,0.5,0.9,1.1,0.6,1.9c-2.6,5.1-5.7,10-7.5,15.6c-2.5,8-1.7,15.6,2.2,23C625,204.3,625.4,205.3,625.8,206.1z"/>
		<path class="st28" d="M629.8,164.9c-3.6-2.5-6.4-5.6-7.8-9.9c-1.7-10,2.7-17.5,11.5-20c6.6-1.8,13.6,0.9,17.4,6.8
			c3.8,5.8,3.4,13.5-1,18.9c-4.3,5.3-11.6,7.3-17.8,5C631.3,165.4,630.5,165.2,629.8,164.9z"/>
		<path class="st39" d="M535.5,196.1c0.4,0.9,1,1.6,1.9,2c-1.4,0.4-2.8,0.9-4.2,1.3C534.4,198.6,533.2,196.2,535.5,196.1z"/>
		<path class="st39" d="M564.3,185.4c-0.4,0.9-2.1,0.1-2,1.3s1.6,0.9,2.4,1.3c1.1,0.5,3.4,0.5,3.1,1.7c-0.5,1.6-2.5,0.7-3.8,0.4
			c-0.7-0.1-1.6-1-2.2-0.1c-0.5,0.7,0.3,1.4,0.8,1.8c1.1,0.9-0.1,1.8,0.1,2.7c-1.8,0.6-3.6,0.3-5.4,0.1c0-1.5,0-1.5,1.5-2.3
			c-2.2-2.5-3.1-5.5-4.5-8.4c-0.3-0.7-0.8-1.5,0.3-2.1c1-0.6,1.4,0.2,1.9,0.9c1,1.4,1.7,2.9,3,4.2c1.2-1.3,0.2-3.3,1.4-4.5
			C562,183.5,563.4,184.1,564.3,185.4z"/>
		<path class="st39" d="M554.2,184c2.3,3.3,4.6,6.7,6.9,10c-1.2,1.4-3.2-2.8-3.9,0.7c-0.9,0.1-1.8,0.3-2.7,0.4
			c-1.6,0.4-2.8-0.3-3.4-1.7c-0.8-1.8,0.1-3.2,1.7-4.2c-0.8-0.2-1.3-0.3-1.6-0.8c0.3-0.3,0.6-0.8,1-0.8
			C554.5,187.3,554.6,185.8,554.2,184z"/>
		<path class="st39" d="M551.1,188.3c0.5-0.1,1-0.3,1.6-0.4c1-0.1,2.5-0.5,2.7,0.8c0.3,1.3-1.1,1.3-2.1,1.4c-1,0.1-1.9,0.6-1.8,1.6
			c0.1,1.7,1.1,3,2.9,3.3c-1.6,0.2-3.2,0.5-4.8,0.7c-0.4,0.2-0.7,0.1-0.8-0.2c0.4-0.4,2,0,1.1-1.4
			C548.2,191.7,549.3,189.9,551.1,188.3z"/>
		<path class="st39" d="M548.7,195.5c0.3,0.1,0.6,0.2,0.8,0.2c-3,0.5-6,0.9-9,1.4c0.6-1,1.2-2,2.2-2.6c0.5-0.3,1.2-1,1.6-0.3
			C545.4,196.4,547.2,195.4,548.7,195.5z"/>
		<path class="st40" d="M563.1,194.6c2.2-0.7,4.4-0.3,6.6,0C567.5,195.1,565.3,195,563.1,194.6z"/>
		<path class="st41" d="M612.7,162.1c-0.4,1.5-1.4,2.5-3.1,2.3c-1.7-0.2-2.6-1.3-2.5-3c0.2-1.8,1.3-2.8,3.1-2.5
			C611.9,159.2,612.7,160.4,612.7,162.1z"/>
		<path class="st42" d="M617,194.2c-0.3,1.4-1.2,2.4-2.8,2.3c-1.6-0.1-2.5-1-2.4-2.6s1.1-2.5,2.7-2.4
			C616,191.6,616.9,192.5,617,194.2z"/>
		<path class="st43" d="M564.3,185.4c-2.1,0.2-3.7-0.3-3.5-2.9c0.6-0.5,1.2-1,1.7-1.5c3-0.2,3.3,0.2,2.4,4
			C564.7,185.1,564.5,185.2,564.3,185.4z"/>
		<path class="st39" d="M594.1,169.2c-0.6-0.1-1.3,0-1.5-0.8s0.2-1.2,1-1.3c1.1,0,1.6-0.5,1.8-1.6c0.1-0.6,0.5-1,1.2-0.8
			c0.8,0.1,0.9,0.8,0.9,1.4C597.5,167.9,595.9,169.4,594.1,169.2z"/>
		<path class="st39" d="M590.1,162.6c0.1-1.5,0.7-2.6,2.3-2.7c0.8,0,1.7-0.2,2,0.8c0.3,0.9-0.5,1.2-1.2,1.4c-0.7,0.1-1,0.6-1.3,1.2
			c-0.3,0.6-0.5,1.3-1.3,0.9C589.9,164,590.1,163.2,590.1,162.6z"/>
		<path class="st44" d="M574.8,175.4c-0.2,0.9-0.6,1.6-1.8,1.6s-1.9-0.6-1.8-1.8c0-1,0.6-1.6,1.7-1.6
			C574.1,173.5,574.7,174.2,574.8,175.4z"/>
		<path class="st45" d="M619.2,168.9c1,0.2,1.6,0.8,1.6,1.8c-0.1,1-0.7,1.6-1.8,1.5c-1-0.1-1.7-0.7-1.6-1.8
			C617.5,169.6,618.1,169,619.2,168.9z"/>
		<path class="st46" d="M604.5,177.7c-0.1,1-0.6,1.6-1.7,1.6c-1.2,0-1.8-0.7-1.8-1.9c0.1-1,0.7-1.6,1.8-1.5
			C603.8,176,604.4,176.5,604.5,177.7z"/>
		<path class="st47" d="M600.3,193.2c-0.2,1-1,1.5-1.9,1.4c-0.9-0.2-1.6-0.9-1.4-2c0.2-1,0.9-1.3,1.8-1.3
			C599.9,191.4,600.4,192.1,600.3,193.2z"/>
		<path class="st48" d="M584,168.5c0.8,0,1.1,0.5,1.2,1c0.1,0.7-0.3,1.2-1.1,1.2c-0.6,0-1-0.4-1.1-0.9
			C582.9,169,583.5,168.7,584,168.5z"/>
		<path class="st49" d="M585.3,182.8c0.7,0.2,1.1,0.6,0.9,1.4c-0.1,0.6-0.5,0.9-1.2,0.8c-0.7-0.1-1.1-0.6-1-1.3
			C584.3,183.1,584.7,182.8,585.3,182.8z"/>
	</g>
</g>
<g>
	<path class="st50" d="M365.3,774.8c-1,1.3-1.7,2.2-2.4,3.2c-4.2,6.1-8.3,12.3-12.5,18.4c-0.9,1.3-2,2.6-3,3.9
		c-0.7,0.9-1.3,0.8-1.8-0.3s-0.9-2.1-1.3-3.2c-2.9-9-5.8-18-8.8-27c-0.3-1-0.5-2.1-1.7-3.2c-0.2,2-0.3,3.7-0.5,5.5
		c-0.7,7.6-1.6,15.1-4.4,22.2c-1.4,3.5-3.1,6.9-6,9.5c-3.3,3-7.1,4.1-11.4,2.8c-4.7-1.4-6.8-6.9-4.4-11.1c1.5-2.7,4.9-3.1,7.2-0.9
		c1.1,1,1.6,2.4,2.3,3.7c1.6,3.1,4.1,3.5,6.6,1.1c2-1.9,3-4.4,3.8-6.9c2.6-7.9,3.8-16,3.9-24.3c0-3.3-1.5-5.8-4.4-7.4
		c-0.9-0.5-2.4-0.9-1.7-2.3c0.7-1.4,2-0.4,2.9,0c3.1,1.4,6.2,2.5,9.5,3c1.8,0.3,3,1.3,3.9,2.9c3.2,5.7,5.6,11.7,8.3,17.6
		c0.8,1.6,1.6,3.2,2.4,4.9c0.6,1.4,1.3,1.4,2.2,0.2c3-3.8,5.7-7.8,8.4-11.9c3.1-4.7,6.2-9.4,9.2-14.2c1-1.6,2.2-2.2,4.1-1.6
		c2.4,0.7,4.9,1.1,7.4,1c0.5,0,1.1,0.1,1.6,0.2c0.4,0.1,0.7,0.3,0.7,0.7s-0.3,0.6-0.7,0.7c-1.1,0.3-2.3,0.3-3.4,0.3
		c-5.9,0.1-7,1.2-7.5,7.1c-0.7,8.7-0.3,17.4,0.2,26c0.3,5.1,0.3,10.2,0.9,15.3c0.5,3.8,2.2,6.5,5.9,7.7c0.2,0.1,0.4,0.1,0.5,0.2
		c0.8,0.4,1.9,0.7,1.6,1.9s-1.4,0.6-2.2,0.5c-6.6-1.1-13.3-1.1-20-0.3c-1.2,0.1-2.4,0.2-3.6-0.1c-0.5-0.1-1-0.3-1-0.9
		c0-0.6,0.5-0.9,0.9-1c1.1-0.2,2.3-0.4,3.4-0.5c4.4-0.4,5.5-1.4,5.7-5.9c0.2-9.5,0-19.1-0.3-28.6C365.9,781,365.8,778.2,365.3,774.8
		z"/>
	<path class="st51" d="M492.1,797.9c-0.4,1-0.8,2-1.3,3c-2,4.1-5.1,6.8-9.8,7.1c-4.6,0.3-7.9-2.1-10.2-5.8
		c-2.8-4.5-3.8-9.6-4.8-14.6c-0.5-2.6-0.9-5.1-1.4-7.7c-0.4-2.4-0.6-2.5-3-2.3c-0.6,0-1.5,0.5-1.7-0.5c-0.2-0.8,0.7-1,1.4-1.1
		c5.7-1.5,10.6-4.5,15.4-7.7c0.8-0.5,2-1.8,2.8-0.6c0.7,1.1-0.9,1.7-1.7,2.1c-3.3,1.9-4.7,4.8-4.6,8.6c0.1,6.2,0.8,12.2,3,18
		c0.5,1.4,1.3,2.8,2.3,3.9c3.2,3.8,8,3.5,10.6-0.8c1.7-2.8,2.3-6,2.7-9.2c0.3-2.8,0.4-5.7,0.1-8.5c-0.4-3.6-1.4-4.8-4.8-5.7
		c-1-0.3-2.8-0.1-2.5-1.7c0.3-1.8,2-0.9,3-0.9c5,0.4,9.8,0.1,14.6-1.4c0.7-0.2,1.5-0.6,2,0.2c0.5,0.9-0.3,1.5-1,1.9
		c-1.9,1-2.5,2.7-2.7,4.7c-0.7,7.1-0.8,14.2-1.8,21.2c-1.4,9.7-3.1,19.3-6.9,28.4c-1.5,3.6-3.5,6.9-6.4,9.7c-2.3,2.1-4.9,3.7-8,3.9
		c-7.5,0.7-12.2-4.8-10.6-12.4c1.1-5.1,4.3-7.9,8.7-7.7c4.1,0.2,6.7,5,4.7,8.6c-1.5,2.7-5.3,2.9-7,0.4c-0.5-0.7-0.7-1.5-1.2-2.3
		c-0.3-0.6-0.5-1.3-1.4-1.3s-1.3,0.6-1.6,1.3c-2.7,5,0.8,11.2,6.5,11.5c4,0.2,6.9-1.8,9.3-4.8c2.6-3.4,4.1-7.3,5.1-11.4
		c1.9-8.2,2.5-16.6,2.5-25C492.5,798.6,492.6,798.2,492.1,797.9z"/>
	<path class="st52" d="M273.5,847.7c0,6.7,1,13.2,4.2,19.2c4.5,8.3,13.1,12.3,21.4,9.8c7-2.1,10.3-7.5,12.1-14.1
		c0.7-2.7,0.8-5.4,1.1-8.1c0.1-0.5,0-1.2,0.7-1.2c0.5,0,0.6,0.6,0.7,1.1c2.1,10-4.9,22.5-14.4,25.8c-15.6,5.3-32.2-4.2-35.5-20.3
		c-1.3-6.6-1.1-13.2,0.6-19.7c3.4-12.5,12.7-19.5,25.7-19.4c3.3,0,6.5,0.6,9.8,1c4.1,0.5,5.6-0.6,6.4-4.6c0.3-1.5,0.3-3,0.6-4.5
		c0.2-0.9-0.1-2.6,1.2-2.4c1,0.1,0.6,1.6,0.6,2.6c-0.1,2.9-0.1,5.8,0.1,8.7c0.3,4.3,1.2,8.5,2.5,12.6c0.2,0.8,0.9,1.9,0,2.3
		c-0.9,0.5-1.4-0.7-1.9-1.3c-1.8-2.2-3.1-4.6-5.1-6.7c-4.8-5.1-10.8-6.6-17.5-5.2c-4.9,1-8.2,4.3-10.4,8.7
		C274.1,836.9,273.4,842.2,273.5,847.7z"/>
	<path class="st53" d="M326.3,859c1.2-2.2,2.2-4.1,3.8-5.6c5.3-5.1,13.4-3.2,15.7,3.8c1.3,4.1,1.2,8.3,1,12.5
		c-0.2,2.9-0.4,5.7-0.4,8.6c-0.1,3.4,0.6,4.3,3.9,4.9c0.8,0.1,2,0.1,1.7,1.3c-0.2,1.1-1.3,1-2.1,0.9c-1.1-0.1-2.2-0.4-3.2-0.6
		c-3.6-0.9-7.1,0.1-10.6,0.8c-0.9,0.2-2.2,0.8-2.5-0.2s1.3-1,2-1.3c1.5-0.6,2.4-1.7,2.6-3.2c0.9-6.9,1.5-13.8,0.7-20.7
		c0-0.1,0-0.2-0.1-0.4c-0.6-2.3-1.2-4.7-4.1-5.2c-2.1-0.4-4.1,0.9-5.5,3.7c-2.2,4.3-3,8.9-3.8,13.6c-0.4,2.5-0.7,5-0.8,7.6
		c0,3,0.5,3.7,3.2,4.7c0.6,0.2,1.7,0.2,1.5,1.2s-1.3,0.7-2,0.6c-1.7-0.3-3.3-0.7-5-1.1c-3-0.7-6-1.1-9-0.8c-0.6,0.1-1.2,0.1-1.8,0
		c-0.7-0.1-1.6,0-1.5-1.1c0.1-0.9,0.9-0.8,1.6-0.8c3.9,0.2,5.2-0.7,6.2-4.6c1.4-5.6,1.8-11.4,2.5-17.1c1.4-11.9,2.6-23.9,3.5-35.9
		c0.1-1.8,0.2-3.5-0.2-5.3c-0.5-2.2-1.6-3.1-3.9-3c-1.4,0.1-2.8,0.3-4.2,0.5c-0.6,0.1-1.5,0.2-1.7-0.7c-0.2-1,0.6-1.2,1.3-1.4
		c0.7-0.2,1.4-0.4,2.1-0.6c4.6-1.4,8.8-3.5,12-7.2c0.5-0.6,1-1.5,1.9-1s0.4,1.4,0.3,2.1c-3,16.6-4,33.4-5.3,50.1
		C326.1,858.4,326.2,858.5,326.3,859z"/>
	<path class="st54" d="M461.9,863.4c2.2-3.6,4.6-6.4,8.8-6c3.2,0.3,5,2.4,6.1,5.6c0.5-0.7,1-1.4,1.4-1.9c1.5-2,3.5-3.4,6.1-3.7
		c4.6-0.5,7.6,2.1,8.1,7c0.5,4.2-0.2,8.4-0.4,12.5c0,1.1-0.1,2.2,0,3.3c0.1,2.2,0.9,4.1,2.9,5.4c0.6,0.4,1.5,0.8,0.9,1.7
		c-0.5,0.8-1.3,0.4-2,0c-0.8-0.4-1.5-0.8-2.2-1.3c-2.7-1.9-5.5-3.5-8.7-4.5c-0.6-0.2-1.4-0.3-1.6-1.1c-0.1-0.9,0.8-0.9,1.3-1.2
		c0.9-0.4,1.5-1.2,1.8-2.2c1.1-3.9,1.5-7.9,0.7-11.9c-0.3-1.7-1-3.2-3-3.4c-1.7-0.2-3.3,0.7-4.1,2.7c-1.6,3.6-1.8,7.4-1.2,11.3
		c0.2,1.3,1,2.3,2.2,3c0.4,0.3,0.9,0.6,0.7,1.1c-0.2,0.6-0.8,0.6-1.3,0.5c-0.8-0.1-1.6-0.3-2.3-0.5c-2.4-0.6-4.7-1-7.2-0.7
		c-0.6,0.1-1.3,0-2-0.1c-0.3,0-0.7-0.1-0.6-0.5c0-0.2,0.3-0.4,0.4-0.5c3.3-0.6,3.5-3.2,3.7-5.7s0.3-5-0.3-7.4
		c-0.4-1.7-1.1-3.2-3.1-3.4c-1.9-0.2-3,1.1-3.8,2.6s-1,3.3-1.1,4.9c-0.2,2.5-0.3,5.1-0.1,7.6c0.3,3.5,1.1,4.5,4.3,5.4
		c0.6,0.2,1.6,0.1,1.4,1c-0.1,0.9-1.1,0.6-1.7,0.6c-1.3-0.1-2.5-0.2-3.8-0.4c-2.5-0.4-5-0.4-7.4-0.1c-1.1,0.1-2.3,0.1-3.5,0.1
		c-0.6,0-1.2-0.2-1.3-0.8c-0.1-0.7,0.5-0.9,1.1-1c0.4-0.1,0.7-0.2,1.1-0.3c3.4-0.6,4.3-1.5,4.1-4.9c-0.2-4.1-0.5-8.2-1.6-12.3
		c-0.8-2.9-1.5-3.4-4.5-3.4c-0.7,0-1.6,0.3-1.8-0.7c-0.2-1,0.9-1.1,1.5-1.2c3.4-0.7,6.5-1.9,9.1-4.3c1-0.9,1.3-0.4,1.5,0.6
		C461.3,857.5,461.5,860.3,461.9,863.4z"/>
	<path class="st55" d="M417.2,890.4c0.2-2.6-0.8-5-2-7.3c-2-3.6-4.7-6.7-7.3-9.7c-2.2-2.5-4.3-5.1-5.9-8c-2.4-4.4-2.6-8.8,0.4-12.9
		c2.9-4,7.3-4.7,11.9-4.2c0.4,0,0.8,0.2,1.2,0.3c2.8,0.7,2.8,0.7,4-1.9c0.3-0.5,0.5-1.3,1.3-1c0.8,0.2,0.6,1,0.5,1.6
		c-0.9,4.3-1.5,8.6-1.9,13c-0.1,0.5-0.2,1.3-0.8,1.2c-0.8,0-0.8-0.8-0.8-1.4c-0.1-1.6,0-3.2-0.1-4.7c-0.3-4-2.9-6.1-6.7-5.6
		c-3.3,0.4-5.4,3.8-4.7,7.4c0.5,2.7,2,4.9,3.8,6.9c2.9,3.1,5.9,6.1,8.8,9.3c4.1,4.5,6.6,9.7,6.2,16c-0.4,6.1-3.8,11.4-9,13.2
		c-5.5,2-11.7,0.2-15.8-4.5c-0.3-0.3-0.5-0.7-0.8-1c-2.4-2.7-3.4-2.7-6.3-0.6c-0.8,0.6-1.7,2.1-2.7,1c-0.8-1,0.7-1.7,1.4-2.4
		c3.7-3.8,6.6-8.2,8.9-13c0.4-0.9,0.7-2.5,1.9-2c1.3,0.5,0.4,1.9,0,2.9c-1.3,3.5-2.4,7-1.4,10.8c0.9,3.6,3.6,6.2,6.7,6.6
		c5,0.7,8.8-2.6,9.3-8.2C417.3,891.6,417.2,891,417.2,890.4z"/>
	<path class="st56" d="M426.2,861.1c0.1-5,1.5-10.7,2.8-16.3c0.1-0.5,0.2-1,0.3-1.4c0.2-1.3-0.2-1.8-1.5-1.7
		c-1.6,0.1-3.3,0.1-4.9,0.1c-0.5,0-1,0-1.1-0.6s0.4-0.9,0.8-1c1.2-0.3,2.3-0.7,3.5-0.9c4.9-0.9,8.2-3.8,9.8-8.5
		c0.6-1.7,1.1-3.5,1.8-5.2c0.3-0.7,0.6-1.5,1-2.2c0.4-0.8,1.1-1.4,2.1-1.1c0.9,0.3,1,1.2,1,1.9c-0.1,3.1-1.1,6-1.6,8.9
		c-0.2,1.1-0.3,2.3-0.4,3.4c-0.1,1,0.5,1.6,1.6,1.5c1.4-0.1,2.8-0.3,4.2-0.4c0.7,0,1.6,0,1.6,1c0,0.9-0.9,0.8-1.5,0.9
		c-0.2,0-0.5,0-0.7,0c-5.2,0.4-6.8,1.6-8.3,6.6c-2.2,7.7-3.5,15.5-2.2,23.6c0.3,2.1,1,4.1,2.2,5.9c1.6,2.3,3.9,3.2,6.7,2.7
		c1.7-0.3,2.9-1.3,3.5-2.9c0.6-1.6,0.3-3-0.9-4.2c-0.5-0.5-1-1.1-1.4-1.7c-0.9-1.4-0.8-2.8,0-4.1c0.7-1.2,1.9-1.5,3.2-1.3
		c1.5,0.2,2.3,1.2,2.8,2.6c1.7,5.3-2.1,12.4-7.5,13.8c-7.6,2-14.4-2.6-16.1-11C426.2,867.2,426,864.6,426.2,861.1z"/>
	<path class="st57" d="M362.8,861.5c0.7-2.2,1.3-4,1.9-5.7c0.7-2,1.6-3.8,2.9-5.4c3-3.6,8-4.5,11.4-1.9c3.3,2.5,4.1,8.5,1.6,12.1
		c-1.1,1.6-2.6,2.5-4.6,2.3c-2.1-0.1-3.6-1.2-3.9-2.9c-0.4-2.3,0.4-4.2,2.3-5.1c0.5-0.3,1.1-0.4,1.7-0.7c1.3-0.6,1.9-1.5,1.7-2.9
		c-0.2-1.4-1.1-2.1-2.4-2.4c-2.2-0.3-4.1,0.3-5.6,1.8c-2.5,2.5-3.4,5.8-4.2,9.1c-1.5,6.9-1.1,13.8-0.2,20.7c0.4,3.2,0.9,6.4,1.3,9.5
		c0.5,3.2,1.4,3.9,4.6,3.8c0.4,0,0.7,0,1.1,0s0.7,0.1,0.8,0.6c0.1,0.5-0.2,0.8-0.6,0.9c-0.5,0.1-1,0.2-1.4,0.2
		c-5.7,0-11.2,0.7-16.7,2.4c-0.9,0.3-2.4,0.9-2.7-0.4c-0.4-1.5,1.3-1.5,2.2-1.7c3.9-1.2,4.5-1.8,4.4-5.9c-0.4-9.2-1.1-18.3-2.2-27.4
		c-0.3-2.2-0.9-2.8-3.2-2.8c-0.1,0-0.2,0-0.4,0c-0.8-0.1-2,0.2-2.1-0.8c-0.1-1.2,1.2-1,2-1.1c3.6-0.4,5.9-2.5,7.6-5.5
		c0.3-0.6,0.4-1.7,1.3-1.5c1.1,0.3,0.5,1.3,0.5,2C361.8,855.6,361.8,858.3,362.8,861.5z"/>
	<path class="st58" d="M423.3,776.7c0.7-2.4,1.3-4.8,2.3-7c1.5-3.2,3.5-6,7.2-6.9c4.5-1,8.3,1.4,9.2,6c0.5,2.4,0.3,4.7-0.9,6.9
		c-1,1.8-2.6,2.9-4.7,2.9c-2.2,0-3.8-1.2-4.1-3.1c-0.4-2.1,0.5-4.1,2.5-5c0.4-0.2,0.8-0.3,1.2-0.5c1.4-0.5,2.2-1.5,2-3
		c-0.2-1.6-1.3-2.3-2.8-2.5c-2.8-0.3-4.8,1-6.4,3.1c-1.9,2.6-2.7,5.7-3.3,8.8c-1.5,8.1-0.6,16.2,0.5,24.3c0.3,1.9,0.6,3.8,0.9,5.7
		c0.5,2.5,1.3,3.1,3.9,3.1c0.4,0,0.7,0,1.1,0c0.5,0,1.2-0.1,1.3,0.6c0.1,0.9-0.6,1-1.2,1c-0.7,0.1-1.3,0.1-2,0.1
		c-5-0.1-9.8,0.6-14.6,2c-0.8,0.2-1.5,0.4-2.3,0.5c-0.6,0.1-1.3,0.1-1.5-0.7s0.4-1.1,1-1.3c0.7-0.3,1.5-0.5,2.3-0.7
		c2.9-1,3.6-1.9,3.5-4.9c-0.2-3.7-0.4-7.4-0.7-11.1c-0.4-5.2-0.9-10.4-1.3-15.6c-0.3-3.5-1.1-4.6-4.4-4.3c-0.6,0.1-1.3,0.1-1.5-0.7
		c-0.1-1,0.7-1,1.4-1.1c4-0.3,6.7-2.6,8.5-6.1c0.2-0.5,0.4-1.2,1.1-1.1c0.8,0.2,0.6,1,0.5,1.5c-0.1,2.6,0.1,5.1,0.6,7.6
		C422.8,776,422.8,776.4,423.3,776.7z"/>
	<path class="st59" d="M453.4,765.1c1-2.1,2-4.1,3-6.2c1-1.9,2.3-3.5,4.1-4.8c3.7-2.5,8.5-1.8,11,1.4c2.5,3.3,1.9,9.5-1.2,12
		c-1.7,1.4-4.3,1.6-6.1,0.4c-1.5-1-2-2.6-1.4-4.7c0.5-1.7,1.7-2.6,3.4-3c2.4-0.6,3.3-1.5,3.1-3.1c-0.2-1.6-1.7-2.7-3.7-2.8
		c-3-0.1-4.9,1.5-6.5,3.8c-2.6,3.8-3.8,8.1-4.6,12.5c-1.4,8.2-1.2,16.5-0.8,24.7c0.1,2,1,2.9,3,3.3c0.6,0.1,1.2,0.1,1.8,0.2
		c0.5,0.1,1,0.2,1,0.8s-0.6,0.8-1,0.8c-1,0-2.1-0.1-3.1-0.2c-5-0.8-9.9-0.5-14.9,0.2c-1,0.1-2.5,0.7-2.7-0.8
		c-0.2-1.4,1.5-1.2,2.4-1.3c4.4-0.8,4.9-1.4,5.2-5.9c0.5-8.6,0.9-17.2,1.1-25.9c0.1-3.3-0.3-3.7-3.5-4.3c-0.7-0.1-1.7-0.1-1.7-1
		c0-1,1-0.9,1.7-0.8c3.9,0.2,6.7-1.7,8.8-4.8c0.3-0.4,0.6-1.1,1.2-0.9c0.8,0.2,0.5,1,0.4,1.6c-0.3,2.4-0.5,4.7-0.4,7.1
		C453,763.9,452.9,764.6,453.4,765.1z"/>
	<path class="st60" d="M398.6,878.4c-1.1-0.2-2.6-0.4-4.1-0.7c-2.7-0.5-5.3-0.4-8-0.1c-1.1,0.1-2.3,0.1-3.4,0.1
		c-0.5,0-0.8-0.2-0.9-0.7c0-0.4,0.3-0.6,0.6-0.8c0.3-0.1,0.6-0.2,0.9-0.3c3.3-0.9,3.7-1.5,4-4.9c0.4-6.6,0.3-13.2,0.3-19.9
		c0-1-0.1-2.1-0.3-3.1c-0.4-2.6-1.2-3.3-3.8-3.6c-0.2,0-0.5,0-0.7-0.1c-0.5-0.1-1-0.2-1.1-0.8c-0.1-0.7,0.5-0.9,1.1-1
		c1.6-0.3,3.1-0.4,4.7-0.8c2.8-0.7,5.3-1.9,7.5-3.9c0.4-0.3,0.7-1.1,1.3-0.7c0.6,0.3,0.3,1,0.3,1.5c-0.5,5-1,9.9-1.5,14.9
		c-0.5,5.7-0.9,11.4-1.2,17.1c-0.2,4.2,0.9,5.4,4.9,6.2c0.6,0.1,1.6-0.1,1.7,0.9C401.1,878.2,400.2,878.5,398.6,878.4z"/>
	<path class="st60" d="M396.3,829.7c-0.1,2.9-1.9,4.7-4.5,4.6c-2.5-0.1-4.1-2-4-4.7c0.1-2.9,1.9-4.7,4.5-4.6
		C394.9,825.2,396.4,827,396.3,829.7z"/>
	<path class="st61" d="M554.4,846.8c-2.1-2.2-4.6-3.9-7.2-5.5c-3-1.9-6.2-3.4-8.9-5.6c-1.8-1.4-3.4-2.9-4.1-5.2
		c-1-3.2,0.6-6.3,3.6-7.4c3.4-1.2,6.2,0,7.4,3.5c0.4,1.3,0.6,2.6,1,3.9c0.2,0.6,0,1.7,1,1.7c1-0.1,0.7-1.2,0.6-1.8
		c-0.3-3.9-0.7-7.7-0.6-11.6c0-0.6,0.1-1.4-0.7-1.5c-0.9-0.1-1.1,0.7-1.1,1.3c0,2.2-1.2,2.7-3.2,2.6c-2.7-0.2-5.3,0.5-7.7,1.8
		c-6.5,3.6-7.7,11.3-2.6,16.7c2.3,2.5,5.1,4.5,7.9,6.4c3.1,2.1,6.1,4.2,8.6,7c2.4,2.5,3.7,5.5,3.7,9c0,4.8-3,8.1-7.6,8.6
		c-3.8,0.4-7.7-2.7-8.6-6.9c-0.4-1.7-0.5-3.5-0.2-5.3c0.2-1.4,0.4-2.8,0.5-4.2c0.1-0.5,0-1.1-0.6-1.2c-0.6-0.2-1,0.3-1.2,0.8
		c-0.4,1.3-0.8,2.6-1.1,3.8c-1.3,4.7-3.5,9-6.5,13.2c-0.2-0.6-0.3-0.8-0.3-1c-0.9-5.8-1.7-11.6-2.7-17.5c-0.7-4.6-1.4-9.1-3.7-13.2
		c-2.6-4.5-7.4-6.6-12.4-5.5c-4.5,1-7.6,5.1-7.9,10.6c-0.1,2.9,0,5.8,2.1,8c1.9,2,5,2.2,6.7,0.5s1.5-4.8-0.6-6.7
		c-0.8-0.7-1.8-1.3-2.6-1.9c-2.1-1.6-2.6-3.3-1.5-5.8c1.5-3.3,5.9-4.3,8.6-1.8c1.2,1,1.9,2.4,2.2,3.9c1.2,5.8,1.6,11.7,2.1,17.5
		c0.1,0.8-0.2,1-1,0.9c-2.8-0.5-5.7-0.6-8.5-0.1c-8,1.3-12.8,8.9-10.5,16.7c1,3.2,3,5.2,6.2,6.1c5,1.4,10.5-0.6,14-5.1
		c0.5-0.6,0.7-1.4,1.6-1.8c0.1,0.8,0.3,1.5,0.4,2.2c0.7,3.4,1.4,6.7,3.9,9.2c2.8,2.8,7.4,2.8,9.5-0.1c2.2-3,2.2-6.6,1.6-10.1
		c-0.1-0.4-0.3-0.9-0.8-0.9c-0.6,0-0.7,0.6-0.7,1.1c0,1.1,0.1,2.2,0,3.3s-0.2,2.3-1.6,2.5c-1.3,0.2-2-0.7-2.5-1.8
		c-1-2.2-1.3-4.5-1.6-6.9c0-0.2,0-0.6,0.1-0.7c1.8-0.7,2.4-2.5,3.8-3.6c1-0.8,2-0.9,3.1-0.3c1.1,0.6,2.2,1.3,3.2,2
		c8.6,5.4,19.8,0.7,21.7-9.2C559.8,855.9,558.2,851,554.4,846.8z M516.4,872.9c-2.1,1.5-4.3,2.7-7,2.7c-4.2,0-6.5-2.2-6.5-6.5
		c0-6.3,4.3-9.6,11.2-8.5c3,0.5,3.1,0.6,3.4,3.5c0.2,1.7,0.2,3.4,0.5,5.1C518.3,871,517.6,872,516.4,872.9z"/>
	<path class="st62" d="M407,794.8c-0.4-0.6-0.8-1.5-1.6-1.1c-0.9,0.4-0.3,1.3-0.1,1.9c0.6,1.8,0.8,3.6,0.7,5.4
		c-0.3,6.1-6,9.1-11.3,6c-1.3-0.8-2.3-1.8-3.1-3c-1.9-2.8-2.6-6.1-3-9.4c-0.1-0.8,0.2-1,1-0.8c1.8,0.4,3.6,0.6,5.4,0.5
		c7.3-0.2,12.4-4.5,13.4-11.2c1.1-7.2-3.1-12.3-10.4-12.6c-4.3-0.2-8,1.5-11,4.4c-5,4.7-6.6,10.7-6.7,16.4c0,2.8,0.1,4.7,0.5,6.5
		c1.9,9.9,10.3,15.6,19.7,13.2C407.2,809.3,410.7,800.8,407,794.8z M388.4,787.5c0.1-3.5,0.8-7,2.4-10.2c1.2-2.4,2.8-4.3,5.7-4.6
		c2.1-0.2,3.6,0.7,4.7,2.5c2.2,4,1.1,11.1-2.2,14.2c-1.7,1.6-3.6,2.3-6.3,2.3C388.4,791.7,388.3,791.5,388.4,787.5z"/>
</g>
</svg>
