<?xml version="1.0" encoding="utf-8"?>
<!-- Generator: Adobe Illustrator 22.1.0, SVG Export Plug-In . SVG Version: 6.00 Build 0)  -->
<svg version="1.1" id="图层_1" xmlns="http://www.w3.org/2000/svg" xmlns:xlink="http://www.w3.org/1999/xlink" x="0px" y="0px"
	 viewBox="0 0 950 1000" style="enable-background:new 0 0 950 1000;" xml:space="preserve">
<style type="text/css">
	.st0{fill:#FDFDFD;}
	.st1{fill:#FCFCFC;}
	.st2{fill:#3BB54A;}
	.st3{fill:#F4C843;}
	.st4{fill:#FC453A;}
	.st5{fill:#166DCA;}
	.st6{fill:#FE473B;}
	.st7{fill:#263463;}
	.st8{fill:#024C3B;}
	.st9{fill:#DD4E46;}
	.st10{fill:#FFFFFF;}
	.st11{fill:#ED433C;}
	.st12{fill:#DB3C38;}
	.st13{fill:#FDB901;}
	.st14{fill:#E13F3A;}
	.st15{fill:#F0F1DA;}
	.st16{fill:#EE433C;}
	.st17{fill:#FDBA01;}
	.st18{fill:#FEC601;}
	.st19{fill:#F0F1DF;}
	.st20{fill:#F3F3D4;}
	.st21{fill:#FBC401;}
	.st22{fill:#FBF7D7;}
	.st23{fill:#FDF9DA;}
	.st24{fill:#F9F9E0;}
	.st25{fill:#FDFCE7;}
	.st26{fill:#FBF9E0;}
	.st27{fill:#FCF7D9;}
	.st28{fill:#FCF5D1;}
	.st29{fill:#FAF5D0;}
	.st30{fill:#FBF7D9;}
	.st31{fill:#FBF5C8;}
	.st32{fill:#FBF6D2;}
	.st33{fill:#F9FBF4;}
	.st34{fill:#FDF8DA;}
	.st35{fill:#FCF6CE;}
	.st36{fill:#FDF7D5;}
	.st37{fill:#FDFADF;}
	.st38{fill:#FDFAE2;}
	.st39{fill:#F1D9CA;}
	.st40{clip-path:url(#SVGID_2_);}
	.st41{fill:#E45118;}
	.st42{fill:#EAB75C;}
	.st43{fill:#87551E;}
</style>
<path class="st0" d="M853.7,528.7c-6.3,0.1-12.5-5-12.6-10.5c-0.2-5.5,5.4-10.9,11.4-11c6.1-0.1,12.2,5.9,12.2,12
	C864.7,524,859.4,528.6,853.7,528.7z"/>
<path class="st1" d="M435.7,128.6c-3.4-0.9-7-1.9-7-6.4c0-4.2,2.7-6.6,6.8-6.6c4.2,0,6.6,2.9,6.7,6.8
	C442.4,126.4,439.8,128.4,435.7,128.6z"/>
<path class="st0" d="M853.7,528.7c-6.3,0.1-12.5-5-12.6-10.5c-0.2-5.5,5.4-10.9,11.4-11c6.1-0.1,12.2,5.9,12.2,12
	C864.7,524,859.4,528.6,853.7,528.7z"/>
<path class="st1" d="M435.7,128.6c-3.4-0.9-7-1.9-7-6.4c0-4.2,2.7-6.6,6.8-6.6c4.2,0,6.6,2.9,6.7,6.8
	C442.4,126.4,439.8,128.4,435.7,128.6z"/>
<g>
	<path class="st0" d="M786.1,547.5c-6.3,0.1-12.5-5-12.6-10.5c-0.2-5.5,5.4-10.9,11.4-11c6.1-0.1,12.2,5.9,12.2,12
		C797.1,542.8,791.9,547.4,786.1,547.5z"/>
	<path class="st1" d="M507.4,563.6c6.1-0.1,10.2,3.5,9.5,9.3c-0.6,4.8-3.9,7.9-9,8.2c-4.8,0.3-9.6-4.9-9.6-10
		C498.3,566.6,501.8,563.7,507.4,563.6z"/>
	<path class="st0" d="M786.1,547.5c-6.3,0.1-12.5-5-12.6-10.5c-0.2-5.5,5.4-10.9,11.4-11c6.1-0.1,12.2,5.9,12.2,12
		C797.1,542.8,791.9,547.4,786.1,547.5z"/>
	<path class="st1" d="M507.4,563.6c6.1-0.1,10.2,3.5,9.5,9.3c-0.6,4.8-3.9,7.9-9,8.2c-4.8,0.3-9.6-4.9-9.6-10
		C498.3,566.6,501.8,563.7,507.4,563.6z"/>
	<g>
		<path class="st2" d="M791,793.3c48.1-19.9,69.3-75.7,69.3-75.7c-79.5,6.4-103.9-30.8-103.9-30.8c45.5-12.2,63.5-58.4,63.5-58.4
			c-62.9,6.4-88.9-37.2-88.9-37.2s-26.1,43.6-88.9,37.2c0,0,18,46.2,63.5,58.4c0,0-24.4,37.2-103.9,30.8c0,0,21.2,55.8,69.3,75.7
			c0,0-29.5,28.2-107.1,19.9c0,0,48.3,114.2,167.2,121.9c118.9-7.7,167.2-121.9,167.2-121.9C820.5,821.5,791,793.3,791,793.3z"/>
		<polygon class="st3" points="752.1,559.6 737.6,559.6 730.9,543.7 724.3,559.6 709.8,559.6 720.3,570.1 717.6,585.3 730.9,576.1 
			744.3,585.3 741.5,570.1 		"/>
		<path class="st4" d="M353.6,729.8c58.9-24.3,84.8-92.6,84.8-92.6c-97.3,7.8-127.2-37.7-127.2-37.7c55.7-14.9,77.7-71.4,77.7-71.4
			C312,535.9,280,482.5,280,482.5s-31.9,53.4-108.9,45.5c0,0,22,56.5,77.7,71.4c0,0-29.8,45.5-127.2,37.7c0,0,25.9,68.3,84.8,92.6
			c0,0-36.1,34.5-131.1,24.3c0,0,59.2,139.7,204.6,149.1C425.4,893.7,484.5,754,484.5,754C389.7,764.3,353.6,729.8,353.6,729.8z"/>
		<polygon class="st3" points="305.9,436.6 288.2,436.6 280,417.2 271.9,436.6 254.1,436.6 267.1,449.4 263.7,468 280,456.8 
			296.4,468 293,449.4 		"/>
		<path class="st5" d="M565.5,681.4c77.3-32,111.3-121.6,111.3-121.6c-127.8,10.3-167-49.5-167-49.5
			c73.2-19.6,102.1-93.8,102.1-93.8c-101,10.3-143-59.8-143-59.8s-41.9,70.1-143,59.8c0,0,28.9,74.2,102.1,93.8
			c0,0-39.2,59.8-167,49.5c0,0,34,89.7,111.3,121.6c0,0-47.4,45.4-172.2,32c0,0,77.7,183.5,268.7,195.9
			c191-12.4,268.7-195.9,268.7-195.9C613,726.7,565.5,681.4,565.5,681.4z"/>
		<polygon class="st6" points="512.3,282.8 482.6,282.8 469,250.3 455.3,282.8 425.7,282.8 447.3,304.2 441.6,335.3 469,316.5 
			496.3,335.3 490.6,304.2 		"/>
		<path class="st7" d="M353.6,729.7c58.9-24.3,84.8-92.6,84.8-92.6c-97.3,7.8-127.2-37.7-127.2-37.7c36.2-9.7,58.2-37,69.1-54.9
			c-26.1,11.1-64.5,19.5-119.3,15.1c0,0,34,89.7,111.3,121.6c0,0-47.4,45.4-172.2,32c0,0,48.3,114,162.3,168.3
			C448.3,839.9,484.6,754,484.6,754C389.7,764.2,353.6,729.7,353.6,729.7z"/>
		<path class="st8" d="M737.7,713c-31.2,3.4-57.5,3-79.5,0.7c-14.6,3.6-33.2,5.5-56.6,3.6c0,0,21.2,55.8,69.3,75.7
			c0,0-29.5,28.2-107.1,19.9c0,0,11.4,26.7,36.5,55.2C696.5,810.4,737.7,713,737.7,713z"/>
	</g>
	<path class="st1" d="M574.9,544.8c6.1-0.1,10.2,3.5,9.5,9.3c-0.6,4.8-3.9,7.9-9,8.2c-4.8,0.3-9.6-4.9-9.6-10
		C565.8,547.8,569.3,544.9,574.9,544.8z"/>
	<polygon class="st3" points="578.2,794.2 560.5,794.2 552.3,774.8 544.1,794.2 526.4,794.2 539.3,807 536,825.6 552.3,814.4 
		568.6,825.6 565.2,807 	"/>
	<g>
		<path class="st3" d="M564.4,404.3l-0.3,0.4H564v-0.1l0,0L564.4,404.3z"/>
		<path class="st3" d="M549.7,420.3L549,421c-1,1-2.6,1-3.6,0s-1-2.6,0-3.6c0.1-0.1,0.3-0.2,0.4-0.3l0.9-0.6l0,0
			c1.1-0.7,2.7-0.4,3.4,0.7C550.7,418.2,550.6,419.5,549.7,420.3z"/>
		<path class="st3" d="M532.3,434.1l-0.9,0.6c-1.4,1-3.2,0.6-4.2-0.7s-0.6-3.2,0.7-4.2l0,0l0.9-0.6l0,0c1.4-1,3.2-0.6,4.2,0.7
			S533.7,433.1,532.3,434.1z"/>
		<path class="st3" d="M513.8,446.3l-0.9,0.6c-1.4,0.9-3.3,0.4-4.1-1c-0.9-1.4-0.4-3.3,1-4.1l0,0l0.9-0.5l0,0c1.4-0.9,3.3-0.4,4.1,1
			C515.7,443.5,515.2,445.4,513.8,446.3z"/>
		<path class="st3" d="M494.5,457.3l-0.9,0.5c-1.5,0.8-3.3,0.2-4.1-1.2c-0.8-1.5-0.2-3.3,1.2-4.1l0,0l0.9-0.5l0,0
			c1.5-0.8,3.3-0.2,4.1,1.2C496.6,454.7,496,456.5,494.5,457.3z"/>
		<path class="st3" d="M474.6,467.1l-1,0.4c-1.5,0.7-3.3,0-4-1.5s0-3.3,1.5-4l0,0l0.9-0.4l0,0c1.5-0.7,3.3,0,4,1.5
			C476.8,464.6,476.1,466.4,474.6,467.1z"/>
		<path class="st3" d="M454,475.5l-1,0.4c-1.6,0.6-3.3-0.2-3.8-1.8c-0.6-1.6,0.2-3.3,1.8-3.8l0,0l1-0.4l0,0c1.6-0.6,3.3,0.2,3.8,1.8
			C456.4,473.2,455.6,474.9,454,475.5z"/>
		<path class="st3" d="M432.9,482.3l-1,0.3c-1.6,0.4-3.3-0.5-3.7-2.1c-0.4-1.6,0.5-3.3,2.1-3.7l0,0l1-0.3l0,0
			c1.6-0.4,3.3,0.5,3.7,2.1C435.4,480.2,434.5,481.9,432.9,482.3z"/>
		<path class="st3" d="M411.3,487.5l-1,0.2c-1.6,0.3-3.2-0.7-3.5-2.4s0.7-3.2,2.4-3.5l0,0l1-0.2l0,0c1.6-0.3,3.2,0.7,3.5,2.4
			S412.9,487.2,411.3,487.5z"/>
		<path class="st3" d="M389.2,490.4h-1.1c-1.3,0-2.4-1.1-2.4-2.4c0-1.2,0.8-2.1,1.9-2.4l0,0l1-0.2l0,0c1.4-0.3,2.7,0.6,3,1.9
			c0.3,1.4-0.6,2.7-1.9,3C389.5,490.4,389.3,490.4,389.2,490.4z"/>
		<path class="st3" d="M366.9,489.4l-0.5-0.1l0.5-0.1C366.9,489.2,367,489.3,366.9,489.4C367,489.3,367,489.4,366.9,489.4
			L366.9,489.4z"/>
	</g>
	<path class="st3" d="M614.3,627.5C614.2,627.5,614.2,627.5,614.3,627.5h-1c-1.7,0-3-1.4-3-3s1.4-3,3-3l0,0h1c1.7,0,3,1.4,3,3
		C617.2,626.1,615.9,627.5,614.3,627.5z M634.2,627.3c-1.6,0-3-1.3-3-2.9c0-1.7,1.3-3,2.9-3.1h1c1.7,0,3,1.3,3.1,2.9s-1.3,3-2.9,3.1
		H634.2C634.3,627.3,634.3,627.3,634.2,627.3z M593.3,627L593.3,627h-1.1c-1.7-0.1-2.9-1.5-2.9-3.1c0.1-1.7,1.5-2.9,3.1-2.9h1
		c1.7,0.1,3,1.4,2.9,3.1C596.2,625.7,594.9,627,593.3,627z M572.3,625.9c-0.1,0-0.1,0-0.2,0l-1-0.1c-1.7-0.1-2.9-1.6-2.8-3.2
		c0.1-1.7,1.6-2.9,3.2-2.8l1,0.1c1.7,0.1,2.9,1.5,2.8,3.2C575.2,624.7,573.9,625.9,572.3,625.9z M551.4,624.1c-0.1,0-0.2,0-0.3,0
		l-1-0.1c-1.6-0.2-2.8-1.6-2.7-3.3c0.2-1.6,1.7-2.8,3.3-2.7l1,0.1c1.6,0.2,2.8,1.6,2.7,3.3C554.2,623,552.9,624.1,551.4,624.1z
		 M530.5,621.6c-0.1,0-0.3,0-0.4,0l-1-0.1c-1.6-0.2-2.8-1.7-2.6-3.4c0.2-1.6,1.8-2.8,3.4-2.6l1,0.1c1.6,0.2,2.8,1.7,2.6,3.4
		C533.3,620.5,532,621.6,530.5,621.6z M509.8,618.3c-0.2,0-0.3,0-0.5,0l-1-0.2c-1.6-0.3-2.7-1.8-2.4-3.5c0.3-1.6,1.9-2.7,3.5-2.4
		l1,0.2c1.6,0.3,2.7,1.8,2.4,3.5C512.5,617.3,511.2,618.3,509.8,618.3z M489.2,614.3c-0.2,0-0.4,0-0.6-0.1l-1-0.2
		c-1.6-0.4-2.6-2-2.3-3.6c0.4-1.6,2-2.6,3.6-2.3l1,0.2c1.6,0.4,2.6,2,2.3,3.6C491.8,613.3,490.6,614.3,489.2,614.3z M468.8,609.4
		c-0.3,0-0.5,0-0.8-0.1l-1-0.3c-1.6-0.4-2.6-2.1-2.1-3.7c0.4-1.6,2.1-2.6,3.7-2.1l1,0.3c1.6,0.4,2.6,2.1,2.1,3.7
		C471.3,608.5,470.1,609.4,468.8,609.4z M448.6,603.6c-0.3,0-0.6,0-0.9-0.1l-1-0.3c-1.6-0.5-2.5-2.2-2-3.8s2.2-2.5,3.8-2l0.9,0.3
		c1.6,0.5,2.5,2.2,2,3.8C451.1,602.8,449.9,603.6,448.6,603.6z M428.7,596.9c-0.3,0-0.7-0.1-1-0.2l-0.9-0.3
		c-1.6-0.6-2.4-2.3-1.8-3.8c0.6-1.6,2.3-2.4,3.8-1.8l0.9,0.3c1.6,0.6,2.4,2.3,1.8,3.8C431.1,596.1,429.9,596.9,428.7,596.9z
		 M409.2,589.2c-0.4,0-0.8-0.1-1.2-0.2l-0.9-0.4c-1.5-0.7-2.2-2.4-1.6-3.9c0.7-1.5,2.4-2.2,3.9-1.6l0.9,0.4c1.5,0.6,2.2,2.4,1.6,3.9
		C411.4,588.5,410.3,589.2,409.2,589.2z M390.1,580.4c-0.5,0-0.9-0.1-1.3-0.3l-0.9-0.4c-1.5-0.7-2.1-2.5-1.3-4
		c0.7-1.5,2.5-2.1,4-1.3l0.9,0.4c1.5,0.7,2.1,2.5,1.3,4C392.2,579.8,391.2,580.4,390.1,580.4z M371.6,570.4c-0.5,0-1-0.1-1.5-0.4
		l-0.9-0.5c-1.4-0.8-1.9-2.7-1-4.1c0.8-1.4,2.7-1.9,4.1-1l0.9,0.5c1.4,0.8,1.9,2.7,1,4.1C373.6,569.9,372.6,570.4,371.6,570.4z
		 M354.1,558.8c-0.6,0-1.3-0.2-1.8-0.6c-0.6-0.4-0.9-0.7-0.9-0.7c-1.3-1.1-1.5-2.9-0.4-4.2s2.9-1.5,4.2-0.4c0,0,0.3,0.2,0.7,0.6
		c1.3,1,1.5,2.9,0.5,4.2C355.9,558.4,355,558.8,354.1,558.8z"/>
	<path class="st3" d="M346.7,816.1L346.7,816.1h-1.1c-1.7,0-3-1.4-2.9-3.1c0-1.6,1.4-2.9,3-2.9c0,0,0,0,0.1,0h1c1.7,0,3,1.4,3,3
		C349.7,814.8,348.3,816.1,346.7,816.1z M366.7,816c-1.6,0-3-1.3-3-2.9c0-1.7,1.3-3,2.9-3.1h1c1.7-0.1,3,1.3,3.1,2.9
		c0,1.7-1.3,3-2.9,3.1H366.7L366.7,816z M325.6,815.3l0.2-3L325.6,815.3l-1-0.1c-1.7-0.1-2.9-1.5-2.8-3.2s1.5-2.9,3.2-2.8l1,0.1
		L325.6,815.3z M387.7,815.1c-1.6,0-2.9-1.2-3-2.8c-0.1-1.7,1.1-3.1,2.8-3.2l1-0.1c1.7-0.1,3.1,1.1,3.2,2.8s-1.1,3.1-2.8,3.2l-1,0.1
		C387.8,815.1,387.7,815.1,387.7,815.1z M304.8,813.9c-0.1,0-0.2,0-0.3,0l-1-0.1c-1.7-0.1-2.9-1.6-2.7-3.3c0.1-1.7,1.6-2.9,3.3-2.7
		l1,0.1c1.7,0.1,2.9,1.6,2.7,3.3C307.6,812.7,306.3,813.9,304.8,813.9z M408.6,813.2c-1.5,0-2.8-1.1-3-2.7c-0.2-1.6,1-3.1,2.6-3.3
		l1-0.1c1.6-0.2,3.1,1,3.3,2.6c0.2,1.6-1,3.1-2.6,3.3l-1,0.1C408.8,813.2,408.7,813.2,408.6,813.2z M283.9,811.7c-0.1,0-0.2,0-0.4,0
		l-1-0.1c-1.6-0.2-2.8-1.7-2.6-3.3c0.2-1.6,1.7-2.8,3.3-2.6l1,0.1c1.6,0.2,2.8,1.7,2.6,3.3C286.7,810.6,285.4,811.7,283.9,811.7z
		 M429.3,810.3c-1.4,0-2.7-1-3-2.5c-0.3-1.6,0.8-3.2,2.5-3.5l1-0.2c1.6-0.3,3.2,0.8,3.5,2.5c0.3,1.6-0.8,3.2-2.5,3.5l-1,0.2
		C429.7,810.3,429.5,810.3,429.3,810.3z M449.9,806.3c-1.4,0-2.6-0.9-2.9-2.3c-0.4-1.6,0.7-3.2,2.3-3.6l1-0.2
		c1.6-0.4,3.2,0.6,3.6,2.3c0.4,1.6-0.6,3.2-2.3,3.6l-1,0.2C450.4,806.3,450.2,806.3,449.9,806.3z M470.3,801.1
		c-1.3,0-2.5-0.9-2.9-2.2c-0.5-1.6,0.5-3.3,2-3.7l0.9-0.3c1.6-0.5,3.3,0.4,3.7,2c0.5,1.6-0.4,3.3-2,3.7l-1,0.3
		C470.8,801.1,470.5,801.1,470.3,801.1z M490.2,794.7c-1.2,0-2.4-0.8-2.8-2c-0.6-1.6,0.2-3.3,1.8-3.8l0.9-0.3
		c1.6-0.6,3.3,0.2,3.8,1.8s-0.2,3.3-1.8,3.8l-1,0.3C490.9,794.6,490.6,794.7,490.2,794.7z M509.7,786.8c-1.1,0-2.2-0.7-2.7-1.8
		c-0.7-1.5,0-3.3,1.5-4l0.9-0.4c1.5-0.7,3.3,0,4,1.5s0,3.3-1.5,4l-0.9,0.4C510.5,786.7,510.1,786.8,509.7,786.8z M528.5,777.6
		c-1.1,0-2.1-0.6-2.6-1.6c-0.8-1.5-0.2-3.3,1.2-4.1l0.9-0.5c1.5-0.8,3.3-0.3,4.1,1.2s0.3,3.3-1.2,4.1l-0.9,0.5
		C529.5,777.5,529,777.6,528.5,777.6z M546.6,766.8c-1,0-1.9-0.5-2.5-1.4c-0.9-1.4-0.5-3.2,0.9-4.2l0.8-0.5c1.4-0.9,3.2-0.5,4.2,0.9
		c0.9,1.4,0.5,3.2-0.9,4.2l-0.8,0.5C547.7,766.7,547.1,766.8,546.6,766.8z M563.6,754.6c-0.9,0-1.8-0.4-2.4-1.1
		c-1-1.3-0.8-3.2,0.5-4.2l0.8-0.6c1.3-1,3.2-0.8,4.2,0.5s0.8,3.2-0.5,4.2l-0.8,0.6C564.9,754.4,564.3,754.6,563.6,754.6z
		 M579.4,740.8c-0.8,0-1.6-0.3-2.2-0.9c-1.1-1.2-1.1-3.1,0.1-4.2l0.7-0.7c1.2-1.2,3.1-1.1,4.2,0.1c1.2,1.2,1.1,3.1-0.1,4.2l-0.7,0.7
		C580.9,740.5,580.2,740.8,579.4,740.8z M593.7,725.4c-0.7,0-1.4-0.2-1.9-0.7c-1.3-1.1-1.5-2.9-0.4-4.2l0.6-0.8
		c1-1.3,2.9-1.5,4.2-0.4c1.3,1,1.5,2.9,0.4,4.2l-0.7,0.8C595.4,725,594.6,725.4,593.7,725.4z M605.8,708.2c-0.5,0-1-0.1-1.5-0.4
		c-1.4-0.8-2-2.6-1.1-4.1c0.3-0.5,0.4-0.8,0.4-0.8c0.8-1.5,2.6-2.1,4-1.3c1.5,0.8,2.1,2.6,1.3,4c0,0-0.2,0.3-0.5,1
		C607.9,707.7,606.9,708.2,605.8,708.2z"/>
	<g>
		<g>
			<path class="st9" d="M481.1,513.9l-4.4,9.5h60.6l-5-9.3v-25.6c0,0-2.2-20.4-24.8-21.7c0,0-23.7-0.3-26.4,20.6V513.9z"/>
			<path class="st10" d="M489.5,494.5l-3.1,3.1c-0.3,0.3-0.9,0.3-1.2,0l-3.1-3.1c-0.3-0.3-0.3-0.9,0-1.2l3.1-3.1
				c0.3-0.3,0.9-0.3,1.2,0l3.1,3.1C489.8,493.6,489.8,494.2,489.5,494.5z"/>
			<path class="st10" d="M503.5,494.5l-3.1,3.1c-0.3,0.3-0.9,0.3-1.2,0l-3.1-3.1c-0.3-0.3-0.3-0.9,0-1.2l3.1-3.1
				c0.3-0.3,0.9-0.3,1.2,0l3.1,3.1C503.8,493.6,503.8,494.2,503.5,494.5z"/>
			<path class="st10" d="M517.4,494.5l-3.1,3.1c-0.3,0.3-0.9,0.3-1.2,0l-3.1-3.1c-0.3-0.3-0.3-0.9,0-1.2l3.1-3.1
				c0.3-0.3,0.9-0.3,1.2,0l3.1,3.1C517.8,493.6,517.8,494.2,517.4,494.5z"/>
			<path class="st10" d="M531.4,494.5l-3.1,3.1c-0.3,0.3-0.9,0.3-1.2,0l-3.1-3.1c-0.3-0.3-0.3-0.9,0-1.2l3.1-3.1
				c0.3-0.3,0.9-0.3,1.2,0l3.1,3.1C531.8,493.6,531.8,494.2,531.4,494.5z"/>
		</g>
		<path class="st9" d="M514.9,468.4l-2-0.4c0.6-2.8,0.2-5-1-6.6c-1.6-2.1-4.1-2.5-4.6-2.5c-2.3,0.1-4.1,0.9-5.2,2.3
			c-2.1,2.5-1.5,6.3-1.5,6.3l-2,0.3c0-0.2-0.7-4.7,1.9-7.9c1.5-1.9,3.8-2.9,6.7-3.1h0.1h0.1c0.2,0,3.8,0.4,6.1,3.3
			C515.2,462.3,515.6,465,514.9,468.4z"/>
		<rect x="506" y="446.3" class="st9" width="2" height="11.4"/>
		<path class="st10" d="M496.2,524.3h21.5c0,0-1.2,8.1-9.5,9.1C508.3,533.4,497.8,533.6,496.2,524.3z"/>
	</g>
	<g>
		<path class="st11" d="M450.5,642.7l-0.1-0.2c4.4-4.1,9.3-7.4,15.1-9.4c0.7-0.2,1.2-0.7,1.4-1.4c3.3-2,6.4-1.5,9.6,0.3
			c1.3,1.3,1.7,2.8,1.6,4.6c-0.1,2.6,0.2,5.1,0.1,7.7c-0.1,1.5-0.5,2.7-1.8,3.6c-2.1,0.4-4.3,0.5-6.5,0.9
			c-5.2-0.8-10.4-1.6-15.5-3.3C452.9,644.9,451.1,644.7,450.5,642.7z"/>
		<path class="st12" d="M509,651.6c0.8,1.9,1.6,3.9,2.4,5.8c0.5,4.1,1.9,8,1.2,12.2c-1.3-0.1-2.5,0.4-3.6,1.1
			c-6.5,4.5-14,6.1-21.6,7.2c-2.4,0.4-4.9,0.9-7.4,0.7c-1.3-0.1-2.6,0-3.7-1c-0.6-0.7-1-1.5-0.9-2.4c0.4-4.5,0.1-8.9-0.1-13.4
			c1.9-1.8,4.4-1.7,6.7-1.9c8.7-0.8,16.9-2.9,24.4-7.5C507.2,651.9,508,651.6,509,651.6z"/>
		<path class="st13" d="M476.8,677.1c12.7,0.3,24.5-2.3,35.1-9.9c0.9,0.6,0.4,1.6,0.7,2.4c-0.1,0.5-0.2,0.9-0.2,1.4
			c-1,1-1.1,2.2-0.6,3.5c-0.1,2.8-1.1,5.3-2.4,7.7c-3.8,5-9.6,6.3-15.1,7.7c-5,1.3-10.2,1.9-15.4,2.2c-1.7-0.3-3.5-0.4-5.2-0.3
			c-1.8,0.1-3.8,0.6-5.2-1.2c-0.1-2.2,1.7-2,2.9-1.9c2.7,0.1,3.6-0.7,4-3.6c0.5-2.9-0.9-5.3-0.9-8
			C475.3,676.5,476,676.8,476.8,677.1z"/>
		<path class="st14" d="M479.2,690.7c10.7-0.5,20.9-2.7,30.1-8.4c-5.6,12.3-15.4,19-28.6,21c-0.7,0.1-1.4,0.2-2.1,0.2
			c-0.8-0.1-1.6-0.2-2.4-0.3c-2.1-3.6-1.6-7.4-0.9-11.2C475.7,690.2,477.9,691.2,479.2,690.7z"/>
		<path class="st15" d="M511.8,674.6c-1.3-0.2-2-0.9-1.7-2.2c0.2-1.3,1.3-1.2,2.3-1.3C512.6,672.3,512.5,673.5,511.8,674.6z"/>
		<path class="st16" d="M479.2,690.7c-2.5,0.4-3.1,2-3,4.4c0.1,2.7,0.9,5.5,0.1,8.2c-11.8,0.1-21-5-28.3-14
			c-0.6-0.8-1.2-1.6-1.9-2.3c-0.6-1.5-1.9-2.7-1.9-4.4c1-0.8,2.1-0.6,3.1-0.1c5.5,2.9,11.4,4.7,17.5,5.8c1.3,0.2,2.9,0.2,3.6,1.8
			C471.9,691.1,475.6,690.2,479.2,690.7z"/>
		<path class="st17" d="M509,651.6c-3.5,4-8.5,5.4-13.2,7c-6.5,2.2-13.3,2.6-20,3.1c-2.5,1.7-5,1.6-7.3-0.1c0-2.2,1.8-2,3-1.9
			c2.7,0.1,3.9-1,3.6-3.7c-0.1-0.7,0.2-1.4,0.2-2.1c0.2-4,0.2-4-3.7-5c-1-0.2-2-0.4-1.9-1.8c2.2,0,4.4-0.1,6.6-0.1
			c2.1-1.6,4.6-1.1,6.9-1.4c5.2-0.5,10.3-1.6,15.2-3.2c1.3-0.4,2.5-0.5,3.8-0.2c0.2,0,0.3,0,0.5,0C505,645.4,507.5,648.2,509,651.6z
			"/>
		<path class="st16" d="M468.3,661.1c2.4,0.9,4.9,0.2,7.4,0.7c1,1.1,1.2,2.4,1.2,3.9c-0.1,3.8-0.1,7.7-0.1,11.5
			c-0.8,0.1-1.5,0.2-2.3,0.2c-0.8,1.2-2,1.3-3.2,1.2c-9.1-1-17.9-2.6-25.9-7.5c-2.1-1.3-3.9-2.7-4.7-5.2c0-4.4,0.8-8.6,2.8-12.5
			c1.1-0.4,2.2-0.2,3.2,0.4c5.6,3.1,11.7,4.6,18,5.7C466,659.7,467.6,659.5,468.3,661.1z"/>
		<path class="st18" d="M440.8,665.9c9.7,8.4,21.5,10.6,33.7,11.5c2.2,1,2.7,2.8,2.2,4.9c-0.4,1.6-0.4,3.1,0,4.7
			c0.5,1.9-0.1,3.1-2.4,3c-2-0.1-4,0-5.9,0c-7.8-0.6-15.1-2.6-22-6.4c-0.7-0.4-1.4-0.7-2.2-1c-1.9-2.2-2.3-5-3-7.7
			c0.7-1.4,0.8-2.7-0.4-3.9C440.5,669.3,440.5,667.6,440.8,665.9z"/>
		<path class="st18" d="M468.3,661.1c-8.9-0.7-17.3-2.6-24.8-7.7c0.7-2,1.6-4,3.1-5.7c1.6-0.4,2.5-1.4,2.2-3.1
			c0.6-0.6,1.1-1.3,1.7-1.9c6.2,2.2,12.6,3.7,19.1,4.6c0.7,0.2,1.3,0.5,2,0.5c4.6,0.4,4.6,0.3,4.6,4.9c0,1.8-0.2,3.7,0.2,5.4
			c0.7,2.7-0.6,3.1-2.8,3C471.9,661,470.1,661.1,468.3,661.1z"/>
		<path class="st19" d="M440.9,671c1.1,0.2,2.3,0.2,2.4,1.7c0.1,1.4-1.1,1.8-2.1,2.2C440.4,673.6,441.1,672.3,440.9,671z"/>
		<path class="st20" d="M448.9,644.6c0.9,0.8,1.3,1.8,0.7,2.9c-0.8,1.3-1.9,0.6-2.9,0.2C447,646.4,447.9,645.5,448.9,644.6z"/>
		<path class="st12" d="M502.3,642.4c-8.3,3.8-17,5.1-26,4.7c0.9-5,0.9-9.9-0.6-14.8c0.2-0.2,0.4-0.5,0.6-0.7
			c3.4,0.6,6.8,0.7,10.1,0c0.7,1.8,2.5,1.9,3.9,2.5C494.9,636,499.1,638.5,502.3,642.4z"/>
		<path class="st21" d="M486.4,631.5c0-3.3,0.1-6.6,0.1-9.9c0-2-0.4-4.2-2.1-5c-2.9-1.5-4.2-4.1-5.7-6.7c-0.4,0-0.7-0.1-1.1-0.1
			c-1.1-0.6-2.6-0.4-2.9,0.6c-1.2,3.4-4.4,4.8-6.5,7.2c-1,1.1-1.3,2.7-1.3,4.2c0,3.3,0.1,6.6,0.1,9.8c2.9,0.2,5.9,0.4,8.8,0.7
			C475.7,632.3,484.2,632.6,486.4,631.5z M478.1,614c-0.9-0.3-2.2,0.5-2.8-0.6c-0.4-0.7,0.4-1.4,1-1.8
			C477.8,611.7,478.4,612.5,478.1,614z"/>
		<path class="st22" d="M501.6,679.5c-0.2,1-0.8,1.6-1.8,1.5s-1.7-0.7-1.6-1.7s0.8-1.6,1.8-1.5C501,677.9,501.6,678.4,501.6,679.5z"
			/>
		<path class="st23" d="M480.2,684.8c-1.2,0.1-1.6-0.7-1.7-1.7c-0.1-0.9,0.4-1.6,1.3-1.7c1-0.1,1.8,0.4,1.9,1.5
			C481.9,684,481.2,684.6,480.2,684.8z"/>
		<path class="st24" d="M495.1,681.2c0,1.1-0.6,1.7-1.6,1.7c-0.9,0-1.5-0.4-1.6-1.4s0.4-1.7,1.5-1.8
			C494.4,679.6,495,680.2,495.1,681.2z"/>
		<path class="st25" d="M488.4,682.6c-0.1,0.9-0.6,1.5-1.5,1.5c-1.1,0-1.7-0.6-1.7-1.6c0-0.9,0.5-1.6,1.5-1.5
			C487.7,680.9,488.3,681.5,488.4,682.6z"/>
		<path class="st26" d="M507.7,676.6c-0.1,1.1-0.8,1.6-1.8,1.5c-0.9-0.1-1.4-0.6-1.4-1.6c0-1.1,0.6-1.7,1.6-1.7
			C507.2,674.9,507.7,675.6,507.7,676.6z"/>
		<path class="st27" d="M494.4,652.9c-1-0.1-1.7-0.6-1.7-1.7c0-1,0.7-1.6,1.7-1.7c1,0,1.7,0.5,1.7,1.6
			C496.2,652.3,495.5,652.7,494.4,652.9z"/>
		<path class="st28" d="M489.4,652.4c0,1.1-0.6,1.7-1.6,1.8s-1.7-0.6-1.8-1.6c0-1,0.5-1.7,1.6-1.8
			C488.7,650.7,489.3,651.3,489.4,652.4z"/>
		<path class="st29" d="M481,651.2c1.1,0.2,1.8,0.7,1.8,1.8s-0.7,1.6-1.7,1.7c-1.1,0-1.7-0.6-1.7-1.7
			C479.4,651.9,480.2,651.5,481,651.2z"/>
		<path class="st30" d="M500.8,647.7c1.1,0,1.8,0.6,1.8,1.6s-0.7,1.7-1.7,1.7c-0.9,0-1.5-0.5-1.6-1.4
			C499.2,648.4,499.8,647.8,500.8,647.7z"/>
		<path class="st31" d="M475,683.2c-0.2,1-0.8,1.6-1.9,1.6c-1,0-1.7-0.7-1.6-1.8c0-1,0.8-1.6,1.8-1.6
			C474.3,681.5,474.9,682.2,475,683.2z"/>
		<path class="st32" d="M468.2,682.7c-0.2,1-0.8,1.6-1.8,1.5s-1.6-0.8-1.5-1.8s0.8-1.6,1.8-1.5C467.8,681,468.2,681.7,468.2,682.7z"
			/>
		<path class="st33" d="M453.5,677.8c0.8,0.1,1.5,0.4,1.6,1.4c0,1.1-0.5,1.7-1.6,1.8c-1.1,0-1.7-0.7-1.6-1.7
			C451.9,678.3,452.5,677.9,453.5,677.8z"/>
		<path class="st26" d="M459.8,682.9c-1,0-1.6-0.6-1.6-1.6c0-1.1,0.7-1.6,1.7-1.6s1.5,0.6,1.5,1.5
			C461.5,682.2,461,682.8,459.8,682.9z"/>
		<path class="st34" d="M448.8,676.5c0,1.1-0.6,1.7-1.6,1.7c-0.9,0-1.5-0.5-1.6-1.4c-0.1-1,0.4-1.7,1.5-1.8
			C448.1,674.9,448.7,675.4,448.8,676.5z"/>
		<path class="st35" d="M467.5,654.2c-1-0.2-1.7-0.7-1.6-1.8c0.1-1,0.7-1.7,1.7-1.6c1,0,1.6,0.6,1.6,1.7
			C469.2,653.6,468.5,654,467.5,654.2z"/>
		<path class="st36" d="M456.1,649.4c-0.2,1-0.8,1.7-1.9,1.6c-1-0.1-1.6-0.8-1.4-1.9c0.1-1,0.7-1.4,1.6-1.4
			C455.5,647.7,456,648.4,456.1,649.4z"/>
		<path class="st37" d="M462.5,651.2c0,1.1-0.7,1.6-1.7,1.6c-0.8,0-1.5-0.4-1.6-1.4s0.4-1.7,1.4-1.8
			C461.8,649.5,462.4,650.1,462.5,651.2z"/>
		<path class="st38" d="M475.8,653.1c-0.1,1-0.7,1.6-1.8,1.5c-0.9-0.1-1.5-0.6-1.5-1.5c0-1,0.5-1.7,1.6-1.7
			C475.3,651.4,475.7,652.1,475.8,653.1z"/>
	</g>
	<g>
		<path class="st3" d="M810.7,630.1l-0.3,0.4h-0.1v-0.1l0,0L810.7,630.1z"/>
		<path class="st3" d="M795.1,644.2l-0.9,0.5c-1.2,0.7-2.7,0.3-3.4-0.9c-0.7-1.1-0.3-2.6,0.8-3.4l0,0l0.8-0.6l0,0
			c1.2-0.8,2.7-0.5,3.5,0.7s0.5,2.7-0.7,3.5C795.1,644.1,795.1,644.1,795.1,644.2z"/>
		<path class="st3" d="M776.5,654.8l-0.9,0.5c-1.2,0.6-2.7,0.2-3.4-1.1c-0.6-1.2-0.2-2.7,1.1-3.4l0,0l0.9-0.5l0,0
			c1.2-0.6,2.7-0.2,3.4,1.1C778.2,652.6,777.7,654.1,776.5,654.8z"/>
		<path class="st3" d="M757.1,663.8l-0.9,0.4c-1.3,0.5-2.7-0.1-3.3-1.3c-0.5-1.3,0.1-2.7,1.3-3.3l0,0l0.9-0.4l0,0
			c1.3-0.5,2.7,0.1,3.3,1.3C759,661.8,758.4,663.3,757.1,663.8z"/>
		<path class="st3" d="M737,671.3l-1,0.3c-1.3,0.4-2.7-0.3-3.1-1.6c-0.4-1.3,0.3-2.7,1.6-3.1l0,0l1-0.3l0,0c1.3-0.4,2.7,0.3,3.1,1.6
			C739.1,669.4,738.3,670.8,737,671.3z"/>
		<path class="st3" d="M716.3,676.9l-1,0.2c-1.3,0.3-2.7-0.6-3-1.9s0.6-2.7,1.9-3l0,0l1-0.2l0,0c1.3-0.3,2.7,0.6,3,1.9
			C718.5,675.3,717.7,676.6,716.3,676.9z"/>
		<path class="st3" d="M695.2,680.5l-1,0.1c-1.4,0.2-2.7-0.8-2.8-2.2s0.8-2.7,2.2-2.8h0.1l0,0l1-0.1l0,0c1.4-0.1,2.6,0.9,2.7,2.2
			C697.5,679.1,696.5,680.3,695.2,680.5z"/>
		<path class="st3" d="M673.7,679.5l-0.5-0.1l0.5-0.1C673.8,679.4,673.8,679.4,673.7,679.5C673.8,679.5,673.8,679.5,673.7,679.5
			C673.8,679.5,673.7,679.5,673.7,679.5z"/>
	</g>
	<path class="st3" d="M809.7,779.4c-1.4,0-2.5-1.1-2.5-2.5s1.1-2.5,2.5-2.5h1l0,0c1.4,0,2.5,1.1,2.5,2.5s-1.1,2.5-2.5,2.5H809.7
		L809.7,779.4z M789.7,778.8L789.7,778.8l-1.1-0.1c-1.4-0.1-2.4-1.3-2.3-2.6c0.1-1.4,1.3-2.4,2.6-2.3l1,0.1c1.4,0.1,2.4,1.3,2.4,2.6
		C792.1,777.8,791,778.8,789.7,778.8z M768.8,777c-0.1,0-0.2,0-0.3,0l-1-0.1c-1.4-0.2-2.3-1.4-2.2-2.8c0.2-1.4,1.4-2.4,2.8-2.2
		l1,0.1c1.4,0.2,2.3,1.4,2.2,2.8C771.1,776.1,770,777,768.8,777z M748.1,773.8c-0.2,0-0.3,0-0.5,0l-1-0.2c-1.4-0.3-2.2-1.6-2-2.9
		c0.3-1.4,1.6-2.2,2.9-2l1,0.2c1.4,0.3,2.2,1.6,2,2.9C750.3,772.9,749.2,773.8,748.1,773.8z M727.6,769.1c-0.2,0-0.4,0-0.7-0.1
		l-1-0.3c-1.3-0.4-2.1-1.7-1.8-3.1c0.4-1.3,1.7-2.1,3.1-1.8l1,0.3c1.3,0.4,2.1,1.7,1.8,3.1C729.7,768.3,728.7,769.1,727.6,769.1z
		 M707.6,762.8c-0.3,0-0.6,0-0.8-0.1l-0.9-0.3c-1.3-0.5-2-1.9-1.5-3.2s1.9-2,3.2-1.5l0.9,0.3c1.3,0.5,2,1.9,1.5,3.2
		C709.5,762.2,708.6,762.8,707.6,762.8z M688.1,755c-0.3,0-0.7-0.1-1-0.2l-0.9-0.4c-1.3-0.6-1.8-2.1-1.2-3.3
		c0.6-1.3,2.1-1.8,3.3-1.2l0.9,0.4c1.3,0.6,1.8,2,1.2,3.3C689.9,754.4,689,755,688.1,755z M669.4,745.4c-0.4,0-0.8-0.1-1.2-0.3
		l-0.9-0.5c-1.2-0.7-1.6-2.2-0.9-3.4c0.7-1.2,2.2-1.6,3.4-0.9l0.9,0.5c1.2,0.7,1.6,2.2,0.9,3.4C671.1,745,670.2,745.4,669.4,745.4z
		 M651.7,734.1c-0.5,0-1-0.2-1.5-0.5l-0.8-0.6c-1.1-0.8-1.4-2.4-0.6-3.5c0.8-1.1,2.4-1.4,3.5-0.6l0.8,0.6c1.1,0.8,1.4,2.4,0.6,3.5
		C653.2,733.8,652.4,734.1,651.7,734.1z M635.5,720.8c-0.6,0-1.3-0.2-1.8-0.7s-0.8-0.8-0.8-0.8c-0.9-1-0.9-2.6,0.1-3.5
		s2.6-0.9,3.5,0.1c0,0,0.2,0.2,0.6,0.7c1,1,1,2.6,0,3.5C636.8,720.5,636.1,720.8,635.5,720.8z"/>
	<path class="st3" d="M666.5,877.8c-1.4,0-2.5-1.1-2.5-2.5s1.1-2.5,2.5-2.5h1l0,0c1.4,0,2.5,1.1,2.5,2.5s-1.1,2.5-2.5,2.5H666.5
		L666.5,877.8z M646.5,877.4L646.5,877.4h-1.1c-1.4-0.1-2.5-1.2-2.4-2.6s1.2-2.4,2.6-2.4h1c1.4,0.1,2.5,1.2,2.4,2.6
		C648.9,876.4,647.8,877.4,646.5,877.4z M687.5,877.3c-1.3,0-2.4-1-2.5-2.4s1-2.6,2.4-2.6l1-0.1c1.4-0.1,2.6,1,2.6,2.4
		c0.1,1.4-1,2.6-2.4,2.6L687.5,877.3L687.5,877.3z M625.5,876.1c-0.1,0-0.1,0-0.2,0l-1-0.1c-1.4-0.1-2.4-1.3-2.3-2.7
		c0.1-1.4,1.3-2.4,2.7-2.3l1,0.1c1.4,0.1,2.4,1.3,2.3,2.7C627.9,875.1,626.8,876.1,625.5,876.1z M708.4,875.5
		c-1.3,0-2.3-0.9-2.5-2.2c-0.2-1.4,0.8-2.6,2.2-2.8l1-0.1c1.4-0.2,2.6,0.8,2.8,2.2s-0.8,2.6-2.2,2.8l-1,0.1
		C708.6,875.5,708.5,875.5,708.4,875.5z M729.1,872.6c-1.2,0-2.2-0.9-2.5-2.1c-0.2-1.4,0.7-2.7,2-2.9l1-0.2c1.4-0.2,2.7,0.7,2.9,2
		s-0.7,2.7-2,2.9l-1,0.2C729.4,872.5,729.3,872.6,729.1,872.6z M749.7,868.1c-1.1,0-2.1-0.7-2.4-1.9c-0.3-1.3,0.5-2.7,1.8-3l1-0.3
		c1.3-0.3,2.7,0.5,3.1,1.8c0.3,1.3-0.5,2.7-1.8,3.1l-1,0.3C750.1,868.1,749.9,868.1,749.7,868.1z M769.7,862c-1,0-2-0.6-2.4-1.7
		c-0.5-1.3,0.2-2.7,1.5-3.2l0.9-0.3c1.3-0.5,2.7,0.2,3.2,1.5s-0.2,2.7-1.5,3.2l-1,0.3C770.3,861.9,770,862,769.7,862z M789.1,854
		c-0.9,0-1.8-0.5-2.3-1.4c-0.6-1.2-0.1-2.7,1.2-3.3l0.9-0.4c1.2-0.6,2.7-0.1,3.3,1.2c0.6,1.2,0.1,2.7-1.2,3.3l-0.9,0.4
		C789.9,853.9,789.5,854,789.1,854z M807.5,843.9c-0.8,0-1.6-0.4-2.1-1.2c-0.7-1.2-0.4-2.7,0.8-3.5l0.8-0.5c1.2-0.7,2.7-0.4,3.5,0.8
		s0.4,2.7-0.8,3.5l-0.9,0.5C808.5,843.8,808,843.9,807.5,843.9z M824.4,831.4c-0.7,0-1.4-0.3-1.9-0.9c-0.9-1-0.8-2.6,0.3-3.5
		c0.2-0.2,0.5-0.4,0.7-0.6c1-0.9,2.6-0.8,3.5,0.2s0.8,2.6-0.2,3.5c-0.3,0.2-0.5,0.5-0.8,0.7C825.6,831.3,825,831.4,824.4,831.4z
		 M838.8,816.2c-0.5,0-1-0.1-1.4-0.4c-1.1-0.8-1.4-2.3-0.6-3.5c0.3-0.4,0.5-0.7,0.5-0.7c0.7-1.2,2.3-1.5,3.4-0.8
		c1.2,0.7,1.5,2.3,0.8,3.4c0,0-0.2,0.3-0.6,1C840.3,815.8,839.5,816.2,838.8,816.2z"/>
	<g>
		<path class="st39" d="M690.6,810.7c0,0-4.8-4-1.6-8.5c0,0,2.7-4.7,8.6,0.9l35.4,37.2c0,0,9.4,10.2,15.8-1.7c0,0,2.1-2.4-2-9.1
			c0,0-3.8-5.4,1.6-7.8c0,0,4.2-3.5,8.6,4.4c0,0,7.2,11-1.4,21.2c0,0-7.4,11.6-22.9,6.1c0,0-3.3-1-12.4-11.1L690.6,810.7z"/>
		<g>
			<g>
				<g>
					<defs>
						<path id="SVGID_1_" d="M690.6,810.7c0,0-4.8-4-1.6-8.5c0,0,2.7-4.7,8.6,0.9l35.4,37.2c0,0,9.4,10.2,15.8-1.7
							c0,0,2.1-2.4-2-9.1c0,0-3.8-5.4,1.6-7.8c0,0,4.2-3.5,8.6,4.4c0,0,7.2,11-1.4,21.2c0,0-7.4,11.6-22.9,6.1c0,0-3.3-1-12.4-11.1
							L690.6,810.7z"/>
					</defs>
					<clipPath id="SVGID_2_">
						<use xlink:href="#SVGID_1_"  style="overflow:visible;"/>
					</clipPath>
					<g class="st40">
						<polygon class="st41" points="687.1,806.8 700.3,806 704,809.2 689.2,810 						"/>
						<polygon class="st41" points="692.9,813.8 706.9,813 710.8,816.2 695.1,817 						"/>
						<polygon class="st41" points="699.3,821.1 713.6,820.3 717.6,823.6 701.5,824.3 						"/>
						<polygon class="st41" points="706.3,828.3 720.7,827.5 724.8,830.7 708.6,831.5 						"/>
						<polygon class="st41" points="713.2,835.6 727.7,834.8 731.8,838.1 715.5,838.8 						"/>
						<polygon class="st41" points="719,842.1 735.5,841.2 740.1,844.5 721.6,845.2 						"/>
						<polygon class="st41" points="742.8,844 759.1,842.4 763.2,838.5 744.9,840.4 						"/>
						<polygon class="st41" points="746.9,836.8 759.9,834.8 762.9,830.8 748.3,833.2 						"/>
						<polygon class="st41" points="743.2,830.4 758.2,828 761.7,823.8 744.8,826.8 						"/>
						<polygon class="st41" points="726.1,849.3 756.2,847.6 753,851.6 729.9,852.6 						"/>
					</g>
				</g>
			</g>
		</g>
	</g>
	<g>
		<path class="st42" d="M792.1,760.5l-10.2,0.9c-0.2-0.1-0.3-0.2-0.4-0.4c-0.1-0.4,0.4-0.6,0.6-0.7c1.9-0.6,3.1-2.2,4.6-3.4
			c1.9-2.3,2.9-5,2.6-8.1c-0.3-5.9-5.4-10.7-10.8-10.9c-4.8-0.2-9.9,2.7-11.6,7.3c-1.3,3.4-1.1,6.8,0.6,10c0.2,0.4,0.6,0.9,0.2,1.2
			c-0.4,0.3-0.8-0.1-1.2-0.4c-0.3-0.2-0.6-0.5-0.9-0.7c-2-1.9-4.1-3.8-6.1-5.8c-1.6-1.5-3.5-2.2-5.7-1.8c-3.6,0.8-6,4.8-4.1,8.9
			c0.7,1,1.7,1.9,2.7,2.7c1.6,1.6,3.3,3.2,4.8,4.8c0.5,0.5,1,1.1,1.5,1.7l0,0c0.4,0.4,4.6,4.9-4.3,10.2l-9.1,6.2
			c0,0-5.4,3.6-2.4,8.3c0,0,3.1,7.4,10.4,2.1l9.3-6.3c0,0,3-1.9,4.4,1.4l4.1,12.1c0,0,1.5,5.5,7,4.1c0,0,7.4-1.5,5.2-8.7l-4.1-12.2
			c0,0-2.3-8.7,5.9-9.7l7.3-0.8c0,0,7.4-0.8,6.9-6.2C799.2,766.3,799.5,760.5,792.1,760.5z"/>
		<path class="st4" d="M771.6,759.5c1.1,1.9,2.7,2.3,4.6,1.6c0.2-0.1,0.4-0.1,0.7-0.2c0.8-0.1,1.7-0.6,2.3,0.1
			c0.7,0.7-0.1,1.5-0.3,2.2c-0.3,1-0.6,2-1.1,2.9c-0.3,0.7-0.8,1.3-1.5,0.1c-1.9-3.2-4.4-4.2-7.9-2.5c-1.4,0.3-1.4-0.7-1.2-1.5
			c0.3-1.2,0.7-2.4,1.2-3.5c0.5-1.2,1.1-1.3,2.1-0.4C770.8,758.7,771.3,759,771.6,759.5z"/>
		<g>
			<path class="st43" d="M773.4,755.1c-1.2-1-1.9-2.3-2.2-3.9c-0.1-0.5-0.1-1.1,0.6-1.2c0.6-0.1,0.7,0.4,0.8,0.8
				c1.4,4.3,4.3,5.3,8,2.8c0.4-0.3,0.7-0.7,1.1-0.3c0.4,0.5,0.1,1-0.2,1.3c-1.1,1.1-2.4,1.6-3.9,1.8
				C776,756.7,774.6,756.2,773.4,755.1z"/>
			<path class="st43" d="M783.4,749.1c-0.5,0.9-1.5,1.3-2.4,1c-1-0.4-1.3-1.4-0.8-2.4c0.3-0.8,1.1-1.4,2-1
				C783.1,747,783.6,747.9,783.4,749.1z"/>
			<path class="st43" d="M773.3,745.5c0.4-0.9,1.1-1.5,2.1-1.1c1.2,0.4,1.3,1.2,1.1,2.3c-0.3,1.3-1.5,1.4-2.3,1.1
				C773.4,747.4,772.9,746.5,773.3,745.5z"/>
		</g>
	</g>
</g>
</svg>
