<?xml version="1.0" encoding="utf-8"?>
<!-- Generator: Adobe Illustrator 22.1.0, SVG Export Plug-In . SVG Version: 6.00 Build 0)  -->
<svg version="1.1" id="图层_1" xmlns="http://www.w3.org/2000/svg" xmlns:xlink="http://www.w3.org/1999/xlink" x="0px" y="0px"
	 viewBox="0 0 680 900" style="enable-background:new 0 0 680 900;" xml:space="preserve">
<style type="text/css">
	.st0{fill:none;}
	.st1{clip-path:url(#SVGID_2_);fill:#AB9C5A;}
	.st2{clip-path:url(#SVGID_2_);}
	.st3{fill:#139271;}
	.st4{fill:#177F64;}
	.st5{clip-path:url(#SVGID_2_);fill:#139271;}
	.st6{clip-path:url(#SVGID_2_);fill:#DD4E46;}
	.st7{fill:#F0F5F4;}
	.st8{clip-path:url(#SVGID_4_);}
	.st9{fill:#DD4E46;}
	.st10{clip-path:url(#SVGID_2_);fill:#FCFCFC;}
	.st11{clip-path:url(#SVGID_2_);fill:#E8F8F6;}
	.st12{fill:#F7CAA6;}
	.st13{fill:#F9D8B0;}
	.st14{fill:#F8D2AD;}
	.st15{fill:#F8D0A9;}
	.st16{fill:#F9D6B2;}
	.st17{fill:#F7D0AC;}
	.st18{fill:#FBDAB3;}
	.st19{fill:#F9D5AE;}
	.st20{fill:#F7CDAA;}
	.st21{fill:#F9D0AA;}
	.st22{fill:#F8D4B0;}
	.st23{fill:#F8D1AB;}
	.st24{fill:#F7D0A9;}
	.st25{fill:#FAD8B4;}
	.st26{fill:#F9DAB3;}
	.st27{fill:#F6C7A4;}
	.st28{fill:#CC5030;}
	.st29{fill:#EEAB87;}
	.st30{fill:#C84323;}
	.st31{fill:#F7CBA4;}
	.st32{fill:#F9CFA5;}
	.st33{fill:#ECA581;}
	.st34{fill:#F7CEA8;}
	.st35{fill:#EFB08A;}
	.st36{fill:#EFAA8A;}
	.st37{fill:#F1B389;}
	.st38{fill:#E78F6D;}
	.st39{fill:#F4BF98;}
	.st40{fill:#C9442A;}
	.st41{fill:#CD5534;}
	.st42{fill:#C9452B;}
	.st43{clip-path:url(#SVGID_6_);}
	.st44{fill:#139272;}
	.st45{clip-path:url(#SVGID_2_);fill:#139272;}
	.st46{clip-path:url(#SVGID_8_);}
	.st47{fill:#2F2C2B;}
	.st48{fill:#5E6EBC;}
	.st49{fill:#F7C96F;}
	.st50{fill:#8098FF;}
	.st51{fill:#667DD3;}
	.st52{fill:#2F2C2C;}
	.st53{fill:#333032;}
	.st54{fill:#3C3843;}
	.st55{fill:#38343B;}
	.st56{fill:#343033;}
	.st57{fill:#C33D32;}
	.st58{fill:#F2F3F2;}
	.st59{fill:#DDDEDD;}
	.st60{fill:#A82D1F;}
	.st61{fill:#B9BAB9;}
	.st62{fill:#8696EA;}
	.st63{clip-path:url(#SVGID_10_);}
	.st64{fill:#FEFEFD;}
	.st65{fill:#6BBAAD;}
	.st66{fill:#6ABAAC;}
	.st67{fill:#FDFCFC;}
	.st68{fill:#FDFDFD;}
	.st69{fill:#FCFCFC;}
	.st70{fill:#FEFEFE;}
	.st71{fill:#FCFDFD;}
	.st72{fill:#F5FCFB;}
	.st73{fill:#E8F8F6;}
	.st74{fill:#DEF6F3;}
	.st75{fill:#F9E9E7;}
	.st76{fill:#F8E1DE;}
	.st77{fill:#FDF6F3;}
	.st78{fill:#EAF9F6;}
	.st79{fill:#FCF8F6;}
	.st80{fill:#FBE8E6;}
	.st81{fill:#F9F5F3;}
	.st82{clip-path:url(#SVGID_2_);fill:#FCF8F6;}
	.st83{clip-path:url(#SVGID_12_);fill:#FDFDFD;}
	.st84{clip-path:url(#SVGID_12_);fill:#DEF6F3;}
	.st85{clip-path:url(#SVGID_12_);}
	.st86{fill:#3BB54A;}
	.st87{fill:#F4C843;}
	.st88{fill:#FC453A;}
	.st89{fill:#166DCA;}
	.st90{fill:#FE473B;}
	.st91{fill:#263463;}
	.st92{fill:#024C3B;}
	.st93{clip-path:url(#SVGID_12_);fill:#FCFCFC;}
</style>
<rect x="-36.9" y="-7.7" class="st0" width="2603.5" height="906.4"/>
<rect x="2" y="-5.5" class="st0" width="2560" height="900"/>
<g>
	<defs>
		<rect id="SVGID_11_" x="-0.1" y="-5.9" width="668.3" height="906.4"/>
	</defs>
	<clipPath id="SVGID_2_">
		<use xlink:href="#SVGID_11_"  style="overflow:visible;"/>
	</clipPath>
	<path style="clip-path:url(#SVGID_2_);fill:#FDFDFD;" d="M584.5,552.1c-6.3,0.1-12.5-5-12.6-10.5c-0.2-5.5,5.4-10.9,11.4-11
		c6.1-0.1,12.2,5.9,12.2,12C595.5,547.5,590.2,552.1,584.5,552.1z"/>
	<path style="clip-path:url(#SVGID_2_);fill:#DEF6F3;" d="M166.4,152.1c-3.4-0.9-7-1.9-7-6.4c0-4.2,2.7-6.6,6.8-6.6
		c4.2,0,6.6,2.9,6.7,6.8C173.1,149.9,170.6,151.9,166.4,152.1z"/>
	<g class="st2">
		<path class="st86" d="M521.9,816.7c48.1-19.9,69.3-75.7,69.3-75.7c-79.5,6.4-103.9-30.8-103.9-30.8c45.5-12.2,63.5-58.4,63.5-58.4
			c-62.9,6.4-88.9-37.2-88.9-37.2s-26.1,43.6-88.9,37.2c0,0,18,46.2,63.5,58.4c0,0-24.4,37.2-103.9,30.8c0,0,21.2,55.8,69.3,75.7
			c0,0-29.5,28.2-107.1,19.9c0,0,48.3,114.2,167.2,121.9C580.6,950.8,629,836.6,629,836.6C551.4,845,521.9,816.7,521.9,816.7z"/>
		<polygon class="st87" points="482.9,583.1 468.4,583.1 461.8,567.2 455.1,583.1 440.6,583.1 451.2,593.5 448.4,608.8 461.8,599.6 
			475.1,608.8 472.3,593.5 		"/>
		<path class="st88" d="M84.4,753.3c58.9-24.3,84.8-92.6,84.8-92.6C71.8,668.5,42,623,42,623c55.7-14.9,77.7-71.4,77.7-71.4
			C42.8,559.4,10.9,506,10.9,506S-21.1,559.4-98,551.5c0,0,22,56.5,77.7,71.4c0,0-29.8,45.5-127.2,37.7c0,0,25.9,68.3,84.8,92.6
			c0,0-36.1,34.5-131.1,24.3c0,0,59.2,139.7,204.6,149.1c145.5-9.4,204.6-149.1,204.6-149.1C120.5,787.8,84.4,753.3,84.4,753.3z"/>
		<polygon class="st87" points="36.8,460.1 19,460.1 10.9,440.7 2.7,460.1 -15,460.1 -2.1,472.9 -5.5,491.5 10.9,480.3 27.2,491.5 
			23.8,472.9 		"/>
		<path class="st89" d="M296.4,704.8c77.3-32,111.3-121.6,111.3-121.6c-127.8,10.3-167-49.5-167-49.5
			c73.2-19.6,102.1-93.8,102.1-93.8c-101,10.3-143-59.8-143-59.8s-41.9,70.1-143,59.8c0,0,28.9,74.2,102.1,93.8
			c0,0-39.2,59.8-167,49.5c0,0,34,89.7,111.3,121.6c0,0-47.4,45.4-172.2,32c0,0,77.7,183.5,268.7,195.9
			c191-12.4,268.7-195.9,268.7-195.9C343.8,750.2,296.4,704.8,296.4,704.8z"/>
		<polygon class="st90" points="243.1,306.3 213.5,306.3 199.8,273.8 186.1,306.3 156.5,306.3 178.2,327.6 172.5,358.8 199.8,340 
			227.1,358.8 221.5,327.6 		"/>
		<path class="st91" d="M84.4,753.2c58.9-24.3,84.8-92.6,84.8-92.6C71.8,668.4,42,622.9,42,622.9c36.2-9.7,58.2-37,69.1-54.9
			C85,579.1,46.6,587.5-8.1,583.1c0,0,34,89.7,111.3,121.6c0,0-47.4,45.4-172.2,32c0,0,48.3,114,162.3,168.3
			c85.8-41.6,122.2-127.5,122.2-127.5C120.5,787.7,84.4,753.2,84.4,753.2z"/>
		<path class="st92" d="M468.5,736.5c-31.2,3.4-57.5,3-79.5,0.7c-14.6,3.6-33.2,5.5-56.6,3.6c0,0,21.2,55.8,69.3,75.7
			c0,0-29.5,28.2-107.1,19.9c0,0,11.4,26.7,36.5,55.2C427.3,833.9,468.5,736.5,468.5,736.5z"/>
	</g>
	<path class="st10" d="M305.7,568.3c6.1-0.1,10.2,3.5,9.5,9.3c-0.6,4.8-3.9,7.9-9,8.2c-4.8,0.3-9.6-4.9-9.6-10
		C296.7,571.3,300.2,568.4,305.7,568.3z"/>
	<path style="clip-path:url(#SVGID_2_);fill:#FDFDFD;" d="M584.5,552.1c-6.3,0.1-12.5-5-12.6-10.5c-0.2-5.5,5.4-10.9,11.4-11
		c6.1-0.1,12.2,5.9,12.2,12C595.5,547.5,590.2,552.1,584.5,552.1z"/>
	<path style="clip-path:url(#SVGID_2_);fill:#DEF6F3;" d="M166.4,152.1c-3.4-0.9-7-1.9-7-6.4c0-4.2,2.7-6.6,6.8-6.6
		c4.2,0,6.6,2.9,6.7,6.8C173.1,149.9,170.6,151.9,166.4,152.1z"/>
	<path class="st10" d="M305.7,568.3c6.1-0.1,10.2,3.5,9.5,9.3c-0.6,4.8-3.9,7.9-9,8.2c-4.8,0.3-9.6-4.9-9.6-10
		C296.7,571.3,300.2,568.4,305.7,568.3z"/>
</g>
</svg>
