<?xml version="1.0" encoding="utf-8"?>
<!-- Generator: Adobe Illustrator 22.1.0, SVG Export Plug-In . SVG Version: 6.00 Build 0)  -->
<svg version="1.1" id="图层_1" xmlns="http://www.w3.org/2000/svg" xmlns:xlink="http://www.w3.org/1999/xlink" x="0px" y="0px"
	 viewBox="0 0 130 130" style="enable-background:new 0 0 130 130;" xml:space="preserve">
<style type="text/css">
	.st0{fill:#396AFC;}
	.st1{fill:#FEFEFE;}
	.st2{fill:#2D2929;}
	.st3{fill:#FFFFFF;}
	.st4{fill:#3B6BFB;}
	.st5{fill:#020202;}
</style>
<g>
	<g>
		<g>
			<path d="M67.2,18.4c0,2.3,0,4.5,0,6.8c0,1.7-0.9,2.8-2.5,2.8c-1.5,0-2.4-1.1-2.5-2.8c0-4.5,0-9,0-13.5c0-1.7,1-2.8,2.5-2.8
				c1.5,0,2.4,1.1,2.5,2.8C67.2,13.9,67.2,16.1,67.2,18.4z"/>
			<path d="M18.3,67.2c-2.3,0-4.6,0-6.9,0c-1.6,0-2.7-1-2.8-2.4c0-1.5,1.1-2.5,2.8-2.5c4.5,0,9.1,0,13.6,0c1.7,0,2.7,1,2.7,2.4
				c0,1.5-1.1,2.5-2.8,2.5C22.8,67.2,20.6,67.2,18.3,67.2z"/>
			<path d="M111.1,62.3c2.3,0,4.6,0,6.9,0c1.6,0,2.7,1,2.7,2.4c0,1.4-1.1,2.5-2.7,2.5c-4.6,0-9.2,0-13.7,0c-1.7,0-2.7-1-2.7-2.4
				c0-1.5,1.1-2.5,2.8-2.5C106.6,62.3,108.8,62.3,111.1,62.3z"/>
			<path d="M67.2,111.1c0,2.3,0,4.5,0,6.8c0,1.7-1,2.8-2.4,2.9c-1.5,0-2.5-1.1-2.5-2.8c0-4.5,0-9.1,0-13.6c0-1.7,1-2.7,2.4-2.7
				c1.5,0,2.5,1.1,2.5,2.8C67.2,106.6,67.2,108.9,67.2,111.1z"/>
			<path d="M39.7,37.3c0,1-0.4,1.8-1.3,2.2c-0.9,0.5-1.9,0.4-2.6-0.3c-1.9-1.8-3.8-3.7-5.6-5.6c-0.9-1-0.7-2.3,0.2-3.2
				c0.9-0.9,2.2-1.1,3.2-0.2c1.9,1.8,3.8,3.7,5.6,5.6C39.5,36.2,39.7,36.7,39.7,37.3z"/>
			<path d="M92.1,39.8c-1-0.1-1.7-0.5-2.1-1.3c-0.5-0.9-0.4-1.9,0.3-2.6c1.8-1.9,3.7-3.8,5.6-5.6c0.9-0.9,2.3-0.7,3.2,0.2
				c0.9,0.9,1,2.2,0.2,3.2c-0.9,1-1.9,1.9-2.8,2.9c-0.8,0.8-1.6,1.6-2.4,2.4C93.5,39.4,92.9,39.8,92.1,39.8z"/>
			<path d="M37.3,89.8c1,0,1.7,0.5,2.1,1.3c0.5,0.9,0.4,1.8-0.2,2.6c-1.8,2-3.7,3.9-5.7,5.7c-1,0.9-2.3,0.7-3.2-0.3
				c-0.9-0.9-1-2.2-0.2-3.1c1.8-2,3.8-3.8,5.7-5.7C36.2,89.9,36.7,89.8,37.3,89.8z"/>
			<path d="M89.7,92.2c0-1,0.4-1.7,1.3-2.1c0.9-0.5,1.9-0.5,2.6,0.2c1.9,1.8,3.9,3.7,5.7,5.7c0.9,0.9,0.7,2.3-0.2,3.2
				c-0.9,0.9-2.2,1-3.2,0.1c-1.9-1.8-3.7-3.7-5.6-5.5C89.9,93.4,89.7,92.8,89.7,92.2z"/>
			<path d="M64.7,31.4c-18.4,0-33.4,15-33.4,33.3c0,18.4,14.9,33.4,33.3,33.5c18.4,0.1,33.5-15,33.5-33.4
				C98.1,46.4,83.1,31.4,64.7,31.4z M64.7,93.3c-15.7,0-28.4-12.8-28.4-28.5c0-15.7,12.8-28.5,28.5-28.5c15.7,0,28.5,12.8,28.5,28.5
				C93.2,80.5,80.3,93.3,64.7,93.3z"/>
		</g>
	</g>
	<path class="st0" d="M79.1,63.7c-0.5-1-1.4-1.4-2.5-1.4c-1.8,0-3.5,0-5.3,0c-0.8,0-1.1-0.2-1-1c0.1-2.7,0-5.5,0-8.2c0,0,0,0,0,0
		c0-2.8,0-5.6,0-8.4c0-1.3-0.6-2.1-1.7-2.5c-1.1-0.4-2.1-0.1-2.8,1c-5,6.7-10,13.3-15.1,20c-0.6,0.9-0.9,1.8-0.4,2.7
		c0.5,1,1.4,1.4,2.5,1.4c1.7,0,3.5,0,5.2,0c0.9,0,1.2,0.2,1.2,1.1c-0.1,5.5,0,11,0,16.5c0,1.3,0.6,2.2,1.7,2.6
		c1.1,0.4,2.1,0.1,2.9-1.1c5-6.6,10-13.3,15-19.9C79.4,65.6,79.6,64.7,79.1,63.7z M64.3,77.4c-0.4-0.4-0.3-0.7-0.3-1.1
		c0-3.7,0-7.3,0-11c0-2.2-0.8-3-3-3c-1.1,0-2.2,0-3.6,0c2.7-3.5,5.2-6.8,7.7-10.2c0.1,0,0.1,0,0.2,0.1c0,0.3,0.1,0.7,0.1,1
		c0,3.7,0,7.3,0,11c0,2.1,0.9,3,3,3c1.1,0,2.3,0,3.6,0C69.3,70.7,66.8,74.1,64.3,77.4z"/>
</g>
</svg>
