<?xml version="1.0" encoding="utf-8"?>
<!-- Generator: Adobe Illustrator 22.1.0, SVG Export Plug-In . SVG Version: 6.00 Build 0)  -->
<svg version="1.1" id="图层_1" xmlns="http://www.w3.org/2000/svg" xmlns:xlink="http://www.w3.org/1999/xlink" x="0px" y="0px"
	 viewBox="0 0 50 50" style="enable-background:new 0 0 50 50;" xml:space="preserve">
<g>
	<g>
		<path d="M47,44.2L35.7,33c2.7-3.3,4.2-7.4,4.2-11.8c0-5-1.9-9.7-5.5-13.2c-3.5-3.5-8.2-5.5-13.2-5.5c-5,0-9.7,1.9-13.2,5.5
			c-3.5,3.5-5.5,8.2-5.5,13.2S4.4,31,8,34.5S16.2,40,21.2,40c4.4,0,8.6-1.5,11.9-4.3l11.2,11.2c0.7,0.7,1.9,0.7,2.6,0
			C47.7,46.2,47.7,45,47,44.2L47,44.2z M21.2,36.2c-8.2,0-15-6.7-15-15c0-8.2,6.7-15,15-15s15,6.7,15,15S29.5,36.2,21.2,36.2
			L21.2,36.2z M21.2,36.2"/>
	</g>
</g>
</svg>
