<?xml version="1.0" encoding="utf-8"?>
<!-- Generator: Adobe Illustrator 22.1.0, SVG Export Plug-In . SVG Version: 6.00 Build 0)  -->
<svg version="1.1" id="图层_1" xmlns="http://www.w3.org/2000/svg" xmlns:xlink="http://www.w3.org/1999/xlink" x="0px" y="0px"
	 viewBox="0 0 130 130" style="enable-background:new 0 0 130 130;" xml:space="preserve">
<style type="text/css">
	.st0{fill:#396AFC;}
	.st1{fill:#FEFEFE;}
	.st2{fill:#2D2929;}
	.st3{fill:#FFFFFF;}
	.st4{fill:#3B6BFB;}
	.st5{fill:#020202;}
</style>
<g>
	<path d="M119.7,60.2c0-1-0.4-1.7-1.3-2.1c-3.6-1.8-7.1-3.7-10.7-5.6c-0.7-0.4-1.3-0.4-2.1,0c-3.6,1.9-7.3,3.8-10.9,5.7
		c-0.8,0.4-1.1,1-1.1,1.9c0,1.1,0,2.1,0,3.2c0.1,0.8-0.1,1.2-1.1,1.2c-3.4-0.1-6.8,0-10.2,0c-0.7,0-1-0.1-1.2-0.9
		c-1-7.1-6.8-12.6-13.5-13.5C67,50,66.9,49.7,66.9,49c0-3.8,0-7.6,0-11.3c0-0.7,0.2-1.1,0.9-1.4c3.2-1.6,6.3-3.3,9.5-4.9
		c0.9-0.4,1.3-1.1,1.3-2c0-3.8,0-7.6,0-11.5c0-1-0.4-1.7-1.3-2.2c-3.5-1.8-7.1-3.6-10.6-5.5c-0.9-0.5-1.6-0.4-2.4,0
		c-3.5,1.9-7,3.7-10.5,5.5c-1,0.5-1.4,1.2-1.3,2.2c0,3.7,0,7.5,0,11.2c0,1.1,0.4,1.8,1.4,2.3c3.1,1.6,6.1,3.2,9.2,4.8
		c0.7,0.3,0.9,0.7,0.9,1.5c0,3.7,0,7.5,0,11.2c0,0.7-0.2,1-0.9,1.2c-7.5,1.5-11.9,5.9-13.5,13.5c-0.1,0.7-0.4,0.9-1.1,0.9
		c-2.5,0-5,0-7.5,0c-1.2,0-2.9,0.4-3.6-0.2c-0.8-0.7-0.2-2.4-0.3-3.7c0-0.1,0-0.2,0-0.3c0.1-1.1-0.4-1.7-1.3-2.2
		c-3.5-1.8-7-3.6-10.5-5.5c-0.8-0.5-1.6-0.4-2.4,0c-3.4,1.8-6.9,3.6-10.4,5.4c-1.1,0.6-1.5,1.3-1.5,2.6c0.1,1.8,0,3.6,0,5.4
		c0,1.8,0,3.7,0,5.5c0,1.1,0.3,1.7,1.3,2.2c3.6,1.8,7.1,3.7,10.6,5.5c0.8,0.4,1.5,0.4,2.3,0c3.6-1.9,7.1-3.8,10.7-5.6
		c0.8-0.4,1.2-1,1.2-1.9c0-1.1,0-2.1,0-3.2c-0.1-0.9,0.1-1.2,1.1-1.2c3.4,0.1,6.8,0,10.2,0c0.7,0,1,0.1,1.2,0.9
		c1.4,7.5,6,12,13.5,13.5c0.7,0.1,0.9,0.4,0.9,1.1c0,3.8,0,7.6,0,11.3c0,0.7-0.2,1.1-0.8,1.4c-3.1,1.6-6.2,3.3-9.3,4.8
		c-1,0.5-1.4,1.1-1.4,2.2c0,3.8,0,7.6,0,11.3c0,1,0.4,1.7,1.3,2.1c3.5,1.8,7.1,3.6,10.6,5.5c0.9,0.5,1.6,0.4,2.4,0
		c3.5-1.8,7-3.7,10.5-5.5c1-0.5,1.4-1.2,1.4-2.2c0-3.7,0-7.5,0-11.2c0-1.1-0.4-1.8-1.4-2.3c-3.1-1.5-6.1-3.2-9.1-4.7
		c-0.8-0.4-1-0.8-1-1.6c0.1-3.2,0-6.4,0-9.5c0-2.4,0-2.3,2.3-3c6.6-1.8,10.6-6.1,12-12.9c0.2-1,0.5-1.3,1.5-1.3
		c3.3,0.1,6.5,0.1,9.8,0c1,0,1.3,0.3,1.2,1.2c-0.1,1.1,0,2.1,0,3.2c0,0.9,0.3,1.4,1.1,1.8c3.6,1.9,7.2,3.7,10.8,5.7
		c0.8,0.4,1.4,0.4,2.2,0c3.6-1.9,7.1-3.7,10.7-5.6c0.9-0.4,1.3-1,1.3-2C119.7,67.9,119.7,64.1,119.7,60.2z M22.7,68.8
		c-0.2,2.3,0,4.5,0,7c-2.8-1.5-5.5-2.8-8.1-4.2c-0.3-0.2-0.5-0.4-0.5-0.8c0-2.8,0-5.6,0-8.7c2.3,1.2,4.4,2.4,6.6,3.4
		C22.3,66.2,22.9,67,22.7,68.8z M21.6,62.8c-1.8-1.2-3.8-2-5.9-3.1c2.7-1.4,5.3-2.7,7.8-4.1c0.5-0.3,0.9-0.2,1.3,0.1
		c2.5,1.3,5,2.6,7.7,4c-2.1,1.1-4.1,2-5.9,3.2C24.9,63.9,23.4,63.9,21.6,62.8z M33.8,71.5c-2.7,1.4-5.4,2.8-8.2,4.3c0-3,0-5.9,0-8.7
		c0-0.3,0.1-0.5,0.4-0.7c2.7-1.4,5.4-2.8,8.2-4.3c0,3,0,5.9,0,8.7C34.3,71.1,34.1,71.4,33.8,71.5z M75.5,28.3c0,0.3,0,0.7-0.4,0.9
		c-2.7,1.4-5.4,2.8-8.2,4.3c0-3,0-5.8,0-8.7c0-0.5,0.2-0.7,0.6-0.9c2.6-1.3,5.2-2.7,8-4.2C75.5,22.7,75.5,25.5,75.5,28.3z
		 M63.9,33.4c-2.1-1.1-4-2.2-6-3.1c-2.1-0.8-2.9-2-2.6-4.3c0.2-2,0.1-4.1,0.1-6.3c2.8,1.5,5.5,2.9,8.2,4.2c0.4,0.2,0.4,0.5,0.4,0.9
		C63.9,27.6,63.9,30.4,63.9,33.4z M57,17.3c2.7-1.4,5.3-2.8,7.9-4.2c0.3-0.2,0.7-0.1,1,0c2.6,1.4,5.1,2.7,7.9,4.1
		c-2.7,1.4-5.3,2.8-7.8,4.1c-0.4,0.2-0.7,0.2-1.1,0C62.3,20.1,59.7,18.7,57,17.3z M63.9,118.1c-2.8-1.5-5.5-2.9-8.2-4.3
		c-0.4-0.2-0.4-0.5-0.4-0.9c0-2.8,0-5.6,0-8.6c2.8,1.5,5.4,2.8,8,4.2c0.3,0.2,0.6,0.3,0.6,0.8C63.9,112.2,63.9,115,63.9,118.1z
		 M75.5,113c0,0.4,0,0.7-0.4,0.8c-2.7,1.4-5.3,2.8-8.2,4.3c0-3,0-5.8,0-8.7c0-0.4,0.1-0.6,0.5-0.8c2.6-1.4,5.3-2.7,8.1-4.2
		C75.5,107.4,75.5,110.2,75.5,113z M73.7,101.9c-1,0.8-2,1.2-3,1.7c-1.5,0.8-3,1.6-4.5,2.4c-0.3,0.2-0.6,0.4-1.1,0.2
		c-2.6-1.4-5.2-2.7-8-4.2c2.8-1.5,5.3-2.8,7.9-4.1c0.5-0.2,0.8-0.1,1.2,0.1C68.6,99.2,71.1,100.5,73.7,101.9z M65.4,79.1
		c-7.3,0-13.2-5.9-13.2-13.1c0-7.3,5.9-13.2,13.1-13.2c7.3,0,13.2,5.8,13.2,13.1C78.6,73.2,72.7,79.1,65.4,79.1z M105.2,75.8
		c-2.4-1.2-4.5-2.5-6.8-3.5c-1.4-0.6-2-1.5-1.9-3.1c0.2-2.3,0-4.6,0-7.1c2.8,1.5,5.5,2.9,8.1,4.2c0.4,0.2,0.5,0.5,0.5,0.9
		C105.2,70,105.2,72.8,105.2,75.8z M107.3,63.7c-0.4,0.2-0.7,0.2-1.1,0c-2.6-1.4-5.1-2.7-7.9-4.1c2.7-1.4,5.3-2.8,7.9-4.1
		c0.4-0.2,0.7-0.1,1.1,0.1c2.5,1.3,5.1,2.6,7.8,4.1C112.3,61.1,109.8,62.4,107.3,63.7z M116.3,71.5c-2.7,1.4-5.4,2.8-8.2,4.2
		c0-3,0-5.8,0-8.6c0-0.4,0.1-0.6,0.4-0.8c2.7-1.4,5.3-2.8,8.2-4.3c0,3.1,0,5.8,0,8.6C116.8,71.1,116.7,71.4,116.3,71.5z"/>
	<g>
		<g>
			<path class="st2" d="M60.7,51.4c0,0-11.9-4.4-14.3,4.7c0,0-1.3,3.5,1.6,12.6c0,0,3.6,13.8,8.4,9c0,0,3.4,2.4,6.9,0.7
				c0,0-0.4,8.4,2.3,9.3c0,0,3.1,2.1,7.4-0.6c0,0,1.7-0.8,2.1-4.1l0.7-5.7c0,0,6.2,1,7.7-3.4c0,0,0.8-2.4-1.8-1.9
				c0,0-1.2,0.4-3.3,0.2c0,0,4.2-6.9,4.8-13.2c0,0,0.5-1.8-0.3-4.5c0,0-1.3-2.8-5.1-4.1c0,0-4.4-1.7-9.5,0.1
				C68.4,50.6,63.9,49.5,60.7,51.4z"/>
			<path class="st2" d="M68.7,89.6c-1.9,0-3.2-0.7-3.6-0.9c-2.5-1-2.9-6-2.9-8.8c-2.5,0.6-4.7-0.3-5.8-0.9c-1.2,0.9-2.3,0.9-3,0.7
				C49.6,78.5,47.3,70,47,69c-2.7-8.7-1.7-12.6-1.5-13.2c0.7-2.5,2-4.3,4.1-5.4c4-2.1,9.5-0.6,11.1-0.1c3-1.5,6.6-0.9,7.7-0.7
				c5.3-1.8,9.8,0,10,0c4.2,1.3,5.6,4.5,5.7,4.6l0,0.1c0.8,2.7,0.4,4.5,0.3,5c-0.5,4.7-2.9,9.6-4.1,12c0.9,0,1.3-0.2,1.3-0.2
				c1.5-0.3,2.2,0.2,2.6,0.6c0.9,1,0.4,2.5,0.4,2.6c-1.4,4-5.8,4.3-7.8,4.2l-0.6,4.7c-0.5,3.7-2.4,4.8-2.7,4.9
				C71.7,89.3,70,89.6,68.7,89.6z M64.4,76.8l-0.1,1.7c-0.2,3.7,0.4,7.9,1.6,8.4l0.2,0.1c0.1,0.1,2.7,1.7,6.4-0.6
				c0.1-0.1,1.3-0.8,1.6-3.4l0.9-6.7l1,0.2c0.1,0,5.4,0.8,6.6-2.8c0.1-0.2,0.1-0.6,0-0.7c0,0-0.1,0-0.2,0c-0.1,0-0.2,0-0.4,0
				c-0.3,0.1-1.6,0.4-3.6,0.2l-1.6-0.1l0.8-1.4c0-0.1,4.1-6.8,4.7-12.8l0-0.2c0,0,0.4-1.5-0.2-3.9c-0.2-0.4-1.4-2.5-4.5-3.5
				c-0.1,0-4.2-1.6-8.9,0.1l-0.3,0.1l-0.3-0.1c0,0-4.2-1-6.9,0.7l-0.4,0.2l-0.5-0.2c-0.1,0-6-2.2-9.9-0.1c-1.6,0.8-2.6,2.2-3.1,4.2
				l0,0.1c0,0-1.1,3.4,1.6,12c0.9,3.3,3,8.7,5.1,9.3c0.3,0.1,0.9,0.1,1.7-0.7l0.6-0.6l0.7,0.5c0.1,0.1,3,2.1,5.9,0.6L64.4,76.8z"/>
		</g>
		<path class="st3" d="M61.1,52.6c0,0-6.6-2.8-11.1,0c0,0-3.2,1.7-2.9,7.3c0,0,0.4,7.4,4,14.9c0,0,2.3,4.6,5.1,2.1l3.5-3.9
			c0,0,0.7,0.6,2,0.6c0,0-0.2,1.3-2.8,1.7c0,0-2.6,0.5-1,2.1c0,0,3,1.8,6.2-0.5l0.2,5.5c0,0-0.2,4.9,3.7,5.1c0,0,4.1,0.3,5.7-2.9
			c0,0,0.8-1.8,1.4-8.3c0,0,1.8,0.7,5.1-0.5c0,0,1.1-0.4,1.6-1c0,0,1.7-1.6,0.2-2c0,0-0.5-0.1-1.7,0.2c0,0-2.1,0.4-3.1-0.4
			c0,0,3.9-5.9,5-12.6c0,0,0.6-3.6-0.4-5.4c0,0-3.7-6-13.3-3.1C68.6,51.6,63.9,50.4,61.1,52.6z"/>
		<path class="st4" d="M60,53.5c0,0-5.9-2.4-9.9,0.7c0,0-4.1,2.2,0,14.8c0,0,2.7,10.1,5.5,7l3.2-3.6c0,0-2.4-1.6-1.8-5.9
			c0,0,0.1-1.7,0-4C57,62.6,56.4,57.2,60,53.5z"/>
		<path class="st4" d="M70.4,52.3c0,0,6.6-1.6,10.5,3.4c0,0,2.1,4.5-4.5,16.1l-0.2-0.2c0,0,1.4-1.1,0.7-6.4c0,0-0.2,0.3,0.4-4.9
			C77.2,60.4,76.2,55.4,70.4,52.3z"/>
		<path class="st4" d="M58.2,61.1c0,0,0.1-6.3,4.4-8.1c0,0,4.7-1.9,9.4,1.8c0,0,3.1,2.4,3.7,5.1c0,0-5.5-0.8-4.4,4.1
			c0,0,0.4,3.1,4.2,8.7c0,0-1.9,0.3-1.6,3.3c0,0-0.2,3.2-0.7,5.6c0,0-0.3,3.9-2.8,4.6c0,0-3.9,1.8-4.8-2.3c0,0-0.5-4.2-0.3-7.8
			c0,0,0.4-3.4-2.2-3.3c0,0-0.2-0.2,0.9-2.5c0,0,1.5-2.1,0.7-6.7C64.7,63.6,64.5,57.7,58.2,61.1z"/>
		<path class="st4" d="M58.2,62.5c0,0,4.2-2.8,5.1,0c0,0,0.5,2.4,0.3,4.9c0,0-0.2,1.6-0.8,2.5c0,0-0.9,2-0.9,2.6c0,0-3,0.2-3.9-3.4
			c0,0-0.2-0.6,0-1.5C58.1,67.6,58.4,64,58.2,62.5z"/>
		<path class="st3" d="M60.9,62.5c0,0,0.1,0.4,0.7,0.6c0,0,0.4,0.2,0.8-0.1c0,0,0.6-0.3,0.3-0.8c0,0-0.4-0.6-1.8-0.3
			c0,0-0.2,0.1-0.2,0.2C60.8,62.2,60.8,62.4,60.9,62.5z"/>
		<path class="st4" d="M76,61.2c0,0-3.1-0.5-3.5,1.1c0,0-0.5,1.6,1,4.5c0,0,1.3,2.4,2,3.7c0,0,0.7-0.8,0.3-3.8
			C75.8,66.7,75.5,64.8,76,61.2z"/>
		<path class="st3" d="M73.2,62.1c0,0,0.1-0.5,1-0.5c0,0,0.7-0.1,0.9,0.3c0,0,0.1,0.5-0.7,0.8c0,0-0.5,0.1-0.8-0.1
			C73.6,62.6,73.1,62.4,73.2,62.1z"/>
		<path class="st4" d="M63.3,73.9c0,0,0.9,0,0.9,1.3c0,0-0.6,1.2-2.4,1.8c0,0-1.6,0.5-3.2-0.4c0,0,2.3-0.3,2.8-0.9
			c0,0,0.7-0.6,1.1-1.1C62.7,74.5,63,73.8,63.3,73.9z"/>
		<path class="st4" d="M76.4,73.8c0,0-1.4-0.1-1.1,1.6c0,0,3,0.9,5.9-1.3C81.1,74,77.2,74.8,76.4,73.8z"/>
	</g>
</g>
</svg>
