<?xml version="1.0" encoding="utf-8"?>
<!-- Generator: Adobe Illustrator 22.1.0, SVG Export Plug-In . SVG Version: 6.00 Build 0)  -->
<svg version="1.1" id="图层_1" xmlns="http://www.w3.org/2000/svg" xmlns:xlink="http://www.w3.org/1999/xlink" x="0px" y="0px"
	 viewBox="0 0 130 130" style="enable-background:new 0 0 130 130;" xml:space="preserve">
<style type="text/css">
	.st0{fill:#396AFC;}
	.st1{fill:#FEFEFE;}
	.st2{fill:#2D2929;}
	.st3{fill:#FFFFFF;}
	.st4{fill:#3B6BFB;}
	.st5{fill:#020202;}
</style>
<g>
	<g>
		<path class="st5" d="M9.7,63.4c0-16.8,0-33.5,0-50.3c0-2.6,0.7-3.3,3.3-3.3c18.1,0,36.2,0,54.2,0c1.3,0,2.2,0.4,3.1,1.3
			c7.4,7.4,14.8,14.8,22.2,22.2c0.8,0.8,1.3,1.7,1.3,2.9c0,13.9,0,27.8,0,41.7c0,0.4,0,0.8,0,1.2c-0.3,1.2-1,1.9-2.3,1.9
			c-1.3,0-2.1-0.7-2.3-2c-0.1-0.4,0-0.9,0-1.3c0-13.3,0-26.6,0-39.9c0-0.9-0.2-1.5-0.9-2.2c-6.8-6.7-13.5-13.4-20.2-20.2
			c-0.6-0.6-1.2-0.9-2.1-0.9c-16.7,0-33.3,0-50,0c-1.2,0-1.5,0.3-1.5,1.5c0,31.7,0,63.4,0,95c0,1.2,0.3,1.5,1.5,1.5
			c12.8-0.1,25.6,0,38.3,0c0.4,0,0.9-0.1,1.3,0c1.3,0.2,2,1,2,2.3c0,1.3-0.7,2.1-2,2.3c-0.4,0.1-0.8,0-1.2,0c-13.8,0-27.7,0-41.5,0
			c-2.4,0-3.1-0.8-3.1-3.2C9.7,97.2,9.7,80.3,9.7,63.4z"/>
		<path class="st5" d="M27.6,78.3c0-1.9,0.6-3.6,0.9-5.4c0.2-1.3,0.3-2.7,0.2-4.1c-0.2-2.1-0.8-2.7-2.9-2.9
			c-2.4-0.2-3.3-0.9-3.3-2.4c0-1.5,1-2.2,3.4-2.3c1.9-0.1,2.6-0.8,2.8-2.7c0.2-2.4-0.3-4.7-0.8-7.1C26.4,45,30.1,39.2,36.2,38
			c0.5-0.1,1-0.1,1.4-0.1c1.3,0,2.2,0.9,2.3,2.2c0.1,1.2-0.8,2.2-2,2.5c-4.6,0.9-6.5,3.8-5.5,8.4c0.7,3.2,1.3,6.4,0.5,9.7
			c-0.3,1.1-1.3,2-1.3,3c0,1,1,1.9,1.3,3c0.7,3.2,0.3,6.4-0.5,9.5c-0.4,1.7-0.5,3.3,0.2,4.9c0.9,2.1,2.4,3.3,4.7,3.6
			c1.7,0.2,2.7,1.1,2.6,2.5c-0.1,1.4-1.3,2.3-3.1,2.1C31.6,88.6,27.6,84,27.6,78.3z"/>
		<path class="st5" d="M47,89.2c-1.8-0.1-2.7-1.6-2.1-3.4c2-5.7,4-11.4,6-17.1c3.3-9.4,6.6-18.7,9.8-28.1c0.8-2.2,1.9-3,3.3-2.5
			c1.5,0.5,1.8,1.8,1.1,4c-5.2,15-10.5,30-15.7,45C49,88.3,48.3,89.1,47,89.2z"/>
	</g>
	<path class="st4" d="M123.3,102.6c-0.7-0.8-1.5-1.7-2.2-2.5c-3.4-3.9-7.2-7.2-11.9-9.4c-8.7-4.2-17.9-4.7-27.3-2.9
		c-9.6,1.9-16.7,7.7-22.6,15.1c-0.7,0.9-0.7,1.9,0,2.8c0.7,0.9,1.6,1.2,2.7,0.7c0.6-0.2,1-0.7,1.4-1.2c2.4-2.8,5-5.6,8-7.8
		c1.7-1.2,3.4-2.3,5.5-3.1c-4.5,9.7-3.5,17.4,2.9,23.1c5.8,5.1,14.3,5.9,20.8,1.8c4.2-2.6,6.9-6.4,7.9-11.2c1.1-4.8,0-9.3-2.8-13.8
		c3.9,1.7,7,3.9,9.6,6.6c1.6,1.6,3,3.3,4.5,4.9c1.1,1.1,2.5,1.2,3.5,0.2C124.3,105,124.3,103.7,123.3,102.6z M91.4,117.2
		c-7,0-12.8-5.7-12.9-12.7c0-7.1,5.7-12.9,12.8-12.9c7.1,0,12.9,5.8,12.9,12.9C104.2,111.4,98.4,117.1,91.4,117.2z"/>
</g>
</svg>
