<?xml version="1.0" encoding="utf-8"?>
<!-- Generator: Adobe Illustrator 22.1.0, SVG Export Plug-In . SVG Version: 6.00 Build 0)  -->
<svg version="1.1" id="图层_1" xmlns="http://www.w3.org/2000/svg" xmlns:xlink="http://www.w3.org/1999/xlink" x="0px" y="0px"
	 viewBox="0 0 130 130" style="enable-background:new 0 0 130 130;" xml:space="preserve">
<style type="text/css">
	.st0{fill:#396AFC;}
	.st1{fill:#FEFEFE;}
	.st2{fill:#2D2929;}
	.st3{fill:#FFFFFF;}
	.st4{fill:#3B6BFB;}
	.st5{fill:#020202;}
</style>
<g>
	<g>
		<path class="st4" d="M49.3,46.4c1.7,1.3,3.4,2.6,5.1,3.8c0.4,0.3,0.9,0.7,1,1.2c0.2,0.8,0,1.5-0.6,2c-0.7,0.5-1.4,0.6-2.1,0.1
			c-2.6-1.9-5.1-3.8-7.7-5.8c-1-0.8-1-2.1,0-2.8c2.5-1.9,5-3.8,7.6-5.7c0.8-0.6,1.9-0.4,2.5,0.4c0.6,0.8,0.5,1.9-0.3,2.5
			C53,43.6,51.2,44.9,49.3,46.4z"/>
		<path class="st4" d="M80.3,46.3c-1.7-1.3-3.4-2.6-5.1-3.8c-1.1-0.8-1.3-1.9-0.7-2.8c0.7-0.9,1.8-1,2.9-0.2
			c2.3,1.7,4.6,3.4,6.9,5.2c1.4,1.1,1.4,2.3,0,3.4c-2.3,1.8-4.6,3.5-7,5.2c-1.1,0.8-2.1,0.7-2.8-0.2c-0.7-0.9-0.5-2,0.6-2.8
			c1.6-1.3,3.3-2.5,5-3.7C80.2,46.5,80.2,46.4,80.3,46.3z"/>
		<path class="st4" d="M68.5,39.1c-0.1,0.4-0.3,1.1-0.4,1.7c-1.1,4.3-2.2,8.6-3.3,13c-0.4,1.4-1.2,2.1-2.4,1.8
			c-1.1-0.3-1.6-1.3-1.2-2.7c1.2-4.7,2.4-9.5,3.6-14.2c0.3-1.1,1.1-1.8,2.1-1.6C67.9,37.2,68.5,38,68.5,39.1z"/>
	</g>
	<g>
		<path class="st5" d="M119.8,75c-2.9-3.3-5.8-6.6-8.7-10c-1.1-1.2-2.3-2.2-4.1-2.3c-0.6,0-0.8-0.4-0.8-1c0-0.4,0-0.8,0-1.2
			c0-14.5,0-28.9,0-43.4c0-4.5-2.4-7.4-6.7-8.2C76.3,9,53.1,9,29.8,9c-1.5,0.2-2.8,0.7-3.9,1.8c-1.8,1.8-2.6,4-2.6,6.5
			c0,14.4,0,28.8,0,43.3c0,0.4,0,0.8,0,1.2c0,0.6-0.2,0.9-0.8,1c-2,0.1-3.2,1.3-4.4,2.7c-2.5,2.9-5.1,5.9-7.7,8.8
			C9.8,75,9,75.9,8.9,77c0,0.7,0,1.3,0,2c0.5,2,1.8,3,3.9,3.2c0.9,0.1,1.8,0,2.7,0c2.6,0,2.4-0.3,2.4,2.4c0,9.7,0,19.4,0,29.1
			c0,4.2,3.1,7.4,7.2,7.4c26.4,0,52.9,0,79.3,0c1,0,2-0.1,2.9-0.6c2.9-1.4,4.3-3.8,4.3-7c0-9.7,0-19.4,0-29.2c0-0.4,0-0.7,0-1.1
			c0-0.7,0.3-1.1,1-1.1c1.2,0,2.5,0,3.7,0c1.8,0,3.3-0.6,4-2.3C121.2,78.2,121.1,76.5,119.8,75z M27.5,22.8c0.1-2,0-4,0-6
			c0-2.5,1.6-4.1,4.1-4.1c22.1,0,44.3,0,66.4,0c2.5,0,4.1,1.5,4.1,4.1c0,2,0,4,0,6c0,0.9-0.2,1.1-1.1,1.1c-12.1,0-24.2,0-36.3,0
			c-12.1,0-24.1,0-36.2,0C27.7,24,27.4,23.7,27.5,22.8z M13.2,77.9c-0.1,0-0.2,0-0.5-0.1c3.2-3.6,6.2-7.1,9.3-10.6
			c0.3-0.3,0.6-0.4,1-0.4c12.4,0,24.9,0,37.3,0c0,0,0.1,0,0.1,0c0.2,0.3-0.1,0.5-0.3,0.6c-2.7,3.1-5.4,6.2-8.1,9.3
			c-0.7,0.9-1.6,1.2-2.8,1.2C37.2,78,25.2,78,13.2,77.9z M61.8,117.2c-11.9,0-23.8,0-35.7,0c-2.7,0-4.2-1.5-4.2-4.2
			c0-10.1,0-20.2,0-30.3c0-0.8,0.2-1,1-1c8.7,0,17.3,0,26,0c2.5,0,4.5-0.8,6.1-2.8c2.5-3,5.1-5.9,7.7-8.9c0.3,0.4,0.2,0.7,0.2,1.1
			c0,15,0,29.9,0,44.9C63,117,62.8,117.2,61.8,117.2z M28.6,63.1c-1,0-1.2-0.3-1.2-1.2c0-11,0-22,0-33c0-1,0.2-1.3,1.2-1.3
			c12.1,0,24.1,0,36.2,0c12,0,24,0,36.1,0c0.9,0,1.2,0.2,1.2,1.2c0,11,0,22.1,0,33.1c0,0.9-0.2,1.2-1.2,1.2
			C76.9,63.1,52.8,63.1,28.6,63.1z M107.7,112.8c0,3-1.4,4.4-4.4,4.4c-11.8,0-23.7,0-35.5,0c-0.9,0-1.1-0.3-1.1-1.1
			c0-14.9,0-29.9,0-44.8c0-0.3-0.1-0.7,0.2-1.1c1.4,1.6,2.7,3.1,4,4.6c1.3,1.5,2.6,2.9,3.9,4.4c1.5,1.8,3.4,2.6,5.7,2.6
			c8.7,0,17.4,0,26.1,0c0.9,0,1.1,0.3,1.1,1.1C107.7,92.9,107.7,102.9,107.7,112.8z M105.8,78.1c-8.4,0-16.8,0-25.1,0
			c-1.3,0-2.4-0.4-3.2-1.5c-2.7-3.2-5.5-6.4-8.3-9.5c0.3-0.4,0.6-0.2,0.9-0.2c12.1,0,24.3,0,36.4,0c0.5,0,1,0.1,1.3,0.5
			c2.9,3.4,5.9,6.8,8.8,10.3c0.1,0.1,0.1,0.2,0.2,0.4C113.1,78.1,109.4,78.1,105.8,78.1z"/>
		<path class="st5" d="M77.8,20.2c-3.5,0-7.1,0-10.6,0c-1.5,0-2.3-0.7-2.3-1.8c0-1.2,0.9-1.9,2.3-1.9c7.2,0,14.4,0,21.6,0
			c1.3,0,2.1,0.6,2.2,1.7c0.1,1.2-0.7,2-2.1,2C85.1,20.2,81.4,20.2,77.8,20.2z"/>
		<path class="st5" d="M43.4,20.2c-0.3,0-0.7,0-1,0c-1.1-0.1-1.8-0.8-1.8-1.8c0-1,0.7-1.9,1.8-1.9c0.6,0,1.2,0,1.8,0
			c1.2,0.1,2,0.9,2,1.9c0,1.1-0.8,1.8-2,1.8C43.9,20.2,43.6,20.2,43.4,20.2C43.4,20.2,43.4,20.2,43.4,20.2z"/>
		<path class="st5" d="M34,20.2c-1.9,0-2.8-0.6-2.8-1.8c0-1.3,0.9-1.9,2.8-1.9c0.4,0,0.7,0,1.1,0c1,0.1,1.7,1,1.7,1.9
			c0,1-0.8,1.7-1.8,1.8C34.7,20.2,34.4,20.2,34,20.2z"/>
		<path class="st5" d="M52.7,20.2c-0.4,0-0.7,0-1.1,0c-1-0.1-1.6-0.8-1.7-1.7c-0.1-1,0.5-1.8,1.5-2c0.8-0.1,1.7-0.1,2.5,0
			c1,0.1,1.6,1,1.5,1.9c0,1-0.7,1.6-1.8,1.7C53.4,20.2,53,20.2,52.7,20.2C52.7,20.2,52.7,20.2,52.7,20.2z"/>
	</g>
</g>
</svg>
