<?xml version="1.0" encoding="utf-8"?>
<!-- Generator: Adobe Illustrator 22.1.0, SVG Export Plug-In . SVG Version: 6.00 Build 0)  -->
<svg version="1.1" id="图层_1" xmlns="http://www.w3.org/2000/svg" xmlns:xlink="http://www.w3.org/1999/xlink" x="0px" y="0px"
	 viewBox="0 0 50 50" style="enable-background:new 0 0 50 50;" xml:space="preserve">
<style type="text/css">
	.st0{fill:#1A1A1A;}
</style>
<g>
	<g>
		<path class="st0" d="M19.1,26.7c-2.6,0-4.7,2.1-4.7,4.7v11.8c0,2.6,2.1,4.7,4.7,4.7c2.6,0,4.7-2.1,4.7-4.7V31.5
			C23.8,28.8,21.7,26.7,19.1,26.7L19.1,26.7z M2.5,31.5c0,2.6,2.1,4.7,4.7,4.7c2.6,0,4.7-2.1,4.7-4.7v-4.7H7.3
			C4.7,26.7,2.5,28.8,2.5,31.5L2.5,31.5z M19.1,3c-2.6,0-4.7,2.1-4.7,4.7c0,2.6,2.1,4.7,4.7,4.7h4.7V7.7C23.8,5.1,21.7,3,19.1,3
			L19.1,3z M7.2,24.3h11.8c2.6,0,4.7-2.1,4.7-4.7c0-2.6-2.1-4.7-4.7-4.7H7.2c-2.6,0-4.7,2.1-4.7,4.7C2.5,22.2,4.6,24.3,7.2,24.3
			L7.2,24.3z M42.8,14.9c-2.6,0-4.7,2.1-4.7,4.7v4.7h4.7c2.6,0,4.7-2.1,4.7-4.7C47.5,17,45.4,14.9,42.8,14.9L42.8,14.9z M26.2,7.7
			v11.9c0,2.6,2.1,4.7,4.7,4.7c2.6,0,4.7-2.1,4.7-4.7V7.7c0-2.6-2.1-4.7-4.7-4.7C28.3,3,26.2,5.1,26.2,7.7L26.2,7.7z M35.7,43.3
			c0-2.6-2.1-4.7-4.7-4.7h-4.7v4.7c0,2.6,2.1,4.7,4.7,4.7C33.5,48,35.7,45.9,35.7,43.3L35.7,43.3z M42.8,26.7H30.9
			c-2.6,0-4.7,2.1-4.7,4.7s2.1,4.7,4.7,4.7h11.8c2.6,0,4.7-2.1,4.7-4.7C47.5,28.8,45.4,26.7,42.8,26.7L42.8,26.7z M42.8,26.7"/>
	</g>
</g>
</svg>
