<?xml version="1.0" encoding="utf-8"?>
<!-- Generator: Adobe Illustrator 22.1.0, SVG Export Plug-In . SVG Version: 6.00 Build 0)  -->
<svg version="1.1" id="图层_1" xmlns="http://www.w3.org/2000/svg" xmlns:xlink="http://www.w3.org/1999/xlink" x="0px" y="0px"
	 viewBox="0 0 50 50" style="enable-background:new 0 0 50 50;" xml:space="preserve">
<g>
	<g>
		<path d="M39.1,5.8c0.5,0.5,0.8,1.2,0.8,2c0,0.7-0.3,1.5-0.8,2l-2.6,2.6h2.6c2.2,0,4.4,0.9,6,2.5c1.6,1.6,2.5,3.7,2.5,6v16.9
			c0,4.7-3.8,8.4-8.4,8.4H11c-2.2,0-4.4-0.9-6-2.5c-1.6-1.6-2.5-3.7-2.5-6V20.8c0-4.7,3.8-8.4,8.4-8.4h2.6l-2.6-2.6
			c-0.7-0.7-1-1.8-0.8-2.7c0.3-1,1-1.8,2-2c1-0.3,2,0,2.7,0.8l6,6c0.2,0.2,0.3,0.4,0.4,0.6h7.2c0.1-0.2,0.3-0.4,0.4-0.6l6-6
			c0.5-0.5,1.2-0.8,2-0.8C37.9,5,38.6,5.3,39.1,5.8L39.1,5.8z M39.2,18H11c-1.5,0-2.7,1.1-2.8,2.6l0,0.2v16.9c0,1.5,1.1,2.7,2.6,2.8
			l0.2,0h28.1c1.5,0,2.7-1.1,2.8-2.6l0-0.2V20.8C42,19.2,40.7,18,39.2,18L39.2,18z M16.7,23.6c1.6,0,2.8,1.3,2.8,2.8v2.8
			c0,1.6-1.3,2.8-2.8,2.8c-1.6,0-2.8-1.3-2.8-2.8v-2.8C13.9,24.9,15.1,23.6,16.7,23.6L16.7,23.6z M33.5,23.6c1.6,0,2.8,1.3,2.8,2.8
			v2.8c0,1-0.5,1.9-1.4,2.4c-0.9,0.5-1.9,0.5-2.8,0c-0.9-0.5-1.4-1.4-1.4-2.4v-2.8C30.7,24.9,32,23.6,33.5,23.6L33.5,23.6z
			 M33.5,23.6"/>
	</g>
</g>
</svg>
