<?xml version="1.0" encoding="utf-8"?>
<!-- Generator: Adobe Illustrator 22.1.0, SVG Export Plug-In . SVG Version: 6.00 Build 0)  -->
<svg version="1.1" id="图层_1" xmlns="http://www.w3.org/2000/svg" xmlns:xlink="http://www.w3.org/1999/xlink" x="0px" y="0px"
	 viewBox="0 0 50 50" style="enable-background:new 0 0 50 50;" xml:space="preserve">
<g>
	<path d="M33,18.8c0.5,0,1,0,1.5,0.1c-1.4-6.3-8.2-11.1-16.1-11.1c-8.8,0-15.9,5.9-15.9,13.4c0,4.3,2.4,7.9,6.4,10.6l-1.6,4.7
		l5.6-2.8c2,0.4,3.6,0.8,5.6,0.8c0.5,0,1,0,1.5-0.1c-0.3-1.1-0.5-2.2-0.5-3.3C19.4,24.4,25.4,18.8,33,18.8L33,18.8z M24.4,14.5
		c1.2,0,2,0.8,2,2c0,1.2-0.8,2-2,2c-1.2,0-2.4-0.8-2.4-2C22,15.3,23.2,14.5,24.4,14.5L24.4,14.5z M13.3,18.5c-1.2,0-2.4-0.8-2.4-2
		c0-1.2,1.2-2,2.4-2c1.2,0,2,0.8,2,2C15.2,17.7,14.4,18.5,13.3,18.5L13.3,18.5z M47.5,31.1c0-6.3-6.4-11.4-13.5-11.4
		c-7.6,0-13.5,5.1-13.5,11.4c0,6.3,6,11.4,13.5,11.4c1.6,0,3.2-0.4,4.8-0.8l4.4,2.4l-1.2-3.9C45.1,37.8,47.5,34.7,47.5,31.1
		L47.5,31.1z M29.6,29.1c-0.8,0-1.6-0.8-1.6-1.6c0-0.8,0.8-1.6,1.6-1.6c1.2,0,2,0.8,2,1.6C31.6,28.3,30.8,29.1,29.6,29.1L29.6,29.1z
		 M38.3,29.1c-0.8,0-1.6-0.8-1.6-1.6c0-0.8,0.8-1.6,1.6-1.6c1.2,0,2,0.8,2,1.6C40.3,28.3,39.5,29.1,38.3,29.1L38.3,29.1z M38.3,29.1
		"/>
</g>
</svg>
