<?xml version="1.0" encoding="utf-8"?>
<!-- Generator: Adobe Illustrator 22.1.0, SVG Export Plug-In . SVG Version: 6.00 Build 0)  -->
<svg version="1.1" id="图层_1" xmlns="http://www.w3.org/2000/svg" xmlns:xlink="http://www.w3.org/1999/xlink" x="0px" y="0px"
	 viewBox="0 0 50 50" style="enable-background:new 0 0 50 50;" xml:space="preserve">
<style type="text/css">
	.st0{fill:#1A1A1A;}
</style>
<g>
	<g>
		<path class="st0" d="M25,2.5C12.6,2.5,2.5,12.8,2.5,25.6c0,10.2,6.4,18.8,15.4,21.9c1.1,0.2,1.5-0.5,1.5-1.1c0-0.5,0-2.1,0-4
			c-6.3,1.4-7.6-3-7.6-3c-1-2.7-2.5-3.4-2.5-3.4c-2-1.4,0.2-1.4,0.2-1.4c2.3,0.2,3.4,2.4,3.4,2.4c2,3.5,5.3,2.5,6.5,1.9
			c0.2-1.5,0.8-2.5,1.4-3.1c-5-0.6-10.2-2.6-10.2-11.4c0-2.5,0.9-4.6,2.3-6.2c-0.2-0.6-1-2.9,0.2-6.1c0,0,1.9-0.6,6.2,2.4
			c1.8-0.5,3.7-0.8,5.6-0.8c1.9,0,3.8,0.3,5.6,0.8c4.3-3,6.2-2.4,6.2-2.4c1.2,3.2,0.5,5.5,0.2,6.1c1.4,1.6,2.3,3.7,2.3,6.2
			c0,8.9-5.3,10.8-10.3,11.4c0.8,0.7,1.5,2.1,1.5,4.3v6.4c0,0.6,0.4,1.3,1.5,1.1c8.9-3.1,15.4-11.7,15.4-21.9
			C47.5,12.8,37.4,2.5,25,2.5L25,2.5z M25,2.5"/>
	</g>
</g>
</svg>
