<?xml version="1.0" encoding="utf-8"?>
<!-- Generator: Adobe Illustrator 22.1.0, SVG Export Plug-In . SVG Version: 6.00 Build 0)  -->
<svg version="1.1" id="图层_1" xmlns="http://www.w3.org/2000/svg" xmlns:xlink="http://www.w3.org/1999/xlink" x="0px" y="0px"
	 viewBox="0 0 50 50" style="enable-background:new 0 0 50 50;" xml:space="preserve">
<style type="text/css">
	.st0{fill:#F9BB30;}
</style>
<g>
	<path d="M44.1,29.6c-0.3-0.6-0.9-0.6-1.5-0.5c-1.1,0.2-2.2,0.4-3.3,0.4c-1.4-0.1-1.4-0.3-0.8-1.4c2.9-4.8,4.9-9.9,5.5-15.5
		c0.1-0.8,0.1-1.6-0.1-2.4c-0.4-1.6-1.5-2.6-2.7-3.5c-3.4-2.6-7.2-2.8-11.1-2c-1,0.2-2,0.4-3.1,0.2c-2.1-0.4-4.3-0.3-6.3,0.9
		c-0.5,0.3-1,0.3-1.6,0.2c-2.5-0.8-5-1.3-7.7-1C8.2,5.3,5.9,6.8,4.8,10c-0.7,2.1-0.8,4.2-0.4,6.4c0.7,4.6,1.9,9.1,3.7,13.4
		c0.6,1.5,1.4,2.8,2.6,3.9c1.3,1.2,2.9,1.1,4.1-0.3c1-1.2,2.1-2.4,3.1-3.5c0.2-0.2,0.4-0.6,0.8-0.4c0.5,0.2,1,0.4,1.6,0.4
		c0.3,0,0.5,0.2,0.2,0.5c-0.5,0.6-1,1.1-1.7,1.2c-0.6,0.1-1.2,0.3-1.8,0.4c-0.6,0.1-1,0.4-1.1,1.1c-0.1,0.7,0.4,1,0.9,1.3
		c0.1,0.1,0.3,0.2,0.5,0.2c2.1,0.6,4.1,0.6,5.9-0.7c0.1-0.1,0.2-0.3,0.4-0.1c0.1,0.1,0.1,0.2,0.1,0.4c0,0.5,0,1,0,1.3
		c0,1.8,0.1,3.3,0.2,4.8c0,0.5,0.1,1,0.2,1.5c0.4,2.4,2.2,3.9,4.6,3.9c1.2,0,2.3-0.3,3.3-0.8c1.2-0.6,2-1.5,2.4-2.7
		c0.4-1.1,0.5-2.2,0.7-3.3c0.2-1.8,0.4-3.5,0.6-5.3c0-0.4,0.2-0.6,0.6-0.5c0.7,0.2,1.5,0.1,2.2,0c1.9-0.2,3.7-0.8,5.1-2.2
		C44,30.6,44.4,30.1,44.1,29.6z M16.4,29.2c-0.8,0.9-1.6,1.8-2.3,2.7c-1.3,1.5-2.1,1.5-3.2-0.1c-1.2-1.6-1.9-3.5-2.6-5.4
		c-1.2-3.6-2-7.2-2.5-10.9c-0.1-0.5,0-1.1,0-1.6c0-1.9,0.3-3.8,1.6-5.4c1.2-1.5,3-2.1,4.8-2.2c1.9-0.1,3.8,0.3,5.7,0.8
		c0.4,0.1,0.4,0.3,0.2,0.6c-1.3,1.6-2,3.4-2.4,5.3c-0.5,2.2-0.6,4.4-0.4,6.7c0.1,1.1-0.1,2.3-0.2,3.4c-0.1,1.9,0.3,3.6,1.6,5
		C16.9,28.5,16.8,28.8,16.4,29.2z M20.9,27.9c-0.1,0.6-0.5,0.6-0.9,0.5c-1.8-0.5-2.8-1.7-3.3-3.5c-0.3-1.2,0.1-2.4,0.1-3.6
		c0-1.1,0.1-2.1,0-3.2c0-0.5,0.1-0.7,0.5-1c0.8-0.4,1.5-0.8,2.4-0.8c0.5-0.3,0.9-0.1,1.4-0.1c-0.4,0.2-0.9,0-1.3,0.4
		c-0.5,0.5-0.3,0.9,0.1,1.3c0.5,0.5,1.3,0.6,1.8,0.3c0.7-0.4,0.6-0.4,0.8,0.4c0.2,1.2,0.3,2.3,0.2,3.5c0,1.4-0.5,2.6-1.1,3.9
		C21.3,26.5,21.1,27.2,20.9,27.9z M35.7,29c-1,0.6-1.3,1.5-1.3,2.6c-0.1,2.1-0.4,4.2-0.7,6.3c-0.1,1-0.3,2-0.5,3
		c-0.4,2-1.7,2.9-3.6,3.3c-0.1,0-0.2,0-0.3,0c-2.5,0.6-3.7-1-4-3.1C24.9,39,25,36.9,25,34.7c0-1.1,0-2.1,0-3.2
		c0-1.4-0.7-2.4-2.1-2.8c-0.4-0.1-0.5-0.3-0.3-0.6c0.4-1,0.8-1.9,1.2-2.9c0.7-1.8,0.8-3.7,0.6-5.6c-0.1-0.7-0.2-1.4-0.3-2
		c-0.4-2.7-2.4-3.6-5-3c-0.6,0.1-1.2,0.3-1.7,0.6c-0.4,0.2-0.6,0.2-0.5-0.3c0.3-2.3,1-4.5,2.5-6.3c1.2-1.4,2.8-2.2,4.7-2.3
		c2.8-0.2,5.5,0.4,7.8,2.2c1.8,1.4,3.2,3.2,4.2,5.4c0.2,0.5,0,0.5-0.4,0.5c-1-0.1-1.9,0.1-2.8,0.5c-1.3,0.7-1.9,2.3-1.7,3.9
		c0.4,2.3,1.4,4.4,2.6,6.5c0.6,1.1,1.1,2.3,1.9,3.3C35.9,28.6,35.9,28.8,35.7,29z M36.5,22.5c0.2,1,0.1,2.1-0.2,3.3
		c-1.4-2.4-2.6-4.6-3.2-7.1c-0.1-0.5-0.1-1,0-1.5c0-0.1,0.1-0.3,0.2-0.3c0.1,0,0.2,0.1,0.2,0.2c0.2,0.5,0.7,0.6,1.1,0.6
		c1.1-0.1,1.5-0.9,0.9-1.8c0,0,0.1,0,0.1,0c1.1,0.1,1.1,0.1,0.9,1.2C36.2,18.9,36.1,20.7,36.5,22.5z M38.1,21.8
		c-0.3-1.6-0.2-3.2,0.1-4.8c0.4-2-0.3-3.7-1.2-5.4c-1.2-2.2-2.9-4-5.2-5.3c-0.1-0.1-0.2-0.1-0.3-0.2c0,0-0.1-0.1-0.1-0.3
		c1.9-0.1,3.6-0.2,5.4,0.2c2,0.5,3.6,1.6,4.9,3.1c0.8,0.9,0.8,2,0.8,3.1c-0.2,3.8-1.5,7.4-3,10.9c-0.4,0.8-0.8,1.7-1.3,2.5
		c-0.2-0.2-0.2-0.4-0.1-0.5C38.3,24.1,38.3,22.9,38.1,21.8z"/>
	<path class="st0" d="M19.5,33.6c-0.4,0-0.7,0-1-0.1c-0.1,0-0.1-0.1-0.2-0.2c0.1-0.1,0.2-0.2,0.3-0.2c1.5-0.1,2.6-1,3.4-2.1
		c0.3-0.4,0.5-0.7,1-0.3c0.4,0.3,0.5,0.8,0.1,1.3C22.1,33.1,20.9,33.6,19.5,33.6z"/>
	<path class="st0" d="M40.2,30.9c-1,0-2-0.1-3-0.6c-0.3-0.2-0.6,0-0.8,0.2c-0.2,0.2-0.4,0.6-0.3,0.9c0.1,0.3,0.4,0.3,0.7,0.3
		c1.4,0.2,2.8-0.1,4.1-0.6c0.2-0.1,0.3-0.2,0.6-0.3C40.9,30.8,40.6,30.8,40.2,30.9z"/>
</g>
</svg>
