<?xml version="1.0" encoding="utf-8"?>
<!-- Generator: Adobe Illustrator 22.1.0, SVG Export Plug-In . SVG Version: 6.00 Build 0)  -->
<svg version="1.1" id="图层_1" xmlns="http://www.w3.org/2000/svg" xmlns:xlink="http://www.w3.org/1999/xlink" x="0px" y="0px"
	 viewBox="0 0 100 100" style="enable-background:new 0 0 100 100;" xml:space="preserve">
<style type="text/css">
	.st0{fill:#F9BB30;}
</style>
<g>
	<path class="st0" d="M57.3,77.1L53,75.3c23.1-56.2,2.1-67.6,1.9-67.7L57,3.4C58.1,3.9,82.1,16.9,57.3,77.1L57.3,77.1z M57.3,77.1"
		/>
	<path class="st0" d="M45.1,77.1C20.3,17,44.3,3.9,45.3,3.4l2.1,4.2l-1.1-2.1l1.1,2.1c-0.2,0.1-21,12.1,1.9,67.7L45.1,77.1z
		 M59.3,87.2L54.6,87c0.3-7,3.8-13,4-13.3l4.1,2.4l-2-1.2l2,1.2C62.6,76.2,59.6,81.4,59.3,87.2L59.3,87.2z M42.3,87.2
		c-0.3-5.8-3.3-11-3.3-11.1l4.1-2.4C43.2,74,46.7,80,47,87L42.3,87.2z M42.3,87.2"/>
	<path class="st0" d="M60.4,79.5H42l-0.7-0.6c-0.3-0.3-7.3-6.7-13.8-16.2c-9-13-12.6-25-10.9-35.6C20.8,2.2,48.8,2.9,51.2,3
		c2.4-0.1,30.4-0.8,34.6,24c1.8,10.6-1.9,22.6-10.9,35.6C68.3,72.2,61.3,78.6,61,78.8L60.4,79.5z M43.9,74.7h14.6
		c4.1-4,26-26.4,22.6-46.9c-1.5-9-6.9-15.2-16-18.2c-7-2.3-13.6-1.9-13.7-1.9l-0.2,0l-0.2,0c-0.1,0-6.8-0.4-13.8,1.9
		c-9.1,3-14.4,9.2-15.9,18.2C17.9,48.4,39.8,70.8,43.9,74.7L43.9,74.7z M43.9,74.7"/>
	<rect x="41.9" y="87.1" class="st0" width="18.7" height="7.9"/>
	<path class="st0" d="M60.5,97.4H41.9c-1.3,0-2.4-1.1-2.4-2.4v-7.9c0-1.3,1.1-2.4,2.4-2.4h18.7c1.3,0,2.4,1.1,2.4,2.4V95
		C62.9,96.3,61.8,97.4,60.5,97.4L60.5,97.4z M44.2,92.7h13.9v-3.2H44.2V92.7z M44.2,92.7"/>
</g>
</svg>
