<?xml version="1.0" encoding="utf-8"?>
<!-- Generator: Adobe Illustrator 22.1.0, SVG Export Plug-In . SVG Version: 6.00 Build 0)  -->
<svg version="1.1" id="图层_1" xmlns="http://www.w3.org/2000/svg" xmlns:xlink="http://www.w3.org/1999/xlink" x="0px" y="0px"
	 viewBox="0 0 150 30" style="enable-background:new 0 0 150 30;" xml:space="preserve">
<style type="text/css">
	.st0{fill:#F9BB30;}
</style>
<g>
	<g>
		<path class="st0" d="M131.3,26.4l-3-2.7c-5-4.6-8.7-7.9-8.7-12.4c0-2,0.8-3.9,2.1-5.2c1.4-1.4,3.2-2.1,5.2-2.1
			c1.1,0,2.3,0.3,3.3,0.7c0.4,0.2,0.7,0.4,1,0.6c0.3-0.2,0.7-0.4,1-0.6c1-0.5,2.2-0.7,3.3-0.7c2,0,3.9,0.8,5.2,2.1
			c1.4,1.4,2.1,3.2,2.1,5.2c0,4.5-3.6,7.8-8.7,12.4L131.3,26.4z M127,7.1c-1.1,0-2.2,0.4-3,1.2c-0.8,0.8-1.2,1.8-1.2,3
			c0,3.1,3,5.9,7.6,10.1l0.8,0.8l0.8-0.7c4.6-4.2,7.6-7,7.6-10.1c0-1.1-0.4-2.2-1.2-3c-1.2-1.2-3.2-1.5-4.9-0.8
			c-0.5,0.2-0.9,0.5-1.3,0.9l-1.1,1.1l-1.1-1.1c-0.4-0.4-0.8-0.7-1.3-0.9C128.3,7.2,127.7,7.1,127,7.1z"/>
	</g>
	<path d="M21.2,16.7H10.5v7.1H7V6h3.5v7.1h10.6V6h3.5v17.7h-3.5V16.7z"/>
	<path d="M32.8,6h3.5v17.7h-3.5V6z"/>
	<path d="M44.9,6h17.7v3.5H48.5v10.6h10.6v-3.5H52v-3.5h10.6v10.6H44.9V6z"/>
	<path d="M84.7,16.7H74.1v7.1h-3.5V6h3.5v7.1h10.6V6h3.5v17.7h-3.5V16.7z"/>
	<path d="M95.7,6h17.7v3.5H99.3v10.6h10.6v-3.5h-7.1v-3.5h10.6v10.6H95.7V6z"/>
</g>
</svg>
