<?xml version="1.0" encoding="utf-8"?>
<!-- Generator: Adobe Illustrator 22.1.0, SVG Export Plug-In . SVG Version: 6.00 Build 0)  -->
<svg version="1.1" id="图层_1" xmlns="http://www.w3.org/2000/svg" xmlns:xlink="http://www.w3.org/1999/xlink" x="0px" y="0px"
	 viewBox="0 0 80 80" style="enable-background:new 0 0 80 80;" xml:space="preserve">
<style type="text/css">
	.st0{fill:#D6A73D;}
</style>
<path class="st0" d="M77.4,40c0-20.7-16.8-37.5-37.5-37.5S2.4,19.3,2.4,40s16.8,37.5,37.5,37.5S77.4,60.7,77.4,40L77.4,40z
	 M57.3,29.5c1.4,1.1,1.7,3.1,0.6,4.5L42.5,54.2c0,0,0,0-0.1,0.1c-0.1,0.1-0.2,0.2-0.3,0.4c-0.1,0.1-0.1,0.1-0.2,0.2c0,0,0,0,0,0
	c-0.2,0.1-0.3,0.2-0.5,0.3c0,0-0.1,0-0.1,0.1c-0.2,0.1-0.3,0.1-0.5,0.2c-0.1,0-0.1,0-0.2,0c-0.2,0-0.4,0.1-0.6,0.1h0
	c-0.2,0-0.4,0-0.6-0.1c-0.1,0-0.1,0-0.2,0c-0.2,0-0.3-0.1-0.5-0.2c0,0-0.1,0-0.1-0.1c-0.2-0.1-0.3-0.2-0.5-0.3c0,0,0,0,0,0
	c-0.1,0-0.1-0.1-0.2-0.2c-0.1-0.1-0.2-0.2-0.3-0.4c0,0,0,0-0.1-0.1L22,34c-1.1-1.4-0.8-3.4,0.6-4.5c1.4-1.1,3.4-0.8,4.5,0.6L39.9,47
	l12.9-16.9C53.9,28.7,55.9,28.4,57.3,29.5L57.3,29.5z M57.3,29.5"/>
</svg>
