<?xml version="1.0" encoding="utf-8"?>
<!-- Generator: Adobe Illustrator 22.1.0, SVG Export Plug-In . SVG Version: 6.00 Build 0)  -->
<svg version="1.1" id="图层_1" xmlns="http://www.w3.org/2000/svg" xmlns:xlink="http://www.w3.org/1999/xlink" x="0px" y="0px"
	 viewBox="0 0 130 130" style="enable-background:new 0 0 130 130;" xml:space="preserve">
<style type="text/css">
	.st0{fill:#396AFC;}
	.st1{fill:#FEFEFE;}
	.st2{fill:#2D2929;}
	.st3{fill:#FFFFFF;}
	.st4{fill:#3B6BFB;}
	.st5{fill:#020202;}
</style>
<g>
	<g>
		<path class="st4" d="M107.8,27.2c0,0.7-0.2,1.2-0.7,1.6c-3,3-6,6-9,9c-0.9,0.9-2,0.9-2.7,0.1c-0.8-0.8-0.7-1.8,0.2-2.7
			c3-3,6-6,9-9c0.6-0.6,1.3-0.9,2.2-0.5C107.4,26,107.8,26.5,107.8,27.2z"/>
		<path class="st4" d="M115.9,49.7c-0.1,0.8-0.4,1.4-1.2,1.7c-3.6,1.5-7.2,3-10.8,4.4c-1,0.4-2-0.1-2.4-1c-0.4-0.9,0-2,1-2.4
			c3.6-1.5,7.3-3,10.9-4.5C114.7,47.4,115.9,48.4,115.9,49.7z"/>
		<path class="st4" d="M113.8,66.5c1.3-0.1,2.2,0.5,2.3,1.7c0.1,1.2-0.7,1.9-2.2,2c-3.3,0.3-6.6,0.6-10,0.8c-0.3,0-0.5,0.1-0.8,0
			c-1.1,0-1.9-0.7-1.9-1.7c0-1,0.6-1.8,1.7-1.9C106.5,67.1,110.1,66.8,113.8,66.5z"/>
		<path class="st4" d="M68.1,11c-0.3,3.7-0.6,7.2-0.9,10.6c-0.1,1.1-0.9,1.8-1.9,1.8c-1,0-1.9-0.9-1.8-2c0.3-3.6,0.6-7.2,0.9-10.8
			c0.1-1,1-1.7,2-1.6C67.5,9.2,68.1,10,68.1,11z"/>
		<path class="st4" d="M81.9,25.8c-1.2,0-2.2-1.2-1.8-2.4c1.3-3.2,2.6-6.5,4-9.6c0.4-0.9,1.2-1.2,2.1-0.9c1,0.3,1.4,1.1,1.2,2.1
			c0,0.2-0.1,0.4-0.2,0.7c-1.2,2.9-2.4,5.9-3.6,8.8C83.4,25.2,82.8,25.8,81.9,25.8z"/>
	</g>
	<g>
		<g>
			<path d="M47.2,46.6c4.7-4.7,9.5-9.2,14-14c3.9-4.3,9.7-2.3,11.4,1.8c0,0.1,0.1,0.2,0.2,0.3c0.5-0.2,0.7-0.6,1-0.9
				c2.1-1.9,5-2.3,7.5-1.1c2.5,1.2,3.9,3.7,3.7,6.5c-0.1,0.8,0.2,1.1,0.9,1.3c3,0.9,5,4,4.6,7c-0.2,1.3-1.2,2-2.3,1.7
				c-0.9-0.3-1.3-1-1.3-1.9c0-1.5-0.5-2.6-2-3.2c-1.5-0.6-2.6,0-3.6,1.1c-0.8,0.8-1.6,1.6-2.4,2.4c-0.9,0.9-2,0.9-2.8,0.2
				c-0.8-0.8-0.7-1.9,0.1-2.8c1.1-1.1,2.3-2.3,3.4-3.4c0.6-0.6,1.3-1.2,1.5-2.1c0.3-1.3-0.2-2.6-1.3-3.3c-1.1-0.7-2.5-0.6-3.5,0.3
				c-0.3,0.2-0.6,0.5-0.8,0.8c-7.2,7.2-14.3,14.3-21.5,21.5c-0.3,0.3-0.6,0.6-1,0.8c-0.8,0.4-1.6,0.3-2.2-0.4
				c-0.6-0.6-0.7-1.4-0.3-2.1c0.2-0.4,0.6-0.7,0.9-1c5.6-5.6,11.2-11.3,16.9-16.9c0.8-0.8,1.3-1.7,1-2.9c-0.4-1.2-1.2-2.1-2.5-2.4
				c-0.9-0.2-1.7,0-2.3,0.6c-6.1,6.1-12.2,12.2-18.2,18.3c-3.1,3.1-6.1,6.1-9.2,9.2c-0.9,0.9-2,1-2.8,0.2c-0.8-0.8-0.8-1.9,0.2-2.8
				c2.7-2.7,5.4-5.4,8.1-8.1c0.8-0.8,1.5-1.7,1.2-2.9c-0.2-1.1-0.8-2-1.9-2.4c-1.1-0.4-2.1-0.2-3,0.6c-0.7,0.6-1.4,1.3-2,2
				c-3.9,3.9-8,7.8-11.8,11.9c-5,5.3-6.8,11.7-5.6,18.9c0.1,0.8,0,1.1-0.8,1.3c-2.8,0.6-2.8,0.7-3.1-2.3c-0.8-8.5,1.9-15.7,8-21.7
				c4-4,8.2-7.9,12-12.1C39.2,40.7,45.3,41.7,47.2,46.6z"/>
			<path d="M88.3,75.6c1.6-1.6,3.2-3,4.6-4.6c3.5-3.6,2-9.5-2.8-11c-0.8-0.3-0.9-0.6-0.9-1.3c0.2-4.6-3.7-8-8.2-6.9
				c-1.6,0.4-2.8,1.3-3.9,2.6c-0.1-0.2-0.2-0.4-0.3-0.6c-1.9-4.1-7.5-5.7-11.2-1.8c-4.1,4.4-8.4,8.5-12.7,12.7
				c-0.5,0.5-0.8,1-1.3,1.6c-0.3-0.5-0.4-0.8-0.5-1c-2.1-4.1-7.3-5-10.6-1.8c-4.6,4.5-9.3,9-13.7,13.8c-6.4,6.9-8.5,15.2-6,24.3
				c5.2,19.5,29.2,25.9,43.6,11.6c9-8.9,17.9-17.9,26.8-26.8c2-2,2.4-4.5,1.1-7C91.5,77.7,90.1,76.5,88.3,75.6z M88.6,83.9
				c-8.9,8.9-17.8,17.8-26.6,26.6c-4.4,4.4-9.8,6.6-17,6.7c-8.5-0.4-15.6-4.7-19.4-13.4c-3.8-8.8-2.4-17,4.1-24.1
				c4.3-4.7,8.9-9,13.4-13.5c1.3-1.3,3.1-1.3,4.3-0.1c1.2,1.2,1.2,3-0.1,4.3c-2.8,2.8-5.6,5.6-8.4,8.4c-0.7,0.7-0.9,1.4-0.5,2.3
				c0.4,0.8,1,1.1,1.9,1c0.6-0.1,1-0.5,1.4-0.9c8.1-8.1,16.3-16.3,24.4-24.4c0.9-0.9,1.8-1.8,2.7-2.7c1.2-1.2,2.8-1.1,4.1,0.2
				c1.3,1.3,1.4,2.9,0.1,4.1C67.3,64.1,61.7,69.8,56,75.4c-0.3,0.3-0.6,0.6-0.9,0.9c-0.6,0.8-0.6,1.8,0.1,2.5
				c0.8,0.7,1.6,0.7,2.4,0.1c0.3-0.2,0.6-0.5,0.8-0.8c7.2-7.2,14.4-14.4,21.6-21.6c0.8-0.8,1.7-1.5,2.9-1.3c1.1,0.2,2,0.8,2.4,1.9
				c0.4,1.1,0.2,2.1-0.5,3c-0.2,0.3-0.5,0.6-0.8,0.8c-6.6,6.6-13.2,13.2-19.8,19.8c-0.3,0.3-0.6,0.6-0.9,0.9
				c-0.5,0.8-0.5,1.6,0.2,2.3c0.7,0.7,1.5,0.8,2.3,0.2c0.3-0.2,0.6-0.5,0.9-0.8c6.4-6.4,12.7-12.7,19.1-19.1
				c1.4-1.4,3.2-1.4,4.5-0.1c1.2,1.2,1.1,2.9-0.1,4.2c-1.9,1.9-3.7,3.8-5.6,5.6c-5.1,5.1-10.2,10.2-15.3,15.3
				c-0.5,0.5-0.9,1-0.9,1.7c0,0.7,0.3,1.3,0.9,1.6c0.7,0.4,1.3,0.3,2-0.1c0.3-0.2,0.6-0.5,0.8-0.8c4.1-4.1,8.1-8.1,12.2-12.2
				c1.2-1.1,2.5-1,3.9,0.3C89.6,81.3,89.7,82.8,88.6,83.9z"/>
		</g>
	</g>
</g>
</svg>
