<?xml version="1.0" encoding="utf-8"?>
<!-- Generator: Adobe Illustrator 22.1.0, SVG Export Plug-In . SVG Version: 6.00 Build 0)  -->
<svg version="1.1" id="图层_1" xmlns="http://www.w3.org/2000/svg" xmlns:xlink="http://www.w3.org/1999/xlink" x="0px" y="0px"
	 viewBox="0 0 50 50" style="enable-background:new 0 0 50 50;" xml:space="preserve">
<style type="text/css">
	.st0{fill:#221816;}
	.st1{fill:#F9BB30;}
</style>
<g>
	<path class="st0" d="M15.5,30.8c-0.9-1.5-2.9-2.1-4.5-1.3v-3.7c0.1-2-1.4-3.7-3.5-3.8c-2-0.1-3.7,1.4-3.8,3.5c0,0.1,0,0.3,0,0.4
		v9.2c0,2,0.7,4,2,5.6l4.2,5.2l1.6-1.3l-4.2-5.2c-1-1.2-1.5-2.8-1.6-4.4v-9.2c-0.1-0.9,0.6-1.7,1.5-1.8s1.7,0.6,1.8,1.5
		c0,0.1,0,0.2,0,0.3v7.7h0.1c0.1,0.3,0.2,0.6,0.3,0.8l2.9,4.9l1.7-1l-2.9-4.8c-0.3-0.7-0.1-1.5,0.5-1.9c0.3-0.2,0.8-0.3,1.1-0.2
		c0.4,0.1,0.8,0.3,1,0.7l2,3c0.8,1.1,1.2,2.5,1.2,3.9v6.6h2v-6.6c0-1.8-0.5-3.5-1.5-5L15.5,30.8z"/>
	<path class="st0" d="M41.9,22c-2,0-3.7,1.6-3.7,3.7v3.7c-1.6-0.8-3.5-0.2-4.4,1.3l-2,3c-1,1.5-1.5,3.2-1.5,5v6.6h2v-6.5
		c0-1.4,0.4-2.7,1.2-3.9l2-3.1c0.2-0.4,0.6-0.6,1-0.7s0.8,0,1.2,0.3s0.7,0.8,0.7,1.3v0.1c0,0.2-0.1,0.3-0.1,0.4L35.4,38l1.7,1
		l2.9-4.9c0.1-0.2,0.2-0.5,0.3-0.8h0.1v-7.7c-0.1-0.9,0.6-1.7,1.5-1.8s1.7,0.6,1.8,1.5c0,0.1,0,0.2,0,0.3v9.2c0,1.6-0.5,3.1-1.5,4.4
		L38,44.4l1.6,1.3l4.2-5.2c1.3-1.6,2-3.6,2-5.6v-9.2C45.7,23.7,44,22,41.9,22C42,22,42,22,41.9,22z"/>
	<polygon class="st1" points="15.9,18.2 8.4,12.5 15.9,6.9 17.1,8.5 11.7,12.5 17.1,16.6 	"/>
	<polygon class="st1" points="33.4,18.2 32.2,16.6 37.6,12.5 32.2,8.5 33.4,6.9 40.9,12.5 	"/>
	<rect x="16.4" y="11.6" transform="matrix(0.1963 -0.9805 0.9805 0.1963 7.4607 34.3713)" class="st1" width="16.6" height="2"/>
</g>
</svg>
