<?xml version="1.0" encoding="utf-8"?>
<!-- Generator: Adobe Illustrator 22.1.0, SVG Export Plug-In . SVG Version: 6.00 Build 0)  -->
<svg version="1.1" id="图层_1" xmlns="http://www.w3.org/2000/svg" xmlns:xlink="http://www.w3.org/1999/xlink" x="0px" y="0px"
	 viewBox="0 0 50 50" style="enable-background:new 0 0 50 50;" xml:space="preserve">
<style type="text/css">
	.st0{fill:#1A1A1A;}
</style>
<g>
	<g>
		<path class="st0" d="M47.9,11.6c-1.7,0.7-3.5,1.2-5.3,1.4c1.9-1.1,3.4-2.9,4.1-5.1c-1.8,1.1-3.8,1.8-5.9,2.2
			c-1.7-1.8-4.1-2.9-6.7-2.9c-5.1,0-9.2,4.1-9.2,9.2c0,0.7,0.1,1.4,0.2,2.1c-7.7-0.4-14.5-4.1-19-9.7c-0.8,1.4-1.3,2.9-1.3,4.7
			c0,3.2,1.6,6,4.1,7.7c-1.5-0.1-2.9-0.5-4.2-1.2v0.1c0,4.5,3.2,8.2,7.4,9.1c-0.8,0.2-1.6,0.3-2.4,0.3c-0.6,0-1.2-0.1-1.7-0.1
			c1.2,3.7,4.6,6.3,8.6,6.4c-3.2,2.5-7.1,3.9-11.4,3.9c-0.8,0-1.5,0-2.2-0.1c4.1,2.6,8.9,4.1,14.2,4.1c17,0,26.2-14,26.2-26.2
			c0-0.4,0-0.8,0-1.2C45.1,15,46.7,13.4,47.9,11.6L47.9,11.6z M47.9,11.6"/>
	</g>
</g>
</svg>
