<?xml version="1.0" encoding="utf-8"?>
<!-- Generator: Adobe Illustrator 22.1.0, SVG Export Plug-In . SVG Version: 6.00 Build 0)  -->
<svg version="1.1" id="图层_1" xmlns="http://www.w3.org/2000/svg" xmlns:xlink="http://www.w3.org/1999/xlink" x="0px" y="0px"
	 viewBox="0 0 50 50" style="enable-background:new 0 0 50 50;" xml:space="preserve">
<style type="text/css">
	.st0{fill:#1A1A1A;}
</style>
<g>
	<g>
		<path class="st0" d="M25,2.6c12.4,0,22.5,10.1,22.5,22.5c0,12.4-10.1,22.5-22.5,22.5c-12.4,0-22.5-10.1-22.5-22.5
			C2.5,12.7,12.6,2.6,25,2.6L25,2.6z M32.5,27H17.5c0.4,9.6,3.9,16.9,7.5,16.9C28.5,43.9,32,36.5,32.5,27L32.5,27z M13.8,27l-7.4,0
			c0.7,6.9,5.1,12.7,11.3,15.4C15.4,38.6,14,33.1,13.8,27L13.8,27z M43.7,27h-7.4c-0.2,6.1-1.6,11.6-3.8,15.4
			C38.5,39.7,43,33.9,43.7,27L43.7,27z M17.6,7.9l-0.2,0.1c-6,2.7-10.4,8.4-11.1,15.3h7.4C14,17.1,15.4,11.6,17.6,7.9L17.6,7.9z
			 M25,6.3l-0.1,0c-3.5,0.2-6.9,7.4-7.3,16.9h14.9C32,13.7,28.5,6.3,25,6.3L25,6.3z M32.4,7.9l0.1,0.2c2.1,3.8,3.5,9.1,3.7,15.1h7.4
			C43,16.3,38.5,10.5,32.4,7.9L32.4,7.9z M32.4,7.9"/>
	</g>
</g>
</svg>
