<?xml version="1.0" encoding="utf-8"?>
<!-- Generator: Adobe Illustrator 22.1.0, SVG Export Plug-In . SVG Version: 6.00 Build 0)  -->
<svg version="1.1" id="图层_1" xmlns="http://www.w3.org/2000/svg" xmlns:xlink="http://www.w3.org/1999/xlink" x="0px" y="0px"
	 viewBox="0 0 80 80" style="enable-background:new 0 0 80 80;" xml:space="preserve">
<style type="text/css">
	.st0{fill:#D6A73D;}
</style>
<path class="st0" d="M77.4,40c0-20.7-16.8-37.5-37.5-37.5S2.4,19.3,2.4,40s16.8,37.5,37.5,37.5S77.4,60.7,77.4,40L77.4,40z
	 M57.3,50.5c-1.4,1.1-3.4,0.8-4.5-0.6L39.9,33L27.1,49.9c-1.1,1.4-3.1,1.7-4.5,0.6c-1.4-1.1-1.7-3.1-0.6-4.5l15.4-20.3
	c0,0,0,0,0.1-0.1c0.1-0.1,0.2-0.2,0.3-0.4c0.1-0.1,0.1-0.1,0.2-0.2c0,0,0,0,0,0c0.2-0.1,0.3-0.2,0.5-0.3c0,0,0.1,0,0.1-0.1
	c0.2-0.1,0.3-0.1,0.5-0.2c0.1,0,0.1,0,0.2,0c0.2,0,0.4-0.1,0.6-0.1h0c0.2,0,0.4,0,0.6,0.1c0.1,0,0.1,0,0.2,0c0.2,0,0.3,0.1,0.5,0.2
	c0,0,0.1,0,0.1,0.1c0.2,0.1,0.3,0.2,0.5,0.3c0,0,0,0,0,0c0.1,0,0.1,0.1,0.2,0.2c0.1,0.1,0.2,0.2,0.3,0.4c0,0,0,0,0.1,0.1L57.9,46
	C59,47.5,58.7,49.5,57.3,50.5L57.3,50.5z M57.3,50.5"/>
</svg>
