<?xml version="1.0" encoding="utf-8"?>
<!-- Generator: Adobe Illustrator 22.1.0, SVG Export Plug-In . SVG Version: 6.00 Build 0)  -->
<svg version="1.1" id="图层_1" xmlns="http://www.w3.org/2000/svg" xmlns:xlink="http://www.w3.org/1999/xlink" x="0px" y="0px"
	 viewBox="0 0 130 130" style="enable-background:new 0 0 130 130;" xml:space="preserve">
<style type="text/css">
	.st0{fill:#396AFC;}
	.st1{fill:#FEFEFE;}
	.st2{fill:#2D2929;}
	.st3{fill:#FFFFFF;}
	.st4{fill:#3B6BFB;}
	.st5{fill:#020202;}
</style>
<g>
	<path d="M32.5,33.5c2.7,0.4,5.4,0.8,8.1,1.3c1.1,0.2,2.3,0.3,3.4,0.5c1.4,0.2,2.2,1.2,2,2.3c-0.2,1.2-1.1,1.8-2.6,1.6
		c-5.1-0.8-10.3-1.5-15.4-2.3c-1-0.2-1.7-1-1.7-2.1c0-5.6,0-11.2,0-16.8c0-1.4,0.8-2.2,2-2.3c1.2,0,2,0.9,2,2.3c0,3.5,0,7,0,10.5
		c0,0.4,0,0.7,0,1.4c0.5-0.4,0.8-0.7,1.1-0.9c7.8-7.1,16.9-11.4,27.3-12.8c25.6-3.5,49.5,12.3,56.4,37.1c7.6,27.1-8.5,55.4-35.8,63
		c-27.9,7.7-57-9.7-63.4-37.9c-0.8-3.7-1.3-7.4-1.3-11.2c0-1.6,1-2.5,2.3-2.3c1,0.2,1.6,0.9,1.6,2.2c0.1,5.3,0.9,10.5,2.7,15.5
		c5.3,14.1,14.9,24,29.1,28.8c17.2,5.8,33,2.6,46.7-9.2c9-7.7,14.2-17.7,15.6-29.5c1.9-16.9-3.7-30.9-16.5-42
		c-7-6.1-15.3-9.7-24.5-10.7c-14.6-1.7-27.2,2.5-38.1,12.3C33.2,32.7,32.8,32.9,32.5,33.5z"/>
	<path d="M97.4,70.9c-0.2-7-0.1-13.9,0-20.9c0-2.1-0.6-3.9-2-5.5c-1.1-1.2-2.5-2.1-4-2.9c-3.7-1.7-7.6-2.4-11.6-2.4
		c-4.6,0-9,0.7-13.1,3c-3.2,1.8-5.1,4.3-4.8,8.2c0.1,0.9,0,1.8,0,2.8c0,2.5,0,4.9,0,7.4c0,1.3,0.8,2.2,2,2.2c1.1,0,1.9-0.9,2-2.3
		c0-0.5,0-0.9,0-1.4c0-1.2,0-2.5,0-3.6c9.3,4.5,18.4,4.5,27.6,0c0,1.3-0.1,2.7,0,4c0.2,2.2-0.9,3.6-2.6,4.6c-0.7,0.4-1.4,0.7-2.1,1
		c-3.5,1.4-7.1,1.7-10.8,1.6c-1.4-0.1-2.2,0.7-2.3,1.9c0,1.2,0.8,2,2.2,2c2.2,0.1,4.5,0,6.7-0.3c3.1-0.5,6-1.4,8.9-3.1
		c0,1.6-0.1,3.1,0,4.5c0.1,1.7-0.6,2.9-1.9,3.8c-1.6,1.2-3.4,1.8-5.4,2.3c-2.7,0.7-5.4,0.8-8.1,0.7c-1.2,0-2,0.8-2,1.9
		c0,1.1,0.7,2,1.8,2c4.9,0.2,9.6-0.3,14-2.5C95.4,78.2,97.5,75.4,97.4,70.9z M92.4,51.1c-1.5,1.5-3.3,2.3-5.3,2.9
		c-5.6,1.5-11.1,1.5-16.5-0.5c-1.4-0.5-2.7-1.2-3.8-2.3c-1.3-1.4-1.3-2.7,0-4c2-2,4.5-2.7,7.1-3.3c1.9-0.4,3.8-0.6,5.1-0.6
		c4.2,0,7.6,0.5,10.9,2.1c1,0.5,1.9,1.1,2.6,1.9C93.6,48.5,93.6,49.9,92.4,51.1z"/>
	<path class="st4" d="M73.7,78.7c0-1.8-0.1-3.5,0-5.3c0.1-2.5-0.9-4.4-2.7-6c-1-0.9-2.2-1.6-3.5-2.2c-4.4-2-9.1-2.5-13.8-2.2
		c-4.2,0.3-8.2,1.2-11.7,3.6c-2.2,1.5-3.7,3.6-3.8,6.4c0,3.6,0.1,7.2,0,10.8c0,2.7,1,4.7,3,6.3c1.2,1,2.6,1.8,4.1,2.3
		c5.2,2,10.6,2.3,16.1,1.4c3.4-0.5,6.6-1.6,9.4-3.9c1.9-1.6,3.1-3.6,2.9-6.2C73.6,82.2,73.7,80.5,73.7,78.7z M43,70.9
		c0.9-1.1,2.1-1.8,3.4-2.3c6.4-2.5,12.9-2.4,19.3,0.1c1,0.4,2,1,2.8,1.8c1.6,1.6,1.6,3-0.1,4.5c-1.5,1.3-3.3,2.1-5.2,2.6
		c-2.4,0.7-4.8,1-6.8,1c-3.9,0-7.2-0.5-10.4-1.9c-1.2-0.5-2.2-1.2-3.1-2.1C41.9,73.5,41.9,72.2,43,70.9z M69.7,84.7
		c0,1.2-0.9,2-1.8,2.7c-2.1,1.5-4.5,2.3-7,2.7c-5.1,0.8-10,0.6-14.8-1.5c-0.7-0.3-1.4-0.7-2-1.1c-1.3-0.9-2.1-2.1-1.9-3.8
		c0.1-1.4,0-2.9,0-4.3c9.2,4.4,18.3,4.5,27.5,0C69.7,81.1,69.8,82.9,69.7,84.7z"/>
</g>
</svg>
