<?xml version="1.0" encoding="utf-8"?>
<!-- Generator: Adobe Illustrator 22.1.0, SVG Export Plug-In . SVG Version: 6.00 Build 0)  -->
<svg version="1.1" id="图层_1" xmlns="http://www.w3.org/2000/svg" xmlns:xlink="http://www.w3.org/1999/xlink" x="0px" y="0px"
	 viewBox="0 0 50 50" style="enable-background:new 0 0 50 50;" xml:space="preserve">
<style type="text/css">
	.st0{fill:#3E3A39;}
</style>
<g>
	<g>
		<path class="st0" d="M3.1,15.9h9.6V48H3.1V15.9z M7.9,3.1c-2.8,0-5,2.2-5,5c0.1,2.7,2.3,4.7,5,4.7c2.7,0,4.9-2.1,5-4.7
			C12.9,5.3,10.7,3.1,7.9,3.1L7.9,3.1z M44.8,20.1c-2-2.3-4.9-3.5-7.9-3.3c-3.9-0.1-7.6,2-9.5,5.4h-0.1v-6.4h-8.1
			c0.1,3.3,0,32.1,0,32.1h9.6V28c0.5-2.3,2.5-3.8,4.8-3.7c3.1,0,4.7,2.3,4.7,6.7v17h9.7V29.8C48.1,26.3,47,22.9,44.8,20.1L44.8,20.1
			z M44.8,20.1"/>
	</g>
</g>
</svg>
