<?xml version="1.0" encoding="utf-8"?>
<!-- Generator: Adobe Illustrator 22.1.0, SVG Export Plug-In . SVG Version: 6.00 Build 0)  -->
<svg version="1.1" id="图层_1" xmlns="http://www.w3.org/2000/svg" xmlns:xlink="http://www.w3.org/1999/xlink" x="0px" y="0px"
	 viewBox="0 0 50 50" style="enable-background:new 0 0 50 50;" xml:space="preserve">
<style type="text/css">
	.st0{fill:#F9BB30;}
</style>
<g>
	<g>
		<path d="M21.3,42.6c-0.6,0-1.2-0.1-1.8-0.2L5.6,37.9c-0.5-0.2-0.8-0.7-0.6-1.2c0.2-0.5,0.7-0.8,1.2-0.6L20,40.5
			c1,0.2,2,0.2,2.8-0.1l17.9-6.7c0.3-0.1,0.7-0.3,0.9-0.8c0.1-0.3,0.2-0.5,0.2-1c0-0.4-0.2-0.8-0.6-1.1c-0.4-0.3-0.8-0.5-1.2-0.4
			l-12.8,1c-0.6,0-1-0.4-1.1-0.9c0-0.6,0.4-1,0.9-1.1l12.8-1c1-0.1,1.9,0.2,2.6,0.9c0.8,0.7,1.2,1.5,1.2,2.5c0,0.8-0.1,1.2-0.4,1.8
			c-0.3,0.8-1.1,1.4-2,1.7l-17.9,6.7C22.9,42.5,22.1,42.6,21.3,42.6z"/>
		<path d="M25.1,32.8h-10c-0.6,0-1-0.4-1-1c0-0.6,0.4-1,1-1h10c0.6,0,1.1-0.4,1.1-1c0.1-0.4,0.1-0.7-0.1-1.1
			c-0.2-0.3-0.5-0.5-0.8-0.6l-10.1-2.8c-0.8-0.2-1.7-0.3-2.9-0.2l-5.9,1c-0.5,0.1-1.1-0.3-1.1-0.8c-0.1-0.5,0.3-1.1,0.8-1.1l6-1
			c1.4-0.1,2.7-0.1,3.6,0.2l10.2,2.8c0.4,0.2,1.3,0.7,1.8,1.6l0.1,0.1c0.2,0.6,0.4,1.4,0.1,2.4C27.6,31.8,26.4,32.8,25.1,32.8z"/>
	</g>
	<path class="st0" d="M37.5,6.7h-8.7c-4.1,0-7.5,3.3-7.5,7.5s3.3,7.5,7.5,7.5h8.7c4.1,0,7.5-3.3,7.5-7.5S41.6,6.7,37.5,6.7L37.5,6.7
		z M37.3,19.1H29c-2.6-0.1-4.7-2.2-4.7-4.8s2.1-4.8,4.7-4.8h8.3c2.7,0,4.8,2.2,4.8,4.8C42.2,16.9,40,19.1,37.3,19.1L37.3,19.1z
		 M37.3,19.1"/>
</g>
</svg>
