<?xml version="1.0" encoding="UTF-8"?>
<svg id="_图层_1" xmlns="http://www.w3.org/2000/svg" xmlns:xlink="http://www.w3.org/1999/xlink" version="1.1" viewBox="0 0 1369 1489.7">
  <!-- Generator: Adobe Illustrator 29.0.1, SVG Export Plug-In . SVG Version: 2.1.0 Build 192)  -->
  <defs>
    <style>
      .st0 {
        fill: #7fb2ef;
      }

      .st1, .st2, .st3, .st4 {
        fill: none;
      }

      .st5 {
        fill: #fe9500;
      }

      .st6 {
        fill: #89b2fe;
      }

      .st7 {
        fill: url(#_未命名的渐变_2);
      }

      .st8 {
        fill: url(#_未命名的渐变_3);
      }

      .st2 {
        stroke: #48c2cc;
      }

      .st2, .st3, .st4 {
        stroke-miterlimit: 10;
        stroke-width: 3px;
      }

      .st9 {
        fill: #4d4a4a;
      }

      .st10 {
        fill: #5be8fd;
      }

      .st11 {
        fill: #48c2cc;
      }

      .st12 {
        fill: #feb200;
      }

      .st13 {
        fill: #82ab78;
      }

      .st14 {
        fill: #3b17b8;
      }

      .st15 {
        fill: #8eecfb;
      }

      .st16 {
        fill: #4f91d3;
      }

      .st17 {
        fill: #333032;
      }

      .st18 {
        fill: #9bd2bb;
      }

      .st19 {
        fill: #fe7300;
      }

      .st20 {
        fill: #82369a;
      }

      .st21 {
        fill: #f9bb30;
      }

      .st22 {
        fill: #fea400;
      }

      .st23 {
        fill: #343033;
      }

      .st24 {
        fill: #e47d79;
      }

      .st25 {
        letter-spacing: 0em;
      }

      .st25, .st26, .st27, .st28, .st29 {
        isolation: isolate;
      }

      .st25, .st26, .st27, .st29 {
        font-family: Gilroy-ExtraBold, Gilroy;
        font-size: 60px;
        font-weight: 700;
      }

      .st26 {
        letter-spacing: 0em;
      }

      .st30 {
        fill: #7ba9fe;
      }

      .st31 {
        fill: #fd9001;
      }

      .st32 {
        fill: #404649;
      }

      .st27 {
        letter-spacing: -.1em;
      }

      .st33 {
        fill: #38343b;
      }

      .st34 {
        fill: url(#_未命名的渐变);
      }

      .st35 {
        fill: #2b0ea8;
      }

      .st36 {
        fill: #fd88d5;
      }

      .st37 {
        fill: #fe8900;
      }

      .st38 {
        fill: #2f2c2b;
      }

      .st39 {
        fill: #8cb4fd;
      }

      .st40 {
        fill: #4c4948;
      }

      .st41 {
        fill: #fe8b00;
      }

      .st42 {
        fill: #fe98f2;
      }

      .st43 {
        fill: #96bafe;
      }

      .st44 {
        fill: #3d49a8;
      }

      .st45 {
        fill: #c4c4c4;
      }

      .st46 {
        fill: #f7c96f;
      }

      .st47 {
        fill: #e8e2f9;
      }

      .st48 {
        fill: #fea500;
      }

      .st49 {
        fill: #fa80d4;
      }

      .st50 {
        fill: #ebebfa;
      }

      .st51 {
        fill: #68c5f6;
      }

      .st52 {
        fill: #524f4f;
      }

      .st53 {
        fill: #e4837f;
      }

      .st54 {
        fill: #5ae7fe;
      }

      .st55 {
        fill: #76a8fe;
      }

      .st56 {
        fill: #94b9fe;
      }

      .st57 {
        fill: #e0ad46;
      }

      .st58 {
        fill: #efbb65;
      }

      .st59 {
        fill: #3f4c53;
      }

      .st60 {
        fill: #5de7fd;
      }

      .st61 {
        fill: #6dc5f4;
      }

      .st62 {
        fill: #4d4a49;
      }

      .st63 {
        fill: #3182d4;
      }

      .st64 {
        fill: #e78d8a;
      }

      .st65 {
        fill: #87eefe;
      }

      .st3 {
        stroke: #e0ad46;
      }

      .st66 {
        fill: #d7d3f7;
      }

      .st67 {
        fill: #fcf5e8;
      }

      .st68 {
        fill: #2f2c2c;
      }

      .st69 {
        fill: #9bd3bb;
      }

      .st70 {
        fill: #72a3fe;
      }

      .st71 {
        fill: #4a4746;
      }

      .st72 {
        fill: #3c3d41;
      }

      .st4 {
        stroke: #7fb2ef;
      }

      .st73 {
        fill: #8098ff;
      }

      .st74 {
        fill: #89eefd;
      }

      .st75 {
        fill: #fd86d4;
      }

      .st76 {
        fill: #e58884;
      }

      .st77 {
        fill: #a195e8;
      }

      .st78 {
        fill: #fc65c8;
      }

      .st79 {
        fill: #8a3794;
      }

      .st80 {
        fill: #5e6ebc;
      }

      .st81 {
        fill: #87effe;
      }

      .st82 {
        fill: #7aa570;
      }

      .st83 {
        fill: #fdeac6;
      }

      .st84 {
        fill: #3c3843;
      }

      .st85 {
        fill: #e27d79;
      }

      .st86 {
        fill: #9ad1ba;
      }

      .st87 {
        fill: #52504f;
      }

      .st88 {
        fill: #fbf6ef;
      }

      .st89 {
        fill: #f95cc6;
      }

      .st90 {
        fill: #374045;
      }

      .st91 {
        fill: #fd8e01;
      }

      .st92 {
        fill: #7fa975;
      }

      .st93 {
        fill: #68c5f7;
      }

      .st94 {
        fill: #667dd3;
      }

      .st95 {
        fill: #fd83d4;
      }

      .st96 {
        fill: #7cebfd;
      }

      .st97 {
        fill: #a2d4bf;
      }

      .st98 {
        fill: #4e5356;
      }

      .st99 {
        fill: #4f4c4c;
      }

      .st100 {
        clip-path: url(#clippath);
      }

      .st101 {
        fill: #fe94de;
      }

      .st102 {
        fill: #3284d9;
      }

      .st103 {
        fill: #f9cc73;
      }
    </style>
    <clipPath id="clippath">
      <rect class="st1" y="0" width="1369" height="1191.6"/>
    </clipPath>
    <linearGradient id="_未命名的渐变" data-name="未命名的渐变" x1="721.1" y1="1283.7" x2="1215.5" y2="1778.1" gradientTransform="translate(0 2671) scale(1 -1)" gradientUnits="userSpaceOnUse">
      <stop offset=".5" stop-color="#f94fb1"/>
      <stop offset="1" stop-color="#fe94de"/>
    </linearGradient>
    <linearGradient id="_未命名的渐变_2" data-name="未命名的渐变 2" x1="399.6" y1="1432.4" x2="810.6" y2="1669.8" gradientTransform="translate(0 2671) scale(1 -1)" gradientUnits="userSpaceOnUse">
      <stop offset=".5" stop-color="#5253d4"/>
      <stop offset="1" stop-color="#749bf9"/>
    </linearGradient>
    <linearGradient id="_未命名的渐变_3" data-name="未命名的渐变 3" x1="218.9" y1="1479" x2="438.3" y2="1605.6" gradientTransform="translate(0 2671) scale(1 -1)" gradientUnits="userSpaceOnUse">
      <stop offset=".4" stop-color="#009aff"/>
      <stop offset="1" stop-color="#5ee8fd"/>
    </linearGradient>
  </defs>
  <g class="st100">
    <g>
      <g>
        <polygon class="st91" points="945.4 585.9 795.1 608 810.7 682.4 909.8 657.5 945.4 585.9"/>
        <path class="st91" d="M384,686.3l-107-51.4,190.9-9.5s-10.8,62.7-12.8,64.1c-2,1.4-71.1-3.2-71.1-3.2h0Z"/>
        <g>
          <g>
            <g>
              <path class="st38" d="M542.9,503.9c0-.5,0-1,.2-1.5-8.9,3.5-17.4,7.8-27.3,9-11.7,1.5-22.7.4-32-5.7-6.3-4.1-10.7-2.6-14.5,2.8-7.7,10.9-14.2,22.1-17.3,34.5-3.3,13.3,2.2,22.2,16.6,27.3,9.2,3.2,19,4.2,29,4.1,4.3-5,5-11.1,7.7-16.7,9.4-19.5,20.3-38.2,37.6-53.8h0Z"/>
              <ellipse class="st80" cx="476.8" cy="521.4" rx="2.2" ry="1.9" transform="translate(-64.9 67.8) rotate(-7.6)"/>
              <ellipse class="st80" cx="472.8" cy="529.6" rx="2" ry="1.7" transform="translate(-66.1 67.4) rotate(-7.6)"/>
              <ellipse class="st80" cx="468.9" cy="538" rx="2.2" ry="1.9" transform="translate(-67.2 66.9) rotate(-7.6)"/>
            </g>
            <path class="st38" d="M519.6,400.7c.5,5.8.9,11.6,1.4,17.9,4.1-.8,6.1-3.6,8.3-6,8.3-8.9,16.1-18.3,23.2-28.1,13.4-18.5,28.4-35.5,48.9-46.5-12.3-17.6-33.7-20.8-52.4-8-11.1,7.7-17.9,18.6-22.5,31-4.6,12.9-6.9,26.1-6.9,39.7Z"/>
            <path class="st46" d="M440.9,412.8c18.5,10.6,39,16.1,61.1,19.7,1,.2,1.8.9,2.1,1.8,1.1,4.7,2.7,12.8,3.1,18,.1,1.7-1.6,2.9-3.3,2.4-26.6-8.9-54.5-23.1-66.2-38.5-1.7-2.1.9-4.8,3.2-3.4h0Z"/>
            <path class="st73" d="M445.8,387.1s-2.4-27.8,11.4-21.4c0,0,8.8-5.8,8.7,3.9,0,0-4.1,73.8,43.3,55.3,0,0,13-3.9,52.8-57.4,0,0,24.8-34.4,60.8-40.1,0,0,27.3-4.4,44.8,7.6,0,0,3.9,2.3,7.3,7.1,0,0,4.9,10.2,14.8-5.4,0,0,6.8-12.7,33.3-12.1,0,0,40.7-2.6,60.4,38s16,67.7.3,102.1c0,0-19.9,50.8-60.1,49.4,0,0,80.6,47.2,99.3,208.9l-368.7-10.9s-4.4-119,86.3-208.3c0,0,14.6-14.6-4.7-24.8-24.8-13.1-85.4-28.2-90-91.9h0Z"/>
            <g>
              <path class="st94" d="M554.8,496.1c2.8,15.2,17.4,34.5,34,38,29,6.1,54.2-4,77.7-21.1,7.3-5.4,14.1-11.6,20.7-18.1,3.6-3.6,2.9-5.3-1.5-6.7-6.4-2-12.5-.5-18.7.8-2.3.5-4.6,1.1-6.9,1.6-.9,3.5-3.1,5.8-6.4,6.9-16.6,5.6-32.6,13.1-49.8,16.6-9.2,1.9-18.6,1.4-27.7-.7-7.8-1.7-14.1-6.4-19.1-13l-2.3-4.3h0Z"/>
              <path class="st38" d="M555.1,496.3c5.4,12.2,15,18.2,26.8,20,16.8,2.6,32.8-.3,48.4-8.1s19.9-5.3,29.1-10.6c2.9-1.7,5.4-3.2,2.7-7.2-1.4-.3-2.7.2-4,.9-23.4,12.5-47.5,12.9-72.2,6.2-8.2-2.2-16.2-5.7-24.9-5.2-2.3.1-4.9-.4-6.3,2.5.2.5.3,1,.4,1.5h0Z"/>
            </g>
            <g>
              <path class="st68" d="M733.7,384.8c.7,0,1.3,0,2-.1,2.6-.2,6.5,2.3,7.3-2.1.8-4.6-3.8-4.3-6.5-5-6.9-1.6-16.3,2.8-20,10.7-10.3,22.1-9,44.2,1.2,66,.9,1.8,2.2,3.6,4.8,2.2,2.5-1.4,2.5-3.3,1.3-5.7-2.2-4.4-4.3-8.8-4.8-13.8,1.6-4,0-7.9-.3-11.8-.6-6.2.8-7.4,6.6-5.2,2.1.8,4.3,1,6.1,2.5,3,.6,4.9-.5,5.3-3.7-.8-6.9-6.6-8.1-11.6-9.4-5.1-1.3-5.7-3.7-4.7-8.1,1.7-7.8,6.5-12.9,13.3-16.5h0Z"/>
              <path class="st94" d="M733.7,384.8c-8.2,1.1-13.4,6.8-15.3,16.8-.9,4.9-2.2,9.2,5.7,9.3,5,.1,9.6,3.3,12.5,8,8.5-11.5,7.8-19.4-2.9-34.1h0Z"/>
              <path class="st94" d="M731.4,422.6c-1.3-1.2-2.5-2.5-3.9-3.5-2.9-1.9-6.5-3.4-9.4-1.7-3.1,1.8-1.6,5.7-1.1,8.6.7,3.7.2,7.6,1.9,11.1,2.7-1.6,3.7-4.2,4.1-7.2.6-4.8,3.5-7.2,8.4-7.3Z"/>
            </g>
            <path class="st17" d="M579.3,416.7c1.5,6.8,4.7,11.7,11.6,11.6,5.8-.2,10.1-3.5,10.3-10.2.2-7-3.3-11.6-10-11.8-6.7-.2-10.2,4.7-11.9,10.4h0Z"/>
            <path class="st46" d="M512.6,446.7c0,0,.1,0,.2-.1,1.1-.4,13-4.2,14.6,5.4,0,0,1.7,8.2-3.2,12-2.1,1.6-4.7,2.7-8.9,3.6,0,0-47.6,11.5-79.8-30.9-1.4-1.8.2-4.9,2.1-3.9,14.1,6.8,46.4,20,75,13.9Z"/>
            <path class="st1" d="M601.3,346.5s-23.4-45.1-66-1.9c0,0-26.7,22.6-21,80.5l87-78.6Z"/>
            <path class="st94" d="M460.7,653.5s99.6,24.3,161.2,18.1c0,0,128.3-13.7,191.2-8.2,0,0,6.5,22.5,9.9,55.4l-368.7-10.9s-.1-30.7,6.4-54.4h0Z"/>
            <g>
              <path class="st38" d="M594.2,673.2c4.2,3.2,3.2,7.7,2.7,11.9-.7,6,1.7,9.1,7.7,9.6,18.3,1.6,36.6,3.1,54.9,4.9,5.1.5,6.9-1,7.5-6.3,1-8.7,3.4-17.1,6.5-25.4,4-15.3,11.1-20.8,26.2-20.4,2.3,0,4.8.6,5.1-2.8.3-3-2-3.8-4.2-4.5-9.1-2.9-21.1,2.4-28.1,12.3-3.9,5.5-6,11.7-7.6,18.1-.9,3.7-2.4,5-6.1,4.7-17.6-1.6-35.3-3-52.9-4.3-4-.3-5-1.9-4.3-6,4.1-23.1,16.4-40.4,36.5-52.3,2.4-1.4,6.8-2.3,4.8-6.3-2.2-4.2-5.8-1.6-8.5,0-25,15.2-40,36.6-40.2,66.8h0Z"/>
              <path class="st84" d="M631.5,660.5c.7,1.9,1.8,3.3,3.8,3,2.2-.3,3.6-1.8,3.2-4.2-.3-1.9-1.7-3.2-3.7-2.9-2.2.3-3.4,1.7-3.3,4.1h0Z"/>
              <path class="st33" d="M645.6,661.4c0,2,1.2,3.4,3.1,3.6,2.4.2,3.7-1.3,3.6-3.6,0-2-1.4-3.2-3.3-3.3-2.2,0-3,1.5-3.4,3.3h0Z"/>
              <path class="st23" d="M619.1,658.5c0,2.1,1.3,3.2,3.3,3.4,2,0,3.4-1,3.5-3s-1.2-3.2-3.2-3.3c-2.1,0-3.4.8-3.6,2.9h0Z"/>
            </g>
          </g>
          <g>
            <path class="st51" d="M461.9,268.2c7.7-5.7,7.7-11.6-.3-16.1-3.3-1.9-5.3-4.2-6.8-7.5-1.4-3.2-3.9-5.7-7.6-4.8-3.4.8-5.4,3.4-5.7,7.1-.1,1.5.4,3.2-1.1,4.5-6.6,6-6.2,10.6,1.3,15.7,3.8.9,3.2,4.7,4.5,7.1,1.6,2.9,3.8,5.1,6.9,5,3.3,0,5.4-2.5,5.8-5.8.3-2.1,1.7-3.6,3-5.2h0Z"/>
            <path class="st32" d="M461.9,268.2c-2.9.3-3.8,2.5-4.1,4.8-.4,2.9-1.6,5-4.5,5.2-3.5.2-5.1-2.4-6.5-5.2-1.1-2.3.2-7-5-5.8,1,2.1,2.2,4.1,2.8,6.3,1.2,4.6,3.9,7.3,8.8,7.2,4.5-.2,6.3-3.2,7.1-7.2.2-1.9.9-3.6,1.4-5.3h0Z"/>
          </g>
          <g>
            <path class="st51" d="M402.9,303c1.2-3,.2-5.4-2.1-7.5-2-1.8-3-4-2.9-6.8.2-4.7-1.9-7.6-6.9-7.7s-8.3,2.9-8.4,7.5c-.3,7.4.5,14.8,1.1,22.2.4,5,5.6,6.2,10.5,5.6,5.7,0,7.2-3.4,7.6-8.4.1-1.5-2.7-4.2,1.1-4.9h0Z"/>
            <path class="st98" d="M402.9,303c-1.4-1.3-1-4.1-4.3-4.5,1.2,6.7,5.1,14.1-4.4,17.7,5.8,2.7,7.5-1.5,8.6-5.6.7-2.3.1-5,.1-7.6h0Z"/>
          </g>
          <g>
            <path class="st93" d="M458,366.5c0-2.6,0-5.1.1-7.7-.9-13.6,3-25.9,9.9-37.4,1.7-2.8,3.1-5.8,4.4-8.7,2.1-4.6,1.3-8.7-2.6-12-4.4-3.6-7.3,0-10.3,2.4-.8,1.1-1.6,2.3-2.2,3.6-1.9,3.7-2.8,8.8-9.1,6.2-1-.4-1.7,1.1-3.1,1,7.2-.3,12.5-2.8,12.8-10.8-1.5-2.2-1.3-5.8-5.1-5.9-4.1-.1-5.2,3.4-7.2,6.6-2.8-3.7-5.1-7.3-8-10.5-5.1-5.6-12.1-7-17-3.6-6.1,4.1-5.3,9.9-3.2,15.7,1.1,3.1,2.7,6,4.2,8.9,1.4,2.6,3,5.2,5.4,9.3-4.2-2.4-7.3-2.8-9.2.5-2.7,4.7-1.1,9,1.6,13.2,3.2,3.2,6.6,6.1,10.3,8.7-2.1-1-3.5-3.5-6.3-3-1.3,2.4-5.5,3-4.1,6.9,2.3,5.1,7.1,7.1,11.8,9,6.5,2.6,12.8,5.5,17.2,11.3,1.4,1.8,2.9,3.1,5.3,2.1,2.4-1.2,5.4-2,4.4-5.8h0Z"/>
            <path class="st72" d="M458,366.5c-2.7,4.9-5.5,7.6-10,1.5-2.5-3.4-6.2-5.7-10-7.4-6.6-3-13.7-5.1-18.8-10.7.2,5.1,4,6.9,7.8,8.6,5.2,2.4,10.8,3.9,15.4,7.6,2.3,1.8,5.3,3,4.9,6.7-.1,1.2.4,1.5,1.4,1.8,4,1.3,11.8-3.9,12-8.2.1-.8.3-2-1.2-1.5-.7.3-1,1-1.5,1.6h0Z"/>
            <path class="st90" d="M457.9,303.2c-2.5,4-3.5,9.6-10.5,8.4-1.4-.3-3.3,2.2-5.1,3.3-2.2,1.5,0,2.3.5,3.1.8,1.2,1.8,1.1,2.5-.4,1.4-3.1,3.1-5.6,6.7-2.1,1.3,1.3,2.2,0,2.5-.9,1.4-3.9,4.6-7.1,4.8-11.5-.4.1-.9.1-1.4.1Z"/>
            <path class="st59" d="M423.2,342.9c3.3,2.4,6.6,4.8,10,7.1.4-.5.8-.9,1.2-1.4-4.6-4.3-9.3-8.5-15.1-11.4-.7,3.4,3.1,3.5,3.9,5.7h0Z"/>
          </g>
        </g>
        <path class="st19" d="M567.4,696.8c17.5-.4,34.8,1.7,52.3,2.6,27.3,1.4,54.6,3.2,81.8,4.8,6.2.4,12.1-2,18.1-3,4.2-.5,6.7,1,5.3,5.5-2.1,7,1.3,11.6,5.9,16,5.6,5.5,12.1,9.9,17.8,15.3,3.1,2.9,4.5,6.3,3.1,10.2-3.4,9.7-9.1,18.2-11.6,26.6,2.1-1.2,3.1-5.2,4.7-8.7,2-4.6,3.8-9.3,6.5-13.6,2.4-3.8,5.5-5.8,10.2-4,12.8,9,24.9,18.7,37.2,28.3,2,1.6,3.7,3.5,4.8,5.7,2.3,5.6-.2,10.3-3,15-5.3,8.9-10.4,17.9-15.5,26.9-12,21.1-24.1,42-37.6,62.1-1.8,2.6-3.9,4.9-7.3,4.8-6.8-.3-13.7-.9-19.7-4.7-3-1.9-5.2-4.9-8,.3-1.1,2-3.1.9-4.1-1-.5-.9-.7-2-.6-3,.9-10.8-2-21-4.2-31.4-.2-45.6,1.5-91.1,1.6-138.2-9.1,7.6-16.3,15-23.3,22.7-21.4,23.4-44.2,45.4-65.7,68.7-6.1,6.6-13.2,8.3-21.9,7.7-49.5-3.4-99-8-148.6-10.7-12.1-.7-24.3-.9-36.3-3.4-4.7-1.1-9.4-2-13.8-4.2-6-2.9-6.5-5.1-1.5-9.2,3.5-2.9,6.9-6.6,11-8.1,14.6-5.4,27.1-14.6,39.5-23.4,13.5-9.6,29.7-13.6,42.9-23.8,10.4-8.1,23.2-13.2,35.2-19.1,3.4-1.7,6.5-3.8,9.6-6.1,1-.7,2.6-1.6,2.5-2.7-1.5-10.5,5.4-6,10.1-5.8,7.5.6,15.1.4,22.6.9h0Z"/>
        <path class="st12" d="M802,782.5c-10.4-9.8-22.5-17.6-33.5-26.7-2.3-1.9-4.5-3.9-6.7-5.9-3.7-6.1-2.7-12,2.6-17.5,12.1-12.8,23.5-26.2,33.4-40.7,2.7-4,6.5-7,9.9-10.4,15.2-5.4,31.2-7.8,46.8-11.6,18.3-4.5,36.9-8.2,55.3-12.2,3.3,5.8,9.3,8.4,14.3,12,28.6,20.4,57.3,40.6,85.9,61,1.9,1.4,4.4,2.4,5.8,6.1-33.2,7.3-66.1,14.6-99,21.8-7,4.7-15.2,5.7-23,7.7-2.6.7-5.4.6-8,1.5-23.7,5.6-47.6,10.7-71.3,16.1-4.4.8-8.8,3-12.5-1.2h0Z"/>
        <path class="st41" d="M567.4,696.8c-10.2.8-20.5,1.5-30.7-1.4,1.6,8-.6,10.8-11.3,16.2-12,6.1-24.5,11.6-35.7,19-10.5,7.1-22.7,10.9-32.8,17.7-8.8,5.8-19.2,9.1-26.8,17.6-4.9,5.6-14.2,7.2-21.2,11.1-5.4,3.1-10.4,7-15.5,10.6-2.4,1.7-2.1,3.1.8,4.2,4.7,1.7,9.3,3.8,14.4,4.3-.6,3.2-3.3,2.7-5.2,2.4-4.5-.6-8.8.3-13.1.8-11.4-4.1-23.5-2.7-35.2-4-18.3-2.1-36.9-1.5-55.1-4.9-1.9-1.2-2.7-3.1,0-3.7,21.1-5,36.9-20.1,55.8-29.1,21.3-10.2,38.9-26.6,60.2-36.4,12.7-5.8,24-14,36.7-19.6,6.5-2.9,12.2-7,18.1-10.8.6,0,1.2.2,1.8.3,3,1,6,1.6,9.1.5,25.6,1.3,51.1,2.5,76.7,3.9,3,0,6,.9,9,1.3h0Z"/>
        <path class="st48" d="M470.8,690.8c-3.1,7.3-10.5,9-16.6,12-4.7,2.4-9.8,4.2-13.8,7.7-8.8,7.6-21,8.6-29.9,15.9-7.4,6-16.9,8.4-24,15.1-9.7,9-23.2,12.3-33.5,20.3-10.9,8.6-25.5,10.5-35.2,21.3-4.5,5-12.4,4.6-19.1,5.3-5.2,3.1-19.7,2.7-24.1-.8-.7-.6-.3-1.4-.2-2.1,17.3-15.4,34.5-30.7,51.8-46.1,17.1-15.3,34.2-30.6,51.2-46,2.4-2.2,4.5-4.7,6.7-7.1,29-.8,57.8,2.2,86.7,4.5h0Z"/>
        <path class="st31" d="M807.7,681.3c0,.8.5,1.8.2,2.2-14.8,16.3-26.5,35.1-42.5,50.4-4.6,4.4-5.2,10-3.6,16-4.7-1.6-7.7,0-9.5,4.5-2.1,5.1-4.6,10-6.6,15.1-1.4,3.4-3,6.2-7.5,7.9.7-9.3,5.1-16.4,9.1-23.4,4-6.9,4.2-10.6-1.8-16.1-5.4-4.9-11.2-9.3-16.5-14.4-4.9-4.7-9.9-9.7-5.7-17.6,2-3.8-1.5-3.9-3.7-4.8,29.1-7.7,58.5-14.2,88.1-19.8h0Z"/>
        <path class="st48" d="M481.7,691.6c-2.3,2.8-3.3,2.7-9.1-.5,3.1-.5,6.2-.9,9.1.5Z"/>
        <path class="st14" d="M371.9,694.2c-.8.3-1.7,1-2.5.8-1.7-.3-2.5-1.7-2-3.3.2-.7,1.6-1.5,2.2-1.4,1.5.5,2.2,1.9,2.3,3.9Z"/>
        <path class="st37" d="M425.5,1143.7c-3.6,5.4-7.2,10.8-10.8,16.1-6.9-.7-10.1-3.9-9.3-11.3.5-4.6-.6-9.4-1-14.1-.7-1.4-1.4-2.8-.6-4.4,1.8-9.2-1.1-18.4.3-27.6.8-1,1.8-1.6,2.8-2.4,4.9-3.9,4.7-6-1.2-8.8-.9-.4-1.8-.7-2.4-1.6-.4-2.2-.8-4.3-1.2-6.5-.6-3.9-2.3-7.6-2.1-11.7-.7-24.5-2.2-49-3.2-73.5-.2-4-.6-8.1.2-12.1,2.6-5,6.1-6.6,9.6-1.3,2.8,4.3,4.4,2.6,6.8,0,8.6-9.8,9.7-9.9,19.2-1.4,19.1,16.9,34,37.5,50.1,56.9,4.9,5.8,9.5,11.8,14.3,17.7,2.4,2.9,5.1,5.8,4.4,10.1-5.6,7.7-14.3,11.7-21.5,17.5-7.3,5.9-14.1,12.2-20.6,18.8-1,1-2,2.1-3,3.1-9.3,9-17.4,19-24.6,29.8-1.8,2.7-3.4,5.3-6.2,6.7h0Z"/>
        <path class="st37" d="M885.7,766.2c10.4-2.6,20.7-5.2,31.1-7.8-2.4,8.5-.5,17.1,0,25.6,2.4,45.9,5.1,91.7,7.8,137.6,3.7,8.6,2.4,17.8,3,26.8.9,12.3,2.1,24.6,1.6,36.9-.7,11.1-.4,22.2,0,33.3.4,10.9-2,14.7-12.6,17.2-3.2.8-6.1,2.4-9.3,2.9h0c-4.4,1.5-8.5,3.7-12.7-1-2.2-2.4-4.8-.7-5.1,2.5-.4,3.5-2.5,5.2-5.4,6.3-1.7.7-3.3,1.5-5,2.2-7,2.2-13.6,5.4-20.3,8.2-17.9,8.5-35.4,17.8-52.2,28.1-1.2.8-2.8,1-4.2,1.5-3.5.6-5.6-1.9-7.9-3.7-22.9-18.2-48.5-31.4-76-40.8-19.9-6.8-40.6-10.5-61.7-12.1-2.3-.2-4.6,0-6.7-1-9.4-4.4-13.1-14-18.2-21.8-12.1-18.7-24.2-37.4-35.2-56.9-4.5-8-9.1-15.8-10.7-25-.9-5.2.6-7.4,6.1-7.6,6.9-.3,13.5,1.4,20.4,1.5,11.7.2,21.8-5.9,33.3-6.3,6.8-.2,11.5,1.2,15.7,6.8,5.4,7.3,11,14.5,17.4,21.1,7.8,8.1,11.5,19.1,18.2,28,1.2,1.6,2.2,3.5,3.5,5,1.4,1.6,2.6,4.6,5.2,2,1.8-1.8,1.5-4.2-.6-6-14.1-11.8-20.2-28.7-28.4-44.3-1.3-2.5-2.1-5.2-1.8-8.1.5-6.1,4.2-9.1,10.8-9,6.1.2,9.7-2.6,10.8-8.5,2.5-12.9,5.4-25.8,4.9-39.1,0-3.2.2-6.7,3.4-8.8,4.7,11,5.4,22.6,4.7,34.4,3.2,0,2.6-1.9,2.4-3.3-.3-2.2.5-3.5,2.5-3.9,1.8-.4,2.5.9,3.4,2.2,5.7,8.4,15.2,6.5,23.3,8.1,1.8.4,3.3-1.6,3.9-3.2,6-14,17.7-24.4,24.1-38.1,8.9-19.1,21.1-36.5,31.2-54.9,1.9-3.5,2.7-7,1.5-10.9,4.3,2.1,8.4-.3,12.5-.6-4.4,10.4-9.8,20.4-15.1,30.3-6.9,13-13.9,26-19.9,39.3-4.1,9.1-7.1,18.8-11.9,27.8-2.9,5.4-1,8.7,5.1,9.9,6.6,1.3,11.8,3.6,16.4,9.4,5.9,7.4,18.9,4.8,23-3.6,3-6,7.1-10.9,11.5-15.9,6.9-7.7,12.8-16.6,17.4-25.6,9.3-18.1,20.9-34.8,29.9-53,4.4-8.9,8.9-17.7,13.5-26.4,1.3-2.2,1.5-4.9,1.3-7.7h0Z"/>
        <path class="st42" d="M1319.1,539.3c-19.1-3.6-31.4-21.4-27.9-40.3,3.4-18.8,21.7-31.1,40.6-27.4,19,3.7,31.1,21.6,27.5,40.6-3.5,18.3-21.6,30.6-40.2,27.1Z"/>
        <path class="st47" d="M1067.8,572.5c-.5,2.1-1.9,3.1-3.7,3-2.4,0-3.6-1.8-3.3-4,.2-1.8,1.6-3.1,3.6-2.9,2.5.2,3.3,1.8,3.4,3.9Z"/>
        <path class="st22" d="M649,1026.5c-2.6,2-5.2,1.1-7.7,0-5.8-6.9-12-13.5-15.8-21.8-19.8-29.1-40.6-57.4-62.7-84.7-1-1.2-2.2-2.2-2.9-3.5-8-14.8-21.1-17.6-36.4-15.5-2,.3-4.1.3-5.7,1.7-4.4,3.9-9.8,5-15.4,5.8-7.4,1.1-9.6,5.7-6,12.3,6.6,12.3,13.7,24.2,21.9,35.4,5.7,7.8,9.7,16.6,15.1,24.6,1.3,2,3.5,4.9.8,6.7-2.5,1.6-4.6-1.3-6.1-3.1-9.6-11.1-18.5-22.8-27.6-34.4-8.9-11.4-19-21.7-29.4-31.7-3.3-3.2-7.1-4.4-11.8-3.6-13.3,2.5-26.5,5.8-40.1,6.7-3.7.3-5.4,2.4-5.7,5.9-.2,2.1.1,4.2,1.3,5.8,9.8,12.9,14.7,29,25.7,41.1,3.1,3.4,5.6,7.2,7.3,11.5.8,2.1,2.1,4.6-.2,6.3-2.7,1.9-4.9,0-6.5-2-6.7-8.3-13.2-16.7-19.9-24.9-7.2-8.8-13.4-18.5-21.6-26.4-2.8-2.7-3-6.3-4.5-9.5-1-2.5-.7-5-.2-7.6,1.8-5.2,2.4-10.5,1.1-15.9-1.9-13-1.7-26.2-2.3-39.3-1-22.7-1.6-45.5-2.4-68.2,3-3.1,6.7-2.3,10.3-1.9,2.4.3,4.8,1.7,7.1,0,16.2,2.4,32.5,2.9,48.8,4.1,20.1,1.5,40.2,2,60.2,4.5,8.5,1.1,17,1.7,25.6,1.8,18.1.3,36.1,2.5,54.1,4.1s14.1-4.2,19.3-9.5c19.5-20.1,38.7-40.4,58.1-60.6,10.3-10.7,20.5-21.4,31.6-32.9,2.1,12.1,1.1,23.4.8,34.4-.5,16.3-.4,32.6-.9,48.9-.4,15.1-.9,30.1-1.4,45.2-.2,5.3,1.9,10.5,0,15.8-1.8,17.2-2.9,34.4-6.7,51.3-1.5,6.9-4.3,8.7-10.9,7.4-8.9-1.7-12.7,3.3-9.5,11.9,5.6,14.8,14.6,27.6,22.7,41,.9,1.4,2.5,3.3,3.8,3.4,6.6.5,5.3,4.6,4.5,8.7-.4,2.1-1.1,4-3.4,4.5-2.4.5-3.7-1.2-4.8-3-4.5-7.3-10-13.9-13.7-21.8-5.4-11.3-15.6-19.1-22.7-29.2,0-.2-.4-.3-.6-.5-4.7-5.1-6.8-13.8-16.8-11-6.7,1.9-13.8.9-20.4,4.7-6,3.3-13.7,1.7-20.5,1.4-6-.3-11.9-1.6-18.3-1.1-.5,9.5,3.7,17.7,8.4,25.3,10.5,17,19.7,34.7,31.4,50.9,5.5,7.7,10.3,16,15.2,24.2,1.5,3,4.3,4.4,6.4,6.5h0Z"/>
        <path class="st19" d="M582.1,805c-6.8,0-13-4.2-20.6-4.7-15.8-1.2-31.7.3-47.3-2.3-4-.6-7.9-1.4-11.7-3.2-5.1-2.4-10.6-3.3-15.7.9-1.8,1.5-4.7,2.8-6.3,1.7-6.6-4.5-13.7-.5-20.5-1.5-4.7-.7-9.5-1-14.2-1.8-2.2-.4-5.2-.3-5.6-3-.3-2.2,2.5-2.9,4.1-4,3.3-2.3,6.8-2.6,10.8-2.1,4.1.5,8.1-.3,6.5-6.1-.7-2.4.2-3.8,2.2-5,6.4-4,12.1-9.2,19.9-10.7,4.3-.8,7.5-3.4,10.6-6.7,7.1-7.7,16.9-10.3,26.7-13.4,6.9-2.2,13.1-3.1,20.2-2.4,4.4.4,5.2-3.9,4.8-7.1-.4-3.7.8-6.9,3.9-7,6.6-.2,11.6-5.6,18.4-4.9,3.6.4,6.5-1.7,7.5-5.2.9-3,2.6-5.4,4.1-8,2.2-3.8,3.5-6.1,8.3-2.1,5.3,4.4,16.9,2,21.3-3.1,3.8-4.4,8.5-1,12.7-1.6,3.6-.5,1.4,4,2.5,6,1.6,2.9-1.4,9,2.8,9s2.3-5.9,3-9.2c.6-2.7.5-5.8,4.8-5.2,3.2.5,5.3,1.5,4.4,5.4-.3,1.4-1.1,3.2.7,4,1.7.8,2.6-1,3.7-1.9,4.1-3.1,10.3-1.2,14-5.8.8-1,4.4,0,4.9,3.1.5,2.9,1.9,5.6,1.8,8.8,0,2.1,1.2,4.8,4,4.6,3.1-.3,3.7-2.5,3.5-5.5-.5-10.4,0-10.8,10.4-9.6,1.8.2,3.6.4,5.2,1,3.2,1.1,8.4-.4,9.3,3.4,1,4.5-5.8,3.8-7,6.3-3.9,8.2-10.3,12.4-18.5,15.1-1.9.6-1.5,3.6-2.2,5.4-1.7,4.4-.7,11.9-9.5,8.8-.4,0-1.5.6-1.6,1.1-1.9,7.7-10.8,9.6-13.8,17.4-1.5,4-6.4,13.9-16.2,10.6-.3,0-1.3.3-1.3.5.5,7.6-8.9,8.5-10.2,15.6-2,11-14.8,17.3-28.5,15.7-1.7-.3-3.7-.8-6.3-1.3h0Z"/>
        <path class="st19" d="M885.7,766.2c2.7,1,4.6,2.2,2.7,5.5-11.8,21.3-22.6,43.1-35.1,64.1-7.8,13.1-16,25.9-23.2,39.4-.6,1.1-1.3,2.3-2.2,3-8.1,6.1-13,14.5-16.8,23.7-.5,1.3-1.7,2.7-2.9,3.4-4.6,2.4-21.7-3.8-23.5-8.8-.9-2.4-2.2-3.1-4.3-3.5-3-.6-6-1.1-8.9-1.7-7.3-1.6-9.7-5.5-6.6-11.9,12.9-26.6,23.9-54,38.9-79.6,3.5-6,5.5-12.9,10.7-17.9,23.7-5.5,47.3-11.3,71.2-15.7h0Z"/>
        <path class="st5" d="M399.1,984.6c-2.1-18.5-2.1-37.1-2.6-55.6,3.8,11,13.5,17.6,19.7,26.9,7.4,11.1,16.4,21.1,24.8,31.5,1.5,1.9,2.8,4.3,6.4,4.3-.5-7.1-4.6-12.2-8.8-16.8-11.4-12.6-16.8-28.7-26.2-42.5-4.9-7.3.7-13.7,9.7-12.4,4.4.6,7.9-1.4,11.6-2.7,8.8-3,18.5-.5,27.3-4.9,2.9-1.5,7.4.6,10.4,3.5,14.3,13.9,27.8,28.6,39.7,44.6,6.9,9.2,14.5,17.9,23.2,25.9-4.1-7-7.8-14.2-12.2-21-9.5-14.6-19.7-28.7-28.1-43.9-3.7-6.8-.2-14,7.6-14.8,6.1-.6,11.2-2.9,16.5-6.6,8.6-6.1,31.8-.3,38.3,8.2,17.5,22.8,35.3,45.5,52.5,68.5,6.6,8.8,12.2,18.5,18.2,27.7-5.1,1.1-7.3-3.1-9.4-6.1-7.9-11.5-17.5-21.6-25.5-32.9-1.5-2.1-3.4-4.7-5.8-4.5-6.3.5-11.7-2.4-17.5-3.5-8-1.5-15,1.5-20.6,7.1s-7.1,6.6-12,4.4c8,24.7,22.9,45.4,38.6,65.6-3.1,1.5-6.2,3.1-9.9,2.5-7-6.9-12.3-15.3-18.5-22.9-9.7-11.9-18-25.1-29.4-35.6-4.3-4-9-5.3-15.1-5.6-11.9-.5-23.2-.2-33.2,7.3-2.6,1.9-5.7,1.6-8.8,1.4-5.7-.3-7.4,2-4,6.5,6.3,8.3,10.2,18,16,26.7,9.1,13.7,18.7,26.9,28.9,39.7,2.1,2.6,5,5.2,4.4,9.3-.1.6-.2,1.3-.2,1.9-1.7.6-3.3,1.1-5,1.7-.5-6.5-6.1-9.6-9.5-14.1-15.6-21-33.1-40.4-49.9-60.4-3.8-4.6-8.7-8.3-13.4-12.1-3.5-2.8-7.1-3.9-10,1.3-1.3,2.4-3,4.7-5,6.6-2.9,2.7-5.8,3.8-6.6-1.8-.7-4.7-2.9-5.5-6.6-2.4h0Z"/>
        <g>
          <path class="st75" d="M230.9,1044.6c-1.4,4.5-2.9,9.1-4.3,13.6-3.5-.7-7-1.4-10.5-2-8.4-13.1-16.7-26.3-21.9-41.1-5.9-16.5-10.4-33.2-8.9-51,.4-4.9,1.7-9.4,3.7-13.8,4.9,7.3,12.5,10.4,20.3,13.3,4,2.9,3.6,7.5,4.6,11.6,4.7,19.8,10.2,39.4,15.8,59,.8,3.4,2.1,6.7,1.2,10.4h0Z"/>
          <path class="st20" d="M177.2,1048.6c-8.6-9.5-17.1-19-25.7-28.5-8.7-4.8-13.7-13.3-19.2-20.9-13.4-18.3-26-37.1-36.1-57.4-.6-1.4-1.2-2.8-1.5-4.3s-.4-3.1,1.2-4c1.8-1,3.4-.4,4.8.8,1,.8,1.6,1.9,2.2,3.1,15.2,27.4,32.9,53,52.8,77.1,1,1.2,1.5,2.6,2.3,3.9,4.1,7.3,9.6,13.4,15.3,19.4,3.6,3.8,8.2,6.7,10,12-2.1-.4-4.1-.8-6.1-1.2Z"/>
          <path class="st43" d="M255.1,631.2c.5-3,.9-6,1.4-9,2.4-.9,4.3.5,6.3,1.4,3,2.2,4.4,5.6,5.9,8.7,17.8,35.7,36.9,70.9,54.8,106.5,11.8,23.5,23.8,46.9,36.2,70.1,1.2,2.2,3.9,4.3,1.7,7.4-.1,0-.4,0-.6,0s-.4-.3-.6-.4c-54-20.6-90.2-56.5-100.1-115.3-3.6-21.2-5.2-42.6-4.6-64.1.1-1.8-.3-3.5-.4-5.3h0Z"/>
          <path class="st95" d="M158,1018.4c-3.8-1.4-5.7-4.9-8-7.8-18.1-23.4-35.7-47.1-49.1-73.5-.8-1.7-2.3-3.8-3.8-2.9-3.7,2.2,1.3,4.6.4,7.1-1.1,5.5-4.5,4-7.1,1.9-5.7-4.5-11.8-7.7-19.2-8-3.2,0-4.3-2.4-4.7-5-.8-5.4-3-10.8,0-16.3-.8,1.6-.3,3.6-2.1,4.7-1.2-5.6.7-10.5,3.3-15.3,3-3.4,6-1.9,8.6.3,13.1,10.9,26.5,21.3,41.8,29.2,4.6,2.3,8.8,5.9,12.8,9.4,4.8,4.1,10.1,6.3,16.1,7.6,11.2,21.6,16.8,44.2,11.1,68.6h0Z"/>
          <path class="st56" d="M330,932.3c-2.1.4-2.8,1.5-2.6,3.8.3,4.7-2.5,7.2-6.8,7.4-4.6,0-8.1-2.2-7.9-7.2.1-3.3-.8-4.3-3.9-5-31.2-6.8-52.3-27.2-69.5-52.6-4.1-6.1-7.4-12.6-11.1-19,2.2-1.3,4.4-.9,6.6,0,22.4,8.7,44.8,17.3,66.9,26.7,10.9,12.7,19.6,27,28.6,41,1,1.7,1.5,3.5-.3,4.9h0Z"/>
          <path class="st36" d="M64.3,918.6c.7-2.6,1.4-5.2,2.1-7.8.2,0,.5,0,.7,0-.3,3.9-1,7.9-1,11.8,0,8,5.1,11.3,12.5,12,5.2.5,9.5,3.3,12.9,7.2,2.5,2.8,4.2,1.8,6-.6,10.9,19.1,22.3,38,35.5,55.7,5.9,7.9,12.3,15.4,18.5,23.1-17-3.5-32.1-11.3-44.6-23-19.3-18-34.4-39.1-41.5-65-1.2-4.4-2.2-8.9-1.1-13.5Z"/>
          <path class="st78" d="M146.8,949.8c-4.4,1.8-8.9.7-12.1-1.9-10.1-8.2-22.2-13.7-32.1-21.5-8.7-6.8-19.8-10.9-26.5-20.4-1.9-2.8-4.9-4.4-8.6-2.7,8.2-17.4,20.7-21.1,36.5-9.8,20.1,14.2,33.7,33.6,42.8,56.3h0Z"/>
          <path class="st70" d="M297.6,851.8c36.4,5.4,61.1,26.7,78.3,58.1.3.6.1,1.5.2,2.2-6.6.6-12.3-2.1-18.2-4.4-17.2-6.6-34.5-13.1-51.5-20.1-2.5-1-5.4-1.6-7-4.2-.2-.7-.2-1.5.4-2,7.9-6,8.3-8.4,2.5-16.7-2.1-3.1-4.8-5.8-5.7-9.6-.4-1.3-.2-2.5,1-3.3Z"/>
          <path class="st39" d="M297.6,851.8c-.5,4.6,3,7.3,5.2,10.4,1.6,2.2,3.3,4.4,4.3,6.9,3.3,8.1,1.1,11.7-7.7,12.6-3,2-5.9.6-8.7-.5-17.5-6.4-34.9-13.1-52.1-20.4-2.7-1.2-6.7-1.6-6.7-6,21.8-4.9,43.5-8.4,65.7-3h0Z"/>
          <path class="st63" d="M360.2,815.9c-2.9-10.6-9.2-19.6-14-29.3-14.4-28.6-29.3-56.9-44.1-85.3-13.2-25.5-26.5-51-39.7-76.5-3.4-2.6-5.6-5.9-4.7-10.4.2-1,1.1-1.8,2.2-1.7,4.4.5,6.1,4.1,7.8,7.4,14.7,29.6,30.4,58.8,45.3,88.3,8.2,16.2,17,32.1,25.5,48.2,9.7,18.5,17.8,38,29.3,55.6,5,11.2,10.4,22.3,16.6,32.9,3.1,5.5,6.1,11,7.2,17.2,1,3.5,2,7.1.5,10.7-8.9-16.6-18-33.2-26.7-49.9-1.5-2.5-3.2-4.9-5.2-7.2h0Z"/>
          <path class="st30" d="M330,932.3c-.9-6.3-5.8-10.2-8.7-15.4-5.4-9.9-13.6-18-18.6-28.1,3.1-2,6,0,8.6,1,18,7.4,36.1,14.2,54.1,21.6,3.6,1.5,8.8,2,8.7,7.9-13.7,7.5-28.1,12.9-44.1,13Z"/>
          <path class="st89" d="M209.2,964.8c-6.5-.2-11.2-4.9-17-6.9-3.7-1.3-1.9-5.2-3.3-7.6,1.2-4.3,4-7.5,7.5-10.2,9.2-6.9,17.3-6,24.4,3,6.9,8.7,10.4,19,12.7,29.7-2.5,6.1-6.6,6.6-11.7,3.2-1.8-1.3-3.9-2.1-5.9-2.9-4.5-5.3-3.2-12.5-5.9-18.5-.4,3.3,2.6,7.1-.8,10.2Z"/>
          <path class="st49" d="M216.6,972.8c1.3-1.4,2.7-1.1,3.9,0,4.4,4.4,8.7,4.4,13.1,0,5.6,15.9,6.4,32.6,9,49-3.7,4.6-3.9,11.3-9.1,15-2.9-.8-3.7-3.3-4.3-5.7-4.5-16.8-10.1-33.3-13.3-50.4-.6-2.6-1.6-5.5.7-7.9h0Z"/>
          <path class="st102" d="M374.2,919.2c-7.4-7-17.3-8.7-26.1-12.4-15-6.3-30.2-12.1-45.3-18-22.4-8.8-44.9-17.6-67.3-26.4-2.3-.9-4.7-1.7-7.1-2.5-3.1-4.9,1-4.5,3.7-5.1,7.9,5.4,17.4,7.4,26,11.5,13.4,6.3,27.6,10.6,41.5,15.5,13.4,7.4,28.1,11.7,42.2,17.3,11.4,4.6,22.9,8.7,34.3,13,5.9,2.7,11.8,5.4,17.7,8,1.3,1.3,1.5,2.8.6,4.4-7.1-.6-12.6-7-20.2-5.3Z"/>
          <path class="st88" d="M393.2,879.7c4.6-.4,9.2-.2,9.6,5.7s-4.4,6.6-8.8,7.1c-3.9-4.1-5.4-8.2-.8-12.8h0Z"/>
          <g>
            <path class="st65" d="M1052.6,670.6c-18.6-27.2-20.8-57.5-16.9-89,2.4,2.7,2.6,3.2,3.5,8.6,4.8-3.1,7.4-7.6,9.5-12.3,2.9-6.5,6.4-12.6,12.1-17.2,1.4-1.1,2.8-2.4,3.4-4,5.1-13.3,15.4-22.9,23.8-33.9,1.8-2.3,2.2-4.3.8-6.9-1.1-1.9-2.5-4-.2-6.1,15.1,8,21.7,21.5,22.4,37.6,2.2,47.2-9.8,89.2-47.3,121-.9.8-2.1,1.4-3.2,2-2.7-5.6,0-10.9,1.3-16.2,5.4-22.1,12.9-43.7,14.3-66.6.4-7,3.2-13.8,2.4-21.1-1.7,24.9-8.3,48.7-12.8,73-1.6,8.5-5.2,16.4-6.7,24.9-.7,3-2.1,6.3-6.4,6.2h0Z"/>
            <path class="st81" d="M1099.5,724.5c12.5-4.7,25-3.3,37,1.2,13.7,5.2,19,19,12.8,32.3-7.7,16.6-22.4,25.6-37.9,33.4-22.7,11.4-46.2,13.6-70.4,4.9.5-5.3,5.3-6.3,8.8-8.3,25.8-14.4,52.2-27.9,78.3-41.7-14.7,6.2-28.6,14.2-43,21-2.6,1.2-5.3,4.4-8.8,1.4-.3-3.9,1.8-6.9,4.3-9.2,10.4-9.5,17.2-20.9,18.9-35h0Z"/>
            <path class="st44" d="M1076.9,769.5c16.7-8.4,33.3-16.8,50-25.2,1.6-.8,3.9-2.9,5.3-.4,1.6,2.9-1.4,3.8-3.4,4.7-26.3,13-52.2,26.7-77.9,40.9-3.5,1.9-7.3,3.5-9.9,6.8-11,5.6-22,11.1-32.2,18.3-6.5,4.6-7.9,10-4.4,16.9-10.6,1.4-21.2,2.7-31.9,4.1-.9-1.5-.3-2.9.4-4.3,1-2,2.3-3.9,3.4-5.8,2.9-4.8,6.8-10.8,3.5-15.2-3.5-4.7-10.7-4.5-16.8-3.4-1.4.3-2.8,1.3-4.1-.3-.8-5.7-.9-11.2,2.5-16.3,6.5,4.7,14.5,3.8,21.7,5.8,1.6.4,2.9-.2,3-2.3.3-14.7,3.6-29.5-1.4-44-1.1-28-5.1-55.7-9.4-83.3-1.3-8.5-2.8-16.9-4.5-25.3-.8-4.4-2.7-8.7-2.8-13.2,0-2.7,0-6,3.6-6.5,3.1-.4,4.1,2.4,4.8,4.8,1,3.3,1.5,6.8,2.2,10.3,6.5,32.8,11.4,65.8,13.9,99.1.5,6.3,1.4,12.6.2,18.9-1.8,13.5.5,27.1-1.4,40.6-.3,1.8.9,2.8,2.6,3.1,2.3.4,3.7-.7,4.9-2.7,4.6-8.1,9.5-15.9,13.9-24.1,12.7-23.4,23.2-47.9,32.2-73,3.2-9,7.9-17.8,7.5-27.9,3.1-1.1,3.5-4.1,4.2-6.7,8.6-32,16.4-64.2,19.3-97.4,0-1.5.4-3,.6-4.5.3-1.8.8-3.8,3.1-3.4,1.7.4,1.6,2.3,1.5,3.9-1.8,20.9-4.5,41.8-9.7,62.2-3.9,15.2-7.5,30.5-11.2,45.7-6.9,17.3-12,35.2-19.2,52.4-9.9,23.5-20.9,46.4-34,68.2-3.8,6.3-5.4,11.9.3,18.4,9.8-6,19.9-12.2,29.9-18.4,12.5-8.6,25.1-16.8,39.7-21.5h0Z"/>
            <path class="st74" d="M992.9,754.6c-2.9-10.5-2.2-21.5-3.3-32.2-2.9-28.7-7.6-57.1-12.5-85.4,5.1-3.3,8-9.1,13.6-11.9,3.3-1.6,1-5.7,2.6-8.3,6.7,4,9.6,10.9,12,17.6,11.6,32,12.8,64.6,4.2,97.5-2.5,9.5-8,17.4-16.6,22.7h0Z"/>
            <path class="st10" d="M1088.5,509.8c7.3,9.7.2,16.2-5.5,22.4-6.6,7.4-10.7,16.6-16.7,23.9-8.9,10.8-14.9,23.2-23.4,34-1.3,1.6-2.3,4.8-5.1,3.4s-1.9-3.9-1.6-6.2c.2-1.9,1.3-4-.6-5.7,1.6-24.1,7.6-46.8,22.4-66.2,8.9-11.5,18.7-12.8,30.5-5.6h0Z"/>
            <path class="st15" d="M957.9,789.7c0,5.7,0,11.4-.2,17.2,4.2,3.6,3,6.8,1.3,9.7-5.2,8.7-8.9,18-24,22.9-2.7-.3-5.4-.6-8.1-.9-10-8.5-6.2-16.6-9.3-24.8-2.9-7.9,3.4,14.4-.3,6.5-5.3-20.3-.7-40.7-6-61-.5-1.8-.6-3.6-.9-5.3,23.5,9.4,20.5-8,31,5.2,8.2,10,13.7,20.3,16.5,30.5h0Z"/>
            <path class="st60" d="M1076.9,769.5c-13,7.5-25.9,15.1-39.6,21.4,8.8-20.6,20-39.6,37.7-53.9,7.3-5.9,15.1-10.9,24.6-12.6,3.6,12.6-4.7,21.1-11.1,29.7-3.9,5.2-9.3,9.1-11.6,15.4h0Z"/>
            <path class="st96" d="M972.6,641c6.8,33.8,11.6,67.9,13.6,102.3,0,2.3,1.7,5.1-1.6,6.6-15.1-31.2-25.5-63.7-29-98.4.7-.3,1.5-.3,2.2,0,7.3,4.1,7.7,3.9,10.6-4.5.9-2.4.2-5.9,4.2-6.1h0Z"/>
            <path class="st54" d="M972.6,641c-3.1,3.1-1.9,7.6-3.8,11.1-3.7,6.7-4.7,7-10.2,1.7-.9-.9-2-1.5-2.9-2.3-2-10.1-1.6-20.1.8-30,1.7-7.1,5.2-13,12.9-14.2,7.6-1.1,15.1-.3,20.4,6.5.9,1.2,2.2,2,3.3,3,3.2,5.6,1.7,9.6-4.4,11.8-2.5.9-4.4,2.3-5.2,5.1-.9,3.6-3.6,3.8-6.6,3.2-.9-3.9-1.8-7.8-2.8-11.6-.4-1.4-1-3.2-2.9-2.8-1.8.4-1.9,2.3-1.7,3.7,1.2,5,2.2,9.9,3.1,14.8h0Z"/>
            <path class="st50" d="M1116.2,659.3c-3.1-1.2-5.2-3-4.5-6.7.8-4.1,3.9-5.3,7.3-4.6,3.2.6,5.4,3.2,4.6,6.6-.8,3.7-3.6,5.1-7.4,4.7Z"/>
            <path class="st77" d="M1045.7,735.9c-1.3-.7-3.6-.2-3.3-2.9.2-1.5,8.7-8.3,9.6-7.6,2,1.5,2.7,3.8,2,6-1.2,3.8-4.1,5.4-8.3,4.5h0Z"/>
            <path class="st66" d="M1103.6,675.4c-1.8-.7-3.3-1.8-3-3.9.3-2.5,2.2-3.4,4.3-3.2,1.9.2,3.2,1.7,3,3.7-.3,2.5-2.1,3.3-4.3,3.4Z"/>
            <path class="st35" d="M944.9,841.3c6.5-10.7,12.5-21.5,14.8-34,2-2.9,4.3-4.7,8.1-3.2,1.4.5,2.9.6,4.4.9,12.4,2.4,14.6,7.4,8,18.7-2.4,4.1-5,8-7.6,12-9.3,1.9-18.5,3.7-27.7,5.6Z"/>
          </g>
          <path class="st101" d="M871.8,1143c1.7-4.8,3.4-9.5,5.1-14.3.9,10.9-4.2,20.4-7.2,30.4-.8,2.6-1.4,5.3-2.5,7.9-.8,2-.8,5.5-4.7,3.8,3.3-9.2,8-18,9.3-27.8h0Z"/>
          <path class="st79" d="M216.6,972.8c3.6,21.9,9.5,43.1,16.8,64-.1,2.8.1,5.7-2.5,7.7-7.9-24.1-14.2-48.6-19.9-73.2-.5-2.2-1.2-4.3-1.8-6.5.7-3.6-1.2-6.8-1.3-10.3,0-1.6-2.2-4.3,1.2-4.7,2.8-.3,2.7,2.5,3,4.3,1.5,6.2,2,12.7,4.5,18.7Z"/>
          <path class="st55" d="M366.9,812.5c-5.2-1.6-5.4-7-7.5-10.8-7.9-14.5-15.8-29.1-22.2-44.3.3-9.7-3.6-18.6-6.1-27.6-1-3.6-2.5-7-2.3-10.9.7-14.6-1.1-28.7-7.2-42.2-1.8-4-2.2-7.9,2.6-10.3,9.3,8.7,15.6,19.8,23.5,29.7,2.2.6,3,2.5,4.1,4.3,19.7,32.4,27.9,66.9,19,104.5-.7,2.6-.7,5.9-3.9,7.6Z"/>
          <path class="st6" d="M324.2,666.3c-5.5,6.8.6,12.5,2.5,18,4,11.6,4.1,23.4,4.1,35.3s-.8,4.5.8,6.5c6.1,8.2,3.5,19.2,9,27.7,1.5,2.3-.9,3.5-3.3,3.4-7.4-10.5-12.3-22.3-18.1-33.6-18.4-35.3-36.5-70.8-54.7-106.1-1-1.9-2.1-5-4.8-3.5-2.5,1.5-.2,4,.5,5.9.6,1.6,1.5,3.2,2.2,4.8-2-.9-4-1.8-6-2.7-.2-.7-.6-1.5-.4-2.2.5-3.2-.5-7.6,2.2-9.2,3.1-1.7,5.7,2.2,8.2,4,21.4,15.1,41.3,31.4,57.8,51.7h0Z"/>
          <path class="st5" d="M386.7,710.9c-.6-1.7-1.2-3.3-1.8-5,.4-3.4.7-6.7,1.1-10.1,2.5,4.9,2.8,10,.7,15.1h0Z"/>
          <path class="st22" d="M439.5,983c-10.6-8.3-23-13.3-35-19.1,3-1.9,6.1-.7,8.6.6,4.2,2.1,8.6,2.8,13,3.7,12.5,2.5,12.5,2.4,13.4,14.8Z"/>
          <path class="st67" d="M778,793.1c-4.1-.8-6.2-3.5-5.5-7.5.7-4.1,3.8-6,7.8-5.2,3.7.8,6.7,2.9,5.6,7.5-.9,3.9-3.5,5.8-7.9,5.2h0Z"/>
          <path class="st83" d="M639.3,774.7c-1.1,3.5-3.6,4.9-7,4.3-3.2-.5-5-2.7-4.4-5.9.7-3.5,3.5-5,6.8-4.4,3.3.5,4.6,2.9,4.6,6h0Z"/>
        </g>
        <g>
          <path class="st24" d="M128.9,253.7c8.3,1,14.4-3.7,15.5-11.8,1.1-8.2-4.4-15.6-12.3-16.4-7.4-.8-14.8,4.9-15.9,12.3-1.2,7.8,4.5,15,12.7,15.9Z"/>
          <g>
            <g>
              <path class="st4" d="M316.3,318.9s78.7,87.1,86.5,192.6"/>
              <path class="st55" d="M301.9,329c-2.7-1.6-4.5-4.4-5-7.5-1.1-4.5-1.2-9.9-1.8-11.9v-.3c-2-1.5-4.3-2.4-6.8-2.7-5.4-.8-10.8-1.2-16.2-1.2-13.4-.3-30.9.1-50.6-2-39.3-4.1-87.3-18.6-126.3-68.2-41.9-53.2-32.7-130.6,20.7-172.7,53.4-42,130.9-32.8,172.9,20.6,15.7,19.5,27,42.1,33.3,66.3,13.1,51.6-1.7,97.5-7.2,124.5-1.8,6.2-2.4,12.6-1.7,19,.1.5.2,1,.4,1.5l.7.4,3.3,1.3c2.9,1,5.7,2.3,8.3,3.9,2.2,1.3,3.9,3.4,4.6,5.8.2.2.4.4.5.6.1,2.8-.7,5.5-2.4,7.8-1.6,2.3-3.4,4.3-5.5,6.2-4,4-8.8,7-14.2,8.9-2.2.9-4.7.7-7-.3h0Z"/>
              <path class="st16" d="M299.2,312c-1.6-.2-3-1-4-2.3-1.3-1.7-1.3-4-.1-5.8,1.3-1.7,3.5-2.4,5.5-1.6.9-.4,1.7-1,2.5-1.6.9-.7,1.6-1.4,2.3-2.3-.3-2.2.9-4.3,2.9-5.1,2-.8,4.4-.2,5.7,1.6.5.7.9,1.4,1.1,2.2.4,2.1,0,4.3-1.2,6-.9,1.4-1.9,2.6-3.1,3.7-2.3,2.3-5.2,4-8.3,5-1.1.3-2.2.4-3.3.2h0Z"/>
            </g>
            <g>
              <path d="M272.2,161.3c-1.7-1.3-3.5-.5-5.1.6-3,2.1-5.9,4.5-9.4,5.9-4.2,1.7-4.7,1.3-4.3-3.1,1.7-18.6.4-36.8-6-54.5-.9-2.6-2.1-5-3.9-7.2-3.4-4.1-8.2-5.5-13.1-6.5-13.8-2.9-25.6,1.8-36.4,10.1-2.8,2.2-5.5,4.2-9.1,5.2-6.9,2-13.4,5.4-17.6,11.7-1.2,1.8-2.6,2.5-4.6,2.8-8.6,1.2-17,3.3-24.5,8-9.1,5.8-13.9,13.8-12.5,24.8.9,7.2,3.8,13.7,7.9,19.8,8.7,12.9,18.7,24.6,30.3,34.9,3.9,3.5,8.2,6.6,13.4,8.1,5.7,1.6,10.3-1,12-6.7,1.4-5.1,2.8-10.1,4.3-15.2.3-1,.3-2.4,1.8-2.4s3.7-.4,5.4-1c1.1-.4,1.7-.2,1.4,1.2-.5,2.5-1.4,4.6-3.5,6.2-1.7,1.2-3.2,2.6-4.8,3.9-1.5,1.3-2.5,2.8-1.8,4.9.7,2.1,2.6,2.5,4.5,2.7.6.1,1.2.1,1.8,0,7.1-1,13.1-3.9,16.8-10.5.2-.4.3-1.1,1-1,.5.1.6.6.8,1,.7,1.5,1.5,3.1,1.9,4,2.4,5.3,5.1,9.7,7.6,14.1.8,1.5,1.8,2.9,2.8,4.3,4.7,6.6,12.4,8.6,19.6,5.1,3.6-1.7,6.4-4.4,8.8-7.3,2.7-3.3,3.8-7.3,3.4-11.6-.4-3.7-1.5-7.2-2.7-10.8-1.8-5.6-3.8-11.2-5.7-16.8-.5-1.3-.4-2.1,1.2-2.3,2.5-.4,4.7-1.8,6.8-3.2,5.5-3.5,10.1-7.7,12.2-14.1.6-2,1-3.9-.7-5.1h0ZM188.5,200.1c-1.2,3.7-2.2,7.5-3.1,11.3-1.6,6.4-4.1,7.5-9.9,4.4-5.9-3.2-10.8-7.7-15.5-12.5-8.8-8.9-16.5-18.8-23.5-29.2-1-1.5-1.6-3.2-2.3-4.8-2.8-5.8-4.6-11.9-3.1-18.4,1.5-6.3,5.9-10.5,11.4-13.5,5.7-3.1,11.9-4.8,18.3-6,1.5-.3,1.5.4,1.3,1.4-1.6,6.6-1.2,13.1.3,19.6,1.7,7.3,4.5,14.2,8.4,20.7,2,3.3,2.9,7.1,4.3,10.7,2.4,5.9,6.1,10.3,11.9,12.7,1.9.9,2,1.9,1.5,3.6h0ZM200,189.8c.4,1.9-.5,2.4-2,2.7-6.1,1-11-1.1-15-5.7-2.7-3.2-3.4-7.4-5.1-11-1.5-3.2-2.9-6.5-4.7-9.6-.8-1.3-.8-2.4.2-3.6,1.8-2.2,3.4-4.5,5.9-6,.5,0,.8.1.8.7-.8,2.1.5,3,2.1,3.7,2.2.9,4.7,0,5.9-1.8,1.4-2.3,1.3-2.2,2.9.1,2.3,3.2,4.2,6.6,5.8,10.2,1.9,4.2,2.2,8.7,2.4,13.2.2,2.3.4,4.7.8,7.1h0ZM246,171.6c-2.2,3.2-1.7,6.5-.3,9.7,2.8,6.5,4.8,13.4,7.1,20.1,1.1,3.2,2,6.5,2.9,9.8,1.8,6.5-1,11.2-6.1,14.9-.2.2-.5.3-.7.5-6.5,5.3-12.7,2.2-16.6-3.5-4-5.9-7.1-12.3-10-18.8-1.5-3.2-3.1-6.4-4.6-9.6-2-4.2-5.6-6.1-10.2-5.3-1.5.3-1.8-.1-1.8-1.4-.2-3.5-.5-6.9-.7-10.4-.4-6.5-2.9-12.2-6.2-17.6-1.2-2-2.7-3.7-3.9-5.6-5-7.5-12.6-7.4-19.3-2-1.5,1.3-3,2.6-4.3,4.2-.8,1-1.4,1.3-1.9-.3-2.3-7.4-3.5-14.9-1.4-22.5,1.7-6,5.2-10.7,10.8-13.8,8.3-4.6,17.1-6.6,26.5-4.6,7.6,1.6,14.3,5.1,20.2,10.1,1.3,1.1.6,1.5-.4,1.9-3,1.3-5.6,3-7.5,5.7-2.9,4-2.5,9.7.6,14.1,4.6,6.5,10.6,11.3,17.1,15.7,3.5,2.4,6.5,5.4,10.5,7,.5.3.8.8.2,1.7h0ZM239.1,151.1c2.1,2.8,3.1,6.1,4.1,10.2-7.5-5.2-14.5-9.9-19.9-16.7-1-1.3-1.7-2.8-2.1-4.4-.1-.4-.1-1,.3-1.2.2-.1.7.1,1,.3,1.4,1,2.8.8,4.2,0,3.1-1.8,3.1-4.9.1-6.7.1-.1.1-.2.2-.3,2.2-.8,3.6,0,4.3,2.3,1.6,6.1,4.1,11.6,7.8,16.5h0ZM242.9,146.6c-3.2-4.4-5.1-9.4-6.5-14.5-1.8-6.5-6.3-10.8-11.5-14.4-6.9-4.9-14.7-7.9-23.3-8.6-.4,0-.7,0-1.1-.3s-.4-.2-.8-.6c5.4-3.1,10.6-6,16.7-7.1,6.7-1.3,13.1-.3,19.3,2.3,3.8,1.6,5.5,4.9,6.9,8.3,4.9,11.9,6.3,24.4,6.7,37.1.1,3.1,0,6.1-.2,9.2-.9-.2-1-.9-1.2-1.4-1.1-3.6-2.8-6.9-5-10h0Z"/>
              <path class="st21" d="M204.1,209.1c-1.1.6-2.2,1-3.4,1.1-.3,0-.6-.2-1-.3.2-.3.3-.7.6-.9,4.5-2.5,6.3-6.6,7.2-11.4.3-1.5.6-2.9,2.6-2.4,1.7.4,2.6,1.9,2.2,3.7-1.2,4.6-4.1,7.9-8.2,10.2h0Z"/>
              <path class="st45" d="M180.2,157.2c-.3-.2-.5-.4-.8-.7,1-1.4,2.7-1.6,4.1-2.2-.9,1.2-2.7,1.4-3.3,2.9Z"/>
              <path class="st21" d="M262.4,171c-3.1,1.4-6.2,2.7-9.7,2.5-1.2-.1-1.9.9-2.2,1.8-.3,1.1-.3,2.3.5,3.1.7.8,1.6.2,2.5-.1,4.5-1.6,8.2-4.2,11.4-7.7.4-.5.8-1.1,1.4-2-1.8.8-2.9,1.5-3.9,2.4Z"/>
            </g>
          </g>
          <path class="st58" d="M1038.5,529.3c-7.3-.9-14,4.4-14.8,11.5-.7,6.5,5.7,14.1,12.3,14.6s12.8-4.7,13.8-11.7c1-7.9-3.3-13.5-11.3-14.4h0Z"/>
          <path class="st71" d="M852.6,548.7c30.7-30.4,58.8-62.9,84.9-97.3-28.5,32.3-56.7,64.9-84.9,97.3Z"/>
          <path class="st85" d="M995.2,592c.4-6.5-2.4-10.8-8.9-11.6-6-.8-10.1,2-11.1,8.3-1,6.5,2,11,8.2,12.1,6.4,1.1,10.4-2.4,11.8-8.8Z"/>
          <path class="st86" d="M932.3,563.4c7.4.8,10.8-1.3,11.6-6.5.8-5.1-1.7-8.3-6.9-9.3-5.7-1-9.3,1.8-9.9,7.1-.5,4.7,2,8.4,5.2,8.7h0Z"/>
          <path class="st61" d="M841.2,538.7c5.6,1.8,7.8-.3,8.4-6.1.6-5.5,0-8.5-6.5-9.2-6.2-.7-7.4,1.8-8,7-.4,5-.5,8.9,6.1,8.3Z"/>
          <path class="st99" d="M886.8,391c-9.1,13.8-18.1,27.7-27.2,41.5.8.6,1.7,1.1,2.5,1.7,9.1-13.8,18.1-27.6,27.2-41.4-.8-.6-1.6-1.2-2.5-1.8h0Z"/>
          <path class="st40" d="M880.4,606.9c10.8-8.5,21.5-17.1,30.6-27.6-.5-.5-1-1.1-1.4-1.6-10.2,9.1-20.5,18.3-30.7,27.4.4.6,1,1.2,1.5,1.8h0Z"/>
          <path class="st92" d="M905.8,375.6c3.1.4,5.3-.8,5.9-3.7.6-2.9-1-5-4-5.5s-5.2.7-5.8,3.7c-.7,3,1.1,4.7,3.9,5.5h0Z"/>
          <path class="st97" d="M868.2,560.8c-.3,2.7.7,4.7,3.4,5.2s4.6-1.1,4.9-3.7c.4-2.8-1.5-4.3-4.1-4.7-2.3-.4-3.8.7-4.2,3.2h0Z"/>
          <path class="st76" d="M818.1,506.9c3.2.1,4.3-1.3,4.5-3.6.2-2.3-1-4-3.3-4.1-2.4-.2-3.7,1.3-3.9,3.6-.3,2.4,1.2,3.5,2.7,4.1Z"/>
          <path class="st64" d="M863.2,638.3c0-2.1-1-3.3-3-3.4-2,0-3.3,1.1-3.4,3,0,1.9,1,3.3,3,3.3,1.9,0,3.2-1,3.4-2.9h0Z"/>
          <path class="st69" d="M210.5,312.5c5.7.1,10.3-2.7,11.1-8.8.9-6.5-2.9-11.4-9.4-12.1s-10.7,3.2-11.4,10c-.6,6.6,2.8,10,9.7,10.9h0Z"/>
          <path class="st82" d="M323.4,541.4c-.5,5.8,2.5,9.9,8.2,10.6,6.1.8,10.6-2.5,11.2-9,.5-6-3-10-8.8-10.5-5.5-.4-9.8,2.3-10.6,8.9h0Z"/>
          <path class="st0" d="M242.5,598c6.2,2,8.5,0,9.2-6,.7-6-.6-8.6-7-9.2-5.6-.5-8.1.5-8.6,6.6-.5,5.6-.5,9.8,6.4,8.6h0Z"/>
          <path class="st62" d="M405.7,437.8c-9.4-21.3-18.8-42.6-28.2-63.9-1,.4-2,.9-3,1.3,9.4,21.4,18.9,42.8,28.3,64.2.9-.5,1.9-1.1,2.9-1.6h0Z"/>
          <path class="st9" d="M394,534.7c-11-14.3-21.2-29.2-32.1-43.6,7.6,16.7,18.4,31.2,32.1,43.6Z"/>
          <path class="st18" d="M415.8,324.2c4,.2,7-1,7.5-5.4s-1.8-7.4-6.1-8.1c-4.8-.8-6.9,2.1-7.3,6.5-.5,4.3,1.8,6.5,5.9,7Z"/>
          <path class="st53" d="M823.6,428.7c-3.4-.2-5.5,1.3-6.1,4.7-.5,2.9.7,5.2,3.5,6,3.3,1,5.6-.7,6.4-4,.9-3.3-.5-5.6-3.8-6.7h0Z"/>
          <path class="st58" d="M438.9,586.2c-.7,4.1,1.1,6.2,4.3,6.6,2.7.3,4.9-1,5.3-4.2.4-3.3-.9-5.6-4.3-6.1-3-.3-4.7,1.5-5.3,3.7Z"/>
          <path class="st13" d="M333.7,416.8c-2.8.2-5,1.1-5.4,4.3-.3,3.4,1.3,5.7,4.7,5.8,2.8.1,4.6-1.8,4.9-4.8.4-3.2-1.6-4.5-4.2-5.3Z"/>
          <path class="st52" d="M420.9,602.2c-4.8-7-11-12.6-17-18.5-.8.7-1.5,1.4-2.3,2.1,5.7,6.1,11.5,12.2,17.2,18.3.8-.7,1.4-1.3,2.1-1.9h0Z"/>
          <path class="st58" d="M397.9,493.8c-.1,3,1.4,5.1,4.1,5.6,2.5.5,4.2-1.1,4.7-3.6.6-3.1-.6-5-3.8-5.3-2.5-.2-4.2.9-5,3.3h0Z"/>
          <path class="st87" d="M360.2,344.3c-.2,4.5.5,8.7,5.9,12.7-.8-5.9-2.6-9.6-5.9-12.7Z"/>
          <path class="st58" d="M847.2,584.5c2.3.6,3.5,0,4-1.6.6-1.9-.3-3.5-2.2-3.8-1.4-.2-2.6.8-2.9,2.4-.4,1.6.3,2.6,1.1,3h0Z"/>
          <g>
            <path class="st2" d="M270.5,543.4s60.2,54.3,131.7,58.1"/>
            <g>
              <path class="st74" d="M276.4,528.7c1.2,1.9,1.6,4.1,1.2,6.3-1,5-3.1,9.6-6.2,13.6-1.4,2-3,3.9-4.9,5.6-1.8,1.8-4.1,2.8-6.6,3.1-.2,0-.4-.3-.6-.4-2.3-.4-4.3-1.6-5.7-3.5-1.7-2.2-3.2-4.5-4.5-7l-1.6-2.7-.4-.6c-.5,0-.9-.2-1.4-.2-5.8.2-11.4,1.5-16.7,3.8-23.4,8-62.6,26.6-110,21.1-22.3-2.7-43.8-10.2-63-21.8-52.5-31.2-69.8-99-38.7-151.5,31.2-52.5,99-69.8,151.5-38.7,48.7,28.9,67.3,69.9,75.6,104.4,4.2,17.2,5.9,32.9,7.7,44.8.6,4.8,1.6,9.6,3,14.3.5,2.1,1.6,4.1,3.1,5.6h.2c1.8.3,6.6-.2,10.8.2,2.8,0,5.5,1.4,7.2,3.6h0Z"/>
              <path class="st11" d="M261,528.3c.3,1,.4,2,.3,3-.5,2.9-1.7,5.6-3.4,8-.8,1.2-1.8,2.3-2.9,3.2-1.4,1.3-3.3,1.9-5.2,1.8-.7,0-1.5-.3-2.1-.7-1.7-.9-2.6-2.9-2.1-4.9.5-1.9,2.2-3.2,4.2-3.2.7-.7,1.3-1.5,1.8-2.3s.8-1.6,1.1-2.4c-.9-1.7-.6-3.8.8-5.1,1.4-1.3,3.5-1.6,5.1-.6,1.1.6,2,1.8,2.4,3.2h0Z"/>
            </g>
          </g>
          <g>
            <path class="st3" d="M913.2,377.8s-38.9,89-131.5,147.3"/>
            <g>
              <path class="st103" d="M902.4,369.1c.5-2.8,2.3-5.2,4.7-6.6,3.4-2.4,7.9-4.2,9.4-5.3h.2c.6-2.2.7-4.4,0-6.5-1-4.8-2.4-9.4-4.1-14-4-11.3-9.9-26-14.3-43.1-9-34.3-12-79.2,17.4-127.7,31.6-52.2,99.6-69,151.8-37.4,52.2,31.6,69,99.6,37.4,151.8-11.4,19.3-26.8,36-45.2,49-39.2,27.3-82.5,29.4-106.9,33.3-5.8.4-11.4,2-16.5,4.5-.4.2-.8.5-1.2.8v.7c0,0-.2,3.2-.2,3.2,0,2.8-.2,5.5-.7,8.3-.4,2.3-1.6,4.3-3.4,5.7,0,.2-.2.4-.3.6-2.3,1-4.9,1.1-7.3.4-2.4-.6-4.7-1.5-6.9-2.6-4.6-2.1-8.7-5.2-11.9-9.1-1.6-1.6-2.3-3.8-2.1-6h0Z"/>
              <path class="st57" d="M915.8,361.4c-.3-1.4,0-2.9.6-4.1,1-1.6,3-2.4,4.8-1.9s3.1,2.2,3.1,4.1c.6.6,1.4,1.2,2.1,1.6.8.5,1.7.9,2.7,1.2,1.7-1,3.9-.6,5.2.8,1.3,1.5,1.5,3.6.4,5.3-.4.6-.9,1.2-1.5,1.6-1.6,1-3.6,1.3-5.5.9-1.4-.3-2.8-.8-4.1-1.5-2.7-1.2-5-3.1-6.8-5.4-.4-.7-.8-1.6-1-2.6h0Z"/>
            </g>
          </g>
          <path class="st58" d="M1043.6,707.2c-7.3-.9-14,4.4-14.8,11.5-.7,6.5,5.7,14.1,12.3,14.6,6.6.5,12.8-4.7,13.8-11.7,1.1-7.9-3.3-13.4-11.3-14.4h0Z"/>
          <path class="st58" d="M195.2,665.6c-7.3-.9-14,4.4-14.8,11.5-.7,6.5,5.7,14.1,12.3,14.6s12.8-4.7,13.8-11.7c1-7.9-3.3-13.5-11.3-14.4h0Z"/>
          <path class="st58" d="M1179.3,611c-7.3-.9-14,4.4-14.8,11.5-.7,6.5,5.7,14.1,12.3,14.6,6.6.5,12.8-4.7,13.8-11.7,1-7.9-3.3-13.4-11.3-14.4h0Z"/>
        </g>
      </g>
      <circle class="st34" cx="968.3" cy="1140.1" r="349.6"/>
      <circle class="st7" cx="605.1" cy="1119.9" r="237.3"/>
      <circle class="st8" cx="328.6" cy="1128.7" r="126.6"/>
    </g>
  </g>
  <g class="st28">
    <g class="st28">
      <text class="st29" transform="translate(25.8 431.3) rotate(29.8)"><tspan x="0" y="0">P</tspan></text>
    </g>
    <g class="st28">
      <text class="st29" transform="translate(56.3 448.8) rotate(29.8)"><tspan x="0" y="0">G 1</tspan></text>
    </g>
    <g class="st28">
      <text class="st27" transform="translate(131.1 491.6) rotate(29.8)"><tspan x="0" y="0">8</tspan></text>
    </g>
    <g class="st28">
      <text class="st25" transform="translate(160.8 509) rotate(29.8)"><tspan x="0" y="0">.</tspan></text>
      <text class="st29" transform="translate(173.9 516.4) rotate(29.8)"><tspan x="0" y="0">1</tspan></text>
    </g>
  </g>
  <g class="st28">
    <g class="st28">
      <text class="st26" transform="translate(954.4 229.8) rotate(29.8)"><tspan x="0" y="0">5</tspan></text>
      <text class="st25" transform="translate(982 245.6) rotate(29.8)"><tspan x="0" y="0">.</tspan></text>
      <text class="st29" transform="translate(995 253.1) rotate(29.8)"><tspan x="0" y="0">1</tspan></text>
    </g>
  </g>
</svg>