<?xml version="1.0" encoding="utf-8"?>
<!-- Generator: Adobe Illustrator 22.1.0, SVG Export Plug-In . SVG Version: 6.00 Build 0)  -->
<svg version="1.1" id="图层_1" xmlns="http://www.w3.org/2000/svg" xmlns:xlink="http://www.w3.org/1999/xlink" x="0px" y="0px"
	 viewBox="0 0 515 390" style="enable-background:new 0 0 515 390;" xml:space="preserve">
<style type="text/css">
	.st0{fill:#918FAE;}
	.st1{fill:#FFD673;}
	.st2{fill:#FEFEFE;}
	.st3{fill:#FDFDFE;}
	.st4{fill:#FDFDFD;}
	.st5{fill:#040147;}
	.st6{fill:#030047;}
	.st7{fill:#040148;}
	.st8{fill:#050248;}
	.st9{fill:none;stroke:#1C1C1C;stroke-miterlimit:10;}
	.st10{clip-path:url(#SVGID_2_);fill:#FFD673;}
</style>
<g>
	<path d="M170.5,175.2c-0.5-0.7-0.9-1.4-1.4-2c-0.4-0.5-0.3-0.7,0.2-1c7.9-5.5,15.9-11,23.8-16.6c1.4-1,2.8-1.9,4.2-3
		c0.5-0.4,0.8-0.3,1.1,0.2c1,1.5,2.1,3,3.1,4.4c-0.1,0.7-0.4,1.3-1.1,1.6c-0.6-0.5-1-1.2-1.4-1.8c-0.3-0.5-0.7-1-1-1.5
		c-0.3-0.5-0.6-0.5-1.1-0.2c-1.5,1.1-3.1,2.2-4.6,3.2c-4.5,3.2-9.1,6.4-13.7,9.5c-2.1,1.5-4.2,2.9-6.3,4.4c-0.8,0.5-0.8,0.6-0.2,1.4
		c5.6,8.1,11.3,16.1,16.9,24.2c0.6,0.9,0.6,0.9,1.6,0.3c0.6-0.4,1.1-0.8,1.7-1.2c0.4-0.2,0.6-0.5,0.8-0.9
		c3.1-7.1,7.3-13.6,12.3-19.6c1.1-1.3,2.3-2.5,3.5-3.8c0.5-0.5,0.6-1,0.1-1.5c-0.1-0.1-0.1-0.2-0.2-0.4c0.2-0.8,0.8-1,1.5-1.1
		c0.7,1.2,0.7,1.2,1.7,0.2c10.9-9.8,23.5-16,37.9-18.6c3.5-0.6,7-1,10.6-1c4.8,0,9.5,0.4,14.1,1.8c4.6,1.4,8.3,4.4,11.6,7.8
		c4.4,4.6,7.9,9.8,11.6,14.9c2,2.6,4,5.2,6.4,7.5c3.7,3.5,8,3.5,12,1.4c3.3-1.7,5.6-4.5,7.8-7.5c3.1-4.4,5.4-9.3,7.8-14.1
		c1.2-2.5,2.3-5.2,4-7.4c0.3-0.4,0.1-0.6,0-0.9c-2.1-5.8-4.2-11.6-6.3-17.5c-2.7-7.5-5.4-15.1-8.1-22.6c-0.2-0.7-0.1-0.8,0.5-1.1
		c18.3-6.5,36.6-13.1,55-19.7c0.2-0.1,0.5-0.1,0.6-0.3c0.1,0,0.1,0,0.2,0c0.9,2.5,1.8,4.9,2.7,7.4c6.4,17.8,12.8,35.7,19.2,53.5
		c3.6,10,7.1,20,10.8,29.9c0.3,0.7,0.2,1-0.6,1.3c-9,3.2-18,6.4-27,9.6c-9.3,3.3-18.7,6.7-28,10c-0.6,0.2-0.8,0.1-1.1-0.5
		c-2.2-6.3-4.5-12.6-6.8-18.9c-0.1-0.2-0.1-0.3-0.2-0.5c-0.3,0.2-0.3,0.5-0.4,0.8c-5,12.8-13.7,22.1-26.5,27.3
		c-0.9,0.4-1.9,0.7-2.9,1c-0.4,0.1-0.5,0.3-0.5,0.7c0.1,0.6,0.1,1.1,0.2,1.7c0.1,0.4,0,0.5-0.4,0.6c-8.1,1.6-16,1.5-23.6-2.1
		c-7-3.3-12.4-8.3-16.2-15c-0.1-0.2-0.2-0.4-0.3-0.6c0,0,0,0-0.1,0c-0.8,1-1.5,3.1-1.6,5.1c-0.3,4.4,0.5,8.7,1.7,12.8
		c1,3.7,2.4,7.3,4,10.8c0.3,0.6,0.1,0.8-0.5,0.7c-0.4,0-0.8-0.1-1.3,0c0.8,1.7,1.6,3.4,2.4,5.1c6.8,14.5,12.6,29.3,17.7,44.4
		c5.5,16.2,10.1,32.6,14,49.3c1.4,6.1,2.9,12.3,4.9,18.3c0.7,2,1.5,3.9,2.7,5.6c0.3,0.4,0.2,0.6-0.1,0.9c-1.7,1.7-3.4,3.5-5.1,5.2
		c-0.1,0.1-0.1,0.1-0.2,0.2c-0.3,0.3-0.5,0.6-0.1,1c0.4,0.4,0.6,0.1,0.9-0.2c1.5-1.5,3-3.1,4.5-4.6c0.1-0.1,0.2-0.2,0.3-0.4
		c0.7-0.7,0.7-0.7,1.5,0c0.4,0.4,0.4,0.6,0,0.9c-1.4,1.4-2.8,2.8-4.1,4.2c-0.3,0.3-0.7,0.6-0.3,1c0.4,0.4,0.7,0.1,1-0.2
		c1.4-1.4,2.7-2.8,4-4.2c0.4-0.4,0.7-0.6,1.3-0.2c1.4,0.9,3,1.3,4.6,1.6c5,0.7,8.2,3.7,10.4,8c0.4,0.7,0.6,1.5,0.9,2.2
		c0.2,0.6,0.1,0.8-0.5,1c-6.9,1.8-13.7,3.6-20.6,5.5c-9.3,2.5-18.5,5-27.8,7.5c-0.6,0.2-1,0.4-1.3-0.5c-5.8-19.4-12-38.7-18.5-58
		c-5.2-15.5-10.7-30.9-16.6-46.2c-0.6-1.5-1.2-3.1-1.9-4.8c-0.5,1.5-1,3-1.5,4.4c-4.9,13.8-10.5,27.2-17.9,39.9
		c-3.3,5.8-7.2,11.1-11,16.6c-4.5,6.7-8.9,13.4-12.1,20.8c-1.2,2.8-2.3,5.7-2.7,8.7c-0.1,0.4-0.2,0.5-0.6,0.5
		c-2.4,0.1-4.8,0.2-7.2,0.3c-0.2,0-0.4,0-0.6,0c-0.4,0-0.7,0.2-0.7,0.6c0,0.5,0.3,0.5,0.7,0.5c1.5-0.1,2.9-0.2,4.4-0.2
		c1.1-0.1,2.2-0.1,3.3-0.2c0.4,0,0.5,0,0.5,0.4c0,0.1,0,0.1,0,0.2c0,1.2,0,1.1-1.1,1.2c-1.9,0.1-3.7,0.2-5.6,0.3
		c-0.4,0-0.8,0.1-0.7,0.6c0,0.5,0.4,0.5,0.8,0.5c2.1-0.1,4.1-0.2,6.2-0.3c0.4,0,0.7,0,0.8,0.5c0.3,1.6,1.2,2.9,2.1,4.2
		c1.4,1.8,2.6,3.7,2.9,6.1c0.5,3.4-0.1,6.6-1.5,9.6c-0.3,0.6-0.5,0.3-0.8,0.1c-4.7-2.5-9.4-4.9-14-7.4
		c-10.2-5.4-20.4-10.7-30.5-16.1c-0.6-0.3-0.7-0.5-0.4-1.1c11.3-23.3,22.2-46.7,32.5-70.5c6-13.8,11.8-27.7,16.9-41.8
		c0.3-0.8,0.6-1.6,0.9-2.6c-1,0.6-1.9,0.8-2.9,0.5c-0.1,0-0.2,0.1-0.3,0.2c-1.9,1.4-3.9,1.4-6,0.5c-0.5-0.2-0.9-0.2-1.4-0.1
		c-2.1,0.4-4.1,0.3-5.9-1c-0.2-0.1-0.4-0.2-0.6-0.2c-2.1,0.1-3.5-0.9-4.7-2.6c-0.7-1-1.2-2.2-1.6-3.4c-0.3-0.2-0.3-0.5-0.4-0.8
		c-0.6-2.2-0.8-4.3-0.9-6.6c-0.2-8,1.3-15.8,3.4-23.5c0.1-0.2,0.1-0.4,0.2-0.5c0.2-0.6,0-0.9-0.6-1c-1.3-0.2-2.6-0.5-3.9-0.8
		c-0.8-0.2-0.9-0.4-0.7-1.2c0.6-1.9,1.2-3.7,2-5.7c-0.5,0.4-0.9,0.7-1.3,0.9c-0.8,0.5-0.9,0.4-1.5-0.3c-1.7-2.5-3.5-5-5.2-7.5
		c-4-5.8-8.1-11.6-12.1-17.4C170.8,175.9,170.5,175.6,170.5,175.2z"/>
	<path class="st0" d="M79,323.1L79,323.1l-0.2,0c0-1.6,0-3.3,0-4.9c0,0,0.1,0,0.1,0C79.4,318.9,79.4,322.3,79,323.1z"/>
	<path class="st1" d="M170.5,175.2c1.9,2.7,3.9,5.5,5.8,8.2c4.1,5.9,8.3,11.9,12.4,17.8c0.3,0.5,0.5,0.6,1,0.2
		c0.5-0.4,1.2-0.8,1.8-1.3c-0.1,0.9-0.5,1.5-0.8,2.3c-0.5,1.4-0.9,2.7-1.4,4.1c-0.2,0.5-0.1,0.7,0.4,0.8c1.5,0.3,3,0.6,4.5,0.9
		c0.5,0.1,0.6,0.2,0.5,0.7c-1.4,4.7-2.5,9.4-3.1,14.3c-0.7,5.9-1.1,11.7,0.5,17.5c-11.4,0-22.7,0-34.1,0c-0.8,0-0.7-0.4-0.7-0.9
		c0-9.7,0-19.3,0-29c0-11.6,0-23.1,0-34.7c0-0.7,0.1-1,0.9-1C162.3,175.2,166.4,175.2,170.5,175.2z"/>
	<path d="M255.3,118.1c2.2-2.3,4.7-4,7.8-4.7c1.3-0.3,2.6-0.5,4-0.3c0.5,0.1,1-0.1,1.4-0.4c1.5-0.7,2.9-1.6,4.5-2.2
		c0.6-0.2,1.1-0.4,1.7-0.5c1.3-0.3,2.5-0.1,3.4,1.1c0.9,1.3,1.2,2.6,0.4,4.1c-0.4,0.7-1,1.3-1.6,1.9c-0.3,0.3-0.4,0.4-0.1,0.8
		c4,4.6,6,10.1,6.2,16.1c0.2,7.1-4,12.3-11.3,13.5c-3.6,0.6-7.1,0.3-10.4-1.2c-0.3-0.1-0.5-0.1-0.8,0c-5.1,2.2-10.6-1.4-11.1-6.4
		c0-0.1,0-0.2-0.1-0.5c-0.2,0.7-0.4,1.2-0.5,1.7c-1.4,4-4.2,7-7.6,9.4c-4.6,3.2-9.6,5.1-15.3,5.1c-5.8-0.1-10.6-2.2-13.7-7.3
		c-3.9-6.4-1.7-13.7,5-17.2c3.2-1.7,6.6-2.4,10.2-2.1c0.7,0,0.8-0.1,0.7-0.7c-0.3-3.2,0-6.4,1.2-9.4c2-5,8.7-10,16.7-7.4
		C249.6,112.6,252.5,114.6,255.3,118.1z"/>
	<path d="M79,323.1c0-1.6,0-3.3,0-4.9c0.2-2.9,0.7-5.7,1.9-8.3c2.1-4.6,5.8-7.3,10.7-8.3c7.3-1.5,14.1-0.5,20.5,3.5
		c4,2.5,7.1,5.9,9.7,9.8c4.4,6.5,7,13.6,8.9,21.2c0.4,1.6,0.7,3.2,1.1,4.9c1.9-0.7,3.8-0.9,5.8-0.4c3.2,0.8,5.4,2.8,7.1,5.4
		c2.4,3.5,3.7,7.5,4.7,11.5c1.3,5.2,1.9,10.5,2.3,15.9c0.1,0.6-0.1,0.8-0.8,0.8c-8.6,0-17.1,0-25.7,0c-9.3,0-18.7,0-28,0
		c-0.7,0-1.1-0.2-1.4-0.8c-5.9-11.6-11.1-23.5-14.5-36.1C80.2,332.6,79.3,327.9,79,323.1z"/>
	<path class="st1" d="M210.3,169.8c-0.5,0.3-1.1,0.6-1.5,1c-0.5,0.5-1.1,0.6-1.8,0.8c-3.4,0.9-6.7,0.5-10-0.3
		c-1.3-0.3-2.5-0.7-3.7-1.2c-0.9-0.4-0.9-0.6-0.4-1.3c2.3-3.2,4.6-6.3,6.9-9.4c0.2-0.2,0.3-0.4,0.6-0.5c0.4-0.5,0.8-1,1.1-1.5
		c2.2-3,4.4-6,6.6-8.9c0.6-0.8,0.6-0.8,1.3,0c2.2,2.7,4,5.6,4.7,9.1C215.1,162.2,214,166.4,210.3,169.8z"/>
	<path d="M407.3,374.2c-4.5,0-9.1,0-13.6,0c-0.6,0-0.7-0.2-0.8-0.8c-0.7-7.5-1-15-0.2-22.5c0.4-4.5,1.2-9,3.3-13.2
		c0.6-1.2,1.4-2.4,2.5-3.4c2.4-2.3,5.4-2.6,8.4-1c3,1.6,5,4.2,6.8,7c3.1,5,5,10.6,6.2,16.3c1.1,5.1,1.6,10.2,1.7,15.4
		c0,0.5,0,0.9,0.1,1.4c0.1,0.6-0.2,0.7-0.7,0.7c-3.8,0-7.6,0-11.4,0C408.7,374.2,408,374.2,407.3,374.2z"/>
	<path d="M372.8,374.2c-4.5,0-9.1,0-13.6,0c-0.7,0-0.8-0.2-0.7-0.9c1.4-6,4.3-11.3,8-16.2c1.6-2.2,3.5-4.1,5.7-5.7
		c1.6-1.1,3.3-2,5.3-2.1c2.2-0.1,3.9,0.8,5.3,2.4c1.8,2.2,2.6,4.8,3.2,7.5c0.9,4,1.1,8,1.2,12c0,0.6,0,1.2,0.1,1.8
		c0.1,0.8-0.1,1.1-1,1C381.8,374.1,377.3,374.2,372.8,374.2z"/>
	<path d="M151.6,190.8c0,5.9,0,11.7,0,17.6c-4.4-3.3-8.7-6.5-13.1-9.8C142.9,196,147.2,193.5,151.6,190.8z"/>
	<path class="st1" d="M411.6,151.7c0.1,0.3-0.2,0.4-0.4,0.4c-1.1,0.4-2.2,0.8-3.3,1.2c-0.6,0.3-0.6-0.3-0.7-0.6
		c-1.7-4.7-3.4-9.5-5.1-14.2c-0.6-1.8-1.3-3.6-1.9-5.4c-0.2-0.5-0.2-0.8,0.4-0.9c1-0.3,2-0.6,2.9-1c0.5-0.2,0.7-0.1,0.9,0.4
		c1.6,4.4,3.1,8.8,4.7,13.2c0.8,2.2,1.5,4.3,2.3,6.5C411.5,151.4,411.5,151.6,411.6,151.7z"/>
	<path class="st1" d="M391,95.7c2.8,0,4.9,2.2,4.9,5c0,2.7-2.3,5-5,4.9c-2.7,0-4.9-2.2-4.9-5C386,97.8,388.2,95.7,391,95.7z"/>
	<path class="st1" d="M400.8,114.6c-0.1,2.8-2.2,4.9-5.1,4.8c-2.7-0.1-4.8-2.3-4.8-5c0-2.7,2.3-5,5-4.9
		C398.7,109.6,400.9,111.9,400.8,114.6z"/>
	<path class="st1" d="M167.6,158.3c-1.9,0-3.4-1.5-3.4-3.5c0-1.9,1.5-3.4,3.4-3.4c1.9,0,3.5,1.6,3.5,3.4
		C171.1,156.7,169.5,158.3,167.6,158.3z"/>
	<path d="M302.6,101c0.3,0,0.5,0.2,0.7,0.3c3.4,2.8,6.8,5.7,10.2,8.5c0.5,0.4,0.7,0.9,0.2,1.4c-0.4,0.5-0.9,0.3-1.4,0
		c-3.4-2.8-6.8-5.7-10.2-8.5c-0.4-0.3-0.6-0.6-0.4-1.1C301.8,101.2,302.1,101,302.6,101z"/>
	<path d="M303.3,115c1.6,0.4,3.3,0.8,5,1.2c0.5,0.1,0.7,0.5,0.5,1c-0.1,0.5-0.5,0.7-1,0.6c-1.6-0.4-3.2-0.8-4.8-1.2
		c-0.5-0.1-0.7-0.5-0.6-1C302.5,115.2,302.8,115,303.3,115z"/>
	<path class="st2" d="M269.2,228c2.1,0.1,4.3,0.2,6.4,0.2c0.6,0,0.9,0.2,1.1,0.7c3.9,8.1,7.6,16.3,10.9,24.7
		c7.2,17.9,13.3,36.2,18.4,54.8c2.5,9.3,4.6,18.6,7,27.9c1.1,4.3,2.1,8.5,3.9,12.6c0.3,0.6-0.2,0.6-0.5,0.6
		c-4.1,1.4-8.3,2.8-12.4,4.2c-5.9,2-11.9,4.1-17.8,6c-0.7,0.2-1,0.1-1.2-0.6c-7-22.3-14.3-44.5-22.3-66.5
		c-3.1-8.4-6.2-16.8-9.7-25.1c-0.2-0.4-0.2-0.7,0-1.1c2.2-5.6,4.1-11.3,5.4-17.2c0.1-0.6,0.4-0.9,1-1.1c1.9-0.5,3.8-1.1,5.7-1.7
		c0.6-0.2,1.1-0.4,0.9-1.2c-0.2-0.7-0.8-0.7-1.4-0.5c-2.3,0.7-4.6,1.4-7,2.1c-0.4,0.1-0.6,0.3-0.7,0.7c-1.2,6.1-3.1,11.9-5.3,17.7
		c-0.2,0.6-0.6,1.3,0.2,1.8c0.2,0.2,0,0.4,0,0.6c-3.9,12-8.5,23.8-14,35.2c-4.7,9.8-10.6,18.9-16.8,27.8
		c-4.8,6.8-9.2,13.8-12.6,21.4c-0.8,1.8-1.5,3.6-2.1,5.5c-0.1,0.4-0.3,0.5-0.7,0.3c-9.6-4.5-19.4-8.5-29-13
		c-0.2-0.1-0.3-0.2-0.5-0.2c-0.5-0.2-0.5-0.4-0.3-0.9c1.5-3.2,3-6.4,4.5-9.6c10.6-22.9,21-45.9,30.3-69.4c2.8-6.9,5.4-13.9,7.8-21
		c0.3-1,0.9-1.9,1.4-2.9c0.5-0.3,1.1-0.2,1.6-0.2c15,0,30,0,45,0c2.1,0,1.9,0.2,1.9-1.9c0-3.1,0-6.3,0-9.4
		C268.2,228,268.3,228,269.2,228z"/>
	<path class="st1" d="M269.2,228c-0.6-0.1-0.7,0.3-0.7,0.8c0,3.7,0,7.4,0,11.2c0,0.5-0.1,0.7-0.7,0.7c-16,0-32,0-48.1,0
		c2.1-5.5,1-10.4-2.7-14.8c-0.3-0.4-0.3-0.8-0.2-1.2c0.9-5.5,2.3-10.8,4.2-15.9c2.3-6,5.3-11.6,9.7-16.3c4.2-4.4,8.9-8.3,13.8-12
		c2.2-1.7,4.4-3.3,6.6-4.9c0.4-0.3,0.7-0.4,1.2-0.4c5.1,0,10.3,0,15.4,0c0.7,0,0.8,0.2,0.8,0.8c0,17,0,34.1,0,51.1
		C268.5,227.6,268.4,228.1,269.2,228z"/>
	<path class="st2" d="M389.8,131.8c0.7,2,1.4,4,2.1,5.9c5.4,15,10.7,29.9,16.1,44.9c0.2,0.7,0.2,0.9-0.5,1.2
		c-7.9,2.8-15.7,5.6-23.5,8.4c-0.6,0.2-0.8,0.2-1-0.5c-2.5-6.8-3.9-13.8-4.1-21c-0.4-13.9,3.2-26.8,10.7-38.5
		C389.5,132.1,389.6,132,389.8,131.8z"/>
	<path class="st2" d="M349.1,148.1c1.2,0,2.2,0.2,2.7,1.4c0.6,1.3,0.4,2.5-0.5,3.6c-1.2,1.4-2.9,2-4.6,2.6c-0.6,0.2-1.5,0.1-1.8,0.6
		c-0.3,0.5,0,1.3,0,1.9c-0.1,3.3-0.2,6.5-1.1,9.7c-0.4,1.3-0.9,2.6-2.1,3.4c-0.4,0.3-0.4,0.6-0.3,1c0.1,0.4,0.4,0.6,0.8,0.5
		c0.4-0.1,0.5,0.2,0.6,0.5c0.9,2.6,1.8,5.2,2.8,7.8c0.2,0.4,0.1,0.9,0,1.3c-1.5,5.7-4.4,10.8-8.1,15.4c-4.8,5.9-10.6,10.5-17.7,13.3
		c-0.9,0.3-1.8,0.6-2.7,0.9c-0.5,0.2-0.6,0-0.6-0.4c-0.2-3.3-0.4-6.7-0.7-10c-0.3-4.6-0.6-9.2-1.1-13.7c-0.1-0.8,0-1.2,0.9-1.5
		c3.2-1.1,5.6-3.4,7.8-5.9c3.7-4.4,6.3-9.4,8.8-14.5c1-2,1.9-4.1,2.9-6.1c2.3-4.7,5.8-8.3,10.6-10.6
		C346.6,148.5,347.8,148.1,349.1,148.1z"/>
	<path class="st2" d="M212.8,245.1c0.6-0.1,0.7-0.5,0.7-1c0.2-1.5,0.4-2.9,0.8-4.3c0.2-0.7,0.5-1.4,0.9-2c0.4-0.6,0.8-1.1,1.6-1
		c0.4,0,0.6-0.2,0.6-0.6c0-0.4-0.3-0.6-0.6-0.6c-0.7,0-1.2,0.1-1.7,0.6c-0.5,0.5-0.8,1-1.1,1.6c-0.8,1.9-1.3,3.9-1.6,6
		c-0.3,2-1.9,3.2-3.8,3c-0.1,0-0.2,0-0.2,0c-1.9-0.3-2.3-0.7-2.4-2.6c-0.1-2.5,0.1-5,0.8-7.5c0.1-0.4,0.3-0.9-0.3-1
		c-0.6-0.1-0.7,0.4-0.8,0.8c-0.9,3-1.1,6-0.7,9c0.1,0.5,0,0.7-0.5,0.8c-1.8,0.3-3.4,0.3-4.8-1.2c-0.2-0.3-0.5-0.2-0.8-0.1
		c-1.6,0.3-2.8-0.4-3.7-1.7c-1.3-1.9-1.7-4-2-6.2c-0.8-6.3-0.1-12.4,1.1-18.6c0.6-3,1.3-6,2.2-9c0.1-0.5,0.3-0.7,0.8-0.6
		c6.6,1.2,13.2,2.2,19.8,3.9c0.7,0.2,0.7,0.4,0.5,1c-1.2,3.9-2,7.8-2.6,11.8c-0.1,0.6,0.1,0.9,0.5,1.3c2.5,2.7,3.9,5.8,3.6,9.5
		c-0.2,3.3-1.7,6.1-3.9,8.5c-0.3,0.3-0.6,0.5-1,0.7C213.7,245.7,213.2,245.7,212.8,245.1z"/>
	<path class="st2" d="M200.4,158.8c-2.1,2.9-4.1,5.7-6.2,8.6c-0.5,0.6-0.9,1.2-1.4,1.9c-0.2,0.3-0.2,0.4,0.1,0.6
		c4.4,1.7,8.9,2.8,13.7,1.7c0.7-0.2,1.4-0.4,2.2-0.7c0.9,1.3,1,1.3-0.1,2.4c-6.6,6.8-11.8,14.6-15.6,23.3c-0.1,0.3-0.4,0.6-0.7,0.8
		c-0.3,0.2-0.6,0.4-0.9,0.6c-0.7,0.4-1.4,1.4-2,1.2c-0.6-0.1-1-1.2-1.4-1.8c-5.5-7.9-11-15.7-16.5-23.6c-0.4-0.6-0.3-0.9,0.3-1.3
		c8.3-5.8,16.6-11.6,24.9-17.4c0.5-0.4,0.8-0.3,1.1,0.2C198.7,156.5,199.6,157.6,200.4,158.8z"/>
	<path class="st2" d="M261.9,152.2c4.2,0.2,8.1,0.6,11.8,1.6c2,0.6,3.8,1.5,5.5,2.6c0.5,0.3,0.4,0.5,0.1,0.9
		c-1.7,2.1-3.9,3.2-6.4,3.7c-4.4,0.9-8.3-0.1-11.6-3.3c-1.3-1.3-2.1-2.8-2.5-4.6c-0.1-0.5-0.1-0.8,0.6-0.8
		C260.4,152.3,261.3,152.2,261.9,152.2z"/>
	<path class="st1" d="M373.7,116c-3.7-2.5-7.3-4.8-11-7.3c1.5-0.5,2.8-1,4.2-1.5c2.5-0.9,5-1.8,7.5-2.7c0.4-0.2,0.7-0.3,0.6,0.4
		C374.5,108.6,374.1,112.2,373.7,116z"/>
	<path class="st2" d="M284.1,168.9c0-1.1-0.1-2.6-0.2-4c-0.1-0.6,0-1.1,0.7-1.2c0.8-0.1,1,0.4,1,1.1c0.9,10.6-1.2,20.5-7.5,29.3
		c-0.5,0.7-1.1,1.3-1.6,1.9c-0.4,0.5-0.9,0.6-1.4,0.2c-0.5-0.4-0.4-0.9,0.1-1.4c4.4-4.8,6.6-10.5,8-16.7
		C283.9,175.1,284.1,172.2,284.1,168.9z"/>
	<path class="st2" d="M338.8,132.7c-0.6,0-0.9-0.3-1-0.7c-0.1-0.4,0-0.8,0.4-1c0.4-0.2,0.9-0.3,1.3-0.5c9.3-3.3,18.5-6.6,27.8-9.9
		c1.1-0.4,1.5-0.3,1.8,0.3c0.2,0.6-0.1,1-1.1,1.4c-9.5,3.4-19,6.8-28.5,10.2C339.2,132.5,338.9,132.6,338.8,132.7z"/>
	<path class="st2" d="M374.2,135.5c0,0.6-0.4,0.8-0.9,0.9c-3.5,1.3-7,2.5-10.5,3.8c-6.1,2.2-12.1,4.3-18.2,6.5
		c-0.1,0-0.2,0.1-0.3,0.1c-0.6,0.2-1.1,0.3-1.4-0.4c-0.3-0.7,0.2-1,0.8-1.3c5.2-1.9,10.4-3.7,15.6-5.6c4.5-1.6,8.9-3.2,13.4-4.8
		C373.7,134.5,374.2,134.8,374.2,135.5z"/>
	<path class="st3" d="M359.5,133.3c-0.5-0.1-0.8-0.3-0.9-0.7c-0.1-0.5,0.2-0.8,0.6-1c1.4-0.5,2.8-1,4.1-1.5c2.2-0.8,4.5-1.6,6.7-2.4
		c0.1,0,0.2-0.1,0.3-0.1c0.5-0.2,1-0.1,1.2,0.5c0.2,0.6-0.1,1-0.7,1.2c-2.4,0.9-4.9,1.7-7.3,2.6c-1.2,0.4-2.3,0.8-3.5,1.2
		C360,133.2,359.7,133.2,359.5,133.3z"/>
	<path class="st2" d="M341.4,139.8c-0.5,0-0.9-0.2-1-0.6c-0.1-0.4,0-0.8,0.4-1c0.4-0.2,0.9-0.3,1.3-0.5c2.8-1,5.6-2,8.4-3
		c0.2-0.1,0.4-0.1,0.5-0.2c0.5-0.2,1-0.1,1.2,0.5c0.2,0.6-0.1,1-0.7,1.2c-3,1.1-6.1,2.2-9.1,3.3
		C342.1,139.6,341.7,139.7,341.4,139.8z"/>
	<path class="st3" d="M364.1,145.9c0.6,0,0.9,0.2,1,0.7c0.1,0.5-0.1,0.9-0.6,1c-1.4,0.5-2.8,1-4.2,1.5c-2,0.7-4,1.4-6,2.2
		c-0.5,0.2-0.6,0.1-0.6-0.4c0-1.2,0-1.2,1.2-1.7c2.9-1,5.7-2.1,8.6-3.1C363.8,146,364,146,364.1,145.9z"/>
	<path class="st4" d="M372.1,145c-0.5-0.1-0.8-0.2-1-0.6c-0.1-0.4,0-0.8,0.3-1c1.4-0.6,2.9-1.2,4.5-1.6c0.4-0.1,0.7,0.2,0.9,0.6
		c0.1,0.4,0,0.8-0.3,0.9C375,143.9,373.5,144.4,372.1,145z"/>
	<path class="st5" d="M170.2,210.2c0-5.1,0-10.3,0-15.4c0-0.2,0-0.5,0-0.7c0.1-0.5,0.4-0.7,0.9-0.7c0.5,0,0.8,0.3,0.9,0.7
		c0,0.2,0,0.5,0,0.7c0,10.3,0,20.7,0,31c0,0.2,0,0.5,0,0.7c-0.1,0.5-0.4,0.7-0.9,0.7c-0.5,0-0.8-0.3-0.8-0.8c0-0.2,0-0.5,0-0.7
		C170.2,220.5,170.2,215.3,170.2,210.2z"/>
	<path class="st5" d="M183.1,216.2c0,3.1,0,6.3,0,9.4c0,0.2,0,0.4,0,0.7c-0.1,0.5-0.4,0.9-0.9,0.9c-0.5,0-0.8-0.4-0.9-0.9
		c0-0.1,0-0.3,0-0.4c0-6.4,0-12.8,0-19.2c0-0.2,0-0.4,0-0.6c0.1-0.5,0.4-0.8,0.9-0.8c0.5,0,0.8,0.3,0.9,0.8c0,0.2,0,0.4,0,0.7
		C183.1,209.9,183.1,213.1,183.1,216.2z"/>
	<path class="st2" d="M268.6,146c-2.7,0-5-0.5-7.1-1.5c-0.5-0.3-0.9-0.3-1.4,0c-4.3,2.2-9.3-1-9.1-5.8c0.1-1.5,0.7-2.7,2.1-3.5
		c1.3-0.8,2.7-1.4,4.2-1.8c0.4-0.1,0.9-0.2,1.3,0.1c0.7,0.4,1.2,0,1.7-0.6c0.6-1,1.1-2.1,1.6-3.1c0.2-0.3,0.3-0.6,0.5-0.9
		c1.5-2.9,3.5-5.1,6.4-6.6c1.9-1,3.8-2.1,5.6-3.4c0.5-0.3,0.7-0.2,1,0.1c1.9,2,3.1,4.4,4.1,7c0.9,2.7,1.8,5.3,1.7,8.2
		c0,6.3-4.2,10.9-10.4,11.6C270,145.9,269.1,146,268.6,146z"/>
	<path class="st2" d="M249.8,136.2c0.2-3.6-0.5-7.1-1.3-10.6c-0.1-0.4-0.4-1,0-1.3c0.5-0.4,1,0,1.5,0.2c0.2,0.1,0.4,0.2,0.6,0.4
		c0.7,0.4,0.9,0.8,0.7,1.7c-0.5,2.4-0.5,4.8,0,7.2c0.1,0.3,0.1,0.5-0.1,0.7C250.6,134.9,250.2,135.6,249.8,136.2z"/>
	<path class="st2" d="M130.5,343.7c1.2-0.8,2.5-1.4,4-1.5c3.2-0.3,5.6,1,7.6,3.3c2.2,2.5,3.6,5.6,4.6,8.8c1.8,5.7,2.7,11.6,3.2,17.6
		c0.1,0.7-0.3,0.6-0.7,0.6c-6.1,0-12.3,0-18.4,0c-2.6,0-5.1,0-7.7,0c-0.6,0-0.8-0.2-1-0.8c-4.3-12.7-8.8-25.2-14.1-37.5
		c-2.1-4.8-4.3-9.5-6.7-14.1c-0.1-0.2-0.3-0.5-0.4-0.7c-0.3-0.6-0.7-0.8-1.3-0.5c-0.6,0.3-0.5,0.8-0.3,1.3c0.5,1,1.1,2,1.6,3
		c4.3,8.5,7.9,17.2,11.3,26.1c2.8,7.4,5.4,14.8,7.9,22.2c0.2,0.6,0.2,0.8-0.6,0.8c-7.1,0-14.3,0-21.4,0c-0.5,0-0.8,0-1-0.5
		c-5.1-10.1-9.6-20.5-12.9-31.4c-1.8-5.9-3.2-12-3.5-18.2c-0.2-3.6,0.1-7.1,1.3-10.5c1.7-4.7,5-7.5,9.9-8.5
		c5.8-1.2,11.4-0.8,16.8,1.9c4.8,2.3,8.4,6,11.4,10.3c4.4,6.3,7,13.4,8.9,20.8c0.6,2.2,1.1,4.5,1.4,6.8
		C130.3,343.2,130.4,343.4,130.5,343.7z"/>
	<path class="st2" d="M394,360.8c0-5.6,0.2-11.2,1.5-16.7c0.6-2.4,1.4-4.8,2.8-6.9c1-1.5,2.3-2.7,4.1-3c1.1-0.2,2.1,0.1,3,0.5
		c2,0.9,3.6,2.5,4.9,4.2c3.1,4,5,8.6,6.4,13.4c1.9,6.3,2.8,12.8,3,19.5c0,0.5-0.1,0.6-0.6,0.6c-3.5,0-6.9,0-10.4,0
		c-0.7,0-0.8-0.2-0.8-0.8c0-4-0.2-7.9-0.5-11.9c-0.5-6.1-1.2-12.1-3-18c-0.2-0.6-0.3-1.4-1.3-1.2c-0.6,0.1-0.7,0.7-0.4,1.8
		c1.2,3.8,1.9,7.7,2.3,11.7c0.7,5.8,0.9,11.5,1.1,17.3c0,0.8-0.1,1-0.9,1c-3.4,0-6.9,0-10.3,0c-0.6,0-0.5-0.3-0.5-0.7
		c-0.2-2.8-0.4-5.7-0.4-8.5C394,362.4,394,361.6,394,360.8z"/>
	<path class="st2" d="M367.3,372.4c-2,0-4,0-6.1,0c-0.3,0-0.7,0.2-0.5-0.5c2.5-7.4,6.3-14,12.5-19c1.2-0.9,2.5-1.6,4.1-1.8
		c1.5-0.2,2.7,0.3,3.7,1.3c1.7,1.7,2.5,4,3,6.2c1.1,4.3,1.4,8.8,1.5,13.2c0,0.4-0.1,0.5-0.5,0.5c-2.9,0-5.7,0-8.6,0
		c-0.7,0-0.5-0.4-0.4-0.7c0.8-3.1,1.7-6.3,2.5-9.4c0-0.2,0.1-0.4,0.1-0.6c0.2-0.6,0-1.1-0.6-1.2c-0.6-0.1-0.9,0.2-1.1,0.8
		c-0.4,1.7-0.9,3.3-1.3,5c-0.5,1.8-1,3.7-1.5,5.5c-0.1,0.5-0.3,0.6-0.8,0.6C371.4,372.4,369.3,372.4,367.3,372.4z"/>
	<path class="st6" d="M250.6,208.4c0-0.4,0.2-0.6,0.4-0.8c2.5-2.4,5-4.8,7.5-7.2c0.4-0.4,0.4-0.6-0.1-0.9c-3.9-2.5-7.8-5-11.6-7.5
		c-0.3-0.2-0.6-0.3-0.8-0.6c-0.3-0.3-0.4-0.7-0.2-1.1c0.3-0.4,0.6-0.5,1.1-0.3c0.2,0.1,0.3,0.2,0.4,0.2c4.7,3,9.3,6,14,9
		c0.4,0.3,0.5,0.4,0.1,0.8c-3,2.9-6.1,5.8-9.1,8.7c-0.5,0.4-0.9,0.7-1.5,0.1C250.6,208.8,250.5,208.6,250.6,208.4z"/>
	<path class="st5" d="M199,240.5c0.1,1,0.1,1.9,0.2,2.9c0,0.4,0,0.7-0.5,0.8c-0.4,0-0.6-0.2-0.7-0.6c-0.2-2.6-0.3-5.2,0.1-7.8
		c0.1-0.4,0.2-0.7,0.7-0.6c0.4,0.1,0.6,0.4,0.5,0.8C199,237.4,199,238.9,199,240.5z"/>
	<path class="st7" d="M278.4,134.2c0,0.4-0.1,0.7-0.5,0.7c-0.4,0.1-0.6-0.2-0.7-0.6c-0.4-1.6-0.9-3.1-1.6-4.6c-0.3-0.7-0.7-1.3-1-2
		c-0.2-0.3-0.1-0.6,0.2-0.8c0.3-0.2,0.7-0.2,0.9,0.2C276.9,129.4,277.8,131.8,278.4,134.2z"/>
	<path class="st7" d="M256.2,138.2c-0.9,0-1.7,0.2-2.4,0.7c-0.3,0.2-0.6,0.3-0.9-0.1c-0.2-0.4-0.1-0.7,0.3-1c1.9-1.3,5.6-0.9,7,0.8
		c0.2,0.3,0.3,0.5,0.1,0.8c-0.3,0.3-0.6,0.3-0.9,0C257.9,138.4,257.4,138.2,256.2,138.2z"/>
	<path class="st8" d="M270.8,130.2c0,0.6-0.5,1.1-1.1,1.1c-0.7,0-1.2-0.5-1.1-1.2c0-0.7,0.5-1.1,1.2-1.1
		C270.4,129.1,270.9,129.6,270.8,130.2z"/>
	<path d="M128.7,364.1c0.1-0.1,0.1-0.4,0.2-0.6c2.2-4.4,4.3-8.9,6.5-13.3c0,0,0,0,0-0.1c0.2-0.6,0.6-1,1.3-0.7
		c0.5,0.2,0.6,0.8,0.2,1.5c-0.5,1-1,2-1.4,2.9c-1.7,3.4-3.3,6.9-5,10.3c-0.1,0.2-0.2,0.4-0.3,0.6c-0.2,0.3-0.6,0.4-1,0.3
		C128.9,364.9,128.7,364.6,128.7,364.1z"/>
</g>
<circle class="st1" cx="494.7" cy="292.9" r="15.2"/>
<circle class="st9" cx="161.3" cy="21.4" r="15.7"/>
<rect x="402.9" y="230.8" class="st9" width="23.1" height="23.1"/>
<polygon class="st1" points="214.4,21.4 214.4,51 235,37.1 "/>
<g>
	<defs>
		<rect id="SVGID_1_" x="0.4" y="36.2" width="74.6" height="140.8"/>
	</defs>
	<clipPath id="SVGID_2_">
		<use xlink:href="#SVGID_1_"  style="overflow:visible;"/>
	</clipPath>
	<circle class="st10" cx="8.6" cy="106.2" r="62.6"/>
</g>
</svg>
