<?xml version="1.0" encoding="utf-8"?>
<!-- Generator: Adobe Illustrator 22.1.0, SVG Export Plug-In . SVG Version: 6.00 Build 0)  -->
<svg version="1.1" id="图层_1" xmlns="http://www.w3.org/2000/svg" xmlns:xlink="http://www.w3.org/1999/xlink" x="0px" y="0px"
	 viewBox="0 0 1420 1171.1" style="enable-background:new 0 0 1420 1171.1;" xml:space="preserve">
<style type="text/css">
	.st0{clip-path:url(#SVGID_2_);}
	.st1{fill:#FD8E01;}
	.st2{fill:#2F2C2B;}
	.st3{fill:#5E6EBC;}
	.st4{fill:#F7C96F;}
	.st5{fill:#8098FF;}
	.st6{fill:#667DD3;}
	.st7{fill:#2F2C2C;}
	.st8{fill:#333032;}
	.st9{fill:none;}
	.st10{fill:#3C3843;}
	.st11{fill:#38343B;}
	.st12{fill:#343033;}
	.st13{fill:#68C5F6;}
	.st14{fill:#404649;}
	.st15{fill:#4E5356;}
	.st16{fill:#68C5F7;}
	.st17{fill:#3C3D41;}
	.st18{fill:#374045;}
	.st19{fill:#3F4C53;}
	.st20{fill:#FE7300;}
	.st21{fill:#FEB200;}
	.st22{fill:#FE8B00;}
	.st23{fill:#FEA500;}
	.st24{fill:#FD9001;}
	.st25{fill:#3B17B8;}
	.st26{fill:#FE8900;}
	.st27{fill:#FE98F2;}
	.st28{fill:#E8E2F9;}
	.st29{fill:#FEA400;}
	.st30{fill:#FE9500;}
	.st31{fill:#FD86D4;}
	.st32{fill:#82369A;}
	.st33{fill:#96BAFE;}
	.st34{fill:#FD83D4;}
	.st35{fill:#94B9FE;}
	.st36{fill:#FD88D5;}
	.st37{fill:#FC65C8;}
	.st38{fill:#72A3FE;}
	.st39{fill:#8CB4FD;}
	.st40{fill:#3182D4;}
	.st41{fill:#7BA9FE;}
	.st42{fill:#F95CC6;}
	.st43{fill:#FA80D4;}
	.st44{fill:#3284D9;}
	.st45{fill:#FBF6EF;}
	.st46{fill:#87EEFE;}
	.st47{fill:#87EFFE;}
	.st48{fill:#3D49A8;}
	.st49{fill:#89EEFD;}
	.st50{fill:#5BE8FD;}
	.st51{fill:#8EECFB;}
	.st52{fill:#5DE7FD;}
	.st53{fill:#7CEBFD;}
	.st54{fill:#5AE7FE;}
	.st55{fill:#EBEBFA;}
	.st56{fill:#A195E8;}
	.st57{fill:#D7D3F7;}
	.st58{fill:#2B0EA8;}
	.st59{fill:#FE94DE;}
	.st60{fill:#8A3794;}
	.st61{fill:#76A8FE;}
	.st62{fill:#89B2FE;}
	.st63{fill:#FCF5E8;}
	.st64{fill:#FDEAC6;}
	.st65{fill:#E47D79;}
	.st66{fill:none;stroke:#7FB2EF;stroke-width:3;stroke-miterlimit:10;}
	.st67{fill:#4F91D3;}
	.st68{fill:#F9BB30;}
	.st69{fill:#C4C4C4;}
	.st70{fill:#EFBB65;}
	.st71{fill:#4A4746;}
	.st72{fill:#E27D79;}
	.st73{fill:#9AD1BA;}
	.st74{fill:#6DC5F4;}
	.st75{fill:#4F4C4C;}
	.st76{fill:#4C4948;}
	.st77{fill:#7FA975;}
	.st78{fill:#A2D4BF;}
	.st79{fill:#E58884;}
	.st80{fill:#E78D8A;}
	.st81{fill:#9BD3BB;}
	.st82{fill:#7AA570;}
	.st83{fill:#7FB2EF;}
	.st84{fill:#4D4A49;}
	.st85{fill:#4D4A4A;}
	.st86{fill:#9BD2BB;}
	.st87{fill:#E4837F;}
	.st88{fill:#82AB78;}
	.st89{fill:#524F4F;}
	.st90{fill:#52504F;}
	.st91{fill:none;stroke:#48C2CC;stroke-width:3;stroke-miterlimit:10;}
	.st92{fill:#48C2CC;}
	.st93{fill:none;stroke:#E0AD46;stroke-width:3;stroke-miterlimit:10;}
	.st94{fill:#F9CC73;}
	.st95{fill:#E0AD46;}
	.st96{fill:url(#SVGID_3_);}
	.st97{fill:url(#SVGID_4_);}
	.st98{fill:url(#SVGID_5_);}
</style>
<g>
	<g>
		<g>
			<g>
				<defs>
					<rect id="SVGID_1_" x="36.8" y="-20.5" width="1369" height="1191.6"/>
				</defs>
				<clipPath id="SVGID_2_">
					<use xlink:href="#SVGID_1_"  style="overflow:visible;"/>
				</clipPath>
				<g class="st0">
					<g>
						<polygon class="st1" points="982.2,565.4 831.9,587.5 847.5,661.9 946.6,637 						"/>
						<path class="st1" d="M420.8,665.8l-107-51.4l190.9-9.5c0,0-10.8,62.7-12.8,64.1C489.9,670.4,420.8,665.8,420.8,665.8z"/>
						<g>
							<g>
								<g>
									<path class="st2" d="M579.7,483.4c0.1-0.5,0.1-1,0.2-1.5c-8.9,3.5-17.4,7.8-27.3,9c-11.7,1.5-22.7,0.4-32-5.7
										c-6.3-4.1-10.7-2.6-14.5,2.8c-7.7,10.9-14.2,22.1-17.3,34.5c-3.3,13.3,2.2,22.2,16.6,27.3c9.2,3.2,19,4.2,29,4.1
										c4.3-5,5-11.1,7.7-16.7C551.5,517.7,562.4,499,579.7,483.4z"/>
									
										<ellipse transform="matrix(0.9912 -0.1326 0.1326 0.9912 -61.8842 72.5264)" class="st3" cx="513.6" cy="500.9" rx="2.2" ry="1.9"/>
									
										<ellipse transform="matrix(0.9912 -0.1326 0.1326 0.9912 -63.0068 72.0684)" class="st3" cx="509.6" cy="509.1" rx="2" ry="1.7"/>
									
										<ellipse transform="matrix(0.9912 -0.1326 0.1326 0.9912 -64.1551 71.6254)" class="st3" cx="505.7" cy="517.5" rx="2.2" ry="1.9"/>
								</g>
								<path class="st2" d="M556.4,380.2c0.5,5.8,0.9,11.6,1.4,17.9c4.1-0.8,6.1-3.6,8.3-6c8.3-8.9,16.1-18.3,23.2-28.1
									c13.4-18.5,28.4-35.5,48.9-46.5c-12.3-17.6-33.7-20.8-52.4-8c-11.1,7.7-17.9,18.6-22.5,31
									C558.7,353.4,556.4,366.6,556.4,380.2z"/>
								<path class="st4" d="M477.7,392.3c18.5,10.6,39,16.1,61.1,19.7c1,0.2,1.8,0.9,2.1,1.8c1.1,4.7,2.7,12.8,3.1,18
									c0.1,1.7-1.6,2.9-3.3,2.4c-26.6-8.9-54.5-23.1-66.2-38.5C472.8,393.6,475.4,390.9,477.7,392.3z"/>
								<path class="st5" d="M482.6,366.6c0,0-2.4-27.8,11.4-21.4c0,0,8.8-5.8,8.7,3.9c0,0-4.1,73.8,43.3,55.3c0,0,13-3.9,52.8-57.4
									c0,0,24.8-34.4,60.8-40.1c0,0,27.3-4.4,44.8,7.6c0,0,3.9,2.3,7.3,7.1c0,0,4.9,10.2,14.8-5.4c0,0,6.8-12.7,33.3-12.1
									c0,0,40.7-2.6,60.4,38s16,67.7,0.3,102.1c0,0-19.9,50.8-60.1,49.4c0,0,80.6,47.2,99.3,208.9L491,691.6
									c0,0-4.4-119,86.3-208.3c0,0,14.6-14.6-4.7-24.8C547.8,445.4,487.2,430.3,482.6,366.6z"/>
								<g>
									<path class="st6" d="M591.6,475.6c2.8,15.2,17.4,34.5,34,38c29,6.1,54.2-4,77.7-21.1c7.3-5.4,14.1-11.6,20.7-18.1
										c3.6-3.6,2.9-5.3-1.5-6.7c-6.4-2-12.5-0.5-18.7,0.8c-2.3,0.5-4.6,1.1-6.9,1.6c-0.9,3.5-3.1,5.8-6.4,6.9
										c-16.6,5.6-32.6,13.1-49.8,16.6c-9.2,1.9-18.6,1.4-27.7-0.7c-7.8-1.7-14.1-6.4-19.1-13L591.6,475.6z"/>
									<path class="st2" d="M591.9,475.8c5.4,12.2,15,18.2,26.8,20c16.8,2.6,32.8-0.3,48.4-8.1c9.2-4.6,19.9-5.3,29.1-10.6
										c2.9-1.7,5.4-3.2,2.7-7.2c-1.4-0.3-2.7,0.2-4,0.9c-23.4,12.5-47.5,12.9-72.2,6.2c-8.2-2.2-16.2-5.7-24.9-5.2
										c-2.3,0.1-4.9-0.4-6.3,2.5C591.7,474.8,591.8,475.3,591.9,475.8z"/>
								</g>
								<g>
									<path class="st7" d="M770.5,364.3c0.7,0,1.3,0,2-0.1c2.6-0.2,6.5,2.3,7.3-2.1c0.8-4.6-3.8-4.3-6.5-5
										c-6.9-1.6-16.3,2.8-20,10.7c-10.3,22.1-9,44.2,1.2,66c0.9,1.8,2.2,3.6,4.8,2.2c2.5-1.4,2.5-3.3,1.3-5.7
										c-2.2-4.4-4.3-8.8-4.8-13.8c1.6-4,0.1-7.9-0.3-11.8c-0.6-6.2,0.8-7.4,6.6-5.2c2.1,0.8,4.3,1,6.1,2.5c3,0.6,4.9-0.5,5.3-3.7
										c-0.8-6.9-6.6-8.1-11.6-9.4c-5.1-1.3-5.7-3.7-4.7-8.1C758.9,373,763.7,367.9,770.5,364.3z"/>
									<path class="st6" d="M770.5,364.3c-8.2,1.1-13.4,6.8-15.3,16.8c-0.9,4.9-2.2,9.2,5.7,9.3c5,0.1,9.6,3.3,12.5,8
										C781.9,386.9,781.2,379,770.5,364.3z"/>
									<path class="st6" d="M768.2,402.1c-1.3-1.2-2.5-2.5-3.9-3.5c-2.9-1.9-6.5-3.4-9.4-1.7c-3.1,1.8-1.6,5.7-1.1,8.6
										c0.7,3.7,0.2,7.6,1.9,11.1c2.7-1.6,3.7-4.2,4.1-7.2C760.4,404.6,763.3,402.2,768.2,402.1z"/>
								</g>
								<path class="st8" d="M616.1,396.2c1.5,6.8,4.7,11.7,11.6,11.6c5.8-0.2,10.1-3.5,10.3-10.2c0.2-7-3.3-11.6-10-11.8
									C621.3,385.6,617.8,390.5,616.1,396.2z"/>
								<path class="st4" d="M549.4,426.2c0.1,0,0.1,0,0.2-0.1c1.1-0.4,13-4.2,14.6,5.4c0,0,1.7,8.2-3.2,12
									c-2.1,1.6-4.7,2.7-8.9,3.6c0,0-47.6,11.5-79.8-30.9c-1.4-1.8,0.2-4.9,2.1-3.9C488.5,419.1,520.8,432.3,549.4,426.2z"/>
								<path class="st9" d="M638.1,326c0,0-23.4-45.1-66-1.9c0,0-26.7,22.6-21,80.5L638.1,326z"/>
								<path class="st6" d="M497.5,633c0,0,99.6,24.3,161.2,18.1c0,0,128.3-13.7,191.2-8.2c0,0,6.5,22.5,9.9,55.4l-368.7-10.9
									C491.1,687.4,491,656.7,497.5,633z"/>
								<g>
									<path class="st2" d="M631,652.7c4.2,3.2,3.2,7.7,2.7,11.9c-0.7,6,1.7,9.1,7.7,9.6c18.3,1.6,36.6,3.1,54.9,4.9
										c5.1,0.5,6.9-1,7.5-6.3c1-8.7,3.4-17.1,6.5-25.4c4-15.3,11.1-20.8,26.2-20.4c2.3,0.1,4.8,0.6,5.1-2.8c0.3-3-2-3.8-4.2-4.5
										c-9.1-2.9-21.1,2.4-28.1,12.3c-3.9,5.5-6,11.7-7.6,18.1c-0.9,3.7-2.4,5-6.1,4.7c-17.6-1.6-35.3-3-52.9-4.3
										c-4-0.3-5-1.9-4.3-6c4.1-23.1,16.4-40.4,36.5-52.3c2.4-1.4,6.8-2.3,4.8-6.3c-2.2-4.2-5.8-1.6-8.5,0
										C646.2,601.1,631.2,622.5,631,652.7z"/>
									<path class="st10" d="M668.3,640c0.7,1.9,1.8,3.3,3.8,3c2.2-0.3,3.6-1.8,3.2-4.2c-0.3-1.9-1.7-3.2-3.7-2.9
										C669.4,636.2,668.2,637.6,668.3,640z"/>
									<path class="st11" d="M682.4,640.9c0.1,2,1.2,3.4,3.1,3.6c2.4,0.2,3.7-1.3,3.6-3.6c0-2-1.4-3.2-3.3-3.3
										C683.6,637.5,682.8,639.1,682.4,640.9z"/>
									<path class="st12" d="M655.9,638c0.1,2.1,1.3,3.2,3.3,3.4c2,0.1,3.4-1,3.5-3s-1.2-3.2-3.2-3.3
										C657.4,635,656.1,635.9,655.9,638z"/>
								</g>
							</g>
							<g>
								<path class="st13" d="M498.7,247.7c7.7-5.7,7.7-11.6-0.3-16.1c-3.3-1.9-5.3-4.2-6.8-7.5c-1.4-3.2-3.9-5.7-7.6-4.8
									c-3.4,0.8-5.4,3.4-5.7,7.1c-0.1,1.5,0.4,3.2-1.1,4.5c-6.6,6-6.2,10.6,1.3,15.7c3.8,0.9,3.2,4.7,4.5,7.1
									c1.6,2.9,3.8,5.1,6.9,5c3.3,0,5.4-2.5,5.8-5.8C496,250.8,497.4,249.3,498.7,247.7z"/>
								<path class="st14" d="M498.7,247.7c-2.9,0.3-3.8,2.5-4.1,4.8c-0.4,2.9-1.6,5-4.5,5.2c-3.5,0.2-5.1-2.4-6.5-5.2
									c-1.1-2.3,0.2-7-5-5.8c1,2.1,2.2,4.1,2.8,6.3c1.2,4.6,3.9,7.3,8.8,7.2c4.5-0.2,6.3-3.2,7.1-7.2
									C497.5,251.1,498.2,249.4,498.7,247.7z"/>
							</g>
							<g>
								<path class="st13" d="M439.7,282.5c1.2-3,0.2-5.4-2.1-7.5c-2-1.8-3-4-2.9-6.8c0.2-4.7-1.9-7.6-6.9-7.7s-8.3,2.9-8.4,7.5
									c-0.3,7.4,0.5,14.8,1.1,22.2c0.4,5,5.6,6.2,10.5,5.6c5.7,0,7.2-3.4,7.6-8.4C438.7,285.9,435.9,283.2,439.7,282.5z"/>
								<path class="st15" d="M439.7,282.5c-1.4-1.3-1-4.1-4.3-4.5c1.2,6.7,5.1,14.1-4.4,17.7c5.8,2.7,7.5-1.5,8.6-5.6
									C440.3,287.8,439.7,285.1,439.7,282.5z"/>
							</g>
							<g>
								<path class="st16" d="M494.8,346c0-2.6,0-5.1,0.1-7.7c-0.9-13.6,3-25.9,9.9-37.4c1.7-2.8,3.1-5.8,4.4-8.7
									c2.1-4.6,1.3-8.7-2.6-12c-4.4-3.6-7.3,0-10.3,2.4c-0.8,1.1-1.6,2.3-2.2,3.6c-1.9,3.7-2.8,8.8-9.1,6.2c-1-0.4-1.7,1.1-3.1,1
									c7.2-0.3,12.5-2.8,12.8-10.8c-1.5-2.2-1.3-5.8-5.1-5.9c-4.1-0.1-5.2,3.4-7.2,6.6c-2.8-3.7-5.1-7.3-8-10.5
									c-5.1-5.6-12.1-7-17-3.6c-6.1,4.1-5.3,9.9-3.2,15.7c1.1,3.1,2.7,6,4.2,8.9c1.4,2.6,3,5.2,5.4,9.3c-4.2-2.4-7.3-2.8-9.2,0.5
									c-2.7,4.7-1.1,9,1.6,13.2c3.2,3.2,6.6,6.1,10.3,8.7c-2.1-1-3.5-3.5-6.3-3c-1.3,2.4-5.5,3-4.1,6.9c2.3,5.1,7.1,7.1,11.8,9
									c6.5,2.6,12.8,5.5,17.2,11.3c1.4,1.8,2.9,3.1,5.3,2.1C492.8,350.6,495.8,349.8,494.8,346z"/>
								<path class="st17" d="M494.8,346c-2.7,4.9-5.5,7.6-10,1.5c-2.5-3.4-6.2-5.7-10-7.4c-6.6-3-13.7-5.1-18.8-10.7
									c0.2,5.1,4,6.9,7.8,8.6c5.2,2.4,10.8,3.9,15.4,7.6c2.3,1.8,5.3,3,4.9,6.7c-0.1,1.2,0.4,1.5,1.4,1.8c4,1.3,11.8-3.9,12-8.2
									c0.1-0.8,0.3-2-1.2-1.5C495.6,344.7,495.3,345.4,494.8,346z"/>
								<path class="st18" d="M494.7,282.7c-2.5,4-3.5,9.6-10.5,8.4c-1.4-0.3-3.3,2.2-5.1,3.3c-2.2,1.5,0,2.3,0.5,3.1
									c0.8,1.2,1.8,1.1,2.5-0.4c1.4-3.1,3.1-5.6,6.7-2.1c1.3,1.3,2.2,0,2.5-0.9c1.4-3.9,4.6-7.1,4.8-11.5
									C495.7,282.7,495.2,282.7,494.7,282.7z"/>
								<path class="st19" d="M460,322.4c3.3,2.4,6.6,4.8,10,7.1c0.4-0.5,0.8-0.9,1.2-1.4c-4.6-4.3-9.3-8.5-15.1-11.4
									C455.4,320.1,459.2,320.2,460,322.4z"/>
							</g>
						</g>
						<path class="st20" d="M604.2,676.3c17.5-0.4,34.8,1.7,52.3,2.6c27.3,1.4,54.6,3.2,81.8,4.8c6.2,0.4,12.1-2,18.1-3
							c4.2-0.5,6.7,1,5.3,5.5c-2.1,7,1.3,11.6,5.9,16c5.6,5.5,12.1,9.9,17.8,15.3c3.1,2.9,4.5,6.3,3.1,10.2
							c-3.4,9.7-9.1,18.2-11.6,26.6c2.1-1.2,3.1-5.2,4.7-8.7c2-4.6,3.8-9.3,6.5-13.6c2.4-3.8,5.5-5.8,10.2-4
							c12.8,9,24.9,18.7,37.2,28.3c2,1.6,3.7,3.5,4.8,5.7c2.3,5.6-0.2,10.3-3,15c-5.3,8.9-10.4,17.9-15.5,26.9
							c-12,21.1-24.1,42-37.6,62.1c-1.8,2.6-3.9,4.9-7.3,4.8c-6.8-0.3-13.7-0.9-19.7-4.7c-3-1.9-5.2-4.9-8,0.3c-1.1,2-3.1,0.9-4.1-1
							c-0.5-0.9-0.7-2-0.6-3c0.9-10.8-2-21-4.2-31.4c-0.2-45.6,1.5-91.1,1.6-138.2c-9.1,7.6-16.3,15-23.3,22.7
							c-21.4,23.4-44.2,45.4-65.7,68.7c-6.1,6.6-13.2,8.3-21.9,7.7c-49.5-3.4-99-8-148.6-10.7c-12.1-0.7-24.3-0.9-36.3-3.4
							c-4.7-1.1-9.4-2-13.8-4.2c-6-2.9-6.5-5.1-1.5-9.2c3.5-2.9,6.9-6.6,11-8.1c14.6-5.4,27.1-14.6,39.5-23.4
							c13.5-9.6,29.7-13.6,42.9-23.8c10.4-8.1,23.2-13.2,35.2-19.1c3.4-1.7,6.5-3.8,9.6-6.1c1-0.7,2.6-1.6,2.5-2.7
							c-1.5-10.5,5.4-6,10.1-5.8C589.1,676,596.7,675.8,604.2,676.3z"/>
						<path class="st21" d="M838.8,762c-10.4-9.8-22.5-17.6-33.5-26.7c-2.3-1.9-4.5-3.9-6.7-5.9c-3.7-6.1-2.7-12,2.6-17.5
							c12.1-12.8,23.5-26.2,33.4-40.7c2.7-4,6.5-7,9.9-10.4c15.2-5.4,31.2-7.8,46.8-11.6c18.3-4.5,36.9-8.2,55.3-12.2
							c3.3,5.8,9.3,8.4,14.3,12c28.6,20.4,57.3,40.6,85.9,61c1.9,1.4,4.4,2.4,5.8,6.1c-33.2,7.3-66.1,14.6-99,21.8
							c-7,4.7-15.2,5.7-23,7.7c-2.6,0.7-5.4,0.6-8,1.5c-23.7,5.6-47.6,10.7-71.3,16.1C846.9,764,842.5,766.2,838.8,762z"/>
						<path class="st22" d="M604.2,676.3c-10.2,0.8-20.5,1.5-30.7-1.4c1.6,8-0.6,10.8-11.3,16.2c-12,6.1-24.5,11.6-35.7,19
							c-10.5,7.1-22.7,10.9-32.8,17.7c-8.8,5.8-19.2,9.1-26.8,17.6c-4.9,5.6-14.2,7.2-21.2,11.1c-5.4,3.1-10.4,7-15.5,10.6
							c-2.4,1.7-2.1,3.1,0.8,4.2c4.7,1.7,9.3,3.8,14.4,4.3c-0.6,3.2-3.3,2.7-5.2,2.4c-4.5-0.6-8.8,0.3-13.1,0.8
							c-11.4-4.1-23.5-2.7-35.2-4c-18.3-2.1-36.9-1.5-55.1-4.9c-1.9-1.2-2.7-3.1,0-3.7c21.1-5,36.9-20.1,55.8-29.1
							c21.3-10.2,38.9-26.6,60.2-36.4c12.7-5.8,24-14,36.7-19.6c6.5-2.9,12.2-7,18.1-10.8c0.6,0.1,1.2,0.2,1.8,0.3
							c3,1,6,1.6,9.1,0.5c25.6,1.3,51.1,2.5,76.7,3.9C598.2,675.1,601.2,675.9,604.2,676.3z"/>
						<path class="st23" d="M507.6,670.3c-3.1,7.3-10.5,9-16.6,12c-4.7,2.4-9.8,4.2-13.8,7.7c-8.8,7.6-21,8.6-29.9,15.9
							c-7.4,6-16.9,8.4-24,15.1c-9.7,9-23.2,12.3-33.5,20.3c-10.9,8.6-25.5,10.5-35.2,21.3c-4.5,5-12.4,4.6-19.1,5.3
							c-5.2,3.1-19.7,2.7-24.1-0.8c-0.7-0.6-0.3-1.4-0.2-2.1c17.3-15.4,34.5-30.7,51.8-46.1c17.1-15.3,34.2-30.6,51.2-46
							c2.4-2.2,4.5-4.7,6.7-7.1C449.9,665,478.7,668,507.6,670.3z"/>
						<path class="st24" d="M844.5,660.8c0.1,0.8,0.5,1.8,0.2,2.2c-14.8,16.3-26.5,35.1-42.5,50.4c-4.6,4.4-5.2,10-3.6,16
							c-4.7-1.6-7.7,0-9.5,4.5c-2.1,5.1-4.6,10-6.6,15.1c-1.4,3.4-3,6.2-7.5,7.9c0.7-9.3,5.1-16.4,9.1-23.4c4-6.9,4.2-10.6-1.8-16.1
							c-5.4-4.9-11.2-9.3-16.5-14.4c-4.9-4.7-9.9-9.7-5.7-17.6c2-3.8-1.5-3.9-3.7-4.8C785.5,672.9,814.9,666.4,844.5,660.8z"/>
						<path class="st23" d="M518.5,671.1c-2.3,2.8-3.3,2.7-9.1-0.5C512.5,670.1,515.6,669.7,518.5,671.1z"/>
						<path class="st25" d="M408.7,673.7c-0.8,0.3-1.7,1-2.5,0.8c-1.7-0.3-2.5-1.7-2-3.3c0.2-0.7,1.6-1.5,2.2-1.4
							C407.9,670.3,408.6,671.7,408.7,673.7z"/>
						<path class="st26" d="M462.3,1123.2c-3.6,5.4-7.2,10.8-10.8,16.1c-6.9-0.7-10.1-3.9-9.3-11.3c0.5-4.6-0.6-9.4-1-14.1
							c-0.7-1.4-1.4-2.8-0.6-4.4c1.8-9.2-1.1-18.4,0.3-27.6c0.8-1,1.8-1.6,2.8-2.4c4.9-3.9,4.7-6-1.2-8.8c-0.9-0.4-1.8-0.7-2.4-1.6
							c-0.4-2.2-0.8-4.3-1.2-6.5c-0.6-3.9-2.3-7.6-2.1-11.7c-0.7-24.5-2.2-49-3.2-73.5c-0.2-4-0.6-8.1,0.2-12.1
							c2.6-5,6.1-6.6,9.6-1.3c2.8,4.3,4.4,2.6,6.8,0c8.6-9.8,9.7-9.9,19.2-1.4c19.1,16.9,34,37.5,50.1,56.9
							c4.9,5.8,9.5,11.8,14.3,17.7c2.4,2.9,5.1,5.8,4.4,10.1c-5.6,7.7-14.3,11.7-21.5,17.5c-7.3,5.9-14.1,12.2-20.6,18.8
							c-1,1-2,2.1-3,3.1c-9.3,9-17.4,19-24.6,29.8C466.7,1119.2,465.1,1121.8,462.3,1123.2z"/>
						<path class="st26" d="M922.5,745.7c10.4-2.6,20.7-5.2,31.1-7.8c-2.4,8.5-0.5,17.1,0,25.6c2.4,45.9,5.1,91.7,7.8,137.6
							c3.7,8.6,2.4,17.8,3,26.8c0.9,12.3,2.1,24.6,1.6,36.9c-0.7,11.1-0.4,22.2,0.1,33.3c0.4,10.9-2,14.7-12.6,17.2
							c-3.2,0.8-6.1,2.4-9.3,2.9l0,0c-4.4,1.5-8.5,3.7-12.7-1c-2.2-2.4-4.8-0.7-5.1,2.5c-0.4,3.5-2.5,5.2-5.4,6.3
							c-1.7,0.7-3.3,1.5-5,2.2c-7,2.2-13.6,5.4-20.3,8.2c-17.9,8.5-35.4,17.8-52.2,28.1c-1.2,0.8-2.8,1-4.2,1.5
							c-3.5,0.6-5.6-1.9-7.9-3.7c-22.9-18.2-48.5-31.4-76-40.8c-19.9-6.8-40.6-10.5-61.7-12.1c-2.3-0.2-4.6-0.1-6.7-1
							c-9.4-4.4-13.1-14-18.2-21.8c-12.1-18.7-24.2-37.4-35.2-56.9c-4.5-8-9.1-15.8-10.7-25c-0.9-5.2,0.6-7.4,6.1-7.6
							c6.9-0.3,13.5,1.4,20.4,1.5c11.7,0.2,21.8-5.9,33.3-6.3c6.8-0.2,11.5,1.2,15.7,6.8c5.4,7.3,11,14.5,17.4,21.1
							c7.8,8.1,11.5,19.1,18.2,28c1.2,1.6,2.2,3.5,3.5,5c1.4,1.6,2.6,4.6,5.2,2c1.8-1.8,1.5-4.2-0.6-6
							c-14.1-11.8-20.2-28.7-28.4-44.3c-1.3-2.5-2.1-5.2-1.8-8.1c0.5-6.1,4.2-9.1,10.8-9c9.1,0.3,9.1,0.3,10.8-8.5
							c2.5-12.9,5.4-25.8,4.9-39.1c-0.1-3.2,0.2-6.7,3.4-8.8c4.7,11,5.4,22.6,4.7,34.4c3.2-0.1,2.6-1.9,2.4-3.3
							c-0.3-2.2,0.5-3.5,2.5-3.9c1.8-0.4,2.5,0.9,3.4,2.2c5.7,8.4,15.2,6.5,23.3,8.1c1.8,0.4,3.3-1.6,3.9-3.2
							c6-14,17.7-24.4,24.1-38.1c8.9-19.1,21.1-36.5,31.2-54.9c1.9-3.5,2.7-7,1.5-10.9c4.3,2.1,8.4-0.3,12.5-0.6
							c-4.4,10.4-9.8,20.4-15.1,30.3c-6.9,13-13.9,26-19.9,39.3c-4.1,9.1-7.1,18.8-11.9,27.8c-2.9,5.4-1,8.7,5.1,9.9
							c6.6,1.3,11.8,3.6,16.4,9.4c5.9,7.4,18.9,4.8,23-3.6c3-6,7.1-10.9,11.5-15.9c6.9-7.7,12.8-16.6,17.4-25.6
							c9.3-18.1,20.9-34.8,29.9-53c4.4-8.9,8.9-17.7,13.5-26.4C922.5,751.2,922.7,748.5,922.5,745.7z"/>
						<path class="st27" d="M1355.9,518.8c-19.1-3.6-31.4-21.4-27.9-40.3c3.4-18.8,21.7-31.1,40.6-27.4c19,3.7,31.1,21.6,27.5,40.6
							C1392.6,510,1374.5,522.3,1355.9,518.8z"/>
						<path class="st28" d="M1104.6,552c-0.5,2.1-1.9,3.1-3.7,3c-2.4-0.1-3.6-1.8-3.3-4c0.2-1.8,1.6-3.1,3.6-2.9
							C1103.7,548.3,1104.5,549.9,1104.6,552z"/>
						<path class="st29" d="M685.8,1006c-2.6,2-5.2,1.1-7.7-0.1c-5.8-6.9-12-13.5-15.8-21.8c-19.8-29.1-40.6-57.4-62.7-84.7
							c-1-1.2-2.2-2.2-2.9-3.5c-8-14.8-21.1-17.6-36.4-15.5c-2,0.3-4.1,0.3-5.7,1.7c-4.4,3.9-9.8,5-15.4,5.8
							c-7.4,1.1-9.6,5.7-6,12.3c6.6,12.3,13.7,24.2,21.9,35.4c5.7,7.8,9.7,16.6,15.1,24.6c1.3,2,3.5,4.9,0.8,6.7
							c-2.5,1.6-4.6-1.3-6.1-3.1c-9.6-11.1-18.5-22.8-27.6-34.4c-8.9-11.4-19-21.7-29.4-31.7c-3.3-3.2-7.1-4.4-11.8-3.6
							c-13.3,2.5-26.5,5.8-40.1,6.7c-3.7,0.3-5.4,2.4-5.7,5.9c-0.2,2.1,0.1,4.2,1.3,5.8c9.8,12.9,14.7,29,25.7,41.1
							c3.1,3.4,5.6,7.2,7.3,11.5c0.8,2.1,2.1,4.6-0.2,6.3c-2.7,1.9-4.9,0-6.5-2c-6.7-8.3-13.2-16.7-19.9-24.9
							c-7.2-8.8-13.4-18.5-21.6-26.4c-2.8-2.7-3-6.3-4.5-9.5c-1-2.5-0.7-5-0.2-7.6c1.8-5.2,2.4-10.5,1.1-15.9
							c-1.9-13-1.7-26.2-2.3-39.3c-1-22.7-1.6-45.5-2.4-68.2c3-3.1,6.7-2.3,10.3-1.9c2.4,0.3,4.8,1.7,7.1-0.1
							c16.2,2.4,32.5,2.9,48.8,4.1c20.1,1.5,40.2,2,60.2,4.5c8.5,1.1,17,1.7,25.6,1.8c18.1,0.3,36.1,2.5,54.1,4.1
							c9,0.8,14.1-4.2,19.3-9.5c19.5-20.1,38.7-40.4,58.1-60.6c10.3-10.7,20.5-21.4,31.6-32.9c2.1,12.1,1.1,23.4,0.8,34.4
							c-0.5,16.3-0.4,32.6-0.9,48.9c-0.4,15.1-0.9,30.1-1.4,45.2c-0.2,5.3,1.9,10.5,0,15.8c-1.8,17.2-2.9,34.4-6.7,51.3
							c-1.5,6.9-4.3,8.7-10.9,7.4c-8.9-1.7-12.7,3.3-9.5,11.9c5.6,14.8,14.6,27.6,22.7,41c0.9,1.4,2.5,3.3,3.8,3.4
							c6.6,0.5,5.3,4.6,4.5,8.7c-0.4,2.1-1.1,4-3.4,4.5c-2.4,0.5-3.7-1.2-4.8-3c-4.5-7.3-10-13.9-13.7-21.8
							c-5.4-11.3-15.6-19.1-22.7-29.2c-0.1-0.2-0.4-0.3-0.6-0.5c-4.7-5.1-6.8-13.8-16.8-11c-6.7,1.9-13.8,0.9-20.4,4.7
							c-6,3.3-13.7,1.7-20.5,1.4c-6-0.3-11.9-1.6-18.3-1.1c-0.5,9.5,3.7,17.7,8.4,25.3c10.5,17,19.7,34.7,31.4,50.9
							c5.5,7.7,10.3,16,15.2,24.2C680.9,1002.5,683.7,1003.9,685.8,1006z"/>
						<path class="st20" d="M618.9,784.5c-6.8,0.1-13-4.2-20.6-4.7c-15.8-1.2-31.7,0.3-47.3-2.3c-4-0.6-7.9-1.4-11.7-3.2
							c-5.1-2.4-10.6-3.3-15.7,0.9c-1.8,1.5-4.7,2.8-6.3,1.7c-6.6-4.5-13.7-0.5-20.5-1.5c-4.7-0.7-9.5-1-14.2-1.8
							c-2.2-0.4-5.2-0.3-5.6-3c-0.3-2.2,2.5-2.9,4.1-4c3.3-2.3,6.8-2.6,10.8-2.1c4.1,0.5,8.1-0.3,6.5-6.1c-0.7-2.4,0.2-3.8,2.2-5
							c6.4-4,12.1-9.2,19.9-10.7c4.3-0.8,7.5-3.4,10.6-6.7c7.1-7.7,16.9-10.3,26.7-13.4c6.9-2.2,13.1-3.1,20.2-2.4
							c4.4,0.4,5.2-3.9,4.8-7.1c-0.4-3.7,0.8-6.9,3.9-7c6.6-0.2,11.6-5.6,18.4-4.9c3.6,0.4,6.5-1.7,7.5-5.2c0.9-3,2.6-5.4,4.1-8
							c2.2-3.8,3.5-6.1,8.3-2.1c5.3,4.4,16.9,2,21.3-3.1c3.8-4.4,8.5-1,12.7-1.6c3.6-0.5,1.4,4,2.5,6c1.6,2.9-1.4,9,2.8,9
							c5.6,0,2.3-5.9,3-9.2c0.6-2.7,0.5-5.8,4.8-5.2c3.2,0.5,5.3,1.5,4.4,5.4c-0.3,1.4-1.1,3.2,0.7,4c1.7,0.8,2.6-1,3.7-1.9
							c4.1-3.1,10.3-1.2,14-5.8c0.8-1,4.4,0,4.9,3.1c0.5,2.9,1.9,5.6,1.8,8.8c-0.1,2.1,1.2,4.8,4,4.6c3.1-0.3,3.7-2.5,3.5-5.5
							c-0.5-10.4,0-10.8,10.4-9.6c1.8,0.2,3.6,0.4,5.2,1c3.2,1.1,8.4-0.4,9.3,3.4c1,4.5-5.8,3.8-7,6.3c-3.9,8.2-10.3,12.4-18.5,15.1
							c-1.9,0.6-1.5,3.6-2.2,5.4c-1.7,4.4-0.7,11.9-9.5,8.8c-0.4-0.1-1.5,0.6-1.6,1.1c-1.9,7.7-10.8,9.6-13.8,17.4
							c-1.5,4-6.4,13.9-16.2,10.6c-0.3-0.1-1.3,0.3-1.3,0.5c0.5,7.6-8.9,8.5-10.2,15.6c-2,11-14.8,17.3-28.5,15.7
							C623.5,785.5,621.5,785,618.9,784.5z"/>
						<path class="st20" d="M922.5,745.7c2.7,1,4.6,2.2,2.7,5.5c-11.8,21.3-22.6,43.1-35.1,64.1c-7.8,13.1-16,25.9-23.2,39.4
							c-0.6,1.1-1.3,2.3-2.2,3c-8.1,6.1-13,14.5-16.8,23.7c-0.5,1.3-1.7,2.7-2.9,3.4c-4.6,2.4-21.7-3.8-23.5-8.8
							c-0.9-2.4-2.2-3.1-4.3-3.5c-3-0.6-6-1.1-8.9-1.7c-7.3-1.6-9.7-5.5-6.6-11.9c12.9-26.6,23.9-54,38.9-79.6
							c3.5-6,5.5-12.9,10.7-17.9C875,755.9,898.6,750.1,922.5,745.7z"/>
						<path class="st30" d="M435.9,964.1c-2.1-18.5-2.1-37.1-2.6-55.6c3.8,11,13.5,17.6,19.7,26.9c7.4,11.1,16.4,21.1,24.8,31.5
							c1.5,1.9,2.8,4.3,6.4,4.3c-0.5-7.1-4.6-12.2-8.8-16.8c-11.4-12.6-16.8-28.7-26.2-42.5c-4.9-7.3,0.7-13.7,9.7-12.4
							c4.4,0.6,7.9-1.4,11.6-2.7c8.8-3,18.5-0.5,27.3-4.9c2.9-1.5,7.4,0.6,10.4,3.5c14.3,13.9,27.8,28.6,39.7,44.6
							c6.9,9.2,14.5,17.9,23.2,25.9c-4.1-7-7.8-14.2-12.2-21c-9.5-14.6-19.7-28.7-28.1-43.9c-3.7-6.8-0.2-14,7.6-14.8
							c6.1-0.6,11.2-2.9,16.5-6.6c8.6-6.1,31.8-0.3,38.3,8.2c17.5,22.8,35.3,45.5,52.5,68.5c6.6,8.8,12.2,18.5,18.2,27.7
							c-5.1,1.1-7.3-3.1-9.4-6.1c-7.9-11.5-17.5-21.6-25.5-32.9c-1.5-2.1-3.4-4.7-5.8-4.5c-6.3,0.5-11.7-2.4-17.5-3.5
							c-8-1.5-15,1.5-20.6,7.1c-3.6,3.6-7.1,6.6-12,4.4c8,24.7,22.9,45.4,38.6,65.6c-3.1,1.5-6.2,3.1-9.9,2.5
							c-7-6.9-12.3-15.3-18.5-22.9c-9.7-11.9-18-25.1-29.4-35.6c-4.3-4-9-5.3-15.1-5.6c-11.9-0.5-23.2-0.2-33.2,7.3
							c-2.6,1.9-5.7,1.6-8.8,1.4c-5.7-0.3-7.4,2-4,6.5c6.3,8.3,10.2,18,16,26.7c9.1,13.7,18.7,26.9,28.9,39.7c2.1,2.6,5,5.2,4.4,9.3
							c-0.1,0.6-0.2,1.3-0.2,1.9c-1.7,0.6-3.3,1.1-5,1.7c-0.5-6.5-6.1-9.6-9.5-14.1c-15.6-21-33.1-40.4-49.9-60.4
							c-3.8-4.6-8.7-8.3-13.4-12.1c-3.5-2.8-7.1-3.9-10,1.3c-1.3,2.4-3,4.7-5,6.6c-2.9,2.7-5.8,3.8-6.6-1.8
							C441.8,961.8,439.6,961,435.9,964.1z"/>
						<g>
							<path class="st31" d="M267.7,1024.1c-1.4,4.5-2.9,9.1-4.3,13.6c-3.5-0.7-7-1.4-10.5-2c-8.4-13.1-16.7-26.3-21.9-41.1
								c-5.9-16.5-10.4-33.2-8.9-51c0.4-4.9,1.7-9.4,3.7-13.8c4.9,7.3,12.5,10.4,20.3,13.3c4,2.9,3.6,7.5,4.6,11.6
								c4.7,19.8,10.2,39.4,15.8,59C267.3,1017.1,268.6,1020.4,267.7,1024.1z"/>
							<path class="st32" d="M214,1028.1c-8.6-9.5-17.1-19-25.7-28.5c-8.7-4.8-13.7-13.3-19.2-20.9c-13.4-18.3-26-37.1-36.1-57.4
								c-0.6-1.4-1.2-2.8-1.5-4.3s-0.4-3.1,1.2-4c1.8-1,3.4-0.4,4.8,0.8c1,0.8,1.6,1.9,2.2,3.1c15.2,27.4,32.9,53,52.8,77.1
								c1,1.2,1.5,2.6,2.3,3.9c4.1,7.3,9.6,13.4,15.3,19.4c3.6,3.8,8.2,6.7,10,12C218,1028.9,216,1028.5,214,1028.1z"/>
							<path class="st33" d="M291.9,610.7c0.5-3,0.9-6,1.4-9c2.4-0.9,4.3,0.5,6.3,1.4c3,2.2,4.4,5.6,5.9,8.7
								c17.8,35.7,36.9,70.9,54.8,106.5c11.8,23.5,23.8,46.9,36.2,70.1c1.2,2.2,3.9,4.3,1.7,7.4c-0.1,0.1-0.4,0.1-0.6,0
								s-0.4-0.3-0.6-0.4c-54-20.6-90.2-56.5-100.1-115.3c-3.6-21.2-5.2-42.6-4.6-64.1C292.4,614.2,292,612.5,291.9,610.7z"/>
							<path class="st34" d="M194.8,997.9c-3.8-1.4-5.7-4.9-8-7.8c-18.1-23.4-35.7-47.1-49.1-73.5c-0.8-1.7-2.3-3.8-3.8-2.9
								c-3.7,2.2,1.3,4.6,0.4,7.1c-1.1,5.5-4.5,4-7.1,1.9c-5.7-4.5-11.8-7.7-19.2-8c-3.2-0.1-4.3-2.4-4.7-5
								c-0.8-5.4-3-10.8-0.1-16.3c-0.8,1.6-0.3,3.6-2.1,4.7c-1.2-5.6,0.7-10.5,3.3-15.3c3-3.4,6-1.9,8.6,0.3
								c13.1,10.9,26.5,21.3,41.8,29.2c4.6,2.3,8.8,5.9,12.8,9.4c4.8,4.1,10.1,6.3,16.1,7.6C194.9,950.9,200.5,973.5,194.8,997.9z"
								/>
							<path class="st35" d="M366.8,911.8c-2.1,0.4-2.8,1.5-2.6,3.8c0.3,4.7-2.5,7.2-6.8,7.4c-4.6,0.1-8.1-2.2-7.9-7.2
								c0.1-3.3-0.8-4.3-3.9-5c-31.2-6.8-52.3-27.2-69.5-52.6c-4.1-6.1-7.4-12.6-11.1-19c2.2-1.3,4.4-0.9,6.6,0
								c22.4,8.7,44.8,17.3,66.9,26.7c10.9,12.7,19.6,27,28.6,41C368.1,908.6,368.6,910.4,366.8,911.8z"/>
							<path class="st36" d="M101.1,898.1c0.7-2.6,1.4-5.2,2.1-7.8c0.2,0,0.5,0.1,0.7,0.1c-0.3,3.9-1,7.9-1,11.8
								c0.1,8,5.1,11.3,12.5,12c5.2,0.5,9.5,3.3,12.9,7.2c2.5,2.8,4.2,1.8,6-0.6c10.9,19.1,22.3,38,35.5,55.7
								c5.9,7.9,12.3,15.4,18.5,23.1c-17-3.5-32.1-11.3-44.6-23c-19.3-18-34.4-39.1-41.5-65C101,907.2,100,902.7,101.1,898.1z"/>
							<path class="st37" d="M183.6,929.3c-4.4,1.8-8.9,0.7-12.1-1.9c-10.1-8.2-22.2-13.7-32.1-21.5c-8.7-6.8-19.8-10.9-26.5-20.4
								c-1.9-2.8-4.9-4.4-8.6-2.7c8.2-17.4,20.7-21.1,36.5-9.8C160.9,887.2,174.5,906.6,183.6,929.3z"/>
							<path class="st38" d="M334.4,831.3c36.4,5.4,61.1,26.7,78.3,58.1c0.3,0.6,0.1,1.5,0.2,2.2c-6.6,0.6-12.3-2.1-18.2-4.4
								c-17.2-6.6-34.5-13.1-51.5-20.1c-2.5-1-5.4-1.6-7-4.2c-0.2-0.7-0.2-1.5,0.4-2c7.9-6,8.3-8.4,2.5-16.7
								c-2.1-3.1-4.8-5.8-5.7-9.6C333,833.3,333.2,832.1,334.4,831.3z"/>
							<path class="st39" d="M334.4,831.3c-0.5,4.6,3,7.3,5.2,10.4c1.6,2.2,3.3,4.4,4.3,6.9c3.3,8.1,1.1,11.7-7.7,12.6
								c-3,2-5.9,0.6-8.7-0.5c-17.5-6.4-34.9-13.1-52.1-20.4c-2.7-1.2-6.7-1.6-6.7-6C290.5,829.4,312.2,825.9,334.4,831.3z"/>
							<path class="st40" d="M397,795.4c-2.9-10.6-9.2-19.6-14-29.3c-14.4-28.6-29.3-56.9-44.1-85.3c-13.2-25.5-26.5-51-39.7-76.5
								c-3.4-2.6-5.6-5.9-4.7-10.4c0.2-1,1.1-1.8,2.2-1.7c4.4,0.5,6.1,4.1,7.8,7.4c14.7,29.6,30.4,58.8,45.3,88.3
								c8.2,16.2,17,32.1,25.5,48.2c9.7,18.5,17.8,38,29.3,55.6c5,11.2,10.4,22.3,16.6,32.9c3.1,5.5,6.1,11,7.2,17.2
								c1,3.5,2,7.1,0.5,10.7c-8.9-16.6-18-33.2-26.7-49.9C400.7,800.1,399,797.7,397,795.4z"/>
							<path class="st41" d="M366.8,911.8c-0.9-6.3-5.8-10.2-8.7-15.4c-5.4-9.9-13.6-18-18.6-28.1c3.1-2,6-0.1,8.6,1
								c18,7.4,36.1,14.2,54.1,21.6c3.6,1.5,8.8,2,8.7,7.9C397.2,906.3,382.8,911.7,366.8,911.8z"/>
							<path class="st42" d="M246,944.3c-6.5-0.2-11.2-4.9-17-6.9c-3.7-1.3-1.9-5.2-3.3-7.6c1.2-4.3,4-7.5,7.5-10.2
								c9.2-6.9,17.3-6,24.4,3c6.9,8.7,10.4,19,12.7,29.7c-2.5,6.1-6.6,6.6-11.7,3.2c-1.8-1.3-3.9-2.1-5.9-2.9
								c-4.5-5.3-3.2-12.5-5.9-18.5C246.4,937.4,249.4,941.2,246,944.3z"/>
							<path class="st43" d="M253.4,952.3c1.3-1.4,2.7-1.1,3.9,0.1c4.4,4.4,8.7,4.4,13.1-0.1c5.6,15.9,6.4,32.6,9,49
								c-3.7,4.6-3.9,11.3-9.1,15c-2.9-0.8-3.7-3.3-4.3-5.7c-4.5-16.8-10.1-33.3-13.3-50.4C252.1,957.6,251.1,954.7,253.4,952.3z"/>
							<path class="st44" d="M411,898.7c-7.4-7-17.3-8.7-26.1-12.4c-15-6.3-30.2-12.1-45.3-18c-22.4-8.8-44.9-17.6-67.3-26.4
								c-2.3-0.9-4.7-1.7-7.1-2.5c-3.1-4.9,1-4.5,3.7-5.1c7.9,5.4,17.4,7.4,26,11.5c13.4,6.3,27.6,10.6,41.5,15.5
								c13.4,7.4,28.1,11.7,42.2,17.3c11.4,4.6,22.9,8.7,34.3,13c5.9,2.7,11.8,5.4,17.7,8c1.3,1.3,1.5,2.8,0.6,4.4
								C424.1,903.4,418.6,897,411,898.7z"/>
							<path class="st45" d="M430,859.2c4.6-0.4,9.2-0.2,9.6,5.7s-4.4,6.6-8.8,7.1C426.9,867.9,425.4,863.8,430,859.2z"/>
							<g>
								<path class="st46" d="M1089.4,650.1c-18.6-27.2-20.8-57.5-16.9-89c2.4,2.7,2.6,3.2,3.5,8.6c4.8-3.1,7.4-7.6,9.5-12.3
									c2.9-6.5,6.4-12.6,12.1-17.2c1.4-1.1,2.8-2.4,3.4-4c5.1-13.3,15.4-22.9,23.8-33.9c1.8-2.3,2.2-4.3,0.8-6.9
									c-1.1-1.9-2.5-4-0.2-6.1c15.1,8,21.7,21.5,22.4,37.6c2.2,47.2-9.8,89.2-47.3,121c-0.9,0.8-2.1,1.4-3.2,2
									c-2.7-5.6,0-10.9,1.3-16.2c5.4-22.1,12.9-43.7,14.3-66.6c0.4-7,3.2-13.8,2.4-21.1c-1.7,24.9-8.3,48.7-12.8,73
									c-1.6,8.5-5.2,16.4-6.7,24.9C1095.1,646.9,1093.7,650.2,1089.4,650.1z"/>
								<path class="st47" d="M1136.3,704c12.5-4.7,25-3.3,37,1.2c13.7,5.2,19,19,12.8,32.3c-7.7,16.6-22.4,25.6-37.9,33.4
									c-22.7,11.4-46.2,13.6-70.4,4.9c0.5-5.3,5.3-6.3,8.8-8.3c25.8-14.4,52.2-27.9,78.3-41.7c-14.7,6.2-28.6,14.2-43,21
									c-2.6,1.2-5.3,4.4-8.8,1.4c-0.3-3.9,1.8-6.9,4.3-9.2C1127.8,729.5,1134.6,718.1,1136.3,704z"/>
								<path class="st48" d="M1113.7,749c16.7-8.4,33.3-16.8,50-25.2c1.6-0.8,3.9-2.9,5.3-0.4c1.6,2.9-1.4,3.8-3.4,4.7
									c-26.3,13-52.2,26.7-77.9,40.9c-3.5,1.9-7.3,3.5-9.9,6.8c-11,5.6-22,11.1-32.2,18.3c-6.5,4.6-7.9,10-4.4,16.9
									c-10.6,1.4-21.2,2.7-31.9,4.1c-0.9-1.5-0.3-2.9,0.4-4.3c1-2,2.3-3.9,3.4-5.8c2.9-4.8,6.8-10.8,3.5-15.2
									c-3.5-4.7-10.7-4.5-16.8-3.4c-1.4,0.3-2.8,1.3-4.1-0.3c-0.8-5.7-0.9-11.2,2.5-16.3c6.5,4.7,14.5,3.8,21.7,5.8
									c1.6,0.4,2.9-0.2,3-2.3c0.3-14.7,3.6-29.5-1.4-44c-1.1-28-5.1-55.7-9.4-83.3c-1.3-8.5-2.8-16.9-4.5-25.3
									c-0.8-4.4-2.7-8.7-2.8-13.2c-0.1-2.7,0.1-6,3.6-6.5c3.1-0.4,4.1,2.4,4.8,4.8c1,3.3,1.5,6.8,2.2,10.3
									c6.5,32.8,11.4,65.8,13.9,99.1c0.5,6.3,1.4,12.6,0.2,18.9c-1.8,13.5,0.5,27.1-1.4,40.6c-0.3,1.8,0.9,2.8,2.6,3.1
									c2.3,0.4,3.7-0.7,4.9-2.7c4.6-8.1,9.5-15.9,13.9-24.1c12.7-23.4,23.2-47.9,32.2-73c3.2-9,7.9-17.8,7.5-27.9
									c3.1-1.1,3.5-4.1,4.2-6.7c8.6-32,16.4-64.2,19.3-97.4c0.1-1.5,0.4-3,0.6-4.5c0.3-1.8,0.8-3.8,3.1-3.4
									c1.7,0.4,1.6,2.3,1.5,3.9c-1.8,20.9-4.5,41.8-9.7,62.2c-3.9,15.2-7.5,30.5-11.2,45.7c-6.9,17.3-12,35.2-19.2,52.4
									c-9.9,23.5-20.9,46.4-34,68.2c-3.8,6.3-5.4,11.9,0.3,18.4c9.8-6,19.9-12.2,29.9-18.4C1086.5,761.9,1099.1,753.7,1113.7,749z
									"/>
								<path class="st49" d="M1029.7,734.1c-2.9-10.5-2.2-21.5-3.3-32.2c-2.9-28.7-7.6-57.1-12.5-85.4c5.1-3.3,8-9.1,13.6-11.9
									c3.3-1.6,1-5.7,2.6-8.3c6.7,4,9.6,10.9,12,17.6c11.6,32,12.8,64.6,4.2,97.5C1043.8,720.9,1038.3,728.8,1029.7,734.1z"/>
								<path class="st50" d="M1125.3,489.3c7.3,9.7,0.2,16.2-5.5,22.4c-6.6,7.4-10.7,16.6-16.7,23.9c-8.9,10.8-14.9,23.2-23.4,34
									c-1.3,1.6-2.3,4.8-5.1,3.4c-2.2-1.1-1.9-3.9-1.6-6.2c0.2-1.9,1.3-4-0.6-5.7c1.6-24.1,7.6-46.8,22.4-66.2
									C1103.7,483.4,1113.5,482.1,1125.3,489.3z"/>
								<path class="st51" d="M994.7,769.2c-0.1,5.7-0.1,11.4-0.2,17.2c4.2,3.6,3,6.8,1.3,9.7c-5.2,8.7-8.9,18-24,22.9
									c-2.7-0.3-5.4-0.6-8.1-0.9c-10-8.5-6.2-16.6-9.3-24.8c-2.9-7.9,3.4,14.4-0.3,6.5c-5.3-20.3-0.7-40.7-6-61
									c-0.5-1.8-0.6-3.6-0.9-5.3c23.5,9.4,20.5-8,31,5.2C986.4,748.7,991.9,759,994.7,769.2z"/>
								<path class="st52" d="M1113.7,749c-13,7.5-25.9,15.1-39.6,21.4c8.8-20.6,20-39.6,37.7-53.9c7.3-5.9,15.1-10.9,24.6-12.6
									c3.6,12.6-4.7,21.1-11.1,29.7C1121.4,738.8,1116,742.7,1113.7,749z"/>
								<path class="st53" d="M1009.4,620.5c6.8,33.8,11.6,67.9,13.6,102.3c0.1,2.3,1.7,5.1-1.6,6.6c-15.1-31.2-25.5-63.7-29-98.4
									c0.7-0.3,1.5-0.3,2.2,0.1c7.3,4.1,7.7,3.9,10.6-4.5C1006.1,624.2,1005.4,620.7,1009.4,620.5z"/>
								<path class="st54" d="M1009.4,620.5c-3.1,3.1-1.9,7.6-3.8,11.1c-3.7,6.7-4.7,7-10.2,1.7c-0.9-0.9-2-1.5-2.9-2.3
									c-2-10.1-1.6-20.1,0.8-30c1.7-7.1,5.2-13,12.9-14.2c7.6-1.1,15.1-0.3,20.4,6.5c0.9,1.2,2.2,2,3.3,3
									c3.2,5.6,1.7,9.6-4.4,11.8c-2.5,0.9-4.4,2.3-5.2,5.1c-0.9,3.6-3.6,3.8-6.6,3.2c-0.9-3.9-1.8-7.8-2.8-11.6
									c-0.4-1.4-1-3.2-2.9-2.8c-1.8,0.4-1.9,2.3-1.7,3.7C1007.5,610.7,1008.5,615.6,1009.4,620.5z"/>
								<path class="st55" d="M1153,638.8c-3.1-1.2-5.2-3-4.5-6.7c0.8-4.1,3.9-5.3,7.3-4.6c3.2,0.6,5.4,3.2,4.6,6.6
									C1159.6,637.8,1156.8,639.2,1153,638.8z"/>
								<path class="st56" d="M1082.5,715.4c-1.3-0.7-3.6-0.2-3.3-2.9c0.2-1.5,8.7-8.3,9.6-7.6c2,1.5,2.7,3.8,2,6
									C1089.6,714.7,1086.7,716.3,1082.5,715.4z"/>
								<path class="st57" d="M1140.4,654.9c-1.8-0.7-3.3-1.8-3-3.9c0.3-2.5,2.2-3.4,4.3-3.2c1.9,0.2,3.2,1.7,3,3.7
									C1144.4,654,1142.6,654.8,1140.4,654.9z"/>
								<path class="st58" d="M981.7,820.8c6.5-10.7,12.5-21.5,14.8-34c2-2.9,4.3-4.7,8.1-3.2c1.4,0.5,2.9,0.6,4.4,0.9
									c12.4,2.4,14.6,7.4,8,18.7c-2.4,4.1-5,8-7.6,12C1000.1,817.1,990.9,818.9,981.7,820.8z"/>
							</g>
							<path class="st59" d="M908.6,1122.5c1.7-4.8,3.4-9.5,5.1-14.3c0.9,10.9-4.2,20.4-7.2,30.4c-0.8,2.6-1.4,5.3-2.5,7.9
								c-0.8,2-0.8,5.5-4.7,3.8C902.6,1141.1,907.3,1132.3,908.6,1122.5z"/>
							<path class="st60" d="M253.4,952.3c3.6,21.9,9.5,43.1,16.8,64c-0.1,2.8,0.1,5.7-2.5,7.7c-7.9-24.1-14.2-48.6-19.9-73.2
								c-0.5-2.2-1.2-4.3-1.8-6.5c0.7-3.6-1.2-6.8-1.3-10.3c0-1.6-2.2-4.3,1.2-4.7c2.8-0.3,2.7,2.5,3,4.3
								C250.4,939.8,250.9,946.3,253.4,952.3z"/>
							<path class="st61" d="M403.7,792c-5.2-1.6-5.4-7-7.5-10.8c-7.9-14.5-15.8-29.1-22.2-44.3c0.3-9.7-3.6-18.6-6.1-27.6
								c-1-3.6-2.5-7-2.3-10.9c0.7-14.6-1.1-28.7-7.2-42.2c-1.8-4-2.2-7.9,2.6-10.3c9.3,8.7,15.6,19.8,23.5,29.7
								c2.2,0.6,3,2.5,4.1,4.3c19.7,32.4,27.9,66.9,19,104.5C406.9,787,406.9,790.3,403.7,792z"/>
							<path class="st62" d="M361,645.8c-5.5,6.8,0.6,12.5,2.5,18c4,11.6,4.1,23.4,4.1,35.3c0,2.3-0.8,4.5,0.8,6.5
								c6.1,8.2,3.5,19.2,9,27.7c1.5,2.3-0.9,3.5-3.3,3.4c-7.4-10.5-12.3-22.3-18.1-33.6c-18.4-35.3-36.5-70.8-54.7-106.1
								c-1-1.9-2.1-5-4.8-3.5c-2.5,1.5-0.2,4,0.5,5.9c0.6,1.6,1.5,3.2,2.2,4.8c-2-0.9-4-1.8-6-2.7c-0.2-0.7-0.6-1.5-0.4-2.2
								c0.5-3.2-0.5-7.6,2.2-9.2c3.1-1.7,5.7,2.2,8.2,4C324.6,609.2,344.5,625.5,361,645.8z"/>
							<path class="st30" d="M423.5,690.4c-0.6-1.7-1.2-3.3-1.8-5c0.4-3.4,0.7-6.7,1.1-10.1C425.3,680.2,425.6,685.3,423.5,690.4z"
								/>
							<path class="st29" d="M476.3,962.5c-10.6-8.3-23-13.3-35-19.1c3-1.9,6.1-0.7,8.6,0.6c4.2,2.1,8.6,2.8,13,3.7
								C475.4,950.2,475.4,950.1,476.3,962.5z"/>
							<path class="st63" d="M814.8,772.6c-4.1-0.8-6.2-3.5-5.5-7.5c0.7-4.1,3.8-6,7.8-5.2c3.7,0.8,6.7,2.9,5.6,7.5
								C821.8,771.3,819.2,773.2,814.8,772.6z"/>
							<path class="st64" d="M676.1,754.2c-1.1,3.5-3.6,4.9-7,4.3c-3.2-0.5-5-2.7-4.4-5.9c0.7-3.5,3.5-5,6.8-4.4
								C674.8,748.7,676.1,751.1,676.1,754.2z"/>
						</g>
						<g>
							<path class="st65" d="M165.7,233.2c8.3,1,14.4-3.7,15.5-11.8c1.1-8.2-4.4-15.6-12.3-16.4c-7.4-0.8-14.8,4.9-15.9,12.3
								C151.8,225.1,157.5,232.3,165.7,233.2z"/>
							<g>
								<g>
									<path class="st66" d="M353.1,298.4c0,0,78.7,87.1,86.5,192.6"/>
									<path class="st61" d="M338.7,308.5c-2.7-1.6-4.5-4.4-5-7.5c-1.1-4.5-1.2-9.9-1.8-11.9l-0.1-0.3c-1.9-1.5-4.2-2.4-6.7-2.7
										c-5.4-0.8-10.8-1.2-16.2-1.2c-13.4-0.3-30.9,0.1-50.6-2C219,278.8,171,264.3,132,214.7C90.1,161.5,99.3,84.1,152.7,42
										C206.1,0,283.6,9.2,325.6,62.6c15.7,19.5,27,42.1,33.3,66.3c13.1,51.6-1.7,97.5-7.2,124.5c-1.8,6.2-2.4,12.6-1.7,19
										c0.1,0.5,0.2,1,0.4,1.5l0.7,0.4l3.3,1.3c2.9,1,5.7,2.3,8.3,3.9c2.2,1.3,3.9,3.4,4.6,5.8c0.2,0.2,0.4,0.4,0.5,0.6
										c0.1,2.8-0.7,5.5-2.4,7.8c-1.6,2.3-3.4,4.3-5.5,6.2c-4,4-8.8,7-14.2,8.9C343.5,309.7,341,309.5,338.7,308.5L338.7,308.5z"
										/>
									<path class="st67" d="M336,291.5c-1.6-0.2-3-1-4-2.3c-1.3-1.7-1.3-4-0.1-5.8c1.3-1.7,3.5-2.4,5.5-1.6
										c0.9-0.4,1.7-1,2.5-1.6c0.9-0.7,1.6-1.4,2.3-2.3c-0.3-2.2,0.9-4.3,2.9-5.1c2-0.8,4.4-0.2,5.7,1.6c0.5,0.7,0.9,1.4,1.1,2.2
										c0.4,2.1,0,4.3-1.2,6c-0.9,1.4-1.9,2.6-3.1,3.7c-2.3,2.3-5.2,4-8.3,5C338.2,291.6,337.1,291.7,336,291.5L336,291.5z"/>
								</g>
								<g>
									<path d="M309,140.8c-1.7-1.3-3.5-0.5-5.1,0.6c-3,2.1-5.9,4.5-9.4,5.9c-4.2,1.7-4.7,1.3-4.3-3.1c1.7-18.6,0.4-36.8-6-54.5
										c-0.9-2.6-2.1-5-3.9-7.2c-3.4-4.1-8.2-5.5-13.1-6.5c-13.8-2.9-25.6,1.8-36.4,10.1c-2.8,2.2-5.5,4.2-9.1,5.2
										c-6.9,2-13.4,5.4-17.6,11.7c-1.2,1.8-2.6,2.5-4.6,2.8c-8.6,1.2-17,3.3-24.5,8c-9.1,5.8-13.9,13.8-12.5,24.8
										c0.9,7.2,3.8,13.7,7.9,19.8c8.7,12.9,18.7,24.6,30.3,34.9c3.9,3.5,8.2,6.6,13.4,8.1c5.7,1.6,10.3-1,12-6.7
										c1.4-5.1,2.8-10.1,4.3-15.2c0.3-1,0.3-2.4,1.8-2.4c1.9,0,3.7-0.4,5.4-1c1.1-0.4,1.7-0.2,1.4,1.2c-0.5,2.5-1.4,4.6-3.5,6.2
										c-1.7,1.2-3.2,2.6-4.8,3.9c-1.5,1.3-2.5,2.8-1.8,4.9c0.7,2.1,2.6,2.5,4.5,2.7c0.6,0.1,1.2,0.1,1.8,0
										c7.1-1,13.1-3.9,16.8-10.5c0.2-0.4,0.3-1.1,1-1c0.5,0.1,0.6,0.6,0.8,1c0.7,1.5,1.5,3.1,1.9,4c2.4,5.3,5.1,9.7,7.6,14.1
										c0.8,1.5,1.8,2.9,2.8,4.3c4.7,6.6,12.4,8.6,19.6,5.1c3.6-1.7,6.4-4.4,8.8-7.3c2.7-3.3,3.8-7.3,3.4-11.6
										c-0.4-3.7-1.5-7.2-2.7-10.8c-1.8-5.6-3.8-11.2-5.7-16.8c-0.5-1.3-0.4-2.1,1.2-2.3c2.5-0.4,4.7-1.8,6.8-3.2
										c5.5-3.5,10.1-7.7,12.2-14.1C310.3,143.9,310.7,142,309,140.8z M225.3,179.6c-1.2,3.7-2.2,7.5-3.1,11.3
										c-1.6,6.4-4.1,7.5-9.9,4.4c-5.9-3.2-10.8-7.7-15.5-12.5c-8.8-8.9-16.5-18.8-23.5-29.2c-1-1.5-1.6-3.2-2.3-4.8
										c-2.8-5.8-4.6-11.9-3.1-18.4c1.5-6.3,5.9-10.5,11.4-13.5c5.7-3.1,11.9-4.8,18.3-6c1.5-0.3,1.5,0.4,1.3,1.4
										c-1.6,6.6-1.2,13.1,0.3,19.6c1.7,7.3,4.5,14.2,8.4,20.7c2,3.3,2.9,7.1,4.3,10.7c2.4,5.9,6.1,10.3,11.9,12.7
										C225.7,176.9,225.8,177.9,225.3,179.6z M236.8,169.3c0.4,1.9-0.5,2.4-2,2.7c-6.1,1-11-1.1-15-5.7c-2.7-3.2-3.4-7.4-5.1-11
										c-1.5-3.2-2.9-6.5-4.7-9.6c-0.8-1.3-0.8-2.4,0.2-3.6c1.8-2.2,3.4-4.5,5.9-6c0.5,0,0.8,0.1,0.8,0.7c-0.8,2.1,0.5,3,2.1,3.7
										c2.2,0.9,4.7,0,5.9-1.8c1.4-2.3,1.3-2.2,2.9,0.1c2.3,3.2,4.2,6.6,5.8,10.2c1.9,4.2,2.2,8.7,2.4,13.2
										C236.2,164.5,236.4,166.9,236.8,169.3z M282.8,151.1c-2.2,3.2-1.7,6.5-0.3,9.7c2.8,6.5,4.8,13.4,7.1,20.1
										c1.1,3.2,2,6.5,2.9,9.8c1.8,6.5-1,11.2-6.1,14.9c-0.2,0.2-0.5,0.3-0.7,0.5c-6.5,5.3-12.7,2.2-16.6-3.5
										c-4-5.9-7.1-12.3-10-18.8c-1.5-3.2-3.1-6.4-4.6-9.6c-2-4.2-5.6-6.1-10.2-5.3c-1.5,0.3-1.8-0.1-1.8-1.4
										c-0.2-3.5-0.5-6.9-0.7-10.4c-0.4-6.5-2.9-12.2-6.2-17.6c-1.2-2-2.7-3.7-3.9-5.6c-5-7.5-12.6-7.4-19.3-2
										c-1.5,1.3-3,2.6-4.3,4.2c-0.8,1-1.4,1.3-1.9-0.3c-2.3-7.4-3.5-14.9-1.4-22.5c1.7-6,5.2-10.7,10.8-13.8
										c8.3-4.6,17.1-6.6,26.5-4.6c7.6,1.6,14.3,5.1,20.2,10.1c1.3,1.1,0.6,1.5-0.4,1.9c-3,1.3-5.6,3-7.5,5.7
										c-2.9,4-2.5,9.7,0.6,14.1c4.6,6.5,10.6,11.3,17.1,15.7c3.5,2.4,6.5,5.4,10.5,7C283.1,149.7,283.4,150.2,282.8,151.1z
										 M275.9,130.6c2.1,2.8,3.1,6.1,4.1,10.2c-7.5-5.2-14.5-9.9-19.9-16.7c-1-1.3-1.7-2.8-2.1-4.4c-0.1-0.4-0.1-1,0.3-1.2
										c0.2-0.1,0.7,0.1,1,0.3c1.4,1,2.8,0.8,4.2,0c3.1-1.8,3.1-4.9,0.1-6.7c0.1-0.1,0.1-0.2,0.2-0.3c3.3-1.2,3.3-1.2,4.3,2.3
										C269.7,120.2,272.2,125.7,275.9,130.6z M279.7,126.1c-3.2-4.4-5.1-9.4-6.5-14.5c-1.8-6.5-6.3-10.8-11.5-14.4
										c-6.9-4.9-14.7-7.9-23.3-8.6c-0.4,0-0.7-0.1-1.1-0.3c-0.2-0.1-0.4-0.2-0.8-0.6c5.4-3.1,10.6-6,16.7-7.1
										c6.7-1.3,13.1-0.3,19.3,2.3c3.8,1.6,5.5,4.9,6.9,8.3c4.9,11.9,6.3,24.4,6.7,37.1c0.1,3.1,0,6.1-0.2,9.2
										c-0.9-0.2-1-0.9-1.2-1.4C283.6,132.5,281.9,129.2,279.7,126.1z"/>
									<path class="st68" d="M240.9,188.6c-1.1,0.6-2.2,1-3.4,1.1c-0.3,0-0.6-0.2-1-0.3c0.2-0.3,0.3-0.7,0.6-0.9
										c4.5-2.5,6.3-6.6,7.2-11.4c0.3-1.5,0.6-2.9,2.6-2.4c1.7,0.4,2.6,1.9,2.2,3.7C247.9,183,245,186.3,240.9,188.6z"/>
									<path class="st69" d="M217,136.7c-0.3-0.2-0.5-0.4-0.8-0.7c1-1.4,2.7-1.6,4.1-2.2C219.4,135,217.6,135.2,217,136.7z"/>
									<path class="st68" d="M299.2,150.5c-3.1,1.4-6.2,2.7-9.7,2.5c-1.2-0.1-1.9,0.9-2.2,1.8c-0.3,1.1-0.3,2.3,0.5,3.1
										c0.7,0.8,1.6,0.2,2.5-0.1c4.5-1.6,8.2-4.2,11.4-7.7c0.4-0.5,0.8-1.1,1.4-2C301.3,148.9,300.2,149.6,299.2,150.5z"/>
								</g>
							</g>
							<path class="st70" d="M1075.3,508.8c-7.3-0.9-14,4.4-14.8,11.5c-0.7,6.5,5.7,14.1,12.3,14.6c6.6,0.5,12.8-4.7,13.8-11.7
								C1087.6,515.3,1083.3,509.7,1075.3,508.8z"/>
							<path class="st71" d="M889.4,528.2c30.7-30.4,58.8-62.9,84.9-97.3C945.8,463.2,917.6,495.8,889.4,528.2z"/>
							<path class="st72" d="M1032,571.5c0.4-6.5-2.4-10.8-8.9-11.6c-6-0.8-10.1,2-11.1,8.3c-1,6.5,2,11,8.2,12.1
								C1026.6,581.4,1030.6,577.9,1032,571.5z"/>
							<path class="st73" d="M969.1,542.9c7.4,0.8,10.8-1.3,11.6-6.5c0.8-5.1-1.7-8.3-6.9-9.3c-5.7-1-9.3,1.8-9.9,7.1
								C963.4,538.9,965.9,542.6,969.1,542.9z"/>
							<path class="st74" d="M878,518.2c5.6,1.8,7.8-0.3,8.4-6.1c0.6-5.5,0.1-8.5-6.5-9.2c-6.2-0.7-7.4,1.8-8,7
								C871.5,514.9,871.4,518.8,878,518.2z"/>
							<path class="st75" d="M923.6,370.5c-9.1,13.8-18.1,27.7-27.2,41.5c0.8,0.6,1.7,1.1,2.5,1.7c9.1-13.8,18.1-27.6,27.2-41.4
								C925.3,371.7,924.5,371.1,923.6,370.5z"/>
							<path class="st76" d="M917.2,586.4c10.8-8.5,21.5-17.1,30.6-27.6c-0.5-0.5-1-1.1-1.4-1.6c-10.2,9.1-20.5,18.3-30.7,27.4
								C916.1,585.2,916.7,585.8,917.2,586.4z"/>
							<path class="st77" d="M942.6,355.1c3.1,0.4,5.3-0.8,5.9-3.7c0.6-2.9-1-5-4-5.5s-5.2,0.7-5.8,3.7
								C938,352.6,939.8,354.3,942.6,355.1z"/>
							<path class="st78" d="M905,540.3c-0.3,2.7,0.7,4.7,3.4,5.2s4.6-1.1,4.9-3.7c0.4-2.8-1.5-4.3-4.1-4.7
								C906.9,536.7,905.4,537.8,905,540.3z"/>
							<path class="st79" d="M854.9,486.4c3.2,0.1,4.3-1.3,4.5-3.6c0.2-2.3-1-4-3.3-4.1c-2.4-0.2-3.7,1.3-3.9,3.6
								C851.9,484.7,853.4,485.8,854.9,486.4z"/>
							<path class="st80" d="M900,617.8c0-2.1-1-3.3-3-3.4c-2-0.1-3.3,1.1-3.4,3c-0.1,1.9,1,3.3,3,3.3
								C898.5,620.8,899.8,619.7,900,617.8z"/>
							<path class="st81" d="M247.3,292c5.7,0.1,10.3-2.7,11.1-8.8c0.9-6.5-2.9-11.4-9.4-12.1s-10.7,3.2-11.4,10
								C237,287.7,240.4,291.1,247.3,292z"/>
							<path class="st82" d="M360.2,520.9c-0.5,5.8,2.5,9.9,8.2,10.6c6.1,0.8,10.6-2.5,11.2-9c0.5-6-3-10-8.8-10.5
								C365.3,511.6,361,514.3,360.2,520.9z"/>
							<path class="st83" d="M279.3,577.5c6.2,2,8.5-0.1,9.2-6c0.7-6-0.6-8.6-7-9.2c-5.6-0.5-8.1,0.5-8.6,6.6
								C272.4,574.5,272.4,578.7,279.3,577.5z"/>
							<path class="st84" d="M442.5,417.3c-9.4-21.3-18.8-42.6-28.2-63.9c-1,0.4-2,0.9-3,1.3c9.4,21.4,18.9,42.8,28.3,64.2
								C440.5,418.4,441.5,417.8,442.5,417.3z"/>
							<path class="st85" d="M430.8,514.2c-11-14.3-21.2-29.2-32.1-43.6C406.3,487.3,417.1,501.8,430.8,514.2z"/>
							<path class="st86" d="M452.6,303.7c4,0.2,7-1,7.5-5.4s-1.8-7.4-6.1-8.1c-4.8-0.8-6.9,2.1-7.3,6.5
								C446.2,301,448.5,303.2,452.6,303.7z"/>
							<path class="st87" d="M860.4,408.2c-3.4-0.2-5.5,1.3-6.1,4.7c-0.5,2.9,0.7,5.2,3.5,6c3.3,1,5.6-0.7,6.4-4
								C865.1,411.6,863.7,409.3,860.4,408.2z"/>
							<path class="st70" d="M475.7,565.7c-0.7,4.1,1.1,6.2,4.3,6.6c2.7,0.3,4.9-1,5.3-4.2c0.4-3.3-0.9-5.6-4.3-6.1
								C478,561.7,476.3,563.5,475.7,565.7z"/>
							<path class="st88" d="M370.5,396.3c-2.8,0.2-5,1.1-5.4,4.3c-0.3,3.4,1.3,5.7,4.7,5.8c2.8,0.1,4.6-1.8,4.9-4.8
								C375.1,398.4,373.1,397.1,370.5,396.3z"/>
							<path class="st89" d="M457.7,581.7c-4.8-7-11-12.6-17-18.5c-0.8,0.7-1.5,1.4-2.3,2.1c5.7,6.1,11.5,12.2,17.2,18.3
								C456.4,582.9,457,582.3,457.7,581.7z"/>
							<path class="st70" d="M434.7,473.3c-0.1,3,1.4,5.1,4.1,5.6c2.5,0.5,4.2-1.1,4.7-3.6c0.6-3.1-0.6-5-3.8-5.3
								C437.2,469.8,435.5,470.9,434.7,473.3z"/>
							<path class="st90" d="M397,323.8c-0.2,4.5,0.5,8.7,5.9,12.7C402.1,330.6,400.3,326.9,397,323.8z"/>
							<path class="st70" d="M884,564c2.3,0.6,3.5-0.1,4-1.6c0.6-1.9-0.3-3.5-2.2-3.8c-1.4-0.2-2.6,0.8-2.9,2.4
								C882.5,562.6,883.2,563.6,884,564z"/>
							<g>
								<g>
									<path class="st91" d="M307.3,522.9c0,0,60.2,54.3,131.7,58.1"/>
									<g>
										<path class="st49" d="M313.2,508.2c1.2,1.9,1.6,4.1,1.2,6.3c-1,5-3.1,9.6-6.2,13.6c-1.4,2-3,3.9-4.9,5.6
											c-1.8,1.8-4.1,2.8-6.6,3.1c-0.2-0.1-0.4-0.3-0.6-0.4c-2.3-0.4-4.3-1.6-5.7-3.5c-1.7-2.2-3.2-4.5-4.5-7l-1.6-2.7l-0.4-0.6
											c-0.5-0.1-0.9-0.2-1.4-0.2c-5.8,0.2-11.4,1.5-16.7,3.8c-23.4,8-62.6,26.6-110,21.1c-22.3-2.7-43.8-10.2-63-21.8
											C40.3,494.3,23,426.5,54.1,374c31.2-52.5,99-69.8,151.5-38.7c48.7,28.9,67.3,69.9,75.6,104.4c4.2,17.2,5.9,32.9,7.7,44.8
											c0.6,4.8,1.6,9.6,3,14.3c0.5,2.1,1.6,4.1,3.1,5.6h0.2c1.8,0.3,6.6-0.2,10.8,0.2C308.8,504.7,311.5,506,313.2,508.2
											L313.2,508.2z"/>
										<path class="st92" d="M297.8,507.8c0.3,1,0.4,2,0.3,3c-0.5,2.9-1.7,5.6-3.4,8c-0.8,1.2-1.8,2.3-2.9,3.2
											c-1.4,1.3-3.3,1.9-5.2,1.8c-0.7-0.1-1.5-0.3-2.1-0.7c-1.7-0.9-2.6-2.9-2.1-4.9c0.5-1.9,2.2-3.2,4.2-3.2
											c0.7-0.7,1.3-1.5,1.8-2.3s0.8-1.6,1.1-2.4c-0.9-1.7-0.6-3.8,0.8-5.1c1.4-1.3,3.5-1.6,5.1-0.6
											C296.5,505.2,297.4,506.4,297.8,507.8L297.8,507.8z"/>
									</g>
								</g>
							</g>
							<g>
								<g>
									<path class="st93" d="M950,357.3c0,0-38.9,89-131.5,147.3"/>
									<g>
										<path class="st94" d="M939.2,348.6c0.5-2.8,2.3-5.2,4.7-6.6c3.4-2.4,7.9-4.2,9.4-5.3l0.2-0.1c0.6-2.1,0.7-4.3,0.1-6.4
											c-1-4.8-2.4-9.4-4.1-14c-4-11.3-9.9-26-14.3-43.1c-9-34.3-12-79.2,17.4-127.7c31.6-52.2,99.6-69,151.8-37.4
											c52.2,31.6,69,99.6,37.4,151.8c-11.4,19.3-26.8,36-45.2,49c-39.2,27.3-82.5,29.4-106.9,33.3c-5.8,0.4-11.4,2-16.5,4.5
											c-0.4,0.2-0.8,0.5-1.2,0.8l-0.1,0.7l-0.1,3.2c0,2.8-0.2,5.5-0.7,8.3c-0.4,2.3-1.6,4.3-3.4,5.7c-0.1,0.2-0.2,0.4-0.3,0.6
											c-2.3,1-4.9,1.1-7.3,0.4c-2.4-0.6-4.7-1.5-6.9-2.6c-4.6-2.1-8.7-5.2-11.9-9.1C939.7,353,939,350.8,939.2,348.6
											L939.2,348.6z"/>
										<path class="st95" d="M952.6,340.9c-0.3-1.4-0.1-2.9,0.6-4.1c1-1.6,3-2.4,4.8-1.9s3.1,2.2,3.1,4.1
											c0.6,0.6,1.4,1.2,2.1,1.6c0.8,0.5,1.7,0.9,2.7,1.2c1.7-1,3.9-0.6,5.2,0.8c1.3,1.5,1.5,3.6,0.4,5.3
											c-0.4,0.6-0.9,1.2-1.5,1.6c-1.6,1-3.6,1.3-5.5,0.9c-1.4-0.3-2.8-0.8-4.1-1.5c-2.7-1.2-5-3.1-6.8-5.4
											C953.2,342.8,952.8,341.9,952.6,340.9L952.6,340.9z"/>
									</g>
								</g>
							</g>
							<path class="st70" d="M1080.4,686.7c-7.3-0.9-14,4.4-14.8,11.5c-0.7,6.5,5.7,14.1,12.3,14.6c6.6,0.5,12.8-4.7,13.8-11.7
								C1092.8,693.2,1088.4,687.7,1080.4,686.7z"/>
							<path class="st70" d="M232,645.1c-7.3-0.9-14,4.4-14.8,11.5c-0.7,6.5,5.7,14.1,12.3,14.6s12.8-4.7,13.8-11.7
								C244.3,651.6,240,646,232,645.1z"/>
							<path class="st70" d="M1216.1,590.5c-7.3-0.9-14,4.4-14.8,11.5c-0.7,6.5,5.7,14.1,12.3,14.6c6.6,0.5,12.8-4.7,13.8-11.7
								C1228.4,597,1224.1,591.5,1216.1,590.5z"/>
						</g>
					</g>
					
						<linearGradient id="SVGID_3_" gradientUnits="userSpaceOnUse" x1="757.8955" y1="617.1954" x2="1252.3044" y2="1111.6046" gradientTransform="matrix(1 0 0 -1 0 1984)">
						<stop  offset="0.5422" style="stop-color:#F94FB1"/>
						<stop  offset="1" style="stop-color:#FE94DE"/>
					</linearGradient>
					<circle class="st96" cx="1005.1" cy="1119.6" r="349.6"/>
					
						<linearGradient id="SVGID_4_" gradientUnits="userSpaceOnUse" x1="436.3579" y1="765.9301" x2="847.4421" y2="1003.2698" gradientTransform="matrix(1 0 0 -1 0 1984)">
						<stop  offset="0.4511" style="stop-color:#5253D4"/>
						<stop  offset="1" style="stop-color:#749BF9"/>
					</linearGradient>
					<circle class="st97" cx="641.9" cy="1099.4" r="237.3"/>
					
						<linearGradient id="SVGID_5_" gradientUnits="userSpaceOnUse" x1="255.7429" y1="812.4895" x2="475.0571" y2="939.1106" gradientTransform="matrix(1 0 0 -1 0 1984)">
						<stop  offset="0.4377" style="stop-color:#009AFF"/>
						<stop  offset="1" style="stop-color:#5EE8FD"/>
					</linearGradient>
					<circle class="st98" cx="365.4" cy="1108.2" r="126.6"/>
				</g>
			</g>
		</g>
	</g>
</g>
<g>
	<g>
		<path d="M117.1,393.8c-4.8,6.5-13.6,7.9-19.6,3.1c-1.5-1.2-3.1-2.5-4.6-3.7c-2.7,3.6-5.5,7.2-8.3,10.8c-2.3-1.9-4.6-3.7-6.9-5.5
			c9-11.5,17.6-23.1,26-34.6c3.7,3.1,7.5,6.2,11.3,9.4C120.9,378.3,121.9,387.3,117.1,393.8z M110.1,388.1c1.8-2.5,1.7-5.7-0.5-7.5
			c-1.5-1.2-3-2.5-4.5-3.7c-2.2,3-4.4,5.9-6.6,8.9c1.5,1.2,3,2.5,4.6,3.7C105.2,391.2,108.2,390.6,110.1,388.1z"/>
		<path d="M147.9,427.7c-7.6,10.4-19.7,11.5-28.8,4.5c-10.3-7.9-11.2-21.5-3.9-31.3c7.4-10,20.2-12,29.6-4.6
			c6.1,4.8,9.2,12.1,8.7,18.7c-3-0.4-6.1-0.7-9.1-1.1c0.3-3.3-1.4-7.3-5-10.1c-5.4-4.2-12.4-3.2-16.9,2.8c-4.3,5.8-3.7,13.1,2.6,18
			c4.3,3.3,8.7,3.5,12.3,1.1c-2.9-2.2-5.8-4.5-8.7-6.7c1.7-2.3,3.4-4.6,5.1-6.8c5.4,4.2,10.9,8.4,16.4,12.5
			C149.3,425.7,148.6,426.7,147.9,427.7z"/>
		<path d="M190.4,431.4c-7.8,11.2-15.9,22.5-24.3,33.9c-2.7-1.8-5.4-3.7-8-5.6c6.4-8.6,12.7-17.2,18.7-25.8
			c-2.4-0.9-4.8-1.8-7.2-2.7c0.9-2.7,1.9-5.3,2.8-8c3.7,1.1,7.4,2.2,11.1,3.3C185.8,428.1,188.1,429.8,190.4,431.4z"/>
		<path d="M217.7,450.3c-1.5,2.1-2.9,4.3-4.4,6.4c-10.2,6.4-20.6,12.8-31.3,19.3c-2.9-2-5.8-3.9-8.7-5.9
			c10.3-6.3,20.3-12.6,30.2-18.7c-4.8-3.3-9.6-6.6-14.3-9.8c1.7-2.5,3.5-4.9,5.2-7.4C202,439.6,209.8,444.9,217.7,450.3z"/>
		<path d="M192.2,477c1.8-2.5,5.6-3.1,8.3-1.3c2.7,1.8,3.5,5.4,1.7,7.9c-1.8,2.5-5.6,3.1-8.3,1.3C191.1,483.1,190.4,479.6,192.2,477
			z"/>
		<path d="M207,484.3c7-1.2,13.9-2.3,20.9-3.4c3.6-0.5,6.6-1.4,7.9-3.3c1.5-2.1,0.9-4.5-1.6-6.2c-2.6-1.8-5.5-1.5-8-0.1
			c-1.5-2.9-3-5.7-4.5-8.6c5.8-3.4,12.3-2.4,17.4,1.1c6.6,4.5,10.1,12.6,5.5,19.2c-2.8,4-7.6,5.7-13.2,6.4
			c-3.4,0.5-6.8,0.9-10.2,1.4c4.2,2.8,8.5,5.6,12.8,8.4c-1.7,2.4-3.5,4.8-5.3,7.3c-8.7-5.7-17.3-11.3-25.7-16.8
			C204.3,488,205.6,486.1,207,484.3z"/>
	</g>
</g>
<g>
	<g>
		<path d="M1026.7,217.1c-1.7-1-3.4-2-5.1-2.9c-1.5,2.8-3.1,5.7-4.6,8.5c-3.9-2.3-7.8-4.6-11.7-7c1.5-2.8,3.1-5.6,4.6-8.5
			c-7.6-4.6-15.3-9.1-22.9-12.8c2-3.7,4-7.5,6.1-11.3c11.4-8.8,22.8-17.1,34.1-23.9c4.1,2.8,8.3,5.6,12.4,8.4
			c-11.4,6.4-22.8,13.9-34.1,22.1c3.5,2,7,4.1,10.5,6.2c2.1-3.8,4.1-7.5,6.2-11.2c3.9,2.4,7.8,4.9,11.7,7.3c-2.1,3.6-4.1,7.3-6.2,11
			c1.7,1,3.4,2,5.1,3C1030.7,209.7,1028.7,213.4,1026.7,217.1z"/>
		<path d="M1029.4,221.7c2.1-3.9,7-5.3,10.8-3.3c3.8,2.1,5.1,6.8,3,10.7c-2.1,3.9-7,5.5-10.7,3.5
			C1028.6,230.7,1027.2,225.6,1029.4,221.7z"/>
		<path d="M1049.3,229.1c9-3.1,18-5.8,27-8.3c4.7-1.3,8.5-2.8,10.2-5.7c1.8-3,1-6.2-2.4-8.1c-3.5-1.9-7.4-1.1-10.5,1.2
			c-2.2-3.6-4.3-7.1-6.5-10.7c7.5-5.2,16.3-5,23.3-1.5c9,4.4,13.7,15.4,7.9,25.3c-3.4,5.8-9.6,8.5-16.9,10.3
			c-4.4,1.1-8.8,2.2-13.2,3.5c5.6,2.9,11.3,5.9,16.9,9.3c-2.1,3.4-4.2,6.8-6.3,10.3c-11.4-6.4-22.9-11.4-34.3-17.1
			C1046.2,234.7,1047.7,231.9,1049.3,229.1z"/>
	</g>
</g>
</svg>
