<?xml version="1.0" encoding="utf-8"?>
<!-- Generator: Adobe Illustrator 22.1.0, SVG Export Plug-In . SVG Version: 6.00 Build 0)  -->
<svg version="1.1" id="图层_1" xmlns="http://www.w3.org/2000/svg" xmlns:xlink="http://www.w3.org/1999/xlink" x="0px" y="0px"
	 viewBox="0 0 1544 1200" style="enable-background:new 0 0 1544 1200;" xml:space="preserve">
<style type="text/css">
	.st0{fill:none;stroke:#1A1A1A;stroke-width:2;stroke-linecap:round;stroke-linejoin:round;}
	.st1{fill:#25383F;stroke:#1A1A1A;stroke-linecap:round;stroke-linejoin:round;}
	.st2{fill:#FFD673;stroke:#1A1A1A;stroke-width:2;stroke-linecap:round;stroke-linejoin:round;}
	.st3{fill:none;stroke:#1A1A1A;stroke-width:3;stroke-linecap:round;stroke-linejoin:round;}
	.st4{fill:#FFFFFF;stroke:#1A1A1A;stroke-width:2;stroke-linecap:round;stroke-linejoin:round;}
	.st5{fill:none;stroke:#1A1A1A;stroke-width:3;stroke-linecap:round;stroke-linejoin:round;stroke-dasharray:12;}
	.st6{fill:#1A1A1A;}
</style>
<g id="_10">
	<path class="st0" d="M1294.1,879.5c-65.2-17.5-144.2,1.2-168.2,66.6c-80.6-65.2-252.8-183-466.9-169
		c-63.3,4.1-215.3,14.1-255.9,110.5c-20.4,48.5-4.9,100.4,7.8,131.2c-21.1-7.3-42.8-12.8-64.9-16.4
		c-106.9-17.4-197.6,13.7-249.8,37.8h1221.4C1403,1043,1462.4,924.6,1294.1,879.5z"/>
	<path class="st1" d="M794,555.4c0,0-40.7-3.2-40.3-24s14.9-22.2,14.9-22.2s-44.8-57.5-12.7-97.8s70.9-34.5,70.9-34.5
		s-5.4-44.7,27.6-55.6c19.2-6.5,40.5-2.7,56.3,10c0,0,44.8-37.6,91,16.8c19.6,26.7,25.7,48.4,45.9,46s53.4,2.1,25.9,40.1
		s-58.3,23.9-74.9,23.6s-148.4,75.1-148.4,75.1L794,555.4z"/>
	<path class="st2" d="M589.8,792.1c0-6.3,38.9-163.9,137.6-182.9s191.9,5.4,216.4,51.6s38.9,378.2,38.9,378.2H547.3L589.8,792.1z"/>
	<path class="st3" d="M96.6,1140.7h1308.7c17.8,0,32.2-22.7,32.2-50.8l0,0c0-28.1-14.4-50.8-32.2-50.8H96.6
		c-17.8,0-32.2,22.7-32.2,50.8l0,0C64.4,1117.9,78.8,1140.7,96.6,1140.7z"/>
	<path class="st4" d="M808.9,955.5c0,0,63.4,24.4,80.1,42.6c-2,6.8-4.1,6.8-4.1,6.8l-107.1-3.4L808.9,955.5z"/>
	<path class="st2" d="M590.8,929.7c0,0,159.3-29.9,242.6,29l-66.1,78.8H483.9c0,0-74.2-26.3-39.8-94.2s114.7-235.7,144.8-270.7
		s67.6-49.5,114.7-56.1"/>
	<path class="st5" d="M799.2,951.5c0,0-43.8,28.9-64.5,69.2"/>
	<rect x="725.9" y="1001.6" class="st4" width="149.4" height="31.7"/>
	<rect x="875.3" y="1001.6" class="st4" width="262.3" height="31.7"/>
	<path class="st2" d="M911.6,810.2c57.3,183.8,215.2,139.4,260.4,89.3c35.4-39.2,122.5-238.4,122.5-238.4
		c6.3-16.2-61.9-45.1-73.6-26c0,0-47.1,59.8-78.5,119.5c-31.4,59.8-82.7,77.3-115.3,18.1s-86.4-117.4-88-119.4"/>
	<path class="st0" d="M665.4,846c0,0-6.9,53.1-35.2,78.6"/>
	<path class="st4" d="M900.4,565.8c-30.5,42.6-13.1,89.6-16.7,96.4c-8.6,16.7-74.7,18.6-118.6,5.4s-36.7-24.5-21.7-34.4
		c34.9-22.6,53.4-129,54.3-131.3c0,0,5.4-16.3,9.5-17.2c-8.2-15.4-8.6-41.2,17.2-43s32.6,26.3,32.6,26.3s29-5.4,37.4-48
		c11.8,35,40.7,41.9,65.5,1.5c16.6-26.3,34.1,10.5,39.7,27.4c2.7,8.2,5,104.8-76.2,115.6S824,516,824,516"/>
	<path class="st6" d="M854.5,552.9c0,0,22.4,28.8,38.9,24.2l7-11.3C900.4,565.8,869.9,563.5,854.5,552.9z"/>
	<path class="st4" d="M207.8,985.5c0,0,14.4-26.9,9.4-39.8s-16.5-9.6-15.9-11.4s18.1-35.9-5.9-46.3s-27.1-25.9-18.1-35.9
		s-2.2-44.2-19.3-47.7s-24.6-8.3-23.7-18.6s-47.7-53.3-59.5-37.7s-4,30.9,6.2,37.4s17.8,30.3-0.9,41.8s-9.4,79.8,36.1,101
		s51.7,57.1,51.7,57.1H207.8z"/>
	<path class="st2" d="M185,900.1c0-1.2-5.6-73.9,7.2-84.8s18-21.5,9-36.2s28.7-43,39.3-3.2c2.2,11.5-4.7,23,9.3,27.7
		s20.9,16.5,9,22.4s-12.8,13.8-7.5,19.7s20.9,39.2,0.6,48.9s-24.9,96-24.9,96h-22.4C204.6,990.5,185.7,916.3,185,900.1z"/>
	<path class="st4" d="M235.3,987.4c0,0,28.5-34.9,46.1-35.4s29.6-28.3,21.3-38.3c8.6-13.1,49.9-7.9,46.5-31.7s-28.9-38.5-50.2-22.4
		c-16.9-5.2-12.1-35.8-27.4-33.7s-20.5,27.5-18,42c-23.7,4.5-39.9,36.1-37.5,65.4"/>
	<path class="st2" d="M161.5,963.1c0,0-0.5-4.1,5.7-18.6s-4.9-30.2-23-26.6c-1.6-11.6-15.1-16.3-26.2-11.3s-8-16.3-27.9-15
		s-17.5,27.6-9,40c-15-4.9-15.7,5.4-15.7,5.4c-4.6,29.2,23,34.8,46.2,25.3s40.5,22.2,40.5,22.2l22.5-1.6"/>
	<path class="st2" d="M225.3,984.6c-0.3-7.8-6.9-55.7,19.6-54.6c11.4,1,8.6,16.2,8.6,16.2s-0.3-22,11.4-18.6s10.5,15.3,3.7,24.5
		c22.1,15.7,3,18.8,3,18.8L255.9,986L225.3,984.6z"/>
	<path class="st6" d="M141.1,1007.5l2.2,4.8h10c-0.8-1.6-1.5-3.2-2.3-4.8H141.1z"/>
	<path class="st4" d="M267.2,1007.5H151c0.7,1.6,1.5,3.2,2.3,4.8h111.2L267.2,1007.5z"/>
	<path class="st6" d="M162.5,1060c0,0-23.5,7.4,7.8,10.3s77.6-1.3,77.6-1.3s10.5-5.4-1.3-6.5s-68.9-4.5-85-2.5"/>
	<polygon class="st4" points="264.5,1012.3 233.9,1067.4 168.4,1067.4 143.3,1012.3 	"/>
	<rect x="129.8" y="980.1" class="st4" width="148.4" height="27.5"/>
	<path class="st4" d="M894.3,994.3c0-1.8,75.4-158.7,75.4-158.7h261.3l-93.6,158.7H894.3z"/>
	<polygon class="st6" points="950.8,838.5 969.8,835.6 894.3,994.3 870.8,994.3 	"/>
	<rect x="725.9" y="1033.2" class="st6" width="411.6" height="5.8"/>
	<circle class="st6" cx="1070.8" cy="912.8" r="16.6"/>
	<path class="st0" d="M830.1,708.9c0,0,15,25.2,14.2,74.4"/>
	<path class="st6" d="M1222.1,642.8c0,0-5,22.5,26.7,29.9s39.9-5.2,40.3-8.5s-1.6-20.3-27.1-26.2S1225,632,1222.1,642.8z"/>
	<path class="st4" d="M1231.1,650.9c0,0-5.1-43.9,12.7-51.6s57.6,4.1,72.6-7.2s44.4-45.7,61.1-40.3s-19.9,34.3-28.1,49.3
		s-19.5,40.8-36.7,42.6s-32.1,15.4-36.2,25.4C1253.2,675.1,1228.8,661,1231.1,650.9z"/>
	<path class="st6" d="M1322.4,1013.5h78.3c6.9,0,12.6,5.6,12.6,12.6v0c0,6.9-5.6,12.6-12.6,12.6h-78.3c-6.9,0-12.6-5.6-12.6-12.6v0
		C1309.8,1019.2,1315.4,1013.5,1322.4,1013.5z"/>
	<path class="st4" d="M1408.1,956.8v24.8c0,8-2,15.8-5.9,22.7c-2.3,4.2-5.3,7.9-8.8,11.2c-18.7,17.6-48.2,16.7-65.8-2.1
		c-8.1-8.6-12.6-20-12.6-31.9v-24.8H1408.1z"/>
	<path class="st4" d="M1431.9,964.5c-1.1-1.1-2.6-1.6-4.1-1.6h-2.7c-3.6,0.1-10.4,0.2-17,0.2v11.4c5.1,0,10.3-0.1,14.1-0.2v27.3
		c-3.5,1.1-10,2.6-20,2.7c-2.3,4.2-5.3,7.9-8.8,11.2c2.7,0.2,5.2,0.2,7.6,0.2c19.4,0,28.8-4.7,29.6-5.2c1.8-1,3-2.9,3-5v-37
		C1433.6,967.1,1433,965.6,1431.9,964.5z"/>
	<path class="st6" d="M447.9,1039.1c0,0-88.4,13.6,3.6,12.9s274.4-9.5,274.4-9.5v-5L447.9,1039.1z"/>
	<rect x="148.9" y="452.8" class="st0" width="331.9" height="33"/>
	<rect x="160.4" y="322.3" class="st4" width="41.6" height="130.5"/>
	<rect x="226.3" y="322.3" class="st2" width="41.6" height="130.5"/>
	<rect x="294" y="398.8" class="st6" width="41.6" height="53.9"/>
	<rect x="352" y="398.8" class="st6" width="41.6" height="53.9"/>
	<circle class="st0" cx="1401.4" cy="861.8" r="34.4"/>
	<circle class="st6" cx="1347.4" cy="796.2" r="14.1"/>
	<circle class="st0" cx="1413.5" cy="755.5" r="7.5"/>
	<polyline class="st3" points="1355.8,66.9 1106.3,66.9 1106.3,343.5 1445.6,343.5 1445.6,66.9 	"/>
	<polygon class="st4" points="1324.9,173 1311.9,201.8 1337.9,201.8 	"/>
	<polygon class="st4" points="1359.1,262.1 1349.5,251.4 1341.7,262.4 1331.3,252.4 1318.9,266.3 1307.5,249.6 1290.7,262.4 
		1290.7,413.3 1359.1,413.3 	"/>
	<path class="st6" d="M1290.7,413.3v7.7c0,25.2,68.4,25.2,68.4,0v-7.7H1290.7z"/>
	<polygon class="st6" points="1359.1,248.9 1359.1,262.1 1349.5,251.4 1341.7,262.4 1331.3,252.4 1318.9,266.3 1307.5,249.6 
		1290.7,262.4 1290.7,248.9 1311.9,201.8 1337.9,201.8 	"/>
	<rect x="1149.6" y="97.4" class="st4" width="70.6" height="56.7"/>
	<polygon class="st6" points="1162.9,111.1 1186.2,136.7 1222,98.3 1216.4,91.5 1186.1,124.4 1169.2,106.8 	"/>
	<rect x="1149.6" y="178" class="st4" width="70.6" height="56.7"/>
	<polygon class="st6" points="1162.9,191.6 1186.2,217.3 1222,178.8 1216.4,172.1 1186.1,204.9 1169.2,187.4 	"/>
	<path class="st0" d="M708.8,799.1c0,0,64.2-2.3,84.1-8c3.6,75.6-14.3,88.2-14.3,88.2h-57C721.7,879.3,706.3,841.8,708.8,799.1z"/>
	<polygon class="st4" points="717.6,816.8 708.8,799.1 792.9,791.1 783.5,810.4 	"/>
	<path class="st2" d="M722,637.4c0,0-8.8-50.9,42.7-34.5c6.3,2-8.6,8.4-5.6,17.2s34.8,50.3,45.9,54.2c14.5,7.2-13.6,22.2-39.1,13.3
		S716.4,649.1,722,637.4z"/>
	<path class="st2" d="M837.2,681c3.5-20.9,27.1-7,36.9-29.4c6.1-14,7.7-25.4,8.3-35.9c0.2-3.8,9,1.9,14.9,5.1
		c15.6,8.7,11.6,43.2,0.9,52.5S833.6,701.9,837.2,681z"/>
	<path class="st5" d="M1205.7,660c0,0,13.1,39.5,60.8,29.7"/>
</g>
</svg>
