<?xml version="1.0" encoding="utf-8"?>
<!-- Generator: Adobe Illustrator 22.1.0, SVG Export Plug-In . SVG Version: 6.00 Build 0)  -->
<svg version="1.1" id="图层_1" xmlns="http://www.w3.org/2000/svg" xmlns:xlink="http://www.w3.org/1999/xlink" x="0px" y="0px"
	 viewBox="0 0 802 282" style="enable-background:new 0 0 802 282;" xml:space="preserve">
<style type="text/css">
	.st0{fill:#FBAF42;}
</style>
<g>
	<g>
		<path d="M278.4,127.6v61.2h12.3v-61.2H278.4z"/>
		<path d="M353.5,127.6l-16.7,48.7l-16.8-48.7h-13.1l22.4,61.2h14.9l22.4-61.2H353.5z"/>
		<path d="M411.1,126.8c-17.3,0-31.4,13-31.4,31.3c0,18.4,14.1,31.4,31.4,31.4c17.4,0,31.3-13,31.3-31.4
			C442.4,139.7,428.5,126.8,411.1,126.8z M411.1,178.5c-11.1,0-18.8-8-18.8-20.4c0-12.4,7.6-20.2,18.8-20.2c11,0,18.7,7.8,18.7,20.2
			C429.7,170.5,422.1,178.5,411.1,178.5z"/>
		<path d="M491.4,164c9.8-2.6,13.9-10.2,13.9-17.6c0-10.3-7.4-18.8-22.1-18.8h-23v61.2h12.3V165h5.8l13.5,23.8H506L491.4,164z
			 M482.8,155.8h-10.3v-18h10.3c6.8,0,9.9,3.4,9.9,8.9C492.7,152.2,489.6,155.8,482.8,155.8z"/>
		<path d="M560.2,127.6l-13.1,28l-13.1-28h-13.9l20.8,39.9v21.3h12.3v-21.3l20.7-39.9H560.2z"/>
		<path d="M601.2,144.1c0-5,3.6-7.4,8.4-7.2c5.3,0.1,8.5,3.2,8.8,7.3h13.5c-0.8-11-9.4-17.4-21.9-17.4c-12.6,0-21.6,6.7-21.6,17.7
			c-0.1,22.2,31.5,14.2,31.5,27.4c0,4.4-3.4,7.5-9.2,7.5c-5.7,0-8.9-3.2-9.3-8.2h-13.1c0.2,11.6,10,18.2,22.7,18.2
			c13.9,0,21.7-8.7,21.7-18.3C632.5,149.5,601.2,156.4,601.2,144.1z"/>
		<path d="M698.7,183.8c7.8-5.5,12.9-14.6,12.9-25.8c0-18.3-13.9-31.3-31.3-31.3c-17.3,0-31.4,13-31.4,31.3
			c0,18.4,14.1,31.4,31.4,31.4c2.7,0,5.4-0.4,7.9-1l9.3,11.1h15.3L698.7,183.8z M680.3,178.5c-11.1,0-18.8-8-18.8-20.4
			c0-12.4,7.6-20.2,18.8-20.2c11,0,18.7,7.8,18.7,20.2C699,170.5,691.4,178.5,680.3,178.5z"/>
		<path d="M742,179.1v-51.5h-12.3v61.2h32.4v-9.7H742z"/>
	</g>
	<g>
		<path d="M125.1,55.9c13.4-11.5,10.1-18.3,10.1-19.8c0,0,0-0.1,0-0.1c-1.4-4,3.2-3.3,3.2-3.3c6.3-2.2,4.5,5.4,3.9,8.9
			c0,0.1-0.1,0.2-0.1,0.3c-2.1,12-23,26.7-23,26.6c-15.3,13.8-13.2,27.1-13.2,27.1c3.8,28,41.5,35.8,41.5,35.8
			c36.4,6.9,47,26.4,47,26.4c16.4,26.9-9,42.5-11.9,44.2c-0.2,0.1-0.4,0.2-0.5,0.4c-1,0.9-1.3,1.9-1.2,2.7c0.1,1.6,1.4,2.8,3,2.9
			c1.8,0.1,3.5-1,3.8-1.2c0.1,0,0.1-0.1,0.2-0.1c28.3-16.4,16.1-44.8,16.1-44.8c-9-25.6-43.8-34-44.1-34.1l-7.4-2
			c-43.3-10.2-40.2-34.5-40.2-34.5c-0.3-5.9,6.4-14.9,12.9-20.6c8.9-7.5,13.5-12.9,13.5-12.9c13.8-16,8.2-31.9,8.2-32c0,0,0,0,0,0
			c-1.6-7-3.9-6.5-3.9-6.5c-1.9-0.2-4,0.9-3.8,3.1l0,0.7c-0.2,3.6-1.8,4.3-3.7,4.2c-0.4,0-2.9-0.5-3.3-0.6c-5.5-0.7-5.2,2.9-3.8,5.8
			c0.1,0.3,0.5,1.1,0.6,1.4c6.7,10.5-8.2,19.9-11.8,22.1c0,0,0,0,0,0C104,63.1,96.6,72.3,95.7,73.4c-0.1,0.1-0.1,0.2-0.2,0.2
			c-8.4,12.9-8.2,22.5-8.2,22.7c0,0,0,0,0,0c-1.3,17.4,12.9,57.9,12.9,57.9c9,28.6-6.5,42.6-7.6,43.5c0,0-0.1,0.1-0.1,0.1
			c-9.3,9.4-24,10.9-24,10.9c-4.6,0.6-6.6-1.2-7.4-3.3c-0.8-2.1-3.4-2.9-5.2-1.4l-0.2,0.2c0,0,0,0,0,0c-0.5,0.9-0.8,1.6-1.2,2.5
			c0,0,0,1.1,0,1.1c-0.7,8.2,8.1,7.7,8.1,7.7c40.3-0.2,45.7-32.6,45.7-32.6c4.4-16.9-4.9-40.6-5.7-42.8c0-0.1-0.1-0.2-0.1-0.3
			c-2.3-8.2-6.8-24.9-6.8-24.9s-8.5-28.5,10.1-44.9c0.1-0.1,0.1-0.1,0.2-0.2C107.8,67.9,117.8,61.7,125.1,55.9z"/>
		<path d="M228,163.1c0,22.2,0.1,44.3,0,66.5c-0.1,13.7-6.2,20.1-20,20.2c-27.9,0.2-55.8,0.1-83.8,0c-3.3,0-6.8-0.4-9.8-1.6
			c-9.7-3.8-11.4-11.5-4.3-19.2c7.2-7.8,14.7-15.4,18.5-25.6c1.7-4.5,2.5-9.4,2.2-14.3c-0.2-2.3,0.6-4.8,3-4.8
			c2.5,0,3.1,2.5,3.2,4.7c0.4,9.4-2.2,18-7.2,25.8c-4.1,6.4-9.1,12.1-14.4,17.6c-4.8,5-3.6,9,3.1,10.7c2,0.5,4.2,0.4,6.3,0.4
			c27.3,0,54.6,0.1,81.9,0c11.9,0,14.9-3.2,14.9-15.2c0-43.7,0-87.4,0-131.1c0-11.7-3.3-15.1-15.2-15.2c-24.3-0.1-48.6,0-72.8-0.1
			c-2.7,0-7.3,0.6-7.5-2.6c-0.2-4.1,4.8-3.4,7.8-3.4c24.6-0.1,49.2-0.2,73.7,0c14.2,0.1,20.2,6.4,20.3,20.9
			C228,118.8,228,140.9,228,163.1z"/>
		<path d="M171.7,162.9c-0.3,2.6-1.6,4.6-4.3,4.5c-2.8,0-4.2-2.2-4.2-4.7c-0.1-2.3,1.5-3.9,3.8-4.1
			C169.7,158.4,171.2,160.2,171.7,162.9z"/>
		<path d="M199.6,204.1c-0.1-0.2-0.2-0.3-0.2-0.5c-0.3-0.7-0.5-2.4,1.4-3.6c0,0,2.5-1.8,5,2.1c0,0,3.7,4.6,4.6,10.8
			c0,0,2.7,9.9-7.8,21c0,0-2.2,2.3-4.6,0.7c-0.1-0.1-0.3-0.2-0.4-0.3c-0.6-0.5-2.3-2.1-0.2-4c0,0,9.1-7.2,6.6-17.4
			c0-0.1,0-0.2-0.1-0.2C203.5,211.9,202.3,208.5,199.6,204.1z"/>
		<path d="M59.9,214.4c0,0-5.5,0.7-5.5-5.8V85.2c0,0-0.3-8.8,8.7-9.6H81c0,0,4.5-0.3,4,3.6c0,0-0.1,3.1-4.9,2.7H64.3
			c0,0-3.8-0.7-3.4,6.5v113.4c0,0-0.7,9.4,6.2,7.3L59.9,214.4z"/>
		<g>
			<path class="st0" d="M48.9,131.8c15.4,7.1,31.9,9.8,49.4,10.7c0.8,0,1.5,0.6,1.8,1.3c1.3,3.8,3.2,10.4,4,14.7
				c0.2,1.4-1,2.6-2.4,2.3c-21.5-4.9-44.6-14.2-55.1-25.9C45.1,133.3,46.9,130.9,48.9,131.8z"/>
			<path d="M102.1,163c-0.3,0-0.6,0-0.9-0.1c-25.6-5.9-46.6-15.8-56.2-26.5c-1.3-1.5-1.4-3.6-0.3-5.2c1.2-1.6,3.3-2.1,5.1-1.3h0
				c13.5,6.2,28.5,9.5,48.6,10.5c1.7,0.1,3.1,1.2,3.7,2.8c1.2,3.4,3.2,10.2,4.1,15c0.2,1.4-0.2,2.8-1.2,3.7
				C104.1,162.6,103.1,163,102.1,163z M48.7,134.1c10.9,11.6,34.5,20.3,53.2,24.6c-0.7-4-2.5-10.1-3.8-14
				C78,143.6,62.3,140.2,48.7,134.1z"/>
		</g>
		<g>
			<path class="st0" d="M121.4,168.1c0.1,0,0.2,0,0.2-0.1c1.4-0.4,15.4-4.6,17.9,4.4c0,0,2.6,7.7-3.2,11.5
				c-2.4,1.6-5.5,2.8-10.6,3.8c0,0-56.7,13.1-98-25.7c-1.8-1.7,0-4.6,2.3-3.8C47.6,164.2,87.3,175.2,121.4,168.1z"/>
			<path d="M102.9,192.1c-3.4,0-7.1-0.1-10.9-0.4c-18-1.5-44-7.5-65.8-28c-1.5-1.4-1.9-3.7-0.8-5.5c1.1-1.8,3.2-2.6,5.2-1.9
				c15.8,5.3,56.1,16.9,90.2,9.8l0,0c1.7-0.5,10.4-3,16.1,0.1c2.3,1.2,3.8,3.2,4.5,5.7c1.1,3.2,1.6,10.2-4.1,13.9
				c-2.8,1.8-6.3,3.1-11.3,4.1C125.4,190.1,116.3,192.1,102.9,192.1z M29.2,160.2C29.2,160.2,29.2,160.2,29.2,160.2
				c0,0-0.1,0.1-0.1,0.2c0,0,0,0,0.1,0.1c20.8,19.6,45.8,25.4,63,26.8c18.8,1.6,32.9-1.6,33-1.6l0.1,0c4.4-0.9,7.4-2,9.8-3.5
				c4.3-2.8,2.4-8.8,2.4-9l0-0.1c-0.4-1.4-1.2-2.5-2.4-3.2c-3.5-1.9-9.6-0.8-12.7,0.2c-0.1,0-0.3,0.1-0.4,0.1l0,0
				C87.9,177.2,49.3,167,29.2,160.2C29.3,160.3,29.2,160.2,29.2,160.2z"/>
		</g>
	</g>
</g>
</svg>
