<?xml version="1.0" encoding="utf-8"?>
<!-- Generator: Adobe Illustrator 22.1.0, SVG Export Plug-In . SVG Version: 6.00 Build 0)  -->
<svg version="1.1" id="图层_1" xmlns="http://www.w3.org/2000/svg" xmlns:xlink="http://www.w3.org/1999/xlink" x="0px" y="0px"
	 viewBox="0 0 281.5 344" style="enable-background:new 0 0 281.5 344;" xml:space="preserve">
<style type="text/css">
	.st0{fill:#112D56;}
	.st1{fill:#FF9D00;}
	.st2{fill:#234BAF;}
	.st3{fill:#E94A08;}
	.st4{fill:#F1E1B2;}
	.st5{fill:#010101;}
	.st6{fill:#330402;}
	.st7{fill:#FDFCFA;}
	.st8{fill:#FAA249;}
	.st9{fill:#D38433;}
	.st10{fill:#F7C96F;}
	.st11{fill:#0D3463;}
	.st12{fill:#46370C;}
	.st13{fill:#DFBA31;}
	.st14{fill:#3C1D01;}
	.st15{fill:#113B59;}
	.st16{fill:#046BD9;}
</style>
<g>
	<path class="st0" d="M175.3,257.4c0,0,0,0.1,0,0.2c0.8,2.5,15.3,38.8,22.5,35.5c0,0-5.1-5.8-3.7-9.1c0,0,11,16.9,14.9,13.4
		c0,0-3.9-4.9-4.7-10.3c0,0,9.6,13.9,16.4,11.9c0,0-18.9-37-20-45.1"/>
	<path class="st1" d="M244.4,119.4c1.7-14.1-2.9-24.9-13.8-32.6c-7.9-5.6-14.2-7.6-22.9-8.1c-0.4,0-0.7-0.1-1-0.4
		c-1.2-0.8-2.2-1-3.1-0.6c-0.6-0.4-1.4-0.7-2.2-0.9c15.9-4.3,33.4-2.6,43.3,11.5c4.7,6.8,6,15.1,7.2,23.1c0.6,3.6,2,5.7,4.8,7.9
		c0.3,0.3,0.4,0.8,0.1,1.1c-0.1,0.1-0.2,0.2-0.4,0.3c-2.6,0.7-6.5,1.5-9.1,0.2C246.3,120.6,245.4,120,244.4,119.4z"/>
	<path class="st2" d="M201.3,76.9c0.8,0.2,1.6,0.5,2.2,0.9c13,4.5,23.4,12.7,27.6,26.1c2.9,9.1,3.4,17.7,1.7,26.1
		c0.1-10.1-3.1-18.4-9.6-24.8c-19.2-18.9-39.3-11.7-55.1,6.3l-4.1-3.7c2.8-5,11.7-24.7,5.4-28c-0.3,0-0.6,0-0.7-0.1
		c-0.2-0.2-0.2-0.3,0.1-0.5C179.2,74.7,190.1,73.9,201.3,76.9z"/>
	<path class="st3" d="M244.4,119.4c-0.8,4.2-1.7,8.3-2.5,12.4c-0.7,3.8,0.4,6.8,3.3,9c0.3,0.2,0.3,0.4-0.1,0.4
		c-6.2,0.7-10.2-1.6-12.1-7l-0.1-4.4c1.7-8.3,1.1-17-1.7-26.1c-4.2-13.4-14.5-21.6-27.6-26.1c0.9-0.4,1.9-0.2,3.1,0.6
		c0.3,0.2,0.6,0.3,1,0.4c8.7,0.6,15,2.6,22.9,8.1C241.4,94.5,246,105.4,244.4,119.4z"/>
	<path class="st4" d="M163.2,82.3c2.5-1.9,3.7-2.5,5.4-2.9c8.1,2.7-1.8,23.5-4.6,28.4c-0.2,0.4-0.7,0.4-1.5,0.2
		c-1.1-0.4-2.1-1-2.9-1.9c3.3-4.7,5.4-8.6,4.7-13.6c-0.1-0.9-0.9-1.5-1.8-1.4c0,0,0,0,0,0c-5.4,0.8-9.3,9.1-10.2,13.8
		c-0.7,0.3-1.9,0.1-3.6-0.6c3.4-7.1,7.5-13.8,12.4-20.1C161.1,84.2,161.9,83.2,163.2,82.3z M169.9,84.3c-0.1-0.9-1.2-1.5-2.4-1.3
		c-1.2,0.2-2.1,1.1-1.9,2c0.1,0.9,1.2,1.5,2.4,1.3C169.2,86.1,170,85.2,169.9,84.3z"/>
	<ellipse transform="matrix(0.9882 -0.153 0.153 0.9882 -10.9755 26.6534)" class="st5" cx="167.7" cy="84.6" rx="2.2" ry="1.6"/>
	<path class="st6" d="M159.6,106l-7.3-1.2c0.9-4.7,4.8-13,10.2-13.8c0.9-0.1,1.7,0.5,1.8,1.4c0,0,0,0,0,0
		C165,97.5,162.9,101.3,159.6,106z M162.9,99.5c0-0.9-0.7-1.7-1.7-1.7s-1.7,0.7-1.7,1.7s0.7,1.7,1.7,1.7l0,0
		C162.1,101.1,162.9,100.4,162.9,99.5L162.9,99.5z"/>
	<path class="st4" d="M232.9,129.9l0.1,4.4c-0.8-0.3-1.3,0-1.6,0.8c-1.6,5.9-4.3,11-8.8,15c-1.2,1-2.1,2.1-2.7,3.2
		c-11.3-6-22.3-4.9-32.9,3.3c-9.6-2.4-18.7-5.4-27.5-9.3c-4-2.4-7.4-5.1-10.2-8.3c1,0.1,2.8,0.3,5.4,0.8c6.4,1.1,11.9-3.4,14.9-9
		c1.5-4.5,2.7-12.4,0.2-16.6c-0.6-1-1.1-1.9-1.6-2.7c15.8-18,35.9-25.2,55.1-6.3C229.8,111.5,233,119.8,232.9,129.9z M206.1,103.4
		c0.9-1.2,0.2-3.2-1.6-4.4c0,0,0,0,0,0c-1.7-1.3-3.8-1.3-4.7-0.1c0,0,0,0,0,0c-0.9,1.2-0.2,3.2,1.6,4.4c0,0,0,0,0,0
		C203.1,104.6,205.2,104.6,206.1,103.4C206.1,103.4,206.1,103.4,206.1,103.4z M201.3,107.1c-7.1-1.3-12.6,1-16.6,7.1
		c-2.2,3.4-1.8,8.5-1.3,12.3c0.8,6.4,5.5,10.6,11.4,12.2c3.2,0.9,8.5-0.1,11-1c3.7-1.4,7.1-5.2,8.5-9c2-5.6,1.3-10.9-2.4-15.8
		c-1.3-1.8-3.5-3.2-5.3-4.7C205.4,107.1,203,107.4,201.3,107.1z"/>
	<circle class="st7" cx="161.2" cy="99.5" r="1.7"/>
	<ellipse transform="matrix(0.5864 -0.81 0.81 0.5864 1.9977 206.2525)" class="st5" cx="203" cy="101.2" rx="2.7" ry="3.9"/>
	<path class="st8" d="M103,104.6c-0.7,0.2-1,0.6-1,1.3c0,0.3,0.2,0.6,0.4,0.8l2.6,1.9l13.5,7.9c-0.3-0.4-0.1-0.6,0.8-0.7
		c0.2,0,0.3,0,0.5,0c5.6,1.8,11.3,4.3,17.4,6c10.4,2.9,20.9,5.1,31.6,6.6c0.9,0.1,1.2,0.9,0.9,2.3c1.5-4.5,2.7-12.4,0.2-16.6
		c-0.6-1-1.1-1.9-1.6-2.7l-4.1-3.7c-0.2,0.4-0.7,0.4-1.5,0.2c-1.1-0.4-2.1-1-2.9-1.9l-7.3-1.2c-0.7,0.3-1.9,0.1-3.6-0.6
		c-14.6-0.2-29.4-0.1-44.2,0.1C104.6,104.4,103.4,104.5,103,104.6z"/>
	<path class="st7" d="M201.3,107.1c1.6,0.3,4.1,0,5.5,1.1c1.8,1.5,4,2.9,5.3,4.7c3.6,4.9,4.4,10.2,2.4,15.8c-1.4,3.8-4.8,7.7-8.5,9
		c-2.5,0.9-7.8,1.9-11,1c-5.9-1.7-10.6-5.9-11.4-12.2c-0.5-3.8-0.9-8.9,1.3-12.3C188.7,108.1,194.3,105.7,201.3,107.1z M212.7,122.6
		c0-6.8-5.5-12.2-12.2-12.2l0,0c-6.8,0-12.2,5.5-12.2,12.2s5.5,12.2,12.2,12.2C207.2,134.9,212.7,129.4,212.7,122.6
		C212.7,122.6,212.7,122.6,212.7,122.6z"/>
	<path class="st6" d="M212.7,122.6c0,6.8-5.5,12.2-12.2,12.2c0,0,0,0,0,0c-6.8,0-12.2-5.5-12.2-12.2s5.5-12.2,12.2-12.2
		C207.2,110.4,212.7,115.9,212.7,122.6L212.7,122.6z M211.1,123.2c0-1.5-1.2-2.7-2.7-2.7l0,0c-1.5,0-2.7,1.2-2.7,2.7v0
		c0,1.5,1.2,2.7,2.7,2.7l0,0C209.9,125.9,211.1,124.7,211.1,123.2L211.1,123.2z"/>
	<path class="st9" d="M169.6,130.7c-3,5.6-8.5,10.1-14.9,9c-2.6-0.5-4.4-0.7-5.4-0.8c-6.1-2.8-11.8-6.2-16.9-10.1
		c-4.4-3.3-9-7.4-13.9-12.3c-0.3-0.4-0.1-0.6,0.8-0.7c0.2,0,0.3,0,0.5,0c5.6,1.8,11.3,4.3,17.4,6c10.4,2.9,20.9,5.1,31.6,6.6
		C169.6,128.6,169.9,129.3,169.6,130.7z"/>
	<circle class="st7" cx="208.4" cy="123.2" r="2.7"/>
	<path class="st10" d="M159.5,147.2c8.8,4.1,18.1,6.8,27.7,9.3c-0.2,0.5-0.4,0.8-0.6,1c-9.5,10.2-9,25.8-5.6,38.9l-8.3,1.2
		c-1.8,0.3-2.1-0.3-0.8-1.7c2.1-2.4,3.2-5.2,3.5-8.4c0.1-2-0.2-2.1-1.1-0.4c-2.5,5-4.8,7.8-9,11.2c-0.2,0.1-0.5,0.1-0.6-0.1
		c-0.1-0.1-0.1-0.2-0.1-0.3c0.8-5.7,1.7-10.7,1-16.6c0-0.2-0.2-0.3-0.3-0.3c-0.1,0-0.2,0.1-0.3,0.2c-1.1,4.4-1.4,8.7-4.2,13
		c-2.1,3.3-5.3,5.9-8.4,8.2c-0.2,0.1-0.4,0.1-0.6-0.1c-0.1-0.1-0.1-0.2-0.1-0.3l0.9-7.3c0-0.2-0.1-0.4-0.3-0.4l-0.4,0
		c-0.3,0-0.6,0.2-0.6,0.5l-2.3,11.8c-0.1,0.4-0.3,0.5-0.7,0.4c-0.3-0.1-0.6-0.4-0.8-0.7c-0.8-1.7-1.3-2.1-1.6-1.4l-4.7-11.2
		c-1.8-9.7-1.1-19.2,1.9-28.5C145.8,157.3,151.2,151.3,159.5,147.2z"/>
	<path class="st2" d="M219.9,153.3l6.8,8.5c2.4,4,4.2,8.2,5.3,12.9c3,11.6,4.7,23.4,5.1,35.4c0,1.2,0.1,2.2,0.1,2.9
		c-2.1,3.8-4.6,4.7-7.7,2.8c-2.3-1.5-3.9-3.3-4.7-5.4c-0.1-0.3-0.5-0.4-0.7-0.3c-0.2,0.1-0.3,0.3-0.3,0.5c0.1,3.1,0.5,17.1-4.7,16.7
		c-6.3-0.4-10.2-5.5-13.6-10.4c-1-1.4-1.6-1.3-1.7,0.5c-0.3,3.6-2.4,5.1-6.1,4.3l-0.4-4c0-0.4-0.2-0.7-0.4-0.9
		c-0.5-0.7-1.3-1.3-1.7-2.1c-1.7-3.8-3.4-7.6-5.3-11.3c-0.9-1.8-1.3-3.3-1.8-5.1c-0.7-2.5-2.2-5.1-2.4-8.2c-0.1-1.7-0.4-3.1-0.8-4.3
		c-1.2-3.8-0.4-6.8-1.4-10.2c-0.5-1.5-0.7-3.1-0.7-4.9c0-3.9,2.2-8.2,3.8-11.9c0.2-0.4,0.2-0.8,0-1.1c0.2-0.2,0.4-0.5,0.6-1
		C197.6,148,208.5,146.8,219.9,153.3z"/>
	<path class="st11" d="M186.4,157.7c0.2,0.3,0.2,0.7,0,1.1c-1.6,3.7-3.9,8-3.8,11.9c0,1.7,0.2,3.3,0.7,4.9c1,3.4,0.2,6.4,1.4,10.2
		c0.4,1.2,0.6,2.6,0.8,4.3c0.2,3.1,1.7,5.7,2.4,8.2c0.5,1.9,1,3.3,1.8,5.1c1.9,3.7,3.6,7.5,5.3,11.3c0.4,0.8,1.1,1.4,1.7,2.1
		c0.2,0.3,0.4,0.6,0.4,0.9l0.4,4c-1.7-0.1-3.6-0.7-5.6-1.9c-1-1.3-1.9-2.7-2.9-4.4c-3.6-6.2-6.2-12.6-8-19.1
		C177.6,183.2,176.9,168,186.4,157.7z"/>
	<path class="st3" d="M181,196.5c1.8,6.5,4.5,12.8,8,19c1,1.7,1.9,3.1,2.9,4.4l5.2,7.7c4.3,7.2,9.2,14,14.5,20.4
		c-4.4,3.9-6.9,6.9-13.7,9.4c-7.2,1.7-15.1,1.7-23.7,0c-11.8-2.8-19.6-10.1-23.6-21.8c3.4-1.8,11.7-5.6,12.9-8.2
		c1.2-2.6,0.9-6.2-1.9-7.4c-1.2-0.5-2.2-0.4-3.1,0.4c-4.1,3.9-7.2,7.3-10,8.5c0-0.5-0.2-1-0.7-1.7c-1-2.1-1.5-4.3-1.3-6.6l-0.5-15.5
		c0.3-0.7,0.8-0.2,1.6,1.4c0.2,0.4,0.4,0.6,0.8,0.7c0.4,0.1,0.6,0,0.7-0.4l2.3-11.8c0.1-0.3,0.3-0.5,0.6-0.5l0.4,0
		c0.2,0,0.3,0.1,0.3,0.4l-0.9,7.3c0,0.2,0.1,0.4,0.3,0.5c0.1,0,0.2,0,0.3-0.1c3.1-2.4,6.3-4.9,8.4-8.2c2.7-4.3,3.1-8.6,4.2-13
		c0-0.2,0.2-0.3,0.4-0.2c0.1,0,0.2,0.1,0.2,0.3c0.7,5.9-0.3,10.9-1,16.6c0,0.2,0.1,0.5,0.4,0.5c0.1,0,0.2,0,0.3-0.1
		c4.2-3.4,6.5-6.2,9-11.2c0.9-1.7,1.3-1.6,1.1,0.4c-0.2,3.2-1.4,6.1-3.5,8.4c-1.2,1.4-0.9,2,0.8,1.7L181,196.5z"/>
	<path class="st6" d="M127.8,202.2c4.8,7.2,8.6,14.5,11.6,21.8c0,2.3,0.5,4.3,1.6,6l0.5,2.5c0.1,0.5,0.4,0.6,0.8,0.4
		c2.2-1,4.3-2.3,6.2-4.1c2.8-1.3,5.9-4.6,10-8.5c0.8-0.8,1.9-0.9,3.1-0.4c2.8,1.2,3.2,4.8,1.9,7.4c-1.2,2.6-9.5,6.4-12.9,8.2
		l-7.6,2.5c-0.3,0.1-0.6,0.4-0.7,0.8c-0.6,3.2-0.7,6.4-0.2,9.6c-0.7,1.4-1.6,2.3-2.7,2.6c-0.8,0.2-1.6-0.2-1.8-1.1c0,0,0,0,0-0.1
		c-1.1-5-1.3-10-3-14.6c-2.9-7.7-5.8-14.8-7-23.2C127.1,208.7,127.2,205.4,127.8,202.2z"/>
	<path class="st10" d="M237.2,213c0.7,2.2,0.7,4.6,0.1,7.3l-2.2,4.8c-0.3,0.7-1.2,1.1-1.9,0.8c-1.6-0.6-3-1.6-4.2-2.8
		c-0.1-0.2-0.4-0.2-0.5,0c-0.1,0.1-0.1,0.2-0.1,0.3c0.1,3.4-0.3,6.7-1.4,9.9c-3.7,11.1-15.4-0.4-18.8-5.1c-0.2-0.3-0.5-0.4-0.9-0.4
		c-0.6,0.1-1.3,0.5-1.9,1.3c-2.8,0.3-5.5-0.2-8.2-1.6l-5.2-7.7c2.1,1.2,3.9,1.8,5.6,1.9c3.8,0.8,5.8-0.6,6.1-4.3
		c0.2-1.8,0.7-2,1.7-0.5c3.4,4.9,7.3,10,13.6,10.4c5.3,0.3,4.9-13.6,4.7-16.7c0-0.3,0.2-0.6,0.5-0.6c0.2,0,0.4,0.1,0.5,0.3
		c0.9,2.1,2.4,3.9,4.7,5.4C232.5,217.7,235.1,216.8,237.2,213z"/>
	<path class="st12" d="M146.4,220.5c-0.2,2.3,0.3,4.5,1.3,6.6c-3,0-5.3,1-6.8,2.9c-1.1-1.8-1.7-3.8-1.6-6c0.3,0.9,0.8,1.1,1.4,0.7
		C142.5,223.4,144.4,222,146.4,220.5z"/>
	<path class="st2" d="M237.2,220.3c0.7,4.7,0.7,9.3,0.1,13.7c-2,0.4-3.6,0.2-4.7-0.6c-0.6-0.4-1.4-0.2-1.8,0.5
		c-0.1,0.1-0.1,0.3-0.2,0.4c-0.8,3.9-1.4,7.8-1.9,11.5c-0.5,3.7-6.8,3.5-9.1,3.1c-0.7-0.1-1.3-0.5-1.8-1c-4.2-4.7-8.2-9.6-12.1-14.7
		c-1-1.3-1.1-2.7-0.4-4.1c0.6-0.7,1.3-1.2,1.9-1.3c0.3-0.1,0.7,0.1,0.9,0.4c3.3,4.7,15.1,16.2,18.8,5.1c1.1-3.3,1.6-6.6,1.4-9.9
		c0-0.2,0.1-0.4,0.3-0.4c0.1,0,0.2,0,0.3,0.1c1.2,1.2,2.6,2.2,4.2,2.8c0.7,0.3,1.5-0.1,1.9-0.8L237.2,220.3z"/>
	<path class="st11" d="M197.1,227.6c2.7,1.4,5.4,1.9,8.2,1.6c-0.7,1.4-0.6,2.8,0.4,4.1c3.8,5.1,7.9,10,12.1,14.7
		c0.5,0.6,1.1,0.9,1.8,1c2.3,0.4,8.6,0.6,9.1-3.1c0.5-3.8,1.1-7.6,1.9-11.5c0.1-0.8,0.8-1.2,1.6-1.1c0.1,0,0.3,0.1,0.4,0.2
		c1.2,0.7,2.8,0.9,4.7,0.6c0,7.3-1.9,12.1-2.4,18.2c-0.1,1.6-0.8,2.6-2.1,3c-0.3,0.1-0.6,0.4-0.7,0.8c-0.5,2-0.6,5.7-3,6.2
		c-4.3,1-14.5-10.7-17.6-14.3C206.3,241.6,201.4,234.8,197.1,227.6z"/>
</g>
<g>
	<path class="st12" d="M49.7,44.7c-5,2.6-5.1,8.9-1.2,12.4c-1,1.4-2.6,1.2-4.8-0.4c-3.1-2.2-3.9-5.3-2.4-9.1c0.6-1.5,1.5-2.5,2.9-3
		C46.9,43.4,48.8,43.5,49.7,44.7z"/>
	<path class="st12" d="M61,45.3c-5,3.9-5.9,8.6-2.7,14.3c-1.3,0.7-3.1,0.2-5.4-1.3c-3.6-4.4-3.5-8.9,0.5-13.4
		C55,44.2,59.6,43.3,61,45.3z"/>
	<path class="st13" d="M53.5,44.9c-4,4.5-4.1,9-0.5,13.4c-0.7,0.9-2.1,0.4-4.4-1.3c-3.9-3.5-3.9-9.8,1.2-12.4
		C51.9,44.2,53.1,44.3,53.5,44.9z"/>
	<path class="st13" d="M68.1,46.5c-6.6,3.7-7.7,8.6-3.2,14.7c-2.2,0.4-4.4-0.1-6.6-1.6C55.1,53.9,56,49.2,61,45.3
		c2-0.6,4.1-0.6,6.3,0.1C68.1,45.7,68.3,46,68.1,46.5z"/>
	<path class="st7" d="M68,61.8c-0.4-3.2,0.7-5.3,3.4-6.4c0.3-0.1,0.4-0.4,0.3-0.7c-0.4-0.8-1.2-1.4-1.5-2.1c-0.6-1.6-0.3-3.3,0.8-5
		c6.4-5.1,10.9,3.3,6.4,6.9c-0.4,0.3-1.2,0.5-1.7,0.9c-0.3,0.2-0.3,0.5-0.1,0.8c0.4,0.6,0.8,1.3,1.2,1.9
		C79.6,62.9,71.5,68.6,68,61.8z M73.9,53.8c0.7,0.1,1.5-1.2,1.9-3c0.3-1.8,0-3.3-0.7-3.5c-0.7-0.1-1.5,1.2-1.9,3
		C72.9,52.1,73.2,53.7,73.9,53.8z M74,58.4c0.1-0.6-0.3-1.2-0.9-1.3l-0.1,0c-0.6-0.1-1.2,0.3-1.3,0.9c0,0,0,0,0,0l-0.6,3.9
		c-0.1,0.6,0.3,1.2,0.9,1.3l0.1,0c0.6,0.1,1.2-0.3,1.3-0.9c0,0,0,0,0,0L74,58.4z"/>
	<path class="st12" d="M68.1,46.5l2.4,0.2c0.3,0,0.5,0.2,0.7,0.5c0.1,0.2,0.1,0.4-0.1,0.5c-1.1,1.7-1.4,3.3-0.8,5
		c0.3,0.7,1,1.3,1.5,2.1c0.2,0.3,0.1,0.5-0.3,0.7c-2.7,1.1-3.9,3.2-3.4,6.4c-0.4,0.4-1,0.4-1.6-0.1c-0.5-0.4-1.1-0.6-1.5-0.5
		C60.4,55.1,61.5,50.2,68.1,46.5z"/>
	<ellipse transform="matrix(0.184 -0.9829 0.9829 0.184 11.0951 114.4942)" class="st5" cx="74.5" cy="50.6" rx="3.3" ry="1.3"/>
	<path class="st5" d="M73,57.1L73,57.1c0.7,0.1,1.1,0.7,1,1.3l-0.6,3.9c-0.1,0.6-0.7,1-1.3,0.9l-0.1,0c-0.6-0.1-1-0.7-0.9-1.3
		l0.6-3.9C71.9,57.4,72.4,57,73,57.1z"/>
</g>
<g>
	<path class="st3" d="M67.3,173.7c1.8,0,3.1-0.6,4.2-1.7c0.4,0.2,0.9,0.2,1.5,0.1l2.2,0.7c-0.1,1.4-0.4,2.8-1.1,4.2
		c-0.1,0.3-0.2,0.6-0.1,0.9c0.5,2-0.1,3.5-1.9,4.7c-3.1,2-6.3,3.6-9.7,4.9c-0.8-2.9-0.8-5.5,0.1-7.6c0.2-0.6,0.2-1-0.1-1.3
		c0.6-0.3,0.9-0.7,0.8-1.1c1.2-0.6,2.2-1.5,3-2.7C67.1,174.3,67.5,174.1,67.3,173.7z"/>
	<path class="st14" d="M75.1,172.8c1.2,0,1.8,0.4,1.9,1.3c-0.7,2.9,0.4,4.7,3.4,5.2c0.3,0.1,0.4,0.2,0.3,0.5
		c-0.8,3.4-1.3,5.7,3.2,6.5c0.2,0.5-0.3,1.3-1.1,2c-2-0.6-4.4-0.8-5.2-2.7c-1.6-1.1-2.7-1.5-4.4-0.7c-3.2,1.4-6.5,2.9-9.7,4.5
		l-1.1-2.1c3.3-1.2,6.6-2.9,9.7-4.9c1.8-1.1,2.4-2.7,1.9-4.7c-0.1-0.3,0-0.6,0.1-0.9C74.7,175.5,75,174.2,75.1,172.8z"/>
	<path class="st7" d="M83.9,186.4c-4.4-0.8-4-3.2-3.2-6.5c0.1-0.3,0-0.5-0.3-0.5c-3-0.5-4.1-2.3-3.4-5.2c2.7-5.2,9.3-1.5,7.2,3.1
		c-0.1,0.2-0.1,0.3-0.1,0.5c0,0.3,0.1,0.5,0.4,0.6C89.1,179.4,89,185.5,83.9,186.4z M81.5,177.4c0.4-0.2,0.4-1.3-0.2-2.5
		c0,0,0,0,0,0c-0.5-1.1-1.3-1.9-1.8-1.7c-0.4,0.2-0.4,1.3,0.2,2.5c0,0,0,0,0,0C80.3,176.8,81.1,177.6,81.5,177.4z M84.9,184.4
		c0.4-0.2,0.3-1.3-0.2-2.5l0,0c-0.6-1.1-1.4-1.9-1.8-1.7c-0.4,0.2-0.3,1.3,0.2,2.5S84.5,184.6,84.9,184.4L84.9,184.4z"/>
	
		<ellipse transform="matrix(0.2736 -0.9618 0.9618 0.2736 -110.0717 204.8863)" class="st5" cx="80.6" cy="175.3" rx="2.4" ry="2.3"/>
	<ellipse transform="matrix(0.8963 -0.4434 0.4434 0.8963 -72.0006 56.1927)" class="st5" cx="84.2" cy="182.1" rx="2.4" ry="2.4"/>
	<path class="st3" d="M77.3,193.8c1.1-1.4,2.4-2.1,3.9-2.3c0.1-0.5,0.4-0.9,0.8-1.2l0.8-2.1c-1.1-0.8-2.4-1.4-3.9-1.7
		c-0.3-0.1-0.5-0.2-0.7-0.5c-1.3-1.6-2.9-2-4.8-1.3c-3.5,1.2-6.7,2.8-9.7,4.7c1.8,2.4,3.9,3.9,6.1,4.6c0.6,0.2,0.9,0.4,1,0.8
		c0.6-0.3,1.1-0.3,1.4,0c1.2-0.6,2.5-0.8,3.9-0.7C76.8,193.6,77.2,193.5,77.3,193.8z"/>
	<path class="st5" d="M70.4,194.2c0.6,0,1,0.2,1.4,0.6c0.9,2,1.9,3.2,3.1,3.6c0.3,0.1,0.4,0.4,0.3,0.6c-0.1,0.2-0.2,0.3-0.5,0.4
		C71.9,199.6,71.1,196.4,70.4,194.2z"/>
	<path class="st5" d="M76,193.8c-0.1-0.4,0.4-0.5,1.3-0.4c1,1.1,2.2,1.7,3.7,1.9c0.3,0,0.5,0.2,0.5,0.5c0,0.1,0,0.2-0.1,0.3
		c-0.1,0.1-0.2,0.1-0.3,0.2C78.7,196.6,77.1,195.7,76,193.8z"/>
	<path class="st5" d="M80.8,191.3c0.1-0.4,0.4-0.7,1.1-0.8l3.3,2.8c0.2,0.2,0.2,0.5,0.1,0.7l-0.2,0.3c-0.2,0.3-0.5,0.3-0.8,0.1
		L80.8,191.3z"/>
	<path class="st5" d="M66.4,175c0.2,0.3,0.6,0.1,1.2-0.6c-0.1-1.5,0.3-2.8,1.2-4c0.2-0.3,0.2-0.5-0.1-0.7c-0.1-0.1-0.2-0.1-0.3-0.1
		c-0.1,0-0.2,0-0.4,0.1C66.4,171.1,65.8,172.9,66.4,175z"/>
	<path class="st5" d="M71.5,172.6c0.3,0.2,0.8,0.2,1.3-0.2l0.3-4.3c0-0.3-0.2-0.5-0.4-0.5l-0.3,0c-0.4-0.1-0.6,0.1-0.6,0.5
		L71.5,172.6z"/>
	<path class="st5" d="M62.7,178.8c0.4-0.4,0.5-0.9,0.6-1.4c-0.8-2-1-3.6-0.4-4.8c0.1-0.2,0-0.6-0.2-0.7c-0.2-0.1-0.4-0.1-0.6,0.1
		C59.9,174,61.6,176.8,62.7,178.8z"/>
</g>
<g>
	<path class="st5" d="M49.4,271.9c-0.3,0.4-0.4,1.2-0.2,2.3c-0.4,0-0.7-0.1-0.9-0.5c-0.4-1.1-0.5-2.1-0.3-3c0.1-0.3,0.5-0.5,1-0.3
		c0.1,0,0.2,0.1,0.3,0.1C49.2,270.6,49.3,271.1,49.4,271.9z"/>
	<path class="st15" d="M54.8,277.1c-7.3,1.1-11.4,5.6-12.2,13.5c-0.6,0.7-1.5,0.9-2.9,0.9c-0.2,0-0.4-0.2-0.4-0.4
		c0-0.1,0-0.2,0.1-0.2c0.3-0.4,0.8-0.7,1.3-0.9c0.7-0.2,0.9-0.6,0.5-1.3l-0.5-1c0.9-6.3,4.4-10.4,10.6-12.1l2.3,0.6
		c0.3,0.1,0.5,0,0.6-0.4c0.1-0.8,0.2-1.5,0.3-2.3c0-0.1,0.1-0.3,0.1-0.3c0.1-0.1,0.2-0.2,0.3-0.2c0.2-0.1,0.5,0.1,0.5,0.3
		c0,0,0,0,0,0C55.8,275.2,55.6,276.5,54.8,277.1z"/>
	<path class="st15" d="M46,273.8c-4.5,1.6-7.1,4.8-7.8,9.7c-1-1.7-0.7-4.5-0.4-6.4c-0.2-1-0.4-1.7-0.6-2c-0.8-1.4-0.4-1.8,1.1-1.4
		C41.1,274.6,43.2,273,46,273.8z"/>
	<path class="st16" d="M48.2,273.7c0.2,0.3,0.5,0.5,0.9,0.5c1,0.1,1.8,0.6,2.2,1.4c-6.2,1.7-9.7,5.8-10.6,12.1
		c-0.9-0.3-1.6-1.1-1.9-2.3c-0.1-0.6-0.3-1.1-0.6-1.5c0-0.2,0-0.3-0.1-0.4c0.7-4.9,3.3-8.1,7.8-9.7L48.2,273.7z"/>
	<path class="st16" d="M54.8,277.1l1.4,1.7c0.1,0.1,0.1,0.1,0.1,0.2c0,0.2-0.1,0.3-0.2,0.4c-6.1,1.5-10.5,6.4-10.6,12.8
		c-0.8-0.2-1.7-0.8-2.8-1.6C43.4,282.6,47.4,278.1,54.8,277.1z"/>
	<path class="st15" d="M56.1,278.7c1,0.7,1.5,1.4,1.4,2.1c-1.8,0.8-3.5,1.3-5,2.6c-3,2.6-4.8,5.7-5.5,9.5c-0.6,0.1-1.1-0.1-1.6-0.7
		c0.1-6.4,4.5-11.4,10.6-12.8c0.2,0,0.3-0.2,0.2-0.4C56.2,278.9,56.2,278.8,56.1,278.7z"/>
	<path class="st14" d="M59.4,282.7c-0.5-0.3-0.8-0.7-0.9-1.2c0.5-0.8,0.8-1.3,1-1.5c1.2-1.4,1.7-1.1,1.5,0.7
		C61,281.4,60.4,282,59.4,282.7z"/>
	<path class="st16" d="M57.5,280.8c0.3-0.1,0.7,0.1,1,0.6c0.1,0.5,0.4,0.9,0.9,1.2c0.4,0.5,0.5,1.2,0.4,2.1c-1.5,0.7-3.3,1-4.5,1.8
		c-2.1,1.4-3.1,3.1-3.2,5.2l-1,3c-0.7-0.3-1.5-0.4-2.1-0.4c-0.7-0.6-1.3-0.8-1.8-0.6c-0.1-0.2-0.2-0.5-0.2-0.9
		c0.7-3.7,2.6-6.9,5.5-9.5C54,282.2,55.7,281.6,57.5,280.8z"/>
	
		<ellipse transform="matrix(6.627395e-02 -0.9978 0.9978 6.627395e-02 -222.7407 326.0283)" class="st7" cx="62.8" cy="282" rx="1.2" ry="0.8"/>
	<path class="st14" d="M38.2,283.9c0.3,0.4,0.5,0.9,0.6,1.5l-3.6,0.4c-0.4,0-0.6-0.1-0.6-0.6l0-0.3c0-0.5,0.3-0.7,0.8-0.7
		L38.2,283.9z"/>
	<path class="st7" d="M69.3,286c0.5-0.8,1.2-1.3,2.2-1.5c0.3,0,0.4,0.1,0.4,0.3c0.1,1.4-1.5,2.1-2.4,1.6
		C69.2,286.3,69.1,286.2,69.3,286z"/>
	<path class="st15" d="M59.9,284.8c0.4,0.4,0.5,0.8,0.5,1.3c-1.6,0.8-2.3,2.1-1.9,3.8c0.1,0.3-0.1,0.4-0.4,0.4
		c-0.7-0.1-1.4-0.5-2-0.4c-1.3,0.1-2.6,0.7-3.8,1.9c0-2.1,1.1-3.8,3.2-5.2C56.6,285.8,58.4,285.5,59.9,284.8z"/>
	<path class="st7" d="M51.1,294.8l1-3c1.3-1.2,2.6-1.8,3.8-1.9c0.6,0,1.3,0.3,2,0.4c0.3,0,0.4-0.1,0.4-0.4c-0.3-1.7,0.3-3,1.9-3.8
		c3.7-0.8,5.5,3.7,2,5.7c-0.2,0.1-0.5,0.2-0.7,0.2l-0.7,0c-0.4,0-0.5,0.2-0.4,0.5c1.6,3.6-0.5,5.2-2.7,7.5c-0.2,0.2-0.4,0.3-0.7,0.2
		C53.8,299.7,51.8,297.9,51.1,294.8z M63,288.9c0-1-0.8-1.7-1.7-1.7l0,0c-1,0-1.7,0.8-1.7,1.7s0.8,1.7,1.7,1.7
		C62.2,290.6,63,289.8,63,288.9C63,288.9,63,288.9,63,288.9z M59.1,294.8c0-1.6-1.3-2.9-2.9-2.9h0c-1.6,0-2.9,1.3-2.9,2.9
		c0,1.6,1.3,2.9,2.9,2.9S59.1,296.4,59.1,294.8L59.1,294.8z"/>
	<circle class="st5" cx="61.2" cy="288.9" r="1.7"/>
	<circle class="st5" cx="56.2" cy="294.8" r="2.9"/>
	<path class="st5" d="M49,294.4l-2.8,2.2c-0.2,0.1-0.4,0.1-0.5,0l-0.1-0.2c-0.2-0.2-0.2-0.5,0-0.8l1.7-1.9
		C47.7,293.6,48.3,293.8,49,294.4z"/>
	<ellipse transform="matrix(1 -3.490651e-03 3.490651e-03 1 -1.0271 0.2443)" class="st7" cx="69.5" cy="294.4" rx="1.4" ry="0.5"/>
	<path class="st7" d="M63,295.9c0-0.1,0.1-0.1,0.2-0.1c0,0,0,0,0,0l0.1,0c0.7,0.2,1.2,0.9,1,1.6c0,0,0,0,0,0l-0.2,0.8
		c-0.2,0.7-0.9,1.1-1.6,0.9l-0.1,0c-0.1,0-0.2-0.1-0.1-0.2c0,0,0,0,0,0L63,295.9z"/>
	<path class="st7" d="M45.6,298.8c0-0.2,0.2-0.3,0.4-0.3c0,0,0,0,0,0l0.1,0c1.8,0.3,3.3,1,3.2,1.5l0,0.1c-0.1,0.5-1.6,0.7-3.5,0.3
		c0,0,0,0,0,0l-0.1,0c-0.2,0-0.3-0.2-0.3-0.4L45.6,298.8z"/>
</g>
</svg>
