<svg width="1902" height="527" viewBox="0 0 1902 527" fill="none" xmlns="http://www.w3.org/2000/svg">
<g clip-path="url(#clip0_12_260)">
<path d="M826.433 329.145C837.012 331.161 848.125 347.095 853.002 354.139C864.139 370.194 869.574 389.674 862.974 408.692C855.671 429.751 835.969 440.609 815.102 430.723C780.987 414.57 789.577 347.192 819.202 330.262C821.532 328.926 823.958 328.659 826.409 329.121L826.433 329.145Z" fill="#915CD0"/>
<path d="M828.485 466.751L828 395L831.276 466.678L828.485 466.751Z" fill="#A57321"/>
<path d="M839.729 412.409L829.102 426.812L828.01 425.938L839.729 412.409Z" fill="#A57321"/>
<path d="M816.461 394.726L828.617 410.393L828.059 410.83L816.461 394.726Z" fill="#A57321"/>
<path d="M937.02 524.682C937.02 524.682 1073.55 433.573 1429.6 428.205C1785.64 422.837 1922.17 540.762 1922.17 540.762L936.995 524.682C936.995 524.682 840.62 422.837 484.576 428.205C128.531 433.549 -8 524.682 -8 524.682H937.02Z" fill="#A76BDD"/>
<path d="M1201.35 283.991C1204.97 287.076 1206.64 294.12 1207.98 297.593C1213.29 311.511 1214.65 326.837 1217.05 341.435C1220.43 361.984 1222.59 382.776 1223.48 403.592C1224.16 419.428 1226.44 438.738 1216.2 452.219C1209.87 460.55 1198.27 464.485 1188.81 458.826C1179.54 453.263 1177.65 440.123 1176.39 430.383C1174.13 413.137 1175.03 395.795 1175.78 378.476C1176.48 362.275 1177.6 346.074 1180.05 330.019C1182.16 316.101 1185.27 302.305 1189.97 289.043C1192.55 281.805 1197.88 281.052 1201.33 283.991H1201.35Z" fill="#8098FF"/>
<mask id="mask0_12_260" style="mask-type:luminance" maskUnits="userSpaceOnUse" x="1174" y="282" width="51" height="180">
<path d="M1201.35 283.991C1204.97 287.076 1206.64 294.12 1207.98 297.593C1213.29 311.511 1214.65 326.837 1217.05 341.435C1220.43 361.984 1222.59 382.776 1223.48 403.592C1224.16 419.428 1226.44 438.738 1216.2 452.219C1209.87 460.55 1198.27 464.485 1188.81 458.826C1179.54 453.263 1177.65 440.123 1176.39 430.383C1174.13 413.137 1175.03 395.795 1175.78 378.476C1176.48 362.275 1177.6 346.074 1180.05 330.019C1182.16 316.101 1185.27 302.305 1189.97 289.043C1192.55 281.805 1197.88 281.052 1201.33 283.991H1201.35Z" fill="white"/>
</mask>
<g mask="url(#mask0_12_260)">
<path d="M1223.34 363.684C1223.34 363.684 1220.77 449.377 1204.51 463.076L1213.92 480.225L1233.6 461.376C1233.6 461.376 1237.87 394.532 1237.87 391.981C1237.87 389.431 1223.31 363.709 1223.31 363.709L1223.34 363.684Z" fill="#667DD3"/>
</g>
<path d="M1197.38 498.247L1196.79 410.247L1200.8 498.174L1197.38 498.247Z" fill="#A57321"/>
<path d="M1211.64 436.528L1198.61 454.186L1197.28 453.118L1211.64 436.528Z" fill="#A57321"/>
<path d="M1183.11 414.813L1197.98 432.399L1197.33 432.933L1183.11 414.813Z" fill="#A57321"/>
<path d="M554.656 137.648C585.083 143.477 617.087 189.311 631.135 209.593C663.187 255.791 678.789 311.851 659.839 366.575C638.827 427.201 582.123 458.437 522.094 429.994C423.948 383.504 448.624 189.651 533.887 140.927C540.559 137.113 547.571 136.312 554.656 137.672V137.648Z" fill="#915CD0"/>
<path d="M559.46 522.099L558.126 315.64L567.492 521.881L559.46 522.099Z" fill="#A57321"/>
<path d="M592.92 377.286L562.372 418.724L559.218 416.222L592.92 377.286Z" fill="#A57321"/>
<path d="M526.001 326.352L560.916 371.481L559.315 372.696L526.001 326.352Z" fill="#A57321"/>
<path d="M448.964 307.989C469.855 311.559 491.838 339.686 501.495 352.098C523.526 380.444 534.226 414.813 521.197 448.381C506.76 485.568 467.817 504.708 426.593 487.268C359.164 458.753 376.124 339.856 434.697 309.956C439.283 307.624 444.087 307.114 448.964 307.964V307.989Z" fill="#F9CC73"/>
<path d="M449.862 522.221L448.527 428.197L457.893 521.759L449.862 522.221Z" fill="#A57321"/>
<path d="M469.928 456.348L453.404 486.224L450.007 484.062L469.928 456.348Z" fill="#A57321"/>
<path d="M431.13 445.612L451.269 462.955L448.43 465.797L431.13 445.612Z" fill="#A57321"/>
<path d="M155.204 17.8284C163.696 25.0666 167.627 41.6076 170.733 49.7689C183.18 82.3894 186.383 118.386 191.988 152.634C199.873 200.873 204.969 249.597 207.056 298.419C208.633 335.581 213.995 380.881 189.998 412.506C175.173 432.059 147.925 441.313 125.772 428.002C104.056 414.959 99.6162 384.112 96.6317 361.28C91.3665 320.838 93.4289 280.129 95.2245 239.541C96.8986 201.529 99.5191 163.516 105.27 125.892C110.244 93.2711 117.498 60.8934 128.538 29.7544C134.556 12.7762 147.124 10.9788 155.204 17.877V17.8284Z" fill="#8098FF"/>
<path d="M145.838 520.423L144.504 313.964L153.87 520.205L145.838 520.423Z" fill="#A57321"/>
<path d="M179.298 375.61L148.75 417.048L145.62 414.546L179.298 375.61Z" fill="#A57321"/>
<path d="M112.379 324.676L147.294 365.919L145.741 367.206L112.379 324.676Z" fill="#A57321"/>
<path d="M1260.05 394.92C1271.86 396.936 1284.31 412.846 1289.77 419.865C1302.22 435.896 1308.28 455.352 1300.91 474.322C1292.76 495.357 1270.72 506.19 1247.38 496.328C1209.24 480.2 1218.82 412.943 1251.97 396.038C1254.56 394.726 1257.28 394.435 1260.05 394.896V394.92Z" fill="#F9CC73"/>
<path d="M1260.56 516.1L1259.81 462.906L1265.1 515.833L1260.56 516.1Z" fill="#A57321"/>
<path d="M1271.91 478.84L1262.57 495.721L1260.63 494.507L1271.91 478.84Z" fill="#A57321"/>
<path d="M1249.95 472.768L1261.36 482.581L1259.76 484.184L1249.95 472.768Z" fill="#A57321"/>
<path d="M1671.12 3.76485C1679.61 11.0031 1683.55 27.5441 1686.65 35.7053C1699.1 68.3259 1702.3 104.323 1707.91 138.571C1715.79 186.809 1720.89 235.534 1722.97 284.355C1724.55 321.518 1729.91 366.818 1705.92 398.442C1691.09 417.995 1663.84 427.249 1641.69 413.939C1619.97 400.896 1615.53 370.048 1612.55 347.216C1607.29 306.774 1609.35 266.065 1611.14 225.478C1612.82 187.465 1615.44 149.452 1621.19 111.828C1626.16 79.2075 1633.42 46.8298 1644.46 15.6909C1650.47 -1.28733 1663.04 -3.08475 1671.12 3.81343V3.76485Z" fill="#8098FF"/>
<mask id="mask1_12_260" style="mask-type:luminance" maskUnits="userSpaceOnUse" x="1609" y="0" width="116" height="421">
<path d="M1671.12 3.76485C1679.61 11.0031 1683.55 27.5441 1686.65 35.7053C1699.1 68.3259 1702.3 104.323 1707.91 138.571C1715.79 186.809 1720.89 235.534 1722.97 284.355C1724.55 321.518 1729.91 366.818 1705.92 398.442C1691.09 417.995 1663.84 427.249 1641.69 413.939C1619.97 400.896 1615.53 370.048 1612.55 347.216C1607.29 306.774 1609.35 266.065 1611.14 225.478C1612.82 187.465 1615.44 149.452 1621.19 111.828C1626.16 79.2075 1633.42 46.8298 1644.46 15.6909C1650.47 -1.28733 1663.04 -3.08475 1671.12 3.81343V3.76485Z" fill="white"/>
</mask>
<g mask="url(#mask1_12_260)">
<path d="M1722.66 190.696C1722.66 190.696 1716.64 391.69 1678.47 423.849L1700.55 464.048L1746.73 419.817C1746.73 419.817 1756.77 263.029 1756.77 257.005C1756.77 250.982 1722.63 190.671 1722.63 190.671L1722.66 190.696Z" fill="#667DD3"/>
</g>
<path d="M1661.76 506.36L1660.42 299.9L1669.79 506.141L1661.76 506.36Z" fill="#A57321"/>
<path d="M1695.22 361.547L1664.64 402.984L1661.51 400.483L1695.22 361.547Z" fill="#A57321"/>
<path d="M1628.3 310.612L1663.19 351.855L1661.64 353.118L1628.3 310.612Z" fill="#A57321"/>
<path d="M1819.59 137.648C1850.02 143.477 1882.02 189.311 1896.07 209.593C1928.12 255.791 1943.72 311.851 1924.77 366.575C1903.76 427.201 1847.06 458.437 1787.03 429.994C1688.88 383.504 1713.56 189.651 1798.82 140.927C1805.49 137.113 1812.51 136.312 1819.59 137.672V137.648Z" fill="#915CD0"/>
<path d="M1824.4 522.099L1823.04 315.64L1832.4 521.881L1824.4 522.099Z" fill="#A57321"/>
<path d="M1857.86 377.286L1827.28 418.724L1824.15 416.222L1857.86 377.286Z" fill="#A57321"/>
<path d="M1790.91 326.352L1825.85 371.481L1824.25 372.696L1790.91 326.352Z" fill="#A57321"/>
<path d="M1740.49 311.997C1761.38 315.567 1783.37 343.694 1793.02 356.106C1815.05 384.452 1825.75 418.821 1812.73 452.389C1798.29 489.576 1759.35 508.716 1718.12 491.276C1650.69 462.76 1667.65 343.864 1726.23 313.964C1730.81 311.632 1735.62 311.122 1740.49 311.972V311.997Z" fill="#F9CC73"/>
<path d="M1741.39 526.253L1740.06 432.229L1749.42 525.791L1741.39 526.253Z" fill="#A57321"/>
<path d="M1761.48 460.356L1744.93 490.232L1741.54 488.094L1761.48 460.356Z" fill="#A57321"/>
<path d="M1722.66 449.644L1742.82 466.987L1739.98 469.829L1722.66 449.644Z" fill="#A57321"/>
<path d="M1199.53 538.23C1199.53 538.23 907.738 382.802 549 524.822L1199.53 538.23Z" fill="#915CD0"/>
<path d="M1922.11 538.082L-8.09009 522.002" stroke="#915CD0" stroke-width="6.52" stroke-miterlimit="10" stroke-linecap="round"/>
</g>
<defs>
<clipPath id="clip0_12_260">
<rect width="1902" height="527" fill="white"/>
</clipPath>
</defs>
</svg>
