<?xml version="1.0" encoding="utf-8"?>
<!-- Generator: Adobe Illustrator 22.1.0, SVG Export Plug-In . SVG Version: 6.00 Build 0)  -->
<svg version="1.1" id="图层_1" xmlns="http://www.w3.org/2000/svg" xmlns:xlink="http://www.w3.org/1999/xlink" x="0px" y="0px"
	 viewBox="0 0 1028 599" style="enable-background:new 0 0 1028 599;" xml:space="preserve">
<style type="text/css">
	.st0{fill:#EAEAEA;}
	.st1{fill:#FFFFFF;}
	.st2{fill:#050038;}
	.st3{fill:#FFD02F;}
</style>
<path class="st0" d="M957,597.5H77c-19.3,0-35-15.8-35-35v-525c0-19.3,15.8-35,35-35h880c19.3,0,35,15.8,35,35v525
	C992,581.8,976.3,597.5,957,597.5z"/>
<title>open source</title>
<g>
	<g id="Group-4-Copy-3_4_" transform="translate(45.000000, 0.000000)">
		<g>
			<path id="Fill-56_3_" class="st1" d="M768.9,128.5c-5.1,24.6-29.6,40.2-54.6,34.7s-41.1-29.9-36-54.5s29.6-40.2,54.6-34.7
				C757.9,79.5,774.1,103.9,768.9,128.5"/>
			<path class="st2" d="M724.6,168.2c-3.6,0-7.3-0.4-11-1.2c-27-5.9-44.5-32.4-39-59.1c2.6-12.8,10.2-23.8,21.2-30.9
				c11.2-7.3,24.8-9.7,38.1-6.8c27,5.9,44.5,32.4,39,59.1l0,0c-2.6,12.8-10.1,23.8-21.2,30.9C743.5,165.5,734.1,168.2,724.6,168.2z
				 M722.8,76.9c-8.1,0-15.9,2.3-22.8,6.8c-9.2,6-15.5,15.2-17.7,25.9c-4.7,22.5,10.1,44.8,33,49.8c11.2,2.4,22.6,0.4,32.1-5.8
				c9.2-6,15.5-15.2,17.7-25.9l0,0c4.7-22.5-10.1-44.8-33-49.8C729.1,77.2,725.9,76.9,722.8,76.9z"/>
		</g>
		<g>
			<path id="Fill-48_1_" class="st3" d="M709.1,375.4C686.9,484.3,580.6,553,471.9,528.8c-108.8-24.2-179-132.1-156.8-241.1
				S443.6,110,552.4,134.2C661.2,158.5,731.3,266.4,709.1,375.4"/>
			<path class="st2" d="M515.9,537.6c-14.9,0-30-1.6-44.9-5C360.3,508,288.7,397.8,311.3,286.9c10.9-53.6,42.1-99.5,87.6-129
				c45.7-29.7,100.5-39.5,154.2-27.4C663.9,155,735.5,265.2,713,376.2l0,0c-10.9,53.6-42.1,99.5-87.6,129
				C592.2,526.6,554.6,537.6,515.9,537.6z M508.3,133.3c-37.1,0-73.4,10.6-105.1,31.2c-43.8,28.4-73.8,72.5-84.3,124.1
				c-21.8,106.7,47.2,212.7,153.7,236.4c51.6,11.5,104.3,2.1,148.3-26.4c43.8-28.4,73.8-72.5,84.3-124.1l0,0
				c21.8-106.7-47.2-212.8-153.7-236.5C537.2,134.9,522.7,133.3,508.3,133.3z"/>
		</g>
	</g>
	<path class="st2" d="M634,481.2H238.7V172.3H634V481.2z M246.5,473.3h379.6V180.2H246.5V473.3z"/>
	<path class="st2" d="M630.6,242.7H246.2c-2.1,0-3.9-1.7-3.9-3.9c0-2.2,1.7-3.9,3.9-3.9h384.4c2.1,0,3.9,1.7,3.9,3.9
		C634.5,241,632.8,242.7,630.6,242.7z"/>
	<g>
		<rect id="Rectangle_1_" x="586.7" y="105.5" class="st1" width="190.8" height="115.7"/>
		<path class="st2" d="M777.5,225.1H586.7c-2.1,0-3.9-1.7-3.9-3.9V105.5c0-2.1,1.7-3.9,3.9-3.9h190.8c2.1,0,3.9,1.7,3.9,3.9v115.7
			C781.4,223.3,779.6,225.1,777.5,225.1z M590.7,217.3h182.9V109.4H590.7V217.3z"/>
	</g>
	<g>
		<rect id="Rectangle_4_" x="204.6" y="339.9" class="st1" width="76.1" height="76.1"/>
		<path class="st2" d="M280.6,419.9h-76.1c-2.1,0-3.9-1.7-3.9-3.9v-76.1c0-2.1,1.7-3.9,3.9-3.9h76.1c2.1,0,3.9,1.7,3.9,3.9v76.1
			C284.5,418.2,282.8,419.9,280.6,419.9z M208.5,412h68.2v-68.2h-68.2L208.5,412L208.5,412z"/>
	</g>
	<g>
		<g>
			<path class="st2" d="M668,177.9c0,2.3-1.8,4.1-4.1,4.1h-4.1c-8.4,0-15.5-6.3-16.5-14.7s4.5-16.2,12.5-18.1
				c1.6-13,11.7-23.3,24.7-25.1c13-1.8,25.5,5.2,30.8,17.2c9.9,2.9,16.2,12.7,14.7,22.9c-1.5,10.2-10.2,17.8-20.5,17.8
				c-2.3,0-4.1-1.8-4.1-4.1c0-2.3,1.8-4.1,4.1-4.1c6.2,0,11.4-4.6,12.3-10.6c0.9-6.2-2.8-12-8.8-13.8l-3.7-1.1l-1.5-3.5
				c-3.7-8.6-12.8-13.6-22-12.2c-9.2,1.3-16.5,8.7-17.7,17.9l-0.7,5.7l-5.6,1.3c-4,1-6.8,4.9-6.3,9s4,7.3,8.2,7.3h4.1
				C666.2,173.8,668,175.7,668,177.9L668,177.9z M699.4,186.4c1.6,1.6,1.6,4.3,0,5.9L687.6,204c-1.6,1.6-4.3,1.6-5.9,0L670,192.3
				c-1.6-1.6-1.5-4.3,0.1-5.9s4.1-1.6,5.9-0.1l4.7,4.7v-34c0-2.3,1.8-4.1,4.1-4.1c2.3,0,4.1,1.8,4.1,4.1v33.9l4.7-4.7
				C695.1,184.8,697.8,184.8,699.4,186.4L699.4,186.4z"/>
		</g>
	</g>
	<g>
		<path id="Fill-56_2_" class="st1" d="M293,210c-1.3,6.4-7.5,10.3-13.9,8.9c-6.4-1.4-10.4-7.7-9.2-14.1c1.3-6.4,7.5-10.3,13.9-8.9
			C290.2,197.3,294.3,203.6,293,210"/>
		<path class="st2" d="M281.7,223.1c-1.1,0-2.3-0.1-3.4-0.4c-8.4-1.8-13.9-10.2-12.1-18.6c0.8-4,3.2-7.6,6.7-9.8
			c3.5-2.3,7.7-3,11.8-2.1c8.4,1.8,13.9,10.2,12.1,18.6c-0.8,4-3.2,7.6-6.7,9.8C287.6,222.2,284.7,223.1,281.7,223.1z M281.3,199.6
			c-1.5,0-2.9,0.4-4.1,1.2c-1.7,1.1-2.9,2.8-3.3,4.9c-0.9,4.3,1.9,8.5,6.2,9.4c2,0.5,4.1,0.1,5.9-1s2.9-2.8,3.3-4.9
			c0.9-4.3-1.9-8.5-6.2-9.4C282.4,199.7,281.9,199.6,281.3,199.6z"/>
	</g>
	<g>
		<path id="Fill-56_1_" class="st1" d="M332.3,210c-1.3,6.4-7.5,10.3-13.9,8.9c-6.4-1.4-10.4-7.7-9.2-14.1
			c1.3-6.4,7.5-10.3,13.9-8.9C329.5,197.3,333.5,203.6,332.3,210"/>
		<path class="st2" d="M321,223.1c-1.1,0-2.3-0.1-3.4-0.4c-8.4-1.8-13.9-10.2-12.1-18.6c0.8-4,3.2-7.6,6.7-9.8
			c3.5-2.3,7.7-3,11.8-2.1c8.4,1.8,13.9,10.2,12.1,18.6c-0.8,4-3.2,7.6-6.7,9.8C326.8,222.2,323.9,223.1,321,223.1z M320.5,199.6
			c-1.5,0-2.9,0.4-4.1,1.2c-1.7,1.1-2.9,2.8-3.3,4.9c-0.9,4.3,1.9,8.5,6.2,9.4c2,0.5,4.1,0.1,5.9-1c1.7-1.1,2.9-2.8,3.3-4.9
			c0.9-4.3-1.9-8.5-6.2-9.4C321.7,199.7,321.1,199.6,320.5,199.6z"/>
	</g>
	<path class="st2" d="M442.3,309.4h-23.6c-2.1,0-3.9-1.7-3.9-3.9s1.7-3.9,3.9-3.9h23.6c2.1,0,3.9,1.7,3.9,3.9
		S444.4,309.4,442.3,309.4z M395.2,309.4h-23.6c-2.1,0-3.9-1.7-3.9-3.9s1.7-3.9,3.9-3.9h23.6c2.1,0,3.9,1.7,3.9,3.9
		S397.4,309.4,395.2,309.4z M348.2,309.4h-23.6c-2.1,0-3.9-1.7-3.9-3.9s1.7-3.9,3.9-3.9h23.6c2.1,0,3.9,1.7,3.9,3.9
		S350.3,309.4,348.2,309.4z M301.1,309.4h-23.6c-2.1,0-3.9-1.7-3.9-3.9s1.7-3.9,3.9-3.9h23.6c2.1,0,3.9,1.7,3.9,3.9
		S303.2,309.4,301.1,309.4z"/>
	<g>
		<path id="Path-133-Copy-6_1_" class="st1" d="M514.8,542.1l-21.5-52.8c-25.7,0-78.8-70-81.4-73.2c-8-9.8-3.8-19.9,5.7-19.9
			c8.5,0,28.1,10,59,30c0.3-6.7-4.3-93.5,0-127.9c0.8-6.5,1.9-15,7.7-18c6.2-3.2,15.3,2.2,17.8,16.5c4.6,25.8,12.5,69.3,12.5,72.3
			c3-8.3,4.9-16.7,10.4-32.8c5.6-21.1,23.1-26.9,25.7,1.3c0.6,6,1.7,18.4,3.4,37.3c0.4-11.2,1.8-22.5,4.5-33.7
			c2.9-12.9,18.4-12.3,22.2,0c5.5,18,21.4,116.2-2.4,132.1c1.9,7.2,9.8,30.2,23.8,68.9H514.8z"/>
		<path class="st2" d="M602.3,546h-87.5c-1.6,0-3-1-3.6-2.4L490.6,493c-23.1-3.3-60.2-47-80.9-73.3l-0.9-1.1
			c-5.1-6.2-6.5-13.3-3.7-18.9c2.2-4.7,6.9-7.4,12.5-7.4c5.7,0,17.5,2.8,55,26.6c-0.1-2.4-0.2-5.4-0.3-8.5
			c-0.9-27.9-2.8-85.9,0.4-112.6c0.8-6.8,2.1-17,9.8-21.1c3.4-1.8,7.6-1.8,11.4,0.1c6.1,2.9,10.4,10,12,19.2
			c1.3,7.6,2.9,16.7,4.7,25.8c2.3,12.8,4,22.6,5.4,30c1.4-4.7,3.1-10.1,5.5-16.9c3.3-12.8,11.2-21.2,19.2-20.4
			c4.5,0.4,12.2,3.8,14.1,22.7c0.1,0.8,0.2,1.7,0.3,2.8c1.8-7.2,7.2-11.9,13.9-12.1c7.1-0.3,13.5,4.7,15.8,12.2
			c4.7,15.4,21.9,112.3-1.7,134.7c2.7,9.1,10.4,31.4,23,66.2c0.4,1.2,0.2,2.5-0.5,3.5C604.7,545.4,603.6,546,602.3,546z
			 M517.4,538.1h79.3c-13-36-20.1-57-22-64c-0.4-1.6,0.2-3.3,1.6-4.3c20.2-13.6,7.3-106.6,0.8-127.7c-1.5-5.1-5.3-6.8-8-6.7
			c-3.2,0.1-5.7,2.5-6.6,6.4c-2.5,10.9-3.9,22.1-4.4,33c-0.1,2-1.7,3.7-3.8,3.7c-2,0-3.8-1.5-4-3.5c-1.7-18.9-2.9-31.4-3.4-37.3
			c-1-10.4-4.1-15.4-6.9-15.6c-3.3-0.3-8.6,5.4-11.1,15c-3.1,9.1-5.1,15.4-6.7,21.1c-1.3,4.5-2.4,8.3-3.8,12
			c-0.6,1.8-2.5,2.8-4.4,2.5c-1.9-0.3-3.2-1.9-3.2-3.8c-0.1-2.4-4.5-26.4-7.9-45.6c-1.6-9.2-3.2-18.3-4.7-25.9
			c-1.2-6.7-4-11.7-7.8-13.6c-1.1-0.5-2.7-1-4.4-0.2c-4,2.1-5.1,9.9-5.7,15c-3.2,26.1-1.3,83.7-0.4,111.4c0.3,9.8,0.5,14.6,0.4,16.2
			c-0.1,1.4-0.9,2.6-2.1,3.3c-1.2,0.6-2.7,0.6-3.9-0.2c-37.4-24.2-51.6-29.2-56.9-29.2c-2.6,0-4.6,1-5.5,2.9
			c-1.3,2.7-0.2,6.8,2.8,10.5l0.9,1.2c34,43.5,63.7,70.5,77.4,70.5c1.6,0,3,1,3.6,2.4L517.4,538.1z"/>
	</g>
</g>
</svg>
