<?xml version="1.0" encoding="utf-8"?>
<!-- Generator: Adobe Illustrator 22.1.0, SVG Export Plug-In . SVG Version: 6.00 Build 0)  -->
<svg version="1.1" id="图层_1" xmlns="http://www.w3.org/2000/svg" xmlns:xlink="http://www.w3.org/1999/xlink" x="0px" y="0px"
	 viewBox="0 0 1028 599" style="enable-background:new 0 0 1028 599;" xml:space="preserve">
<style type="text/css">
	.st0{fill:#EAEAEA;}
	.st1{fill:#FF6575;}
	.st2{fill:#050038;}
	.st3{fill:#FFFFFF;}
</style>
<path class="st0" d="M957,597.5H77c-19.3,0-35-15.8-35-35v-525c0-19.3,15.8-35,35-35h880c19.3,0,35,15.8,35,35v525
	C992,581.8,976.3,597.5,957,597.5z"/>
<title>open source</title>
<g>
	<g>
		<path id="Fill-347_2_" class="st1" d="M232.4,471.2c49,0,49-45.2,98-45.2s49,45.2,98,45.2s49-45.2,98-45.2
			c48.9,0,48.9,45.2,97.9,45.2s49-45.2,98-45.2s49,45.2,98,45.2l2.8-367c-33.5,8.6-38.9,43.2-81.7,43.2c-49,0-49-45.2-98-45.2
			s-49,45.2-98,45.2c-48.9,0-48.9-45.2-97.9-45.2s-49,45.2-98,45.2s-49-45.2-98-45.2c-6.1,0-11.5,0.7-16.3,1.9L232.4,471.2z"/>
		<path class="st2" d="M824.6,475.6h-4.4c-26.2,0-39.3-12.1-52-23.8c-11.9-11-23.2-21.4-46-21.4s-34.1,10.4-46,21.4
			c-12.7,11.7-25.8,23.8-52,23.8s-39.3-12.1-51.9-23.8c-11.9-11-23.2-21.4-45.9-21.4c-22.8,0-34.1,10.4-46,21.4
			c-12.7,11.7-25.8,23.8-52,23.8s-39.3-12.1-52-23.8c-11.9-11-23.2-21.4-46-21.4s-34.1,10.4-46,21.4c-12.7,11.7-25.8,23.8-52,23.8
			H228l2.9-374.8l3.3-0.8c5.4-1.4,11.1-2.1,17.4-2.1c26.2,0,39.3,12.1,52,23.8c11.9,11,23.2,21.4,46,21.4s34.1-10.4,46-21.4
			c12.7-11.7,25.8-23.8,52-23.8s39.3,12.1,51.9,23.8c11.9,11,23.2,21.4,45.9,21.4c22.8,0,34.1-10.4,46-21.4
			c12.7-11.7,25.8-23.8,52-23.8s39.3,12.1,52,23.8c11.9,11,23.2,21.4,46,21.4s34.1-10.4,46-21.4c9.4-8.7,19.2-17.7,34.6-21.7
			l5.5-1.4L824.6,475.6z M526.4,421.7c26.2,0,39.3,12.1,51.9,23.8c11.9,11,23.2,21.4,45.9,21.4c22.8,0,34.1-10.4,46-21.4
			c12.7-11.7,25.8-23.8,52-23.8s39.3,12.1,52,23.8c11.2,10.3,21.7,20,41.6,21.3l2.8-356.4c-10.2,4-17.6,10.7-25.3,17.8
			c-12.7,11.7-25.8,23.8-52,23.8s-39.3-12.1-52-23.8c-11.9-11-23.2-21.4-46-21.4s-34.1,10.4-46,21.4c-12.7,11.7-25.8,23.8-52,23.8
			s-39.3-12.1-51.9-23.8c-11.9-11-23.2-21.4-45.9-21.4c-22.8,0-34.1,10.4-46,21.4c-12.7,11.7-25.8,23.8-52,23.8s-39.3-12.1-52-23.8
			c-11.9-11-23.2-21.4-46-21.4c-4.2,0-8.2,0.4-11.9,1.1l-2.8,358.9c19.9-1.3,30.4-11,41.6-21.3c12.7-11.7,25.8-23.8,52-23.8
			s39.3,12.1,52,23.8c11.9,11,23.2,21.4,46,21.4s34.1-10.4,46-21.4C487.1,433.7,500.2,421.7,526.4,421.7z"/>
	</g>
	<g>
		<path class="st2" d="M325.8,258.2h-29.2v19.4h-9.7V229h9.7v19.4h29.2V229h9.7v48.6h-9.7V258.2z"/>
		<path class="st2" d="M384.2,229.1h9.7v48.6h-9.7V229.1z"/>
		<path class="st2" d="M442.5,229.1h48.6v9.7h-38.9V268h29.2v-9.7H462v-9.7h29.2v29.2h-48.6v-48.7H442.5z"/>
		<path class="st2" d="M575,258.2h-29.2v19.4h-9.7V229h9.7v19.4H575V229h9.7v48.6H575V258.2z"/>
		<path class="st2" d="M633.3,229.1h48.6v9.7H643V268h29.2v-9.7h-19.4v-9.7H682v29.2h-48.6v-48.7H633.3z"/>
		<path class="st2" d="M730.6,229.1h48.6v48.6h-48.6V229.1z M740.3,268h29.2v-29.2h-29.2V268z"/>
	</g>
	<g>
		<path class="st2" d="M246.4,395.3H216c-4.2,0-7.6,3.4-7.6,7.6v114c0,4.2,3.4,7.6,7.6,7.6h30.4c4.2,0,7.6-3.4,7.6-7.6v-114
			C254,398.7,250.6,395.3,246.4,395.3z"/>
		<path class="st2" d="M398.5,387.7h-50.7l12.4-43.5c0.1-0.4,0.2-0.8,0.2-1.1c0.5-4-0.7-7.9-3.4-11c-2.9-3.3-7.2-5.2-11.7-5.2H329
			c-7,0-13.8,3.2-18.4,8.8l-44.3,62.4c-3,3.8-4.7,8.4-4.7,13.2v105.6c0,4.2,3.4,7.6,7.6,7.6h114c21,0,38-16,38-35.7v-79.5
			C421.3,397.3,411,387.7,398.5,387.7z"/>
		<path class="st3" d="M406.1,488.8c0,11.3-10.2,20.5-22.8,20.5H276.8v-98c0-1.3,0.5-2.5,1.6-4l44.3-62.4c1.4-1.8,3.8-2.8,6.3-2.8
			l15.9,0.1l-14.6,51.1c-0.7,2.3-0.2,4.8,1.2,6.7c1.4,1.9,3.7,3,6.1,3h60.8c4.2,0,7.6,2.9,7.6,6.4v79.4H406.1z"/>
	</g>
</g>
</svg>
