<?xml version="1.0" encoding="utf-8"?>
<!-- Generator: Adobe Illustrator 22.1.0, SVG Export Plug-In . SVG Version: 6.00 Build 0)  -->
<svg version="1.1" id="图层_1" xmlns="http://www.w3.org/2000/svg" xmlns:xlink="http://www.w3.org/1999/xlink" x="0px" y="0px"
	 viewBox="0 0 897.3 557" style="enable-background:new 0 0 897.3 557;" xml:space="preserve">
<style type="text/css">
	.st0{fill:#050038;}
	.st1{fill:#4262FF;}
	.st2{fill:#FFFFFF;}
</style>
<g>
	<g>
		<path class="st0" d="M54.7,368.1l-2.8-2.1c0.1-0.1,1-1.3,2.7-3.4l2.7,2.2C55.6,366.9,54.7,368,54.7,368.1z"/>
		<path class="st0" d="M477.7,379c-0.6,0-1.1,0-1.7,0l0.1-3.5c2.8,0.1,5.7,0,8.5-0.1l0.2,3.5C482.4,378.9,480,379,477.7,379z
			 M467.3,378.6c-2.9-0.2-5.8-0.5-8.7-0.8l0.4-3.4c2.8,0.4,5.7,0.6,8.5,0.8L467.3,378.6z M493.5,378.1l-0.4-3.4
			c2.8-0.3,5.7-0.7,8.5-1.2l0.6,3.4C499.3,377.4,496.3,377.8,493.5,378.1z M450,376.5c-2.8-0.5-5.7-1.1-8.5-1.7l0.8-3.4
			c2.8,0.6,5.6,1.2,8.4,1.7L450,376.5z M510.7,375.2l-0.8-3.4c2.7-0.6,5.5-1.4,8.2-2.2l1,3.3C516.4,373.8,513.5,374.5,510.7,375.2z
			 M432.9,372.5c-2.8-0.8-5.6-1.7-8.3-2.5l1.1-3.3c2.7,0.9,5.5,1.7,8.2,2.5L432.9,372.5z M416.4,367.1c-2.7-1-5.4-2.1-8.1-3.3
			l1.3-3.2c2.6,1.1,5.3,2.2,8,3.2L416.4,367.1z M400.3,360.3c-2.5-1.2-5.2-2.5-7.8-3.8l1.6-3.1c2.5,1.3,5.2,2.6,7.7,3.8L400.3,360.3
			z M63,358.3l-2.5-2.4c1.9-2.1,4-4.2,6-6.3l2.5,2.4C66.9,354.2,64.8,356.2,63,358.3z M384.8,352.3c-2.5-1.4-5-2.9-7.5-4.3l1.8-3
			c2.5,1.5,5,2.9,7.5,4.3L384.8,352.3z M75,346.1l-2.4-2.5c2.1-2,4.3-4,6.4-5.9l2.3,2.6C79.2,342.2,77.1,344.2,75,346.1z
			 M369.9,343.4c-2.4-1.5-4.8-3.2-7.3-4.8l2-2.9c2.4,1.6,4.8,3.2,7.2,4.7L369.9,343.4z M88,334.7l-2.2-2.7c2.2-1.8,4.5-3.6,6.8-5.4
			l2.1,2.7C92.4,331.1,90.1,333,88,334.7z M355.5,333.6c-2.4-1.7-4.7-3.4-7-5.2l2.1-2.7c2.2,1.7,4.5,3.4,6.9,5.1L355.5,333.6z
			 M101.5,324.2l-2-2.8c2.4-1.7,4.7-3.4,7.1-5l1.9,2.9C106.2,320.9,103.8,322.6,101.5,324.2z M341.7,323.1c-2.4-1.8-4.6-3.7-6.7-5.5
			l2.2-2.7c2.1,1.8,4.3,3.6,6.6,5.5L341.7,323.1z M115.8,314.7l-1.8-2.9c2.4-1.5,5-3.1,7.5-4.5l1.7,3
			C120.7,311.7,118.2,313.1,115.8,314.7z M328.4,311.9c-2.3-2-4.4-4-6.4-5.9l2.4-2.5c2,1.8,4.1,3.8,6.4,5.8L328.4,311.9z
			 M130.7,306.1L129,303c2.5-1.3,5.2-2.7,7.8-4l1.5,3.1C135.8,303.4,133.2,304.7,130.7,306.1z M315.6,300c-2.1-2-4.1-4.1-6.1-6.2
			l2.5-2.4c1.8,1.8,3.8,3.9,6.1,6.1L315.6,300z M146.1,298.5l-1.4-3.2c2.7-1.2,5.4-2.4,8-3.4l1.3,3.3
			C151.3,296.2,148.7,297.3,146.1,298.5z M162,292.1l-1.2-3.3c2.7-1,5.5-2,8.2-2.8l1.1,3.3C167.4,290.1,164.6,291,162,292.1z
			 M303.5,287.5c-1.1-1.2-1.8-2-2.2-2.5c-1.3-0.3-2.7-0.6-4.1-0.9l0.8-3.4c1.5,0.3,3.1,0.7,4.7,1.1l0.6,0.1l0.4,0.4
			c0,0,0.9,1,2.5,2.9L303.5,287.5z M178.3,286.8l-1-3.4c2.8-0.8,5.6-1.5,8.4-2.2l0.8,3.4C183.8,285.2,181,285.9,178.3,286.8z
			 M195,282.7l-0.7-3.4c2.9-0.6,5.7-1.1,8.5-1.6l0.6,3.4C200.6,281.5,197.8,282.1,195,282.7z M288.7,282.3c-2.8-0.5-5.7-1-8.5-1.5
			l0.5-3.4c2.8,0.4,5.7,1,8.6,1.5L288.7,282.3z M211.9,279.8l-0.4-3.4c2.9-0.4,5.7-0.7,8.7-1l0.3,3.4
			C217.5,279.2,214.7,279.4,211.9,279.8z M271.8,279.7c-2.9-0.3-5.7-0.6-8.5-0.9l0.3-3.4c2.9,0.3,5.8,0.6,8.7,0.9L271.8,279.7z
			 M228.9,278.3l-0.2-3.5c2.9-0.1,5.8-0.3,8.7-0.3l0.1,3.5C234.7,278,231.8,278.1,228.9,278.3z M254.7,278.2
			c-2.8-0.1-5.7-0.3-8.6-0.3l0.1-3.5c2.9,0.1,5.8,0.1,8.7,0.3L254.7,278.2z"/>
		<path class="st0" d="M527.3,370.2l-1.2-3.3c1.3-0.5,2.7-1,4-1.5l1.3,3.3C530.1,369.2,528.7,369.7,527.3,370.2z"/>
	</g>
	<g id="Group-3_3_">
		<g>
			<g>
				<path id="Fill-1_9_" class="st1" d="M445.7,410.5H217.3c0-54.7,54.6-101.3,54.6-135.2s-54.6-61.7-54.6-106.2h228.4
					c0,52.5-105.9,77.7-105.9,114.5C339.8,320.5,445.7,351.4,445.7,410.5"/>
				<path class="st0" d="M447.4,412.3H215.6v-1.7c0-31.1,17.2-59.4,32.4-84.3c11.9-19.6,22.2-36.5,22.2-50.9
					c0-15.2-11.7-29.5-24.2-44.6c-14.3-17.4-30.5-37.2-30.5-61.6v-1.7h231.8v1.7c0,29.5-32.2,50.6-60.7,69.2
					c-23.2,15.2-45.1,29.5-45.1,45.3c0,15.4,20.8,30.7,43,46.8c29.5,21.6,62.9,46.1,62.9,80L447.4,412.3L447.4,412.3z M219,408.8
					h224.9c-1.1-31.3-33.1-54.7-61.4-75.5c-23.8-17.5-44.4-32.5-44.4-49.6c0-17.7,22.7-32.6,46.7-48.2
					c27.1-17.7,57.8-37.8,59.1-64.6H219.1c0.7,22.3,15.4,40.2,29.7,57.6c12.8,15.6,24.9,30.4,24.9,46.8c0,15.4-10.5,32.7-22.8,52.7
					C236.3,352.1,219.6,379.4,219,408.8z"/>
			</g>
		</g>
	</g>
	<g>
		<rect id="Rectangle_1_" x="393.4" y="190" class="st2" width="83.5" height="83.5"/>
		<path class="st0" d="M479.6,276.1h-88.8v-88.7h88.8V276.1z M396,270.9h78.3v-78.3H396V270.9z"/>
	</g>
	<g>
		<rect id="Rectangle-Copy_1_" x="235.6" y="255.3" class="st2" width="56.1" height="56.1"/>
		<path class="st0" d="M294.3,314H233v-61.3h61.3V314z M238.2,308.7H289v-50.9h-50.9L238.2,308.7L238.2,308.7z"/>
	</g>
	<g>
		<rect id="Rectangle-Copy-2_1_" x="360.8" y="362.3" class="st2" width="36.5" height="36.5"/>
		<path class="st0" d="M400,401.4h-41.7v-41.7H400V401.4z M363.4,396.2h31.3v-31.3h-31.3V396.2z"/>
	</g>
	<polygon id="Path-185-Copy-2_7_" class="st0" points="296.6,341.4 283.2,321.1 272.4,336.8 261.6,285.3 307.3,312.2 289.9,317.1 
		302.9,336.8 	"/>
	<polygon id="Path-185-Copy_7_" class="st0" points="506.7,319.8 484.6,286.4 466.7,312.2 448.9,227.2 524.5,271.6 495.6,279.8 
		517.3,312.2 	"/>
	<polygon id="Path-185-Copy-3_7_" class="st0" points="402,419.7 393.2,406.5 386.2,416.7 379.1,383.1 409.1,400.6 397.6,403.9 
		406.2,416.7 	"/>
	<g>
		<path d="M407.4,221.1l5.4-1.7l4.6-1.5v-0.1l-4.6-1.5l-5.4-1.7v-4.7l15.9,6.1v3.9l-15.9,6.1V221.1z"/>
		<path d="M424.8,230.7h16v3.2h-16V230.7z"/>
	</g>
	<g>
		<path d="M246.7,279.2h-2.4v-3.6h2.8l0.4-3.3h-2.5v-3.6h3l0.7-5.3h3.3l-0.6,5.3h3.1l0.7-5.3h3.3l-0.6,5.3h2.6v3.6h-3.1l-0.4,3.3
			h2.8v3.6h-3.3l-0.8,6.1h-3.3l0.8-6.1h-3.1l-0.8,6.1H246L246.7,279.2z M253.5,275.6l0.4-3.3h-3.1l-0.4,3.3H253.5z"/>
	</g>
	<g>
		<path d="M369.3,387.5c0-2,0.3-2.9,0.3-4.7c0-1-0.6-2-2.5-2.1v-2.9c1.8-0.1,2.5-1.1,2.5-2.1c0-1.8-0.3-2.7-0.3-4.7
			c0-3.2,1.1-4.2,3.8-4.2h2v2.6h-0.4c-1.1,0-1.4,0.3-1.4,1.8c0,1.5,0.1,2.8,0.1,4.5c0,2.3-0.8,3.1-2.3,3.4v0.1
			c1.5,0.3,2.3,1.1,2.3,3.4c0,1.7-0.1,3-0.1,4.5c0,1.5,0.3,1.8,1.4,1.8h0.4v2.6h-2C370.5,391.7,369.3,390.7,369.3,387.5z"/>
	</g>
</g>
</svg>
