<?xml version="1.0" encoding="utf-8"?>
<!-- Generator: Adobe Illustrator 22.1.0, SVG Export Plug-In . SVG Version: 6.00 Build 0)  -->
<svg version="1.1" id="图层_1" xmlns="http://www.w3.org/2000/svg" xmlns:xlink="http://www.w3.org/1999/xlink" x="0px" y="0px"
	 viewBox="0 0 897.3 557" style="enable-background:new 0 0 897.3 557;" xml:space="preserve">
<style type="text/css">
	.st0{fill:#050038;}
	.st1{fill:#4262FF;}
	.st2{fill:#FFFFFF;}
</style>
<g>
	<path class="st0" d="M74.3,398.7l-4.4-3.3c0.1-0.1,1.5-2,4.3-5.4l4.2,3.5C75.7,396.8,74.3,398.6,74.3,398.7z"/>
	<path class="st0" d="M738,415.8c-0.9,0-1.8,0-2.7,0l0.1-5.5c4.4,0.1,9,0,13.4-0.2l0.3,5.5C745.4,415.7,741.7,415.8,738,415.8z
		 M721.7,415.2c-4.5-0.3-9.1-0.8-13.6-1.3l0.7-5.4c4.4,0.6,8.9,1,13.3,1.3L721.7,415.2z M762.8,414.5l-0.6-5.4
		c4.4-0.5,8.9-1.1,13.3-1.9l0.9,5.4C771.9,413.3,767.3,414,762.8,414.5z M694.5,411.9c-4.4-0.8-9-1.7-13.4-2.7l1.2-5.3
		c4.4,1,8.8,1.9,13.2,2.7L694.5,411.9z M789.8,409.8l-1.2-5.3c4.3-1,8.6-2.2,12.9-3.5l1.6,5.2C798.7,407.6,794.2,408.8,789.8,409.8z
		 M667.8,405.7c-4.4-1.2-8.8-2.6-13.1-4l1.7-5.2c4.3,1.4,8.6,2.7,12.9,3.9L667.8,405.7z M641.8,397.1c-4.2-1.6-8.5-3.3-12.7-5.1
		l2.1-5c4.1,1.8,8.3,3.4,12.5,5L641.8,397.1z M616.6,386.5c-4-1.9-8.2-3.9-12.3-6l2.5-4.9c4,2.1,8.1,4.1,12.1,5.9L616.6,386.5z
		 M87.3,383.4l-4-3.7c3-3.3,6.2-6.6,9.4-9.9l3.9,3.8C93.4,376.9,90.2,380.1,87.3,383.4z M592.3,374c-3.9-2.2-7.9-4.5-11.8-6.8
		l2.8-4.7c3.9,2.3,7.8,4.6,11.7,6.7L592.3,374z M106.2,364.2l-3.7-4c3.3-3.1,6.7-6.2,10.1-9.2l3.6,4.1
		C112.8,358.1,109.5,361.2,106.2,364.2z M568.9,360c-3.8-2.4-7.6-5-11.4-7.5l3.1-4.5c3.7,2.5,7.5,5,11.3,7.4L568.9,360z
		 M126.5,346.4l-3.5-4.2c3.5-2.9,7.1-5.7,10.7-8.5l3.3,4.3C133.4,340.7,129.9,343.6,126.5,346.4z M546.3,344.6
		c-3.8-2.7-7.4-5.4-11-8.1l3.3-4.3c3.5,2.7,7.1,5.4,10.8,8L546.3,344.6z M147.8,329.9l-3.2-4.4c3.7-2.6,7.4-5.3,11.2-7.8l3,4.5
		C155.1,324.7,151.4,327.3,147.8,329.9z M524.6,328.1c-3.7-2.9-7.2-5.8-10.5-8.7l3.5-4.2c3.3,2.8,6.8,5.7,10.4,8.6L524.6,328.1z
		 M170.2,314.9l-2.9-4.6c3.8-2.4,7.8-4.8,11.7-7l2.7,4.7C177.8,310.2,173.9,312.5,170.2,314.9z M503.7,310.5
		c-3.6-3.2-6.9-6.2-10.1-9.2l3.7-4c3.1,2.9,6.5,6,10,9.1L503.7,310.5z M193.5,301.4l-2.6-4.8c4-2.1,8.1-4.2,12.2-6.2l2.4,4.9
		C201.5,297.2,197.4,299.2,193.5,301.4z M483.7,291.8c-3.3-3.2-6.5-6.5-9.6-9.7l3.9-3.8c2.8,2.9,6,6.1,9.5,9.6L483.7,291.8z
		 M217.7,289.5l-2.2-5c4.2-1.9,8.4-3.7,12.6-5.4l2.1,5.1C225.9,285.9,221.8,287.7,217.7,289.5z M242.6,279.4l-1.9-5.1
		c4.3-1.6,8.6-3.1,12.9-4.4l1.7,5.2C251.1,276.3,246.8,277.8,242.6,279.4z M464.7,272.2c-1.7-1.9-2.9-3.2-3.5-4
		c-2.1-0.5-4.3-1-6.4-1.4l1.2-5.3c2.4,0.5,4.9,1.1,7.4,1.7l0.9,0.2l0.6,0.7c0,0,1.4,1.6,4,4.5L464.7,272.2z M268.2,271.1l-1.5-5.3
		c4.4-1.2,8.8-2.4,13.2-3.5l1.3,5.3C276.9,268.7,272.5,269.8,268.2,271.1z M294.4,264.7l-1.1-5.3c4.5-0.9,9-1.8,13.4-2.5l0.9,5.4
		C303.2,262.9,298.8,263.8,294.4,264.7z M441.5,264.1c-4.4-0.8-8.9-1.6-13.3-2.3l0.8-5.4c4.4,0.7,9,1.5,13.5,2.3L441.5,264.1z
		 M320.9,260.2l-0.7-5.4c4.5-0.6,9-1.1,13.6-1.5l0.5,5.4C329.8,259.2,325.3,259.6,320.9,260.2z M414.9,260c-4.5-0.5-9-1-13.4-1.4
		l0.5-5.4c4.5,0.4,9.1,0.9,13.6,1.4L414.9,260z M347.7,257.8l-0.3-5.5c4.5-0.2,9.1-0.4,13.7-0.5l0.1,5.5
		C356.7,257.3,352.2,257.5,347.7,257.8z M388.1,257.7c-4.4-0.2-9-0.4-13.5-0.5l0.1-5.5c4.5,0.1,9.1,0.2,13.6,0.5L388.1,257.7z"/>
	<path class="st0" d="M815.9,402l-1.9-5.1c2.1-0.8,4.2-1.6,6.3-2.4l2,5.1C820.2,400.4,818,401.3,815.9,402z"/>
</g>
<g id="Group-3_3_">
	<g>
		<g>
			<path id="Fill-1_9_" class="st1" d="M687.8,465.3H329.4c0-85.8,85.7-159,85.7-212.2s-85.7-96.8-85.7-166.6h358.4
				c0,82.4-166.1,121.9-166.1,179.7C521.7,324,687.8,372.6,687.8,465.3"/>
			<path class="st0" d="M690.5,468.1H326.7v-2.7c0-48.8,27-93.2,50.9-132.3c18.7-30.7,34.9-57.2,34.9-79.9c0-23.8-18.4-46.3-37.9-70
				c-22.4-27.3-47.8-58.3-47.8-96.6v-2.7h363.8v2.7c0,46.3-50.6,79.4-95.3,108.6c-36.4,23.8-70.8,46.3-70.8,71.1
				c0,24.1,32.7,48.1,67.4,73.5c46.3,33.9,98.7,72.4,98.7,125.6v2.7H690.5z M332.1,462.6H685c-1.8-49.1-52-85.9-96.4-118.5
				c-37.3-27.4-69.6-51-69.6-77.9c0-27.8,35.6-51.1,73.3-75.7c42.6-27.8,90.7-59.3,92.7-101.3H332.2c1.1,35,24.2,63.1,46.6,90.4
				c20.1,24.5,39.1,47.7,39.1,73.5c0,24.2-16.5,51.3-35.7,82.7C359.2,373.7,333.1,416.4,332.1,462.6z"/>
		</g>
	</g>
</g>
<g>
	<rect id="Rectangle_1_" x="605.8" y="119.3" class="st2" width="131.1" height="131.1"/>
	<path class="st0" d="M741,254.4H601.7V115.2H741V254.4z M609.9,246.2h122.9V123.4H609.9V246.2z"/>
</g>
<g>
	<rect id="Rectangle-Copy_1_" x="358.1" y="221.7" class="st2" width="88.1" height="88.1"/>
	<path class="st0" d="M450.2,313.8H354v-96.2h96.2V313.8z M362.2,305.6H442v-79.9h-79.9v79.9H362.2z"/>
</g>
<g>
	<rect id="Rectangle-Copy-2_1_" x="554.6" y="389.6" class="st2" width="57.3" height="57.3"/>
	<path class="st0" d="M616.1,451h-65.5v-65.5h65.5V451z M558.7,442.8h49.1v-49.1h-49.1V442.8z"/>
</g>
<polygon id="Path-185-Copy-2_7_" class="st0" points="453.8,356.8 432.8,325 415.9,349.6 399,268.8 470.7,311 443.3,318.7 
	463.8,349.6 "/>
<polygon id="Path-185-Copy_7_" class="st0" points="783.6,323 748.8,270.6 720.8,311 692.8,177.6 811.5,247.3 766.2,260.1 
	800.2,311 "/>
<polygon id="Path-185-Copy-3_7_" class="st0" points="619.3,479.7 605.5,459 594.4,475 583.3,422.3 630.4,449.8 612.4,454.9 
	625.9,475 "/>
<g>
	<path d="M627.7,168l8.5-2.6l7.2-2.4v-0.2l-7.2-2.4l-8.5-2.6v-7.4l24.9,9.5v6.1l-24.9,9.5V168z"/>
	<path d="M655,183.1h25.1v5H655V183.1z"/>
</g>
<g>
	<path d="M375.6,259.3h-3.8v-5.7h4.4l0.6-5.1h-4v-5.7h4.7l1.1-8.3h5.1l-0.9,8.3h4.8l1.1-8.3h5.1l-0.9,8.3h4.1v5.7h-4.8l-0.6,5.1h4.4
		v5.7h-5.1l-1.2,9.5h-5.2l1.2-9.5h-4.8l-1.2,9.5h-5.2L375.6,259.3z M386.3,253.6l0.6-5.1h-4.8l-0.6,5.1H386.3z"/>
</g>
<g>
	<path d="M568,429.2c0-3.2,0.5-4.5,0.5-7.3c0-1.5-1-3.2-3.9-3.3v-4.5c2.9-0.1,3.9-1.7,3.9-3.3c0-2.8-0.5-4.2-0.5-7.3
		c0-5,1.8-6.6,6-6.6h3.2v4.1h-0.7c-1.7,0-2.2,0.5-2.2,2.8s0.2,4.4,0.2,7c0,3.6-1.2,4.9-3.6,5.4v0.2c2.4,0.5,3.6,1.8,3.6,5.4
		c0,2.6-0.2,4.7-0.2,7s0.5,2.8,2.2,2.8h0.7v4.1H574C569.8,435.8,568,434.2,568,429.2z"/>
</g>
</svg>
