<?xml version="1.0" encoding="utf-8"?>
<!-- Generator: Adobe Illustrator 22.1.0, SVG Export Plug-In . SVG Version: 6.00 Build 0)  -->
<svg version="1.1" id="图层_1" xmlns="http://www.w3.org/2000/svg" xmlns:xlink="http://www.w3.org/1999/xlink" x="0px" y="0px"
	 viewBox="0 0 1028 599" style="enable-background:new 0 0 1028 599;" xml:space="preserve">
<style type="text/css">
	.st0{fill:#EAEAEA;}
	.st1{fill:#FF6575;}
	.st2{fill:#050038;}
	.st3{fill:#FFFFFF;}
</style>
<path class="st0" d="M957,597.5H77c-19.3,0-35-15.8-35-35v-525c0-19.3,15.8-35,35-35h880c19.3,0,35,15.8,35,35v525
	C992,581.8,976.3,597.5,957,597.5z"/>
<title>open source</title>
<g>
	<g>
		<path id="Fill-16_1_" class="st1" d="M449.6,308.9c-39.1-8.7-64.3-47.3-56.3-86.2c8-39,46.2-63.5,85.3-54.9
			c39.1,8.7,64.3,47.3,56.3,86.2C526.9,293,488.8,317.6,449.6,308.9z"/>
		<path class="st2" d="M465.5,314.6c-5.5,0-11.1-0.6-16.7-1.8l0,0c-41.1-9.1-67.7-49.8-59.3-90.8c4.1-19.8,15.6-36.7,32.5-47.7
			c17-11.1,37.5-14.7,57.5-10.3c41.1,9.1,67.7,49.8,59.3,90.8c-4.1,19.8-15.6,36.7-32.5,47.7C494,310.4,479.9,314.6,465.5,314.6z
			 M450.5,305.1c18,4,36.3,0.7,51.6-9.2c15.1-9.8,25.4-25,29.1-42.7c7.6-36.8-16.4-73.4-53.4-81.6c-18-4-36.3-0.7-51.6,9.2
			c-15.1,9.8-25.4,25-29.1,42.7C389.6,260.3,413.5,296.9,450.5,305.1L450.5,305.1z"/>
	</g>
	<g>
		<path id="Fill-21_1_" class="st1" d="M612.2,258.8c-26.4-5.8-43.5-31.9-38.1-58.3c5.4-26.3,31.2-42.9,57.6-37.1
			c26.4,5.8,43.5,31.9,38.1,58.3C664.5,248,638.7,264.6,612.2,258.8z"/>
		<path class="st2" d="M622.9,263.9c-3.8,0-7.7-0.4-11.6-1.3l0,0c-28.5-6.3-46.9-34.5-41.1-62.9c2.8-13.7,10.8-25.4,22.5-33
			c11.8-7.6,25.9-10.2,39.8-7.1c28.5,6.3,46.9,34.5,41.1,62.9c-2.8,13.7-10.8,25.4-22.5,33C642.7,261,632.9,263.9,622.9,263.9z
			 M621.1,166.1c-8.5,0-16.8,2.4-24,7.1c-9.9,6.4-16.7,16.4-19.1,28c-5,24.2,10.8,48.3,35.1,53.7l0,0c11.8,2.6,23.8,0.5,33.9-6
			c9.9-6.4,16.7-16.4,19.1-28c5-24.2-10.8-48.3-35.1-53.7C627.7,166.5,624.4,166.1,621.1,166.1z"/>
	</g>
	<g>
		<path id="Fill-23_3_" class="st1" d="M341.7,386.1c-21.1-4.7-34.8-25.5-30.5-46.6s25-34.3,46.1-29.7c21.1,4.7,34.8,25.5,30.5,46.6
			C383.4,377.5,362.8,390.8,341.7,386.1z"/>
		<path class="st2" d="M350.2,390.9c-3.1,0-6.3-0.3-9.4-1l0,0c-23.2-5.1-38.2-28.1-33.4-51.2c2.3-11.2,8.8-20.7,18.3-26.9
			c9.6-6.2,21.1-8.3,32.4-5.8c23.2,5.1,38.2,28.1,33.4,51.2c-2.3,11.2-8.8,20.7-18.3,26.9C366.3,388.6,358.4,390.9,350.2,390.9z
			 M348.7,312.8c-6.6,0-13.1,1.9-18.8,5.6c-7.8,5-13.1,12.8-14.9,21.9c-3.9,19,8.4,37.8,27.5,42l0,0c9.2,2,18.7,0.4,26.5-4.7
			c7.8-5,13.1-12.8,14.9-21.9c3.9-18.9-8.4-37.8-27.5-42C353.9,313,351.3,312.8,348.7,312.8z"/>
	</g>
	<g>
		<path id="Fill-25_1_" class="st1" d="M252.9,314.9c-12.7-2.8-20.9-15.3-18.3-28c2.6-12.6,15-20.6,27.7-17.8
			c12.7,2.8,20.9,15.3,18.3,28C278,309.8,265.6,317.7,252.9,314.9z"/>
		<path class="st2" d="M258,319.4c-2,0-4-0.2-6-0.7c-14.7-3.3-24.3-17.9-21.3-32.6c1.5-7.1,5.6-13.2,11.7-17.1
			c6.1-4,13.5-5.3,20.7-3.7c14.7,3.3,24.3,17.9,21.3,32.6c-1.5,7.1-5.6,13.2-11.7,17.1C268.3,317.9,263.2,319.4,258,319.4z
			 M257.1,272.5c-3.7,0-7.3,1.1-10.4,3.1c-4.3,2.8-7.2,7.1-8.3,12.2c-2.2,10.5,4.7,21,15.3,23.4c5.1,1.1,10.4,0.2,14.7-2.6
			c4.3-2.8,7.2-7.1,8.3-12.2c2.2-10.5-4.7-21-15.3-23.4C260,272.7,258.6,272.5,257.1,272.5z"/>
	</g>
	<g>
		<path id="Fill-23_2_" class="st1" d="M483.8,139.8c-21.1-4.7-34.8-25.5-30.5-46.6s25-34.3,46.1-29.7c21.1,4.7,34.8,25.5,30.5,46.6
			C525.5,131.2,504.9,144.5,483.8,139.8z"/>
		<path class="st2" d="M492.3,144.6c-3.1,0-6.3-0.3-9.4-1c-23.2-5.1-38.2-28.1-33.4-51.2c2.3-11.2,8.8-20.7,18.3-26.9
			c9.6-6.2,21.1-8.3,32.4-5.8c23.2,5.1,38.2,28.1,33.4,51.2c-2.3,11.2-8.8,20.7-18.3,26.9C508.4,142.3,500.5,144.6,492.3,144.6z
			 M490.9,66.5c-6.6,0-13.1,1.9-18.8,5.6c-7.8,5-13.1,12.8-14.9,21.9c-3.9,19,8.4,37.8,27.5,42c9.3,2,18.7,0.4,26.5-4.7
			c7.8-5,13.1-12.8,14.9-21.9c3.9-19-8.4-37.8-27.5-42C496,66.7,493.4,66.5,490.9,66.5z"/>
	</g>
	<g>
		<path id="Fill-23_1_" class="st1" d="M613.2,526c-70-15.5-115.1-84.6-100.8-154.3C526.7,302,595,258,665,273.5
			s115.1,84.6,100.8,154.3C751.6,497.5,683.2,541.5,613.2,526z"/>
		<path class="st2" d="M641.6,533c-9.7,0-19.5-1.1-29.2-3.2c-72-15.9-118.5-87.2-103.8-158.9c7.1-34.6,27.3-64.2,56.8-83.3
			c29.8-19.3,65.5-25.7,100.5-17.9c72,15.9,118.5,87.2,103.8,158.9c-7.1,34.6-27.3,64.2-56.8,83.3C691.4,525.8,666.8,533,641.6,533z
			 M636.7,274.2c-23.7,0-46.9,6.8-67.1,19.9c-27.7,18-46.7,45.8-53.4,78.4c-13.9,67.5,30,134.7,97.8,149.7l0,0
			c33,7.3,66.6,1.3,94.6-16.9c27.7-18,46.7-45.8,53.4-78.4c13.9-67.5-30-134.7-97.9-149.7C655,275.2,645.8,274.2,636.7,274.2z"/>
	</g>
	<g id="Group-37_3_" transform="translate(161.250000, 89.624353)">
		<g>
			<path id="Path-109-Copy-15_2_" class="st3" d="M338.9,69c6.5,0,11.9,0,16.2,0c6.5,0,8.2,9,18.6,9c5.4,0,12.5,0,21.3,0
				c8.6,0,8.1,5.4,8.2,7.8c0.2,5.2,0.4,9.3,0.4,12.2c0,4.3-0.3,9.5-0.8,15.7h-64c0-13.1,0-23,0-29.6S338.9,72.4,338.9,69z"/>
			<path class="st2" d="M402.9,117.7h-64c-2.2,0-3.9-1.7-3.9-3.9V69c0-2.2,1.7-3.9,3.9-3.9h16.2c4.3,0,7.1,2.5,9.5,4.7
				c2.5,2.3,4.7,4.3,9.1,4.3H395c7.8,0,11.9,3.7,12.1,11.1v0.4c0.2,5.2,0.4,9.4,0.4,12.4c0,4.4-0.3,9.8-0.8,16.1
				C406.6,116.1,404.9,117.7,402.9,117.7z M342.8,109.8h56.5c0.3-4.6,0.5-8.5,0.5-11.8c0-2.9-0.1-6.9-0.4-12.1v-0.6
				c-0.1-2.4-0.1-3.5-4.3-3.5h-21.3c-7.3,0-11.4-3.6-14.3-6.3c-2-1.8-3-2.7-4.3-2.7h-12.3v37H342.8z"/>
		</g>
	</g>
	<g>
		<path class="st2" d="M594.7,433.9c-1.7,0-3.3-1.2-3.8-2.9c-0.5-2.1,0.7-4.2,2.8-4.8c6.3-1.6,12.4-3.7,17.9-6.1c2-0.9,4.3,0,5.1,2
			c0.9,2,0,4.3-2,5.1c-5.9,2.6-12.3,4.8-19.1,6.5C595.3,433.9,595,433.9,594.7,433.9z M630.2,418.1c-1.2,0-2.4-0.6-3.2-1.6
			c-1.2-1.8-0.8-4.2,0.9-5.4c5.1-3.6,9.8-7.8,13.8-12.4c1.4-1.6,3.9-1.8,5.5-0.4s1.8,3.9,0.4,5.5c-4.4,5.1-9.5,9.6-15.2,13.6
			C631.7,417.9,630.9,418.1,630.2,418.1z M655.6,389c-0.6,0-1.2-0.1-1.8-0.4c-1.9-1-2.7-3.4-1.7-5.3c2.8-5.4,5-11.3,6.7-17.4
			c0.5-2.1,2.7-3.3,4.8-2.8s3.3,2.7,2.8,4.8c-1.8,6.7-4.2,13.1-7.3,19C658.4,388.2,657,389,655.6,389z M665.6,351.5
			c-0.1,0-0.2,0-0.2,0c-2.2-0.1-3.8-2-3.7-4.1c0.1-1.9,0.1-3.6,0.1-5c0-3.5-0.2-5.5-0.2-5.5c-0.2-2.1,1.3-4.1,3.5-4.3
			c2.2-0.2,4.1,1.3,4.3,3.4c0,0.1,0.3,2.5,0.3,6.4c0,1.6,0,3.4-0.2,5.5C669.4,349.8,667.7,351.5,665.6,351.5z"/>
		<path class="st2" d="M639.5,446.4c-0.4,0-0.7,0-1.1-0.1l-44.7-12.5c-2.1-0.6-3.3-2.7-2.7-4.8c0.6-2.1,2.8-3.3,4.8-2.7l44.7,12.5
			c2.1,0.6,3.3,2.7,2.7,4.8C642.7,445.3,641.2,446.4,639.5,446.4z"/>
		<path class="st2" d="M594.7,432.1c-0.6,0-1.2-0.1-1.8-0.5c-1.9-1-2.6-3.4-1.6-5.3l21.7-41.1c1-1.9,3.4-2.6,5.3-1.6
			c1.9,1,2.6,3.4,1.6,5.3L598.2,430C597.5,431.3,596.1,432.1,594.7,432.1z"/>
	</g>
	<g id="Group-34_3_" transform="translate(253.500000, 169.124353)">
		<g id="Group-33_3_">
			<g>
				<path id="Path-109-Copy-12_1_" class="st3" d="M376.7,67.9c11,0,20.2,0,27.4,0c10.9,0,13.8,15.2,31.5,15.2c9.2,0,21.2,0,36,0
					c14.5,0,13.7,9.2,13.9,13.1c0.4,8.8,0.6,15.7,0.6,20.7c0,7.3-0.4,16.1-1.3,26.6H376.7c0-22.1,0-38.8,0-50S376.7,73.7,376.7,67.9
					z"/>
				<path class="st2" d="M484.8,147.4H376.7c-2.2,0-3.9-1.7-3.9-3.9V67.9c0-2.2,1.7-3.9,3.9-3.9h27.4c6.3,0,10.4,3.7,14.3,7.2
					c4.5,4.1,8.8,7.9,17.2,7.9h36c17.3,0,17.7,12.1,17.8,16.1V96c0.4,8.8,0.6,15.8,0.6,20.9c0,7.3-0.4,16.4-1.3,26.9
					C488.5,145.9,486.9,147.4,484.8,147.4z M380.6,139.6h100.6c0.7-8.8,1-16.4,1-22.7c0-4.9-0.2-11.8-0.6-20.5v-1
					c-0.1-4.4-0.2-8.5-10-8.5h-36c-11.4,0-17.5-5.5-22.4-9.9c-3.7-3.3-5.9-5.2-9.1-5.2h-23.5V139.6z"/>
			</g>
		</g>
	</g>
	<g id="Group-14_3_" transform="translate(33.000000, 280.124353)">
		<g>
			<path id="Path-109-Copy-15_1_" class="st3" d="M332.8,66.5c18.2,0,33.4,0,45.4,0c18.1,0,22.9,25.1,52.1,25.1c15.2,0,35,0,59.5,0
				c24,0,22.7,15.2,23,21.8c0.7,14.6,1,26,1,34.2c0,12-0.7,26.7-2.2,44H332.8c0-36.6,0-64.2,0-82.8S332.8,76.1,332.8,66.5z"/>
			<path class="st2" d="M511.7,195.5H332.8c-2.2,0-3.9-1.7-3.9-3.9V66.5c0-2.2,1.7-3.9,3.9-3.9h45.4c9.5,0,15.8,5.8,22,11.3
				c7.5,6.8,15.3,13.8,30.1,13.8h59.5c26.2,0,26.7,16.9,26.9,24.1v1.4c0.7,14.6,1,26.2,1,34.4c0,12-0.7,26.9-2.2,44.3
				C515.4,193.9,513.7,195.5,511.7,195.5z M336.7,187.6h171.4c1.2-15.6,1.9-29.1,1.9-40.1c0-8.1-0.3-19.6-1-34.1v-1.5
				c-0.2-7.3-0.5-16.5-19-16.5h-59.5c-17.9,0-27.6-8.8-35.4-15.8c-5.8-5.2-10.3-9.3-16.8-9.3h-41.5v117.3H336.7z"/>
		</g>
	</g>
</g>
<g>
	<g>
		<g>
			<path d="M474.9,395.7c-4.6-2.2-11.2-3.2-18.4-3.2c-7.2,0-13.8,1.1-18.4,3.2c-5.3,2.5-7.9,5.4-7.9,8.6v33.4c0,3.2,2.6,6.5,7.9,8.6
				c4.6,2.5,11.2,3.6,18.4,3.6c7.2,0,13.8-1.1,18.4-3.2c4.9-2.2,7.9-5.4,7.9-8.6v-33.8C482.8,401.1,480.2,398.2,474.9,395.7
				L474.9,395.7z M471.9,410.4c-4.3,1.8-10.2,2.5-15.5,2.5c-5.6,0-11.2-0.7-15.5-2.5c-4.9-1.4-7.2-3.6-7.2-6.1
				c0-2.2,2.6-4.3,7.2-6.1c4.3-1.4,9.9-2.2,15.5-2.2c5.3,0,11.2,1.1,15.5,2.5c4.6,1.8,7.2,3.9,7.2,6.1
				C479.2,406.9,476.9,409,471.9,410.4L471.9,410.4z M472.3,420.9c-4.3,1.4-10.2,2.5-15.8,2.5c-5.6,0-11.2-1.1-15.8-2.5
				c-4.6-1.8-7.2-3.9-7.2-6.1v-3.9c3.3,1.4,5.6,3.2,9.2,3.9c4.3,1.1,8.9,1.8,13.8,1.8s9.5-0.7,13.8-1.8c3.6-0.7,5.9-2.5,9.2-3.9v4.3
				C479.5,416.9,476.9,419.1,472.3,420.9L472.3,420.9z M472.3,432.4c-4.3,1.4-10.2,2.5-15.8,2.5c-5.6,0-11.2-1.1-15.8-2.5
				c-4.6-1.4-7.2-3.6-7.2-6.1v-5.4c3.3,1.8,5.6,3.2,9.2,4.3c4.3,1.1,8.9,1.8,13.8,1.8s9.5-0.7,13.8-1.8c3.6-1.1,5.9-2.5,9.2-4.3v5.4
				C479.5,428.8,476.9,430.9,472.3,432.4L472.3,432.4z M456.5,446.4c-5.6,0-11.2-1.1-15.8-2.5c-4.6-1.4-7.2-3.6-7.2-5.7v-5.4
				c3.3,1.8,5.6,3.2,9.2,4.3c3.9,1.1,8.9,1.8,13.5,1.8c4.9,0,9.5-0.7,13.8-1.8c3.9-1.1,6.3-2.5,9.5-4.3v5.4c0,2.2-2.6,4.3-7.2,6.1
				C468,445.6,461.7,446.4,456.5,446.4L456.5,446.4z"/>
			<path class="st2" d="M456.5,451.1c-8,0-14.5-1.3-19-3.7c-5.4-2.2-8.5-5.7-8.5-9.7v-33.4c0-3.7,2.9-7,8.6-9.7
				c4.6-2.2,11.3-3.3,18.9-3.3s14.3,1.2,18.9,3.3l0,0c5.7,2.7,8.6,6,8.6,9.7v33.8c0,3.7-3.2,7.4-8.6,9.7
				C470.8,450,464.1,451.1,456.5,451.1z M456.5,393.7c-7.3,0-13.6,1.1-17.9,3.1c-4.8,2.3-7.2,4.8-7.2,7.5v33.4
				c0,2.9,2.6,5.7,7.2,7.5c4.3,2.3,10.4,3.5,18,3.5c7.3,0,13.6-1.1,17.9-3.1c4.5-1.9,7.2-4.8,7.2-7.5v-33.8c0-2.7-2.4-5.3-7.2-7.5
				C470.1,394.8,463.7,393.7,456.5,393.7z M456.5,447.6c-6.5,0-12.4-1.4-16.2-2.6c-5.1-1.6-8.1-4.1-8.1-6.9v-7.4l3.2,1.7
				c2.6,1.4,4.6,2.6,7.6,3.4c4.1,1.1,8.9,1.7,13.2,1.7c4.4,0,8.8-0.6,13.5-1.8c3.3-0.9,5.4-2.1,8-3.5l3-1.6v7.4c0,2.7-2.8,5.2-8,7.2
				C468.6,446.7,462.4,447.6,456.5,447.6z M434.6,434.7v3.4c0,1.2,1.7,3.1,6.4,4.6c5.1,1.6,10.6,2.5,15.4,2.5
				c5.7,0,11.6-0.8,15.4-2.1c4-1.6,6.4-3.4,6.4-5v-3.4c-2.5,1.4-4.7,2.5-8,3.4c-4.9,1.2-9.5,1.8-14.1,1.8c-4.5,0-9.5-0.7-13.8-1.8
				C439.3,437.3,437.1,436.1,434.6,434.7z M456.5,436.1c-6.5,0-12.4-1.4-16.2-2.6c-5.2-1.6-8.1-4.2-8.1-7.2v-7.4l3.2,1.7
				c2.6,1.4,4.6,2.6,7.6,3.4c9.3,2.3,17.6,2.4,27,0c2.9-0.9,5-2,7.5-3.4l3.2-1.7v7.4c0,3-2.9,5.6-8.1,7.2
				C467.8,435.1,461.8,436.1,456.5,436.1z M434.6,422.9v3.4c0,1.9,2.3,3.7,6.4,5c5.1,1.6,10.6,2.5,15.4,2.5c5.1,0,10.8-0.9,15.4-2.5
				l0,0c4.1-1.3,6.4-3.1,6.4-5v-3.4c-2.4,1.4-4.6,2.5-7.7,3.4c-9.9,2.5-18.5,2.5-28.3,0C439.3,425.4,437.1,424.2,434.6,422.9z
				 M456.5,424.6c-6.6,0-12.4-1.4-16.2-2.6c-5.3-2.1-8.1-4.6-8.1-7.2V409l1.7,0.7c1.1,0.5,2.1,1,3.1,1.5c1.9,1,3.6,1.9,5.9,2.3
				c9.5,2.4,17.7,2.4,27.1,0c2.3-0.5,4.1-1.4,5.9-2.4c1-0.5,2-1,3.1-1.5l1.7-0.7v6.1c0,3.3-5,5.7-8,6.9h-0.1
				C467.9,423.6,461.8,424.6,456.5,424.6z M434.6,412.7v2.1c0,1.5,2.4,3.4,6.5,5c5,1.6,10.5,2.4,15.4,2.4c5.1,0,10.8-0.9,15.4-2.4
				c5.1-2,6.5-3.9,6.5-4.6v-2.4c-0.4,0.2-0.9,0.4-1.3,0.7c-2,1.1-3.9,2.1-6.5,2.6c-9.7,2.4-18.4,2.5-28.2,0
				c-2.5-0.5-4.4-1.5-6.5-2.6C435.5,413.1,435.1,412.9,434.6,412.7z M456.5,414.2c-4.4,0-10.8-0.5-15.9-2.6c-6.6-1.9-8-5-8-7.2
				c0-2.7,2.8-5.2,8-7.2c4.3-1.4,9.9-2.2,15.9-2.2c5,0,11.1,1,15.9,2.6c5.3,2.1,8.1,4.6,8.1,7.2c0,1.7-1,4.8-8,6.9
				C468.4,413.2,462.6,414.2,456.5,414.2z M456.5,397.3c-5.7,0-11.1,0.7-15.1,2.1c-4,1.6-6.4,3.4-6.4,5c0,2.7,4,4.3,6.4,5
				c3.9,1.6,9.1,2.5,15.1,2.5c5.9,0,11.3-0.9,15-2.4h0.1c4-1.2,6.4-2.9,6.4-4.6c0-1.5-2.4-3.4-6.5-5
				C467.1,398.2,461.3,397.3,456.5,397.3z"/>
		</g>
	</g>
</g>
<g>
	<g>
		<g>
			<g>
				<path d="M697.3,267.2c-2.7-1.3-6.6-1.9-10.8-1.9c-4.3,0-8.1,0.6-10.8,1.9c-3.1,1.5-4.6,3.2-4.6,5.1v19.6c0,1.9,1.5,3.8,4.6,5.1
					c2.7,1.5,6.6,2.1,10.8,2.1c4.3,0,8.1-0.6,10.8-1.9c2.9-1.3,4.6-3.2,4.6-5.1v-19.8C702,270.3,700.4,268.7,697.3,267.2
					L697.3,267.2z M695.6,275.8c-2.5,1.1-6,1.5-9.1,1.5c-3.3,0-6.6-0.4-9.1-1.5c-2.9-0.8-4.3-2.1-4.3-3.6c0-1.3,1.5-2.5,4.3-3.6
					c2.5-0.8,5.8-1.3,9.1-1.3c3.1,0,6.6,0.6,9.1,1.5c2.7,1.1,4.3,2.3,4.3,3.6C699.9,273.7,698.5,275,695.6,275.8L695.6,275.8z
					 M695.8,281.9c-2.5,0.8-6,1.5-9.3,1.5s-6.6-0.6-9.3-1.5c-2.7-1.1-4.3-2.3-4.3-3.6V276c1.9,0.8,3.3,1.9,5.4,2.3
					c2.5,0.6,5.2,1.1,8.1,1.1c2.9,0,5.6-0.4,8.1-1.1c2.1-0.4,3.5-1.5,5.4-2.3v2.5C700.1,279.6,698.5,280.9,695.8,281.9L695.8,281.9z
					 M695.8,288.7c-2.5,0.8-6,1.5-9.3,1.5s-6.6-0.6-9.3-1.5c-2.7-0.8-4.3-2.1-4.3-3.6v-3.2c1.9,1.1,3.3,1.9,5.4,2.5
					c2.5,0.6,5.2,1.1,8.1,1.1c2.9,0,5.6-0.4,8.1-1.1c2.1-0.6,3.5-1.5,5.4-2.5v3.2C700.1,286.6,698.5,287.9,695.8,288.7L695.8,288.7z
					 M686.5,296.9c-3.3,0-6.6-0.6-9.3-1.5c-2.7-0.8-4.3-2.1-4.3-3.4v-3.2c1.9,1.1,3.3,1.9,5.4,2.5c2.3,0.6,5.2,1.1,7.9,1.1
					c2.9,0,5.6-0.4,8.1-1.1c2.3-0.6,3.7-1.5,5.6-2.5v3.2c0,1.3-1.5,2.5-4.3,3.6C693.3,296.5,689.6,296.9,686.5,296.9L686.5,296.9z"
					/>
				<path class="st2" d="M686.5,299.2c-4.6,0-8.3-0.7-10.9-2.1c-3-1.2-4.7-3.1-4.7-5.2v-19.6c0-1.9,1.6-3.7,4.7-5.2
					c2.6-1.2,6.5-1.9,10.9-1.9s8.2,0.7,10.9,1.9l0,0c3.1,1.5,4.7,3.2,4.7,5.2v19.8c0,2-1.8,3.9-4.7,5.2
					C694.8,298.5,690.9,299.2,686.5,299.2z M686.5,265.4c-4.3,0-8.2,0.7-10.8,1.9c-3,1.4-4.6,3.1-4.6,4.9v19.6c0,2,1.7,3.8,4.6,4.9
					c2.5,1.4,6.2,2.1,10.8,2.1c4.3,0,8.2-0.7,10.8-1.9c2.9-1.2,4.6-3.1,4.6-4.9v-19.8c0-1.8-1.5-3.5-4.6-4.9l0,0
					C694.7,266.1,690.9,265.4,686.5,265.4z M686.5,297c-3.8,0-7.2-0.8-9.3-1.5c-2.7-0.8-4.3-2.2-4.3-3.5v-3.4l0.2,0.1
					c0.3,0.2,0.6,0.3,0.8,0.5c1.5,0.9,2.8,1.5,4.6,2.1c2.4,0.7,5.3,1,7.9,1c2.6,0,5.3-0.3,8.1-1.1c2-0.5,3.3-1.2,4.9-2.1
					c0.2-0.1,0.5-0.3,0.7-0.4l0.2-0.1v3.4c0,1.3-1.5,2.6-4.3,3.7C693.5,296.6,689.9,297,686.5,297z M673.1,289.1v3
					c0,1.2,1.6,2.4,4.2,3.3c2.2,0.7,5.5,1.5,9.2,1.5c3.4,0,6.9-0.5,9.2-1.3c2.7-1,4.2-2.3,4.2-3.5v-3c-0.2,0.1-0.4,0.2-0.5,0.3
					c-1.6,0.9-2.9,1.6-4.9,2.1c-2.8,0.7-5.5,1.1-8.2,1.1c-2.6,0-5.5-0.4-8-1.1c-1.8-0.5-3.1-1.2-4.6-2.1
					C673.5,289.4,673.3,289.2,673.1,289.1z M686.5,290.3c-3.8,0-7.2-0.8-9.3-1.5c-2.8-0.9-4.3-2.2-4.3-3.7v-3.4l0.2,0.1
					c0.3,0.2,0.6,0.3,0.8,0.5c1.5,0.9,2.8,1.5,4.6,2.1c5.6,1.4,10.6,1.4,16.2,0c1.8-0.5,3-1.2,4.6-2.1c0.3-0.1,0.5-0.3,0.8-0.5
					l0.2-0.1v3.4c0,1.5-1.5,2.8-4.3,3.7C693.1,289.7,689.6,290.3,686.5,290.3z M673.1,282.2v3c0,1.4,1.5,2.6,4.2,3.5
					c2.2,0.7,5.5,1.5,9.2,1.5c3,0,6.5-0.5,9.2-1.5l0,0c2.7-0.8,4.2-2.1,4.2-3.5v-3c-0.2,0.1-0.4,0.2-0.6,0.4
					c-1.6,0.9-2.8,1.5-4.6,2.1c-5.7,1.4-10.7,1.4-16.3,0c-1.8-0.5-3.1-1.2-4.6-2.1C673.5,282.4,673.3,282.3,673.1,282.2z
					 M686.5,283.5c-3.8,0-7.2-0.8-9.3-1.5c-2.8-1.1-4.3-2.4-4.3-3.7v-2.5l0.2,0.1c0.6,0.3,1.2,0.6,1.8,0.9c1.1,0.6,2.2,1.2,3.6,1.4
					c5.6,1.4,10.6,1.4,16.2,0c1.4-0.3,2.5-0.8,3.6-1.4c0.6-0.3,1.1-0.6,1.8-0.9l0.2-0.1v2.7c0,1.1-1.6,2.4-4.3,3.5l0,0
					C693.1,283,689.6,283.5,686.5,283.5z M673.1,276.2v2.1c0,1.2,1.5,2.4,4.2,3.5c2.1,0.7,5.5,1.5,9.2,1.5c3,0,6.5-0.5,9.2-1.5
					c2.6-1,4.2-2.3,4.2-3.3v-2.3c-0.6,0.3-1.1,0.5-1.6,0.8c-1.1,0.6-2.2,1.2-3.7,1.5c-5.6,1.4-10.6,1.4-16.3,0
					c-1.4-0.3-2.5-0.9-3.7-1.5C674.2,276.8,673.7,276.5,673.1,276.2z M686.5,277.4c-2.6,0-6.2-0.3-9.1-1.5c-2.8-0.8-4.3-2.1-4.3-3.7
					c0-1.3,1.5-2.6,4.3-3.7c2.4-0.8,5.7-1.3,9.1-1.3c2.9,0,6.4,0.6,9.1,1.5c2.8,1.1,4.3,2.4,4.3,3.7c0,1.4-1.6,2.7-4.3,3.5
					C693.4,276.9,690.1,277.4,686.5,277.4z M686.5,267.5c-3.4,0-6.6,0.4-9,1.3c-2.7,1-4.2,2.3-4.2,3.5c0,1.5,1.4,2.7,4.2,3.5
					c2.3,1,5.4,1.5,9.1,1.5c3.5,0,6.8-0.5,9-1.5l0,0c2.6-0.8,4.2-2,4.2-3.3c0-1.2-1.5-2.4-4.2-3.5
					C692.9,268.1,689.4,267.5,686.5,267.5z"/>
			</g>
			<g>
				<path class="st2" d="M686.5,299.5c-4.6,0-8.5-0.7-11.1-2.2c-3.1-1.3-4.9-3.3-4.9-5.5v-19.6c0-2.1,1.7-3.9,4.9-5.5
					c2.7-1.3,6.6-1.9,11-1.9s8.3,0.7,11,1.9l0,0c3.3,1.6,4.9,3.4,4.9,5.5V292c0,2.1-1.8,4.1-4.9,5.5
					C694.9,298.8,690.9,299.5,686.5,299.5z M686.5,265.7c-4.3,0-8.1,0.7-10.6,1.9c-2.9,1.4-4.4,2.9-4.4,4.6v19.6
					c0,1.8,1.6,3.5,4.3,4.6c2.5,1.4,6.2,2.1,10.7,2.1c4.3,0,8.1-0.7,10.6-1.9c2.7-1.2,4.4-2.9,4.4-4.6v-19.8c0-1.7-1.5-3.3-4.4-4.6
					C694.6,266.4,690.8,265.7,686.5,265.7z M686.5,297.4c-3.8,0-7.2-0.8-9.4-1.5c-2.9-0.9-4.6-2.3-4.6-3.8v-4l1.5,0.8
					c1.5,0.8,2.7,1.5,4.5,2c2.4,0.7,5.3,1,7.8,1c2.6,0,5.2-0.3,8-1c2-0.5,3.2-1.2,4.8-2.1l1.4-0.8v4c0,1.5-1.6,2.9-4.6,4
					C693.6,296.9,690,297.4,686.5,297.4z M673.5,289.7v2.4c0,1.1,1.5,2.2,3.9,2.9c2.1,0.7,5.5,1.5,9.1,1.5c3.4,0,6.8-0.5,9.1-1.2
					c2.5-1,3.9-2.1,3.9-3.1v-2.4l0,0c-1.6,0.9-2.9,1.6-5,2.2c-2.9,0.7-5.6,1.1-8.2,1.1c-2.6,0-5.5-0.4-8.1-1.1
					c-1.9-0.6-3.2-1.3-4.7-2.1V289.7z M686.5,290.6c-3.8,0-7.2-0.8-9.4-1.5c-3-0.9-4.6-2.4-4.6-4v-4l1.5,0.8c1.5,0.8,2.7,1.5,4.5,2
					c5.5,1.4,10.4,1.4,16,0c1.8-0.5,3-1.2,4.5-2l1.5-0.8v4c0,1.7-1.6,3.1-4.6,4C693.2,290.1,689.6,290.6,686.5,290.6z M673.5,282.7
					v2.4c0,1.2,1.4,2.4,3.9,3.1c2.1,0.7,5.4,1.5,9.1,1.5c3,0,6.4-0.5,9.1-1.5l0,0c2.5-0.8,3.9-1.9,3.9-3.1v-2.4l-0.1,0.1
					c-1.5,0.8-2.8,1.6-4.7,2.1c-5.8,1.5-10.8,1.4-16.5,0c-1.9-0.6-3.2-1.3-4.7-2.1V282.7z M686.5,283.9c-3.8,0-7.2-0.8-9.4-1.5
					c-3-1.2-4.6-2.6-4.6-4v-3l0.7,0.3c0.7,0.3,1.2,0.6,1.8,0.9c1.1,0.6,2.1,1.1,3.5,1.4c5.6,1.4,10.5,1.4,16,0
					c1.4-0.3,2.4-0.8,3.5-1.4c0.6-0.3,1.2-0.6,1.8-0.9l0.7-0.3v3.2c0,1.3-1.7,2.7-4.6,3.8l0,0C693.2,283.3,689.6,283.9,686.5,283.9z
					 M673.5,276.8v1.6c0,1,1.4,2.2,4,3.1c2.1,0.7,5.4,1.4,9.1,1.4c3,0,6.4-0.5,9.1-1.4c2.7-1.1,3.9-2.2,3.9-2.9v-1.8
					c-0.4,0.2-0.7,0.4-1.1,0.6c-1.2,0.6-2.3,1.2-3.8,1.5c-5.7,1.4-10.7,1.4-16.4,0c-1.5-0.3-2.6-0.9-3.7-1.5
					C674.2,277.1,673.8,277,673.5,276.8z M686.5,277.8c-2.6,0-6.3-0.3-9.3-1.5c-3.7-1.1-4.5-2.8-4.5-4c0-1.5,1.6-2.9,4.6-4
					c2.5-0.8,5.8-1.3,9.3-1.3c2.9,0,6.5,0.6,9.2,1.5c3,1.2,4.6,2.6,4.6,4c0,0.9-0.6,2.7-4.6,3.8
					C693.5,277.2,690.1,277.8,686.5,277.8z M686.5,267.9c-3.4,0-6.6,0.4-8.9,1.2c-2.5,1-3.9,2.1-3.9,3.1c0,1.7,2.1,2.6,3.9,3.1
					c2.3,1,5.4,1.5,9,1.5c3.5,0,6.7-0.5,8.9-1.4h0.1c2.5-0.7,3.9-1.8,3.9-2.9c0-1-1.4-2.2-4-3.1
					C692.8,268.4,689.4,267.9,686.5,267.9z"/>
				<path class="st2" d="M686.5,299.6c-4.7,0-8.5-0.8-11.1-2.2c-3.1-1.3-5-3.3-5-5.6v-19.6c0-2.1,1.7-4,5-5.6c2.7-1.3,6.6-2,11.1-2
					c4.4,0,8.4,0.7,11.1,2c3.3,1.6,5,3.5,5,5.6V292c0,2.1-1.9,4.2-5,5.6C694.9,298.9,691,299.6,686.5,299.6z M686.5,264.9
					c-4.4,0-8.3,0.7-11,1.9c-3.2,1.5-4.8,3.3-4.8,5.4v19.6c0,2.2,1.8,4.1,4.8,5.4c2.6,1.4,6.4,2.2,11,2.2c4.4,0,8.3-0.7,11-1.9
					c3-1.3,4.8-3.3,4.8-5.4v-19.8c0-2-1.6-3.8-4.8-5.4C694.8,265.6,690.9,264.9,686.5,264.9z M686.5,298.7c-4.5,0-8.2-0.7-10.7-2.1
					c-2.8-1.1-4.4-2.9-4.4-4.7v-19.6c0-1.7,1.5-3.3,4.4-4.7c2.6-1.2,6.4-1.9,10.7-1.9s8.1,0.7,10.7,1.9c3,1.4,4.4,3,4.4,4.8v19.8
					c0,1.8-1.7,3.5-4.4,4.8C694.6,298,690.8,298.7,686.5,298.7z M686.5,265.9c-4.3,0-8,0.7-10.6,1.8c-2.9,1.4-4.3,2.9-4.3,4.5v19.6
					c0,1.8,1.6,3.4,4.3,4.5c2.5,1.4,6.2,2.1,10.6,2.1c4.3,0,8-0.7,10.6-1.8c2.7-1.2,4.3-2.9,4.3-4.5v-19.8c0-1.6-1.4-3.2-4.3-4.5
					C694.6,266.5,690.8,265.9,686.5,265.9z M686.5,297.5c-3.8,0-7.3-0.8-9.5-1.5c-3-0.9-4.7-2.4-4.7-3.9v-4.2l1.7,0.9
					c1.5,0.8,2.7,1.5,4.5,2c2.4,0.7,5.2,1,7.8,1s5.2-0.3,8-1c1.9-0.5,3.2-1.2,4.7-2.1l1.6-0.9v4.2c0,1.5-1.6,3-4.6,4.1
					C693.6,297,690,297.5,686.5,297.5z M672.6,288.3v3.7c0,1.5,1.6,2.8,4.5,3.7c2.2,0.7,5.6,1.5,9.4,1.5c3.4,0,7-0.5,9.4-1.3
					c2.9-1.1,4.5-2.5,4.5-3.9v-3.7l-1.2,0.7c-1.6,0.9-2.8,1.6-4.8,2.1c-2.8,0.7-5.4,1-8,1c-2.5,0-5.4-0.4-7.8-1
					c-1.8-0.5-3-1.2-4.5-2L672.6,288.3z M686.5,296.6c-3.7,0-7-0.8-9.2-1.5c-2.5-0.8-4-1.9-4-3v-2.6l0.3,0.2
					c1.5,0.8,2.8,1.6,4.7,2.1c2.5,0.7,5.4,1.1,8,1.1c2.7,0,5.4-0.3,8.2-1.1c2-0.6,3.4-1.3,4.9-2.2l0.2-0.1v0.2v2.4
					c0,1.1-1.5,2.3-4,3.3C693.4,296.1,689.9,296.6,686.5,296.6z M673.6,289.9v2.2c0,1,1.5,2.1,3.8,2.8c2.1,0.7,5.4,1.4,9.1,1.4
					c3.3,0,6.8-0.5,9.1-1.2c2.4-0.9,3.9-2.1,3.9-3v-2.2c-1.5,0.8-2.8,1.5-4.9,2.1c-2.9,0.7-5.6,1.1-8.3,1.1c-2.6,0-5.6-0.4-8.1-1.1
					C676.4,291.5,675.1,290.7,673.6,289.9z M686.5,290.8c-3.8,0-7.3-0.8-9.5-1.5c-3-0.9-4.7-2.4-4.7-4.2v-4.2l1.7,0.9
					c1.5,0.8,2.7,1.5,4.5,2c5.5,1.4,10.4,1.4,15.9,0c1.7-0.5,2.9-1.2,4.5-2l1.7-0.9v4.2c0,1.7-1.7,3.2-4.7,4.2
					C693.2,290.2,689.6,290.8,686.5,290.8z M672.6,281.4v3.7c0,1.6,1.6,3,4.5,3.9c2.2,0.7,5.6,1.5,9.4,1.5c3.1,0,6.6-0.6,9.4-1.5
					c2.9-0.9,4.5-2.3,4.5-3.9v-3.7l-1.3,0.7c-1.5,0.8-2.7,1.5-4.5,2.1c-5.6,1.4-10.5,1.4-16.1,0c-1.8-0.5-3-1.2-4.5-2.1L672.6,281.4
					z M686.5,289.8c-3.7,0-7-0.8-9.2-1.5c-2.5-0.8-4-2-4-3.3v-2.6l0.3,0.2c1.5,0.8,2.8,1.6,4.7,2.1c5.7,1.4,10.7,1.4,16.4,0
					c1.8-0.5,3.2-1.3,4.7-2.1l0.3-0.2v2.6c0,1.3-1.5,2.5-4,3.3C693,289.3,689.6,289.8,686.5,289.8z M673.6,282.9v2.2
					c0,1.2,1.4,2.3,3.8,3c2.1,0.7,5.4,1.4,9.1,1.4c3,0,6.4-0.5,9.1-1.4c2.5-0.8,3.9-1.9,3.9-3v-2.2c-1.5,0.8-2.8,1.5-4.7,2.1
					c-5.7,1.4-10.8,1.4-16.6,0C676.4,284.5,675,283.7,673.6,282.9z M686.5,284c-3.8,0-7.3-0.8-9.5-1.5c-3.1-1.2-4.7-2.6-4.7-4.2
					v-3.2l0.8,0.4c0.6,0.3,1.2,0.6,1.8,0.9h0.1c1.1,0.6,2.1,1.1,3.5,1.4c5.5,1.4,10.5,1.4,16,0c1.4-0.3,2.4-0.8,3.5-1.4
					c0.6-0.3,1.2-0.6,1.8-0.9l0.8-0.4v3.4c0,1.4-1.7,2.8-4.6,3.9C693.2,283.5,689.6,284,686.5,284z M672.6,275.5v2.8
					c0,1.4,1.6,2.8,4.5,3.9c2.2,0.7,5.6,1.5,9.4,1.5c3.1,0,6.6-0.6,9.4-1.5c2.9-1.1,4.5-2.5,4.5-3.7v-3.1l-0.5,0.2
					c-0.6,0.3-1.2,0.6-1.8,0.9c-1.1,0.6-2.2,1.1-3.6,1.4c-5.6,1.4-10.5,1.4-16.1,0c-1.4-0.3-2.4-0.8-3.5-1.4h-0.1
					c-0.6-0.3-1.1-0.6-1.8-0.9L672.6,275.5z M686.5,283.1c-3.7,0-7-0.8-9.2-1.5c-2.6-1-4-2.2-4-3.3v-1.8l0.2,0.1
					c0.3,0.2,0.7,0.3,1,0.5l0.1,0.1c1.2,0.6,2.2,1.2,3.7,1.5c5.7,1.4,10.7,1.4,16.4,0c1.5-0.3,2.6-0.9,3.7-1.5
					c0.4-0.2,0.7-0.4,1.1-0.6l0.2-0.1v2c0,0.7-1.1,1.9-4,3.1C693,282.5,689.5,283.1,686.5,283.1z M673.6,277v1.4c0,1,1.4,2.1,3.9,3
					c2.1,0.7,5.4,1.4,9.1,1.4c3,0,6.4-0.5,9.1-1.4c2.7-1,3.9-2.2,3.9-2.8V277c-0.3,0.2-0.6,0.3-0.9,0.5c-1.2,0.6-2.3,1.2-3.8,1.5
					c-5.7,1.4-10.8,1.4-16.5,0c-1.5-0.3-2.6-0.9-3.8-1.5l-0.1-0.1C674.1,277.2,673.8,277.1,673.6,277z M686.5,277.9
					c-2.6,0-6.3-0.3-9.3-1.5c-3.8-1.1-4.6-2.9-4.6-4.1c0-1.5,1.6-3,4.6-4.1c2.5-0.8,5.8-1.3,9.3-1.3c3,0,6.5,0.6,9.3,1.5
					c3,1.2,4.7,2.6,4.7,4.2c0,1-0.6,2.8-4.7,3.9C693.5,277.3,690.1,277.9,686.5,277.9z M686.5,267c-3.5,0-6.7,0.5-9.2,1.3
					c-2.9,1.1-4.5,2.5-4.5,3.9c0,1.2,0.8,2.8,4.5,3.9c3,1.2,6.7,1.5,9.2,1.5c3.6,0,6.9-0.5,9.2-1.5c3.9-1.1,4.5-2.8,4.5-3.7
					c0-1.4-1.6-2.8-4.5-3.9C693,267.6,689.5,267,686.5,267z M686.5,277c-3.6,0-6.7-0.5-9-1.5c-1.8-0.5-4-1.5-4-3.3
					c0-1.1,1.5-2.3,4-3.3c2.4-0.8,5.6-1.3,9-1.3c2.9,0,6.3,0.6,9,1.5c2.6,1,4,2.2,4,3.3c0,1.2-1.5,2.3-4,3l0,0
					C693.3,276.4,690,277,686.5,277z M686.5,268c-3.4,0-6.5,0.4-8.9,1.2c-2.4,0.9-3.8,2.1-3.8,3c0,1.6,2.1,2.5,3.8,3
					c2.3,1,5.4,1.5,8.9,1.5s6.7-0.5,8.9-1.4h0.1c2.4-0.7,3.8-1.7,3.8-2.8c0-1-1.4-2.1-3.9-3C692.8,268.5,689.4,268,686.5,268z"/>
			</g>
		</g>
	</g>
</g>
</svg>
