<?xml version="1.0" encoding="utf-8"?>
<!-- Generator: Adobe Illustrator 22.1.0, SVG Export Plug-In . SVG Version: 6.00 Build 0)  -->
<svg version="1.1" id="图层_1" xmlns="http://www.w3.org/2000/svg" xmlns:xlink="http://www.w3.org/1999/xlink" x="0px" y="0px"
	 viewBox="0 0 1028 599" style="enable-background:new 0 0 1028 599;" xml:space="preserve">
<style type="text/css">
	.st0{fill:#EAEAEA;}
	.st1{fill:#FFD02F;}
	.st2{fill:#050038;}
	.st3{fill:#FFFFFF;}
</style>
<path class="st0" d="M957,597.5H77c-19.3,0-35-15.8-35-35v-525c0-19.3,15.8-35,35-35h880c19.3,0,35,15.8,35,35v525
	C992,581.8,976.3,597.5,957,597.5z"/>
<title>open source</title>
<g id="Group-3_1_">
	<g id="Clip-2_1_">
	</g>
	<g>
		<path id="Fill-1_1_" class="st1" d="M724.2,522.2h-407c0-97.5,97.4-180.6,97.4-241S317.2,171.3,317.2,92h407
			c0,93.6-188.6,138.4-188.6,204.1C535.6,361.7,724.2,416.9,724.2,522.2"/>
		<path class="st2" d="M728.1,526.2H313.2v-3.9c0-55.7,30.8-106.2,57.9-150.7c21.2-34.8,39.5-64.8,39.5-90.3
			c0-26.8-20.8-52.1-42.8-79c-25.6-31.2-54.5-66.5-54.5-110.2v-3.9h414.9V92c0,53.1-57.7,90.8-108.6,124c-41.2,26.9-80,52.3-80,80.1
			c0,27,37,54.1,76.1,82.8c52.7,38.7,112.5,82.5,112.5,143.3v4H728.1z M321.2,518.3h398.9c-2.6-54.9-59.1-96.3-109.2-133
			c-42.6-31.2-79.4-58.2-79.4-89.2c0-32,40.6-58.6,83.6-86.7c47.9-31.3,102-66.6,104.9-113.5H321.2c1.7,39.1,27.6,70.7,52.6,101.3
			c23,28,44.6,54.4,44.6,84c0,27.7-18.8,58.6-40.6,94.4C351.9,418.2,322.6,466.4,321.2,518.3z"/>
	</g>
</g>
<g>
	<rect id="Rectangle_1_" x="631.1" y="129.2" class="st3" width="148.8" height="148.8"/>
	<path class="st2" d="M783.9,282H627.2V125.3h156.7V282z M635.1,274.1H776V133.2H635.1V274.1z"/>
</g>
<g>
	<rect id="Rectangle-Copy_2_" x="349.7" y="245.5" class="st3" width="100" height="100"/>
	<path class="st2" d="M453.7,349.4H345.8V241.6h107.9L453.7,349.4L453.7,349.4z M353.7,341.6h92.1v-92.1h-92.1V341.6z"/>
</g>
<g>
	<rect id="Rectangle-Copy-2_2_" x="573" y="436.2" class="st3" width="65.1" height="65.1"/>
	<path class="st2" d="M642.1,505.3h-73v-73h73V505.3z M577,497.4h57.2v-57.2H577V497.4z"/>
</g>
<polygon id="Path-185-Copy-2_1_" class="st2" points="458.5,399 434.6,362.9 415.4,390.7 396.3,299 477.7,346.9 446.5,355.7 
	469.9,390.7 "/>
<polygon id="Path-185-Copy_1_" class="st2" points="826.6,360.4 787,300.8 755.2,346.7 723.5,195.3 858.3,274.4 806.8,288.9 
	845.5,346.7 "/>
<polygon id="Path-185-Copy-3_1_" class="st2" points="646.4,538.5 630.8,515 618.2,533.1 605.6,473.4 659,504.6 638.6,510.3 
	653.9,533.1 "/>
<g>
	<path class="st2" d="M651.6,177.1l11.5-3.6l9.7-3.3V170l-9.7-3.3l-11.5-3.6v-9.9l33.5,12.8v8.2L651.6,187V177.1z"/>
	<path class="st2" d="M688.4,197.4h33.8v6.7h-33.8V197.4z"/>
</g>
<g>
	<path class="st2" d="M367.2,292.8h-4.5V286h5.3l0.8-6.1H364v-6.8h5.7l1.3-10h6.1l-1.1,10h5.8l1.3-10h6.1l-1.1,10h4.9v6.8h-5.8
		l-0.8,6.1h5.3v6.8h-6.1l-1.4,11.4H378l1.4-11.4h-5.8l-1.4,11.4H366L367.2,292.8z M379.9,286l0.8-6.1h-5.8l-0.8,6.1H379.9z"/>
</g>
<g>
	<path class="st2" d="M590.4,481.4c0-3.3,0.5-4.7,0.5-7.7c0-1.6-1-3.3-4.1-3.4v-4.7c3-0.1,4.1-1.8,4.1-3.4c0-2.9-0.5-4.4-0.5-7.7
		c0-5.2,1.9-6.9,6.2-6.9h3.3v4.3h-0.8c-1.8,0-2.3,0.5-2.3,2.9s0.2,4.6,0.2,7.4c0,3.8-1.3,5.1-3.8,5.7v0.2c2.5,0.6,3.8,1.9,3.8,5.7
		c0,2.7-0.2,5-0.2,7.4c0,2.5,0.5,2.9,2.3,2.9h0.8v4.3h-3.3C592.3,488.3,590.4,486.6,590.4,481.4z"/>
</g>
</svg>
