<?xml version="1.0" encoding="utf-8"?>
<!-- Generator: Adobe Illustrator 22.1.0, SVG Export Plug-In . SVG Version: 6.00 Build 0)  -->
<svg version="1.1" id="图层_1" xmlns="http://www.w3.org/2000/svg" xmlns:xlink="http://www.w3.org/1999/xlink" x="0px" y="0px"
	 viewBox="0 0 900 300" style="enable-background:new 0 0 900 300;" xml:space="preserve">
<style type="text/css">
	.st0{fill:none;stroke:#050038;stroke-width:2;stroke-miterlimit:10;}
	.st1{fill:none;stroke:#050038;stroke-width:2;stroke-miterlimit:10;stroke-dasharray:4.9052,4.9052;}
	.st2{fill:none;stroke:#050038;stroke-width:2;stroke-miterlimit:10;stroke-dasharray:4.9035,4.9035;}
	.st3{fill:#FFD02F;stroke:#050038;stroke-width:2;}
	.st4{fill:none;stroke:#050038;stroke-width:2;}
	.st5{fill:none;stroke:#050038;stroke-width:2;stroke-linecap:round;stroke-linejoin:round;}
	.st6{fill:#FFFFFF;stroke:#050038;stroke-width:2;stroke-linecap:round;stroke-linejoin:round;}
	.st7{fill:#050038;}
	.st8{fill:none;stroke:#050038;stroke-width:2;stroke-linecap:round;stroke-linejoin:round;stroke-dasharray:6;}
</style>
<g>
	<g>
		<path class="st0" d="M148.8,133.1c0.7-0.2,1.3-0.3,2-0.5"/>
		<path class="st1" d="M154.9,131.6c102.6-22.9,126.5,27.6,126.5,27.6s19.2,37.9-37.7,51.4"/>
		<path class="st0" d="M241.5,211.1c-0.7,0.2-1.3,0.3-2,0.4"/>
	</g>
</g>
<g>
	<g>
		<path class="st0" d="M0,160.1c0.6,0.4,1.2,0.8,1.8,1.2"/>
		<path class="st2" d="M5.2,163.5c37.8,22.8,59.3,6.4,66.3-1.1"/>
		<path class="st0" d="M73,160.9c0.8-1,1.3-1.7,1.3-1.7"/>
	</g>
</g>
<g>
	<g id="Group-4-Copy-3_5_" transform="translate(45.000000, 0.000000)">
		<path id="Fill-56_11_" class="st3" d="M200.7,89.1c-1.5,7.4-8.9,12.1-16.5,10.5c-7.5-1.6-12.5-9.1-10.9-16.5
			c1.5-7.4,8.9-12.1,16.5-10.5C197.4,74.2,202.2,81.6,200.7,89.1"/>
		<path id="Fill-48_5_" class="st3" d="M182.6,163.7c-6.7,32.9-38.9,53.7-71.7,46.4c-32.9-7.4-54.1-39.9-47.4-72.9
			s38.9-53.7,71.7-46.4C168.1,98.1,189.3,130.7,182.6,163.7"/>
	</g>
	<rect id="Rectangle_19_" x="73" y="103.5" class="st4" width="117.2" height="91"/>
	<path id="Path-8_9_" class="st5" d="M74.1,122.4h116.2"/>
	<rect id="Rectangle_10_" x="177" y="82.1" class="st6" width="57.7" height="35"/>
	<rect id="Rectangle_9_" x="61.5" y="153" class="st6" width="23" height="23"/>
	<g>
		<g>
			<path class="st7" d="M201.6,104c0,0.7-0.5,1.3-1.3,1.3h-1.3c-2.5,0-4.7-1.9-5-4.4c-0.3-2.5,1.3-4.8,3.8-5.5
				c0.5-3.9,3.6-7,7.4-7.6c3.9-0.5,7.7,1.5,9.3,5.2c3,0.9,4.8,3.9,4.4,6.9c-0.4,3.1-3.1,5.4-6.2,5.4c-0.7,0-1.3-0.5-1.3-1.3
				s0.5-1.3,1.3-1.3c1.9,0,3.5-1.3,3.8-3.2s-0.9-3.6-2.7-4.1l-1.2-0.4l-0.4-1.1c-1.2-2.6-3.9-4.1-6.6-3.7c-2.8,0.4-5,2.6-5.4,5.4
				l-0.2,1.7l-1.7,0.4c-1.3,0.3-2.1,1.5-1.9,2.8c0.2,1.3,1.3,2.2,2.5,2.2h1.3C201,102.7,201.6,103.3,201.6,104L201.6,104z
				 M211.1,106.6c0.4,0.4,0.4,1.3,0,1.8l-3.6,3.6c-0.4,0.4-1.3,0.4-1.8,0l-3.6-3.6c-0.4-0.4-0.4-1.3,0-1.8c0.4-0.4,1.3-0.4,1.8,0
				l1.4,1.4V97.7c0-0.7,0.5-1.3,1.3-1.3s1.3,0.5,1.3,1.3v10.2l1.4-1.4C209.8,106.1,210.5,106.1,211.1,106.6L211.1,106.6z"/>
		</g>
	</g>
	<path id="Fill-56_10_" class="st5" d="M88.2,113.7c-0.4,1.9-2.2,3.1-4.2,2.7c-1.9-0.4-3.1-2.3-2.8-4.2c0.4-1.9,2.2-3.1,4.2-2.7
		C87.3,109.9,88.6,111.8,88.2,113.7"/>
	<path id="Fill-56_9_" class="st5" d="M100.1,113.7c-0.4,1.9-2.2,3.1-4.2,2.7c-1.9-0.4-3.1-2.3-2.8-4.2c0.4-1.9,2.2-3.1,4.2-2.7
		C99.2,109.9,100.4,111.8,100.1,113.7"/>
	<path id="Path-8_7_" class="st8" d="M83.6,142.6h55.7"/>
	<path id="Path-133-Copy-6_5_" class="st6" d="M155.3,214.1l-6.5-16c-7.8,0-23.9-21.2-24.6-22.2c-2.4-3-1.2-6,1.7-6
		c2.5,0,8.5,3.1,17.9,9.1c0.1-2.1-1.3-28.3,0-38.7c0.3-2,0.6-4.5,2.3-5.5c1.9-1,4.7,0.7,5.4,5c1.3,7.8,3.8,21,3.8,21.8
		c0.9-2.5,1.4-5,3.1-9.9c1.7-6.4,7-8.2,7.8,0.4c0.2,1.8,0.5,5.6,1.1,11.3c0.1-3.4,0.5-6.8,1.3-10.2c0.9-3.9,5.6-3.8,6.7,0
		c1.7,5.5,6.5,35.1-0.7,39.9c0.5,2.2,3,9.2,7.2,20.8L155.3,214.1L155.3,214.1z"/>
</g>
</svg>
