<?xml version="1.0" encoding="utf-8"?>
<!-- Generator: Adobe Illustrator 22.1.0, SVG Export Plug-In . SVG Version: 6.00 Build 0)  -->
<svg version="1.1" id="图层_1" xmlns="http://www.w3.org/2000/svg" xmlns:xlink="http://www.w3.org/1999/xlink" x="0px" y="0px"
	 viewBox="0 0 900 300" style="enable-background:new 0 0 900 300;" xml:space="preserve">
<style type="text/css">
	.st0{fill:none;stroke:#050038;stroke-width:2;stroke-miterlimit:10;}
	.st1{fill:none;stroke:#050038;stroke-width:2;stroke-miterlimit:10;stroke-dasharray:4.9052,4.9052;}
	.st2{fill:none;stroke:#050038;stroke-width:2;stroke-miterlimit:10;stroke-dasharray:4.9035,4.9035;}
	.st3{fill:#FFD02F;stroke:#050038;stroke-width:2;}
	.st4{fill:none;stroke:#050038;stroke-width:2;}
	.st5{fill:none;stroke:#050038;stroke-width:2;stroke-linecap:round;stroke-linejoin:round;}
	.st6{fill:#FFFFFF;stroke:#050038;stroke-width:2;stroke-linecap:round;stroke-linejoin:round;}
	.st7{fill:#050038;}
	.st8{fill:none;stroke:#050038;stroke-width:2;stroke-linecap:round;stroke-linejoin:round;stroke-dasharray:6;}
</style>
<g>
	<g>
		<path class="st0" d="M179,136.7c0.8-0.2,1.6-0.4,2.4-0.6"/>
		<path class="st1" d="M186.2,135c122-27.2,150.5,32.8,150.5,32.8s22.8,45.1-44.9,61.2"/>
		<path class="st0" d="M289.3,229.5c-0.8,0.2-1.6,0.4-2.4,0.5"/>
	</g>
</g>
<g>
	<g>
		<path class="st0" d="M2,168.9c0.7,0.5,1.4,0.9,2.1,1.4"/>
		<path class="st2" d="M8.2,172.9c45,27.1,70.5,7.6,78.9-1.3"/>
		<path class="st0" d="M88.8,169.8c1-1.2,1.5-2,1.5-2"/>
	</g>
</g>
<g id="Group-4-Copy-3_5_" transform="translate(45.000000, 0.000000)">
	<path id="Fill-56_11_" class="st3" d="M242.7,88.7c-1.7,8.3-9.9,13.5-18.4,11.7c-8.4-1.8-13.9-10.1-12.1-18.4
		c1.7-8.3,9.9-13.5,18.4-11.7C239,72.1,244.4,80.4,242.7,88.7"/>
	<path id="Fill-48_5_" class="st3" d="M222.5,171.8c-7.5,36.7-43.3,59.9-79.9,51.7c-36.7-8.2-60.3-44.5-52.8-81.2
		s43.3-59.9,79.9-51.7C206.4,98.7,230,135.1,222.5,171.8"/>
</g>
<rect id="Rectangle_19_" x="95.2" y="104.8" class="st4" width="130.6" height="101.4"/>
<path id="Path-8_9_" class="st5" d="M96.4,125.8h129.5"/>
<rect id="Rectangle_10_" x="211.1" y="80.9" class="st6" width="64.3" height="39"/>
<rect id="Rectangle_9_" x="82.4" y="159.9" class="st6" width="25.6" height="25.6"/>
<g>
	<g>
		<path class="st7" d="M238.5,105.3c0,0.8-0.6,1.4-1.4,1.4h-1.4c-2.8,0-5.2-2.1-5.6-4.9c-0.3-2.8,1.5-5.4,4.2-6.1
			c0.6-4.4,4-7.8,8.3-8.5c4.4-0.6,8.6,1.7,10.4,5.8c3.3,1,5.4,4.3,4.9,7.7c-0.5,3.4-3.5,6-6.9,6c-0.8,0-1.4-0.6-1.4-1.4
			s0.6-1.4,1.4-1.4c2.1,0,3.9-1.5,4.2-3.6s-1-4-3-4.6l-1.3-0.4l-0.5-1.2c-1.3-2.9-4.3-4.6-7.4-4.1c-3.1,0.4-5.6,2.9-6,6l-0.2,1.9
			l-1.9,0.5c-1.4,0.3-2.3,1.7-2.1,3.1s1.4,2.5,2.8,2.5h1.4C237.9,103.9,238.5,104.5,238.5,105.3L238.5,105.3z M249.1,108.2
			c0.5,0.5,0.5,1.4,0,2l-4,4c-0.5,0.5-1.4,0.5-2,0l-4-4c-0.5-0.5-0.5-1.4,0-2c0.5-0.5,1.4-0.5,2,0l1.6,1.6V98.3
			c0-0.8,0.6-1.4,1.4-1.4c0.8,0,1.4,0.6,1.4,1.4v11.4l1.6-1.6C247.7,107.6,248.5,107.6,249.1,108.2L249.1,108.2z"/>
	</g>
</g>
<path id="Fill-56_10_" class="st5" d="M112.2,116.1c-0.4,2.1-2.5,3.5-4.7,3c-2.1-0.5-3.5-2.6-3.1-4.7s2.5-3.5,4.7-3
	C111.2,111.9,112.6,114,112.2,116.1"/>
<path id="Fill-56_9_" class="st5" d="M125.4,116.1c-0.4,2.1-2.5,3.5-4.7,3c-2.1-0.5-3.5-2.6-3.1-4.7s2.5-3.5,4.7-3
	C124.4,111.9,125.8,114,125.4,116.1"/>
<path id="Path-8_7_" class="st8" d="M107,148.3h62.1"/>
<path id="Path-133-Copy-6_5_" class="st6" d="M186.9,228l-7.2-17.8c-8.7,0-26.6-23.6-27.4-24.7c-2.7-3.3-1.3-6.7,1.9-6.7
	c2.8,0,9.5,3.4,19.9,10.1c0.1-2.3-1.4-31.5,0-43.1c0.3-2.2,0.7-5,2.6-6.1c2.1-1.1,5.2,0.8,6,5.6c1.5,8.7,4.2,23.4,4.2,24.3
	c1-2.8,1.6-5.6,3.5-11c1.9-7.1,7.8-9.1,8.7,0.4c0.2,2,0.6,6.2,1.2,12.6c0.1-3.8,0.6-7.6,1.5-11.4c1-4.3,6.2-4.2,7.5,0
	c1.9,6.1,7.2,39.1-0.8,44.5c0.6,2.4,3.3,10.2,8,23.2L186.9,228L186.9,228z"/>
</svg>
