<?xml version="1.0" encoding="utf-8"?>
<!-- Generator: Adobe Illustrator 22.1.0, SVG Export Plug-In . SVG Version: 6.00 Build 0)  -->
<svg version="1.1" id="图层_1" xmlns="http://www.w3.org/2000/svg" xmlns:xlink="http://www.w3.org/1999/xlink" x="0px" y="0px"
	 viewBox="0 0 500 500" style="enable-background:new 0 0 500 500;" xml:space="preserve">
<style type="text/css">
	.st0{fill:#FFFFFF;}
	.st1{fill:#FBAF42;}
</style>
<g>
	<g>
		<path class="st0" d="M234.8,83c28-24,21-38.3,21.2-41.4c0,0,0-0.2,0-0.2c-3-8.4,6.7-7,6.7-7c13.3-4.6,9.3,11.3,8.2,18.6
			c0,0.2-0.1,0.5-0.2,0.7c-4.4,25.1-48.2,55.7-48.1,55.7c-32,28.9-27.6,56.7-27.6,56.7c7.9,58.6,86.9,74.9,86.9,74.9
			c76.1,14.5,98.4,55.2,98.4,55.2c34.4,56.4-18.9,89-24.9,92.4c-0.4,0.2-0.8,0.5-1.1,0.8c-2.1,2-2.7,3.9-2.6,5.6
			c0.2,3.3,2.9,5.9,6.2,6.2c3.7,0.2,7.3-2.1,8-2.6c0.1-0.1,0.2-0.1,0.3-0.2c59.2-34.2,33.6-93.7,33.6-93.7
			c-18.9-53.4-91.7-71.2-92.3-71.3L292,229c-90.7-21.4-84.2-72.1-84.2-72.1c-0.7-12.4,13.4-31.2,26.9-43.2
			C253.5,98.1,263,86.9,263,86.9c29-33.4,17.2-66.7,17.1-67c0,0,0,0,0,0C276.9,5.3,272,6.3,272,6.3c-3.9-0.3-8.3,2-7.9,6.4l0,1.5
			c-0.4,7.4-3.7,9-7.8,8.7c-0.8-0.1-6.2-1.1-6.9-1.2c-11.5-1.4-10.9,6-8,12.1c0.3,0.6,1,2.3,1.3,2.9c14,22-17.2,41.7-24.7,46.2
			c0,0,0,0,0,0c-27.3,15.1-42.9,34.3-44.8,36.7c-0.1,0.2-0.2,0.3-0.4,0.5c-17.6,26.9-17.2,47.2-17.2,47.5c0,0,0,0,0,0
			c-2.8,36.4,27.1,121.1,27.1,121.1c18.7,59.8-13.6,89-15.9,91.1c-0.1,0.1-0.2,0.2-0.3,0.3c-19.4,19.7-50.2,22.8-50.2,22.8
			c-9.6,1.2-13.7-2.5-15.4-6.9c-1.7-4.4-7.2-6-10.8-2.9l-0.5,0.4c0,0,0,0,0,0c-1,1.9-1.7,3.4-2.6,5.2c0,0,0.1,2.3,0.1,2.3
			c-1.5,17.2,16.9,16.1,16.9,16.1c84.4-0.4,95.6-68.2,95.6-68.2c9.3-35.3-10.1-85-11.9-89.5c-0.1-0.2-0.2-0.4-0.2-0.7
			c-4.9-17.2-14.3-52-14.3-52s-17.8-59.6,21.1-94c0.1-0.1,0.3-0.3,0.4-0.4C198.6,108.1,219.4,95,234.8,83z"/>
		<path class="st0" d="M449.9,307.1c0,46.3,0.1,92.7-0.1,139c-0.1,28.7-13,42.1-41.7,42.2c-58.4,0.3-116.8,0.2-175.2-0.1
			c-6.9,0-14.2-0.8-20.5-3.3c-20.2-8-23.9-24.1-9-40.1c15.2-16.3,30.7-32.3,38.7-53.6c3.6-9.5,5.2-19.6,4.5-29.9
			c-0.3-4.9,1.2-9.9,6.3-10c5.2-0.1,6.5,5.2,6.7,9.9c0.9,19.7-4.5,37.6-15.1,54c-8.6,13.3-19,25.3-30.1,36.7
			c-10,10.4-7.5,18.8,6.5,22.3c4.2,1.1,8.8,0.9,13.3,0.9c57.1,0.1,114.2,0.1,171.4,0c24.8-0.1,31.2-6.7,31.3-31.9
			c0.1-91.4,0.1-182.8,0-274.2c0-24.6-7-31.6-31.8-31.7c-50.8-0.2-101.6,0-152.3-0.2c-5.7,0-15.4,1.2-15.8-5.4
			c-0.5-8.6,10-7.2,16.2-7.2c51.4-0.3,102.8-0.3,154.2-0.1c29.7,0.1,42.3,13.3,42.4,43.6C450,214.4,449.9,260.7,449.9,307.1z"/>
		<path class="st0" d="M332.2,306.7c-0.6,5.4-3.3,9.6-9.1,9.5c-5.8-0.1-8.7-4.6-8.9-9.9c-0.1-4.9,3.1-8.1,8-8.5
			C328.2,297.4,331.2,301,332.2,306.7z"/>
		<path class="st0" d="M390.6,392.9c-0.2-0.3-0.4-0.7-0.5-1c-0.6-1.5-1-5.1,2.9-7.6c0,0,5.1-3.7,10.4,4.3c0,0,7.7,9.7,9.5,22.6
			c0,0,5.7,20.7-16.4,43.9c0,0-4.6,4.7-9.6,1.4c-0.3-0.2-0.6-0.4-0.8-0.6c-1.2-1.1-4.8-4.4-0.5-8.4c0,0,19.1-15,13.8-36.4
			c0-0.2-0.1-0.3-0.1-0.5C398.8,409.1,396.3,402,390.6,392.9z"/>
		<path class="st0" d="M98.4,414.4c0,0-11.5,1.5-11.4-12.2V144.1c0,0-0.6-18.3,18.1-20h37.5c0,0,9.3-0.7,8.5,7.5
			c0,0-0.2,6.5-10.2,5.7h-33.2c0,0-7.9-1.4-7.2,13.7v237.2c0,0-1.5,19.6,12.9,15.3L98.4,414.4z"/>
	</g>
	<g>
		<path class="st1" d="M75.3,241.7c32.2,14.9,66.7,20.5,103.4,22.4c1.7,0.1,3.2,1.2,3.7,2.8c2.7,8,6.7,21.7,8.3,30.7
			c0.5,2.9-2.1,5.4-5,4.8c-45.1-10.4-93.3-29.7-115.2-54.1C67.4,244.8,71.2,239.8,75.3,241.7z"/>
		<path class="st0" d="M186.6,306.4c-0.6,0-1.2-0.1-1.8-0.2c-53.4-12.3-97.2-32.9-117.3-55.3c-2.6-2.9-2.8-7.2-0.5-10.3
			c2.3-3.1,6.4-4.2,10-2.6l0,0c28.3,13,59.7,19.8,101.9,22c3.3,0.2,6.2,2.3,7.3,5.5c2.4,7.1,6.7,21.4,8.5,31.3
			c0.5,2.7-0.4,5.4-2.4,7.3C190.7,305.6,188.7,306.4,186.6,306.4z M73.4,245.4C73.4,245.4,73.4,245.5,73.4,245.4
			c22.5,25.1,73.2,43.8,113.2,53c0,0,0.1,0,0.2,0c0.1-0.1,0.1-0.1,0-0.1c-1.5-8.4-5.3-21.8-8.2-30.1c0,0-0.1-0.1-0.1-0.1
			c-42.7-2.2-76-9.5-104.8-22.8l0,0c-0.1,0-0.1,0-0.1,0C73.5,245.3,73.4,245.4,73.4,245.4z"/>
	</g>
	<g>
		<path class="st1" d="M227,317.6c0.2,0,0.3-0.1,0.5-0.1c2.8-0.9,32.3-9.6,37.4,9.3c0,0,5.4,16.2-6.7,24.1c-5,3.3-11.6,5.9-22.1,8
			c0,0-118.6,27.3-204.9-53.8c-3.8-3.5-0.1-9.7,4.8-8C72.7,309.3,155.6,332.4,227,317.6z"/>
		<path class="st0" d="M188.5,367.3c-7.1,0-14.7-0.3-22.8-0.9c-37.5-3.1-91.8-15.7-137.2-58.4c-3.1-2.9-3.7-7.3-1.5-10.9
			c2.2-3.6,6.3-5.1,10.3-3.8c25.7,8.6,82.4,25.2,139.9,25.2c16.5,0,33.1-1.4,49-4.7l0,0c0,0,0.1,0,0.1,0c3.5-1.1,21.5-6.2,33.2,0.2
			c4.6,2.5,7.7,6.5,9.2,11.7c2.2,6.7,3.2,21-8.4,28.6c-5.9,3.8-13.1,6.5-23.4,8.6C235.4,363.1,216.4,367.3,188.5,367.3z M34.3,300.7
			c-0.2,0-0.4,0.1-0.6,0.4c-0.3,0.6,0,0.9,0.1,1c43.7,41.1,96.2,53.3,132.4,56.3c39.4,3.2,68.6-3.4,68.9-3.4l0.1,0
			c9.3-1.9,15.7-4.2,20.7-7.4c9.4-6.1,5.2-19.3,5.1-19.5l-0.1-0.2c-0.9-3.2-2.6-5.4-5.3-6.9c-7.4-4.1-20.5-1.7-27,0.4
			c-0.3,0.1-0.6,0.2-0.9,0.2l0,0c-70.7,14.7-151.4-6.7-193.2-20.8C34.5,300.7,34.4,300.7,34.3,300.7z"/>
	</g>
</g>
</svg>
