<?xml version="1.0" encoding="utf-8"?>
<!-- Generator: Adobe Illustrator 22.1.0, SVG Export Plug-In . SVG Version: 6.00 Build 0)  -->
<svg version="1.1" id="图层_1" xmlns="http://www.w3.org/2000/svg" xmlns:xlink="http://www.w3.org/1999/xlink" x="0px" y="0px"
	 viewBox="0 0 1028 599" style="enable-background:new 0 0 1028 599;" xml:space="preserve">
<style type="text/css">
	.st0{fill:#EAEAEA;}
	.st1{fill:#4262FF;}
	.st2{fill:#050038;}
	.st3{fill:#FFFFFF;}
	.st4{fill:#2D2929;}
	.st5{fill:#306192;}
</style>
<path class="st0" d="M957,597.5H77c-19.3,0-35-15.8-35-35v-525c0-19.3,15.8-35,35-35h880c19.3,0,35,15.8,35,35v525
	C992,581.8,976.3,597.5,957,597.5z"/>
<title>open source</title>
<g>
	<g>
		<path id="Fill-347_1_" class="st1" d="M287.9,510.1c40.9,0,40.9-48.8,81.8-48.8s40.9,48.8,81.8,48.8s40.9-48.8,81.8-48.8
			s40.9,48.8,81.7,48.8c40.9,0,40.9-48.8,81.8-48.8c40.9,0,40.9,48.8,81.8,48.8l2.4-396c-28,9.3-32.5,46.7-68.3,46.7
			c-40.9,0-40.9-48.8-81.8-48.8c-40.9,0-40.9,48.8-81.8,48.8S508.2,112,467.4,112c-40.9,0-40.9,48.8-81.8,48.8S344.7,112,303.8,112
			c-5.1,0-9.6,0.8-13.6,2.1L287.9,510.1z"/>
		<path class="st2" d="M783.1,514.4h-4.3c-22.5,0-34-13.8-44.2-25.9c-9.9-11.7-19.2-22.8-37.6-22.8c-18.4,0-27.7,11.1-37.6,22.8
			c-10.2,12.2-21.8,25.9-44.2,25.9s-34-13.8-44.2-25.9c-9.8-11.7-19.1-22.8-37.5-22.8s-27.7,11.1-37.6,22.8
			c-10.2,12.1-21.8,25.9-44.2,25.9c-22.5,0-34-13.8-44.2-25.9c-9.9-11.7-19.2-22.8-37.6-22.8s-27.8,11.1-37.6,22.8
			c-10.2,12.1-21.8,25.9-44.2,25.9h-4.4L286,111l2.9-1c4.6-1.5,9.6-2.3,15-2.3c22.5,0,34,13.8,44.2,25.9
			c9.9,11.7,19.2,22.8,37.6,22.8s27.7-11.1,37.6-22.8c10.2-12.1,21.8-25.9,44.2-25.9c22.4,0,34,13.8,44.2,25.9
			c9.8,11.7,19.1,22.8,37.5,22.8s27.7-11.1,37.6-22.8c10.2-12.2,21.8-25.9,44.2-25.9s34,13.8,44.2,25.9
			c9.9,11.7,19.2,22.8,37.6,22.8c18.4,0,27.8-11.1,37.6-22.8c7.9-9.4,16.1-19.2,29.3-23.6l5.7-1.9L783.1,514.4z M533.4,457
			c22.4,0,34,13.8,44.2,25.9c9.8,11.7,19.1,22.8,37.5,22.8s27.7-11.1,37.6-22.8c10.2-12.1,21.8-25.9,44.2-25.9
			c22.5,0,34,13.8,44.2,25.9c9.1,10.8,17.7,21,33.3,22.6l2.3-384.8c-7.8,4.3-13.6,11.2-19.7,18.4c-10.2,12.2-21.8,25.9-44.2,25.9
			c-22.5,0-34-13.8-44.2-25.9c-9.9-11.7-19.2-22.8-37.6-22.8s-27.7,11.1-37.6,22.8c-10.2,12.2-21.8,25.9-44.2,25.9
			s-34-13.8-44.2-25.9c-9.8-11.7-19.1-22.8-37.5-22.8s-27.7,11.1-37.6,22.8c-10.2,12.1-21.8,25.9-44.2,25.9
			c-22.5,0-34-13.8-44.2-25.9c-9.9-11.7-19.2-22.8-37.6-22.8c-3.3,0-6.4,0.3-9.3,1l-2.3,388.2c15.6-1.6,24.2-11.8,33.3-22.6
			c10.2-12.1,21.8-25.9,44.2-25.9c22.5,0,34,13.8,44.2,25.9c9.9,11.7,19.2,22.8,37.6,22.8s27.7-11.1,37.6-22.8
			C499.4,470.8,510.9,457,533.4,457z"/>
	</g>
	<g>
		<path id="Fill-347-Copy-4_1_" class="st3" d="M430.6,206.1c0,12.7,11.7,12.7,11.7,25.3c0,12.7-11.7,12.7-11.7,25.3
			s11.7,12.6,11.7,25.3c0,12.6-11.7,12.6-11.7,25.3c0,12.6,11.7,12.6,11.7,25.3s-11.7,12.6-11.7,25.3l95.2,0.7
			c-2.2-8.6-11.2-10-11.2-21.1c0-12.6,11.7-12.6,11.7-25.3c0-12.6-11.7-12.6-11.7-25.3c0-12.6,11.7-12.6,11.7-25.3
			c0-12.6-11.7-12.6-11.7-25.3s11.7-12.7,11.7-25.3c0-1.6-0.2-3.7-0.5-4.9H430.6z"/>
		<path class="st2" d="M531.4,363l-105.1-0.8v-4.3c0-8,3.9-12.2,7-15.6c2.7-2.9,4.7-5.1,4.7-9.7s-2-6.8-4.7-9.7
			c-3.1-3.4-7-7.6-7-15.6s3.9-12.2,7-15.6c2.7-2.9,4.7-5.1,4.7-9.7s-2-6.8-4.7-9.7c-3.1-3.4-7-7.6-7-15.6s3.9-12.2,7-15.6
			c2.7-2.9,4.7-5.1,4.7-9.7c0-4.6-2-6.8-4.7-9.7c-3.1-3.4-7-7.6-7-15.6v-4.3h102.9l0.8,3.2c0.5,1.8,0.6,4.4,0.6,6
			c0,8-3.9,12.2-7,15.6c-2.7,2.9-4.7,5.1-4.7,9.7s2,6.8,4.7,9.7c3.1,3.4,7,7.6,7,15.6s-3.9,12.2-7,15.6c-2.7,2.9-4.7,5.1-4.7,9.7
			s2,6.8,4.7,9.7c3.1,3.4,7,7.6,7,15.6s-3.9,12.2-7,15.6c-2.7,2.9-4.7,5.1-4.7,9.7s2,6.8,4.7,9.7c2.4,2.6,5.1,5.5,6.4,10.3
			L531.4,363z M435.7,353.6l82.6,0.6c-0.3-0.4-0.7-0.7-1-1.1c-3.1-3.4-7-7.6-7-15.6s3.9-12.2,7-15.6c2.7-2.9,4.7-5.1,4.7-9.7
			s-2-6.8-4.7-9.7c-3.1-3.4-7-7.6-7-15.6s3.9-12.2,7-15.6c2.7-2.9,4.7-5.1,4.7-9.7s-2-6.8-4.7-9.7c-3.1-3.4-7-7.6-7-15.6
			s3.9-12.2,7-15.6c2.7-2.9,4.7-5.1,4.7-9.7c0-0.2,0-0.4,0-0.6h-86.3c0.8,2,2.2,3.5,3.9,5.4c3.1,3.4,7,7.6,7,15.6s-3.9,12.2-7,15.6
			c-2.7,2.9-4.7,5.1-4.7,9.7s2,6.8,4.7,9.7c3.1,3.4,7,7.6,7,15.6s-3.9,12.2-7,15.6c-2.7,2.9-4.7,5.1-4.7,9.7s2,6.8,4.7,9.7
			c3.1,3.4,7,7.6,7,15.6s-3.9,12.2-7,15.6C437.9,350,436.5,351.5,435.7,353.6z"/>
	</g>
	<g>
		<rect id="Rectangle-Copy-12_1_" x="655" y="97.2" class="st3" width="86.9" height="87"/>
		<path class="st2" d="M746.3,188.5h-95.6V92.9h95.6V188.5z M659.4,179.9h78.3v-78.3h-78.3V179.9z"/>
	</g>
	<g>
		<rect id="Rectangle-Copy-15_1_" x="655" y="206.1" class="st1" width="86.9" height="87"/>
		<path class="st2" d="M746.3,297.4h-95.6v-95.7h95.6V297.4z M659.4,288.8h78.3v-78.3h-78.3V288.8z"/>
	</g>
	<g>
		<rect id="Rectangle-Copy-13_1_" x="764.7" y="97.2" class="st3" width="86.9" height="87"/>
		<path class="st2" d="M856,188.5h-95.6V92.9H856V188.5z M769.1,179.9h78.3v-78.3h-78.3V179.9z"/>
	</g>
	<g>
		<path id="Rectangle-Copy-7_1_" class="st1" d="M357.6,358.3v43.2h161v-43.2H357.6z"/>
		<path class="st2" d="M522.9,405.8H353.3V354h169.6V405.8z M361.9,397.2h152.3v-34.5H361.9V397.2z"/>
	</g>
	<g>
		<path id="Rectangle-Copy-10_1_" class="st1" d="M519.9,358.3v43.2h161v-43.2H519.9z"/>
		<path class="st2" d="M685.2,405.8H515.6V354h169.6L685.2,405.8L685.2,405.8z M524.2,397.2h152.3v-34.5H524.2V397.2z"/>
	</g>
	<g>
		<path id="Rectangle-Copy-8_1_" class="st3" d="M420.1,402.5v47.6h438.1v-47.6H420.1z"/>
		<path class="st2" d="M862.5,454.4H415.8v-56.3h446.7V454.4z M424.4,445.8h429.4v-39H424.4V445.8z"/>
	</g>
	<g>
		<rect id="Rectangle-Copy-9_1_" x="482.5" y="451.4" class="st3" width="75.2" height="75.3"/>
		<path class="st2" d="M562,531h-83.9v-83.9H562V531z M486.8,522.3h66.5v-66.6h-66.5V522.3z"/>
	</g>
	<g>
		<path class="st4" d="M256.2,182.6c0,0-55.8-20.6-66.8,22.1c0,0-6.1,16.3,7.3,59c0,0,16.8,64.4,39.4,42.1c0,0,15.8,11.5,32.4,3.4
			c0,0-1.8,39.2,10.6,43.7c0,0,14.7,9.8,34.8-2.6c0,0,7.9-3.9,9.8-19.2l3.4-26.5c0,0,28.8,4.6,36-16.1c0,0,3.6-11.4-8.2-9.1
			c0,0-5.6,1.7-15.5,1c0,0,19.5-32.3,22.6-61.8c0,0,2.5-8.2-1.2-21.2c0,0-5.9-13.2-24.1-19c0,0-20.8-8.1-44.6,0.4
			C292.1,178.9,271,173.7,256.2,182.6z"/>
		<path class="st3" d="M258.1,188.3c0,0-31-13.1-51.8,0c0,0-14.8,8.1-13.4,34.2c0,0,1.8,34.5,18.9,69.7c0,0,10.6,21.6,23.7,9.8
			l16.3-18.2c0,0,3.1,2.9,9.5,2.9c0,0-0.8,6.3-13.2,7.9c0,0-12.1,2.3-4.7,10c0,0,14.2,8.6,29-2.3l1,25.8c0,0-0.8,22.7,17.1,24
			c0,0,19,1.5,26.8-13.4c0,0,3.5-8.2,6.5-38.7c0,0,8.2,3.2,23.7-2.3c0,0,5-1.9,7.4-4.8c0,0,7.7-7.6,1-9.5c0,0-2.3-0.3-8.1,1.2
			c0,0-9.9,1.9-14.4-1.8c0,0,18.2-27.4,23.6-58.9c0,0,2.7-16.6-1.9-25.5c0,0-17.1-28.1-62.1-14.7C293,183.8,271.2,178,258.1,188.3z"
			/>
		<path class="st5" d="M253.1,192.3c0,0-27.5-11.5-46.5,3.4c0,0-19.4,10.2,0,69.2c0,0,12.6,47.4,25.7,32.9l14.8-16.6
			c0,0-11.5-7.3-8.4-27.4c0,0,0.6-7.7,0.2-18.9C238.9,234.9,236.1,209.9,253.1,192.3z"/>
		<path class="st5" d="M301.6,186.8c0,0,31-7.6,49.2,16.1c0,0,9.7,21.1-21.1,75.5l-1.1-1c0,0,6.8-5.2,3.1-29.8c0,0-1.1,1.6,1.8-22.7
			C333.4,224.9,328.7,201.2,301.6,186.8z"/>
		<path class="st5" d="M244.7,227.9c0,0,0.3-29.7,20.8-37.8c0,0,21.9-8.9,44.2,8.4c0,0,14.3,11.1,17.3,24c0,0-25.8-3.9-20.6,19.4
			c0,0,1.9,14.7,19.5,40.5c0,0-8.7,1.5-7.4,15.6c0,0-1.1,15.2-3.1,26c0,0-1.5,18.4-13,21.5c0,0-18.5,8.3-22.7-10.7
			c0,0-2.4-19.5-1.6-36.6c0,0,1.8-15.8-10.5-15.5c0,0-1.1-0.8,4.2-11.8c0,0,6.9-9.8,3.1-31.1C274.8,239.9,274,212.1,244.7,227.9z"/>
		<path class="st5" d="M244.6,234.7c0,0,19.5-12.9,23.9,0c0,0,2.5,11,1.6,22.7c0,0-1,7.6-3.8,11.9c0,0-4.4,9.6-4.2,12
			c0,0-14.2,1-18.3-15.7c0,0-0.8-2.9,0-7C243.8,258.6,245.4,241.6,244.6,234.7z"/>
		<path class="st3" d="M257.1,234.6c0,0,0.5,2,3.5,3c0,0,1.9,0.7,3.9-0.6c0,0,2.8-1.5,1.6-3.8c0,0-1.8-2.9-8.5-1.3
			c0,0-0.7,0.4-0.7,1C256.8,233,256.8,234,257.1,234.6z"/>
		<path class="st5" d="M327.8,228.3c0,0-14.6-2.4-16.3,5.3c0,0-2.2,7.5,4.8,21.2c0,0,6.3,11.4,9.1,17.5c0,0,3.5-3.9,1.5-17.9
			C326.9,254.4,325.2,245.3,327.8,228.3z"/>
		<path class="st3" d="M314.6,232.6c0,0,0.5-2.3,4.6-2.4c0,0,3.4-0.3,4.4,1.5c0,0,0.5,2.3-3.3,3.8c0,0-2.1,0.5-3.8-0.2
			C316.5,235.2,314.3,234.3,314.6,232.6z"/>
		<path class="st5" d="M268.5,287.9c0,0,4.3,0,4.4,6c0,0-2.7,5.8-11.2,8.5c0,0-7.7,2.5-14.8-1.8c0,0,10.6-1.6,13.3-4.4
			c0,0,3.3-2.8,5.2-5.3C265.3,290.9,266.8,287.4,268.5,287.9z"/>
		<path class="st5" d="M329.5,287.3c0,0-6.4-0.6-5.3,7.3c0,0,14,4.4,27.5-6C351.7,288.6,333.2,292.2,329.5,287.3z"/>
	</g>
</g>
</svg>
