<?xml version="1.0" encoding="utf-8"?>
<!-- Generator: Adobe Illustrator 22.1.0, SVG Export Plug-In . SVG Version: 6.00 Build 0)  -->
<svg version="1.1" id="图层_1" xmlns="http://www.w3.org/2000/svg" xmlns:xlink="http://www.w3.org/1999/xlink" x="0px" y="0px"
	 viewBox="0 0 347.6 296.3" style="enable-background:new 0 0 347.6 296.3;" xml:space="preserve">
<style type="text/css">
	.st0{fill:#DFF2F7;}
	.st1{fill:#363A41;}
	.st2{fill:#89909B;}
	.st3{fill:#FFD02F;}
	.st4{fill:#FFFFFF;}
	.st5{fill:#657180;}
</style>
<title>建设中</title>
<desc>Created with Sketch.</desc>
<g>
	<path class="st0" d="M145.8,224.9c-5.7,0-11.4-2.4-15.4-7.2c-7.1-8.5-6-21.1,2.5-28.2l47.8-39.9l-70.4,4.3
		c-9.2,0.6-17.6-5.2-20.3-14s0.9-18.3,8.7-23.1L215.9,46c9.4-5.7,21.7-2.7,27.5,6.8c5.7,9.4,2.7,21.7-6.8,27.5L188.9,109l36.1-2.2
		c0.4,0,0.8,0,1.2,0h13c8.4,0,15.9,5.3,18.8,13.2c2.9,7.9,0.5,16.8-6,22.2l-93.5,78.1C154.9,223.3,150.4,224.9,145.8,224.9z"/>
	<path id="Path-2" class="st1" d="M31,256.3c-1.4,0-2.6-1.2-2.6-2.6c0-1.4,1.2-2.6,2.6-2.6h227.8c1.4,0,2.6,1.2,2.6,2.6
		c0,1.4-1.2,2.6-2.6,2.6H31z M271.8,256.3c-1.4,0-2.6-1.2-2.6-2.6c0-1.4,1.2-2.6,2.6-2.6h8.1c1.4,0,2.6,1.2,2.6,2.6
		c0,1.4-1.2,2.6-2.6,2.6H271.8z M301.1,256.3c-1.4,0-2.6-1.2-2.6-2.6c0-1.4,1.2-2.6,2.6-2.6h29.3c1.4,0,2.6,1.2,2.6,2.6
		c0,1.4-1.2,2.6-2.6,2.6H301.1z M105.9,280.7c-1.4,0-2.6-1.2-2.6-2.6s1.2-2.6,2.6-2.6h22.8c1.4,0,2.6,1.2,2.6,2.6s-1.2,2.6-2.6,2.6
		H105.9z M143.3,280.7c-1.4,0-2.6-1.2-2.6-2.6s1.2-2.6,2.6-2.6h99.3c1.4,0,2.6,1.2,2.6,2.6s-1.2,2.6-2.6,2.6H143.3z M288.7,190.2
		c0-3.5,5.2-3.5,5.2,0v9.8c0,1.4-1.2,2.6-2.6,2.6h-9.8c-3.5,0-3.5-5.2,0-5.2h7.2V190.2z M293.9,209.8c0,3.5-5.2,3.5-5.2,0V200
		c0-1.4,1.2-2.6,2.6-2.6h9.8c3.5,0,3.5,5.2,0,5.2h-7.2V209.8z M41.4,112.1c0-3.5,5.2-3.5,5.2,0v9.8c0,1.4-1.2,2.6-2.6,2.6h-9.8
		c-3.5,0-3.5-5.2,0-5.2h7.2V112.1z M282.6,29.8h8.8c3.5,0,3.5,5.2,0,5.2h-8.8v8.8c0,3.5-5.2,3.5-5.2,0V35h-8.8c-3.5,0-3.5-5.2,0-5.2
		h8.8V21c0-3.5,5.2-3.5,5.2,0V29.8z M46.6,131.6c0,3.5-5.2,3.5-5.2,0v-9.8c0-1.4,1.2-2.6,2.6-2.6h9.8c3.5,0,3.5,5.2,0,5.2h-7.2
		V131.6z"/>
	<path id="Path复制" class="st2" d="M74.3,217.4c1.5-1.5,3.8,0.8,2.3,2.3l-3.5,3.5c-0.6,0.6-1.7,0.6-2.3,0l-3.5-3.5
		c-1.5-1.5,0.8-3.8,2.3-2.3l2.3,2.3L74.3,217.4z M69.7,226.6c-1.5,1.5-3.8-0.8-2.3-2.3l3.5-3.5c0.6-0.6,1.7-0.6,2.3,0l3.5,3.5
		c1.5,1.5-0.8,3.8-2.3,2.3l-2.3-2.3L69.7,226.6z M103,47c1.5-1.5,3.8,0.8,2.3,2.3l-3.5,3.5c-0.6,0.6-1.7,0.6-2.3,0l-3.5-3.5
		c-1.5-1.5,0.8-3.8,2.3-2.3l2.3,2.3L103,47z M98.4,56.2c-1.5,1.5-3.8-0.8-2.3-2.3l3.5-3.5c0.6-0.6,1.7-0.6,2.3,0l3.5,3.5
		c1.5,1.5-0.8,3.8-2.3,2.3l-2.3-2.3L98.4,56.2z"/>
	<g id="编组_1_" transform="translate(80.000000, 56.000000)">
		<path id="矩形" class="st3" d="M97.4,23.6L97.4,23.6c7.6,0,14.2,5.3,15.9,12.7L143,166.8H51.9L81.5,36.3
			C83.2,28.8,89.8,23.6,97.4,23.6z"/>
		<path id="矩形复制" class="st4" d="M66.8,108.2L66.8,108.2c19.9,4.3,40.4,4.3,60.3,0.1l0.4-0.1L134,137l-1.2,0.2
			c-23.9,4.5-48.5,4.6-72.5,0.3l0,0L66.8,108.2z"/>
		<path id="矩形复制-3" class="st4" d="M76.6,56.1l0.3,0.1c13.1,4.2,27.1,4.1,40.1-0.1l0,0l6.5,26l-0.4,0.1
			c-17.4,4.2-35.6,4.2-53-0.1l0,0L76.6,56.1z"/>
		<path class="st1" d="M94.8,142.1c-12,0-23.7-1-34.8-3c-0.9-0.2-1.4-1-1.3-1.9c0.2-0.9,1-1.4,1.9-1.3c22.8,4.1,48.1,3.9,73.1-0.5
			c0.9-0.2,1.7,0.4,1.9,1.3s-0.4,1.7-1.3,1.9C121.1,140.9,107.8,142.1,94.8,142.1z M98.4,113c-10.9,0-21.7-1.1-31.6-3.2
			c-0.9-0.2-1.4-1-1.2-1.9c0.2-0.9,1-1.4,1.9-1.2c19.2,4.1,42.2,4.2,61.5,0.1c0.9-0.2,1.7,0.4,1.9,1.2c0.2,0.9-0.4,1.7-1.2,1.9
			C119.8,112,109.1,113,98.4,113z"/>
		<path class="st1" d="M96.8,87c-8.6,0-17.2-1-25.6-2.9c-0.9-0.2-1.4-1.1-1.2-1.9c0.2-0.9,1.1-1.4,1.9-1.2
			c16.6,3.8,34.2,3.8,50.8-0.3c0.9-0.2,1.7,0.3,1.9,1.2c0.2,0.9-0.3,1.7-1.2,1.9C114.7,85.9,105.8,87,96.8,87z M96.8,60.9
			c-6.6,0-13.2-1-19.7-3c-0.8-0.3-1.3-1.2-1.1-2c0.3-0.8,1.2-1.3,2-1.1c12.6,3.9,25.9,3.8,38.5-0.3c0.8-0.3,1.7,0.2,2,1
			c0.3,0.8-0.2,1.7-1,2C110.7,59.8,103.7,60.9,96.8,60.9z"/>
		<path class="st1" d="M143,168.4H51.9c-0.5,0-0.9-0.2-1.3-0.6c-0.3-0.4-0.4-0.9-0.3-1.4L80,35.9C81.8,27.7,89,22,97.4,22
			s15.6,5.7,17.5,13.9l29.7,130.5c0.1,0.5,0,1-0.3,1.4C144,168.1,143.5,168.4,143,168.4z M53.9,165.2H141L111.8,36.6
			c-1.5-6.7-7.4-11.4-14.3-11.4s-12.8,4.7-14.3,11.4L53.9,165.2z"/>
		<g>
			<path id="矩形_2_" class="st5" d="M40.5,157h113.9c4.5,0,8.1,3.6,8.1,8.1l0,0c0,4.5-3.6,8.1-8.1,8.1H40.5
				c-4.5,0-8.1-3.6-8.1-8.1l0,0C32.4,160.6,36,157,40.5,157z"/>
			<path class="st1" d="M154.4,174.9H40.5c-5.4,0-9.7-4.4-9.7-9.7s4.4-9.7,9.7-9.7h113.9c5.4,0,9.7,4.4,9.7,9.7
				S159.8,174.9,154.4,174.9z M40.5,158.6c-3.6,0-6.5,2.9-6.5,6.5s2.9,6.5,6.5,6.5h113.9c3.6,0,6.5-2.9,6.5-6.5s-2.9-6.5-6.5-6.5
				H40.5z"/>
		</g>
	</g>
</g>
</svg>
