<?xml version="1.0" encoding="utf-8"?>
<!-- Generator: Adobe Illustrator 22.1.0, SVG Export Plug-In . SVG Version: 6.00 Build 0)  -->
<svg version="1.1" id="图层_1" xmlns="http://www.w3.org/2000/svg" xmlns:xlink="http://www.w3.org/1999/xlink" x="0px" y="0px"
	 viewBox="0 0 201 171.3" style="enable-background:new 0 0 201 171.3;" xml:space="preserve">
<style type="text/css">
	.st0{fill:#DFF2F7;}
	.st1{fill:#363A41;}
	.st2{fill:#89909B;}
	.st3{fill:#FFD02F;}
	.st4{fill:#FFFFFF;}
	.st5{fill:#657180;}
</style>
<title>建设中</title>
<desc>Created with Sketch.</desc>
<g>
	<path class="st0" d="M84,128c-3.1,0-6.3-1.3-8.4-3.9c-3.9-4.7-3.3-11.6,1.4-15.5l26.3-22l-38.7,2.4c-5,0.3-9.7-2.9-11.2-7.7
		c-1.5-4.8,0.5-10.1,4.8-12.7l64.4-39c5.2-3.1,12-1.5,15.1,3.7c3.1,5.2,1.5,12-3.7,15.1l-26.2,15.9l19.8-1.2c0.2,0,0.4,0,0.7,0h7.2
		c4.6,0,8.8,2.9,10.3,7.2c1.6,4.4,0.3,9.2-3.3,12.2l-51.4,43C89,127.1,86.5,128,84,128z"/>
	<path id="Path-2" class="st1" d="M20.8,145.2c-0.8,0-1.4-0.6-1.4-1.4s0.6-1.4,1.4-1.4h125.3c0.8,0,1.4,0.6,1.4,1.4
		s-0.6,1.4-1.4,1.4H20.8z M153.3,145.2c-0.8,0-1.4-0.6-1.4-1.4s0.6-1.4,1.4-1.4h4.5c0.8,0,1.4,0.6,1.4,1.4s-0.6,1.4-1.4,1.4H153.3z
		 M169.4,145.2c-0.8,0-1.4-0.6-1.4-1.4s0.6-1.4,1.4-1.4h16.1c0.8,0,1.4,0.6,1.4,1.4s-0.6,1.4-1.4,1.4H169.4z M62,158.7
		c-0.8,0-1.4-0.6-1.4-1.4s0.6-1.4,1.4-1.4h12.5c0.8,0,1.4,0.6,1.4,1.4s-0.6,1.4-1.4,1.4H62z M82.6,158.7c-0.8,0-1.4-0.6-1.4-1.4
		s0.6-1.4,1.4-1.4h54.6c0.8,0,1.4,0.6,1.4,1.4s-0.6,1.4-1.4,1.4H82.6z M162.6,108.9c0-1.9,2.9-1.9,2.9,0v5.4c0,0.8-0.6,1.4-1.4,1.4
		h-5.4c-1.9,0-1.9-2.9,0-2.9h3.9V108.9z M165.4,119.6c0,1.9-2.9,1.9-2.9,0v-5.4c0-0.8,0.6-1.4,1.4-1.4h5.4c1.9,0,1.9,2.9,0,2.9h-3.9
		V119.6z M26.6,65.9c0-1.9,2.9-1.9,2.9,0v5.4c0,0.8-0.6,1.4-1.4,1.4h-5.4c-1.9,0-1.9-2.9,0-2.9h3.9V65.9z M159.2,20.7h4.8
		c1.9,0,1.9,2.9,0,2.9h-4.8v4.8c0,1.9-2.9,1.9-2.9,0v-4.8h-4.8c-1.9,0-1.9-2.9,0-2.9h4.8v-4.8c0-1.9,2.9-1.9,2.9,0V20.7z M29.4,76.7
		c0,1.9-2.9,1.9-2.9,0v-5.4c0-0.8,0.6-1.4,1.4-1.4h5.4c1.9,0,1.9,2.9,0,2.9h-3.9V76.7z"/>
	<path id="Path复制" class="st2" d="M44.6,123.8c0.8-0.8,2.1,0.4,1.3,1.3L44,127c-0.3,0.3-0.9,0.3-1.3,0l-1.9-1.9
		c-0.8-0.8,0.4-2.1,1.3-1.3l1.3,1.3L44.6,123.8z M42.1,128.9c-0.8,0.8-2.1-0.4-1.3-1.3l1.9-1.9c0.3-0.3,0.9-0.3,1.3,0l1.9,1.9
		c0.8,0.8-0.4,2.1-1.3,1.3l-1.3-1.3L42.1,128.9z M60.4,30.1c0.8-0.8,2.1,0.4,1.3,1.3l-1.9,1.9c-0.3,0.3-0.9,0.3-1.3,0l-1.9-1.9
		c-0.8-0.8,0.4-2.1,1.3-1.3l1.3,1.3L60.4,30.1z M57.9,35.2c-0.8,0.8-2.1-0.4-1.3-1.3l1.9-1.9c0.3-0.3,0.9-0.3,1.3,0l1.9,1.9
		c0.8,0.8-0.4,2.1-1.3,1.3l-1.3-1.3L57.9,35.2z"/>
	<g id="编组_1_" transform="translate(80.000000, 56.000000)">
		<path id="矩形" class="st3" d="M21.4-8L21.4-8c4.2,0,7.8,2.9,8.7,7l16.3,71.8H-3.7L12.6-1C13.6-5.1,17.2-8,21.4-8z"/>
		<path id="矩形复制" class="st4" d="M4.5,38.6L4.5,38.6c10.9,2.4,22.2,2.4,33.1,0l0.2,0l3.6,15.8l-0.6,0.1
			C27.6,57,14.1,57.1,0.9,54.7l0,0L4.5,38.6z"/>
		<path id="矩形复制-3" class="st4" d="M9.9,9.9l0.2,0c7.2,2.3,14.9,2.3,22.1,0l0,0l3.6,14.3l-0.2,0.1
			c-9.6,2.3-19.6,2.3-29.2-0.1l0,0L9.9,9.9z"/>
		<path class="st1" d="M19.9,57.2c-6.6,0-13-0.5-19.1-1.6c-0.5-0.1-0.8-0.5-0.7-1c0.1-0.5,0.5-0.8,1-0.7c12.6,2.3,26.5,2.2,40.2-0.3
			c0.5-0.1,0.9,0.2,1,0.7c0.1,0.5-0.2,0.9-0.7,1C34.4,56.6,27.1,57.2,19.9,57.2z M21.9,41.2c-6,0-12-0.6-17.4-1.8
			c-0.5-0.1-0.8-0.6-0.7-1c0.1-0.5,0.6-0.8,1-0.7c10.6,2.3,23.2,2.3,33.8,0.1c0.5-0.1,0.9,0.2,1,0.7c0.1,0.5-0.2,0.9-0.7,1
			C33.7,40.7,27.8,41.2,21.9,41.2z"/>
		<path class="st1" d="M21,26.9c-4.7,0-9.5-0.5-14.1-1.6c-0.5-0.1-0.8-0.6-0.7-1.1c0.1-0.5,0.6-0.8,1.1-0.7
			c9.2,2.1,18.8,2.1,27.9-0.1c0.5-0.1,0.9,0.2,1.1,0.6c0.1,0.5-0.2,0.9-0.6,1.1C30.9,26.3,25.9,26.9,21,26.9z M21,12.6
			c-3.6,0-7.3-0.5-10.8-1.6c-0.5-0.1-0.7-0.6-0.6-1.1c0.1-0.5,0.6-0.7,1.1-0.6c6.9,2.1,14.2,2.1,21.1-0.2c0.5-0.2,1,0.1,1.1,0.6
			c0.2,0.5-0.1,1-0.6,1.1C28.7,12,24.8,12.6,21,12.6z"/>
		<path class="st1" d="M46.4,71.7H-3.7c-0.3,0-0.5-0.1-0.7-0.3c-0.2-0.2-0.2-0.5-0.2-0.7L11.8-1.2c1-4.5,5-7.7,9.6-7.7
			s8.6,3.2,9.6,7.7l16.3,71.8c0.1,0.3,0,0.5-0.2,0.7C46.9,71.6,46.7,71.7,46.4,71.7z M-2.6,69.9h47.9L29.3-0.8
			c-0.8-3.7-4.1-6.3-7.9-6.3s-7,2.6-7.9,6.3L-2.6,69.9z"/>
		<g>
			<path id="矩形_2_" class="st5" d="M-10,65.4h62.6c2.5,0,4.5,2,4.5,4.5l0,0c0,2.5-2,4.5-4.5,4.5H-10c-2.5,0-4.5-2-4.5-4.5l0,0
				C-14.4,67.4-12.4,65.4-10,65.4z"/>
			<path class="st1" d="M52.7,75.3H-10c-3,0-5.4-2.4-5.4-5.4c0-3,2.4-5.4,5.4-5.4h62.6c3,0,5.4,2.4,5.4,5.4
				C58,72.9,55.6,75.3,52.7,75.3z M-10,66.3c-2,0-3.6,1.6-3.6,3.6s1.6,3.6,3.6,3.6h62.6c2,0,3.6-1.6,3.6-3.6s-1.6-3.6-3.6-3.6H-10z"
				/>
		</g>
	</g>
</g>
</svg>
